<?xml version="1.0" encoding="UTF-8"?><svg id="Layer_2" xmlns="http://www.w3.org/2000/svg" viewBox="0 0 705.56 270.71"><defs><style>.cls-1{fill:#e45197;}</style></defs><g id="Layer_1-2"><path class="cls-1" d="m224.44,110.12c20.19-36.5,40.37-73,60.56-109.5,20.92,36.5,41.84,73,62.76,109.5h-123.32Z"/><rect class="cls-1" x="347.37" y="157.97" width="24.96" height="111.19" transform="translate(719.69 427.12) rotate(180)"/><path class="cls-1" d="m66.13,158.3c30.87,0,55.9,25.03,55.9,55.9s-25.03,55.9-55.9,55.9"/><rect class="cls-1" x="19.82" y="158.61" width="24.96" height="111.19" transform="translate(-14.94 425.61) rotate(-158.83)"/><path d="m58.53,111.78c-8.49,0-16.28-1.37-23.36-4.11-7.09-2.74-13.27-6.65-18.55-11.72-5.28-5.07-9.37-10.97-12.26-17.7-2.9-6.73-4.35-14.18-4.35-22.36s1.45-15.63,4.35-22.35c2.9-6.73,7.01-12.63,12.34-17.7,5.33-5.07,11.54-8.98,18.63-11.72C42.41,1.37,50.3,0,58.99,0s17.36,1.5,24.76,4.5c7.4,3,13.63,7.4,18.71,13.2l-12.73,12.42c-4.24-4.24-8.83-7.37-13.74-9.39-4.92-2.02-10.32-3.03-16.22-3.03s-11.1.93-15.91,2.79c-4.81,1.86-8.98,4.5-12.5,7.92-3.52,3.42-6.26,7.45-8.23,12.11-1.97,4.66-2.95,9.78-2.95,15.37s.98,10.58,2.95,15.29c1.96,4.71,4.71,8.77,8.23,12.19,3.52,3.42,7.66,6.05,12.42,7.92,4.76,1.86,10.04,2.79,15.84,2.79,5.38,0,10.58-.85,15.6-2.56,5.02-1.71,9.8-4.58,14.36-8.62l11.33,15.06c-5.59,4.56-12.11,7.99-19.56,10.32-7.45,2.33-15.06,3.49-22.82,3.49Zm23.44-16.46v-40.52h18.94v43.16l-18.94-2.64Z"/><path d="m127.61,110.22V1.55h44.71c9.62,0,17.88,1.53,24.76,4.58,6.88,3.05,12.19,7.48,15.91,13.27,3.73,5.8,5.59,12.73,5.59,20.8s-1.86,14.8-5.59,20.49c-3.72,5.69-9.03,10.09-15.91,13.2-6.88,3.1-15.14,4.66-24.76,4.66h-33.38l8.85-9v40.67h-20.18Zm20.18-38.5l-8.85-9.78h32.45c8.9,0,15.6-1.91,20.1-5.74,4.5-3.83,6.75-9.16,6.75-15.99s-2.25-12.13-6.75-15.91c-4.5-3.78-11.21-5.67-20.1-5.67h-32.45l8.85-9.94v63.03Zm50.92,38.5l-27.48-39.43h21.58l27.63,39.43h-21.74Z"/><path d="m382.8,110.22h-20.18V1.55h79.33v17.08h-59.15v91.59Zm-1.55-58.53h54.03v16.77h-54.03v-16.77Z"/><path d="m458.88,110.22V1.55h20.18v108.67h-20.18Z"/><path d="m542.09,111.78c-8.49,0-16.58-1.22-24.3-3.65-7.71-2.43-13.89-5.56-18.55-9.39l6.99-15.68c4.35,3.42,9.73,6.26,16.15,8.54,6.41,2.28,12.99,3.42,19.71,3.42,5.69,0,10.3-.62,13.82-1.86,3.52-1.24,6.1-2.92,7.76-5.05,1.65-2.12,2.49-4.53,2.49-7.22,0-3.31-1.19-5.98-3.57-7.99-2.38-2.02-5.46-3.62-9.24-4.81-3.78-1.19-7.97-2.28-12.57-3.26-4.61-.98-9.21-2.2-13.82-3.65-4.61-1.45-8.82-3.28-12.65-5.51-3.83-2.23-6.91-5.2-9.24-8.93-2.33-3.73-3.49-8.48-3.49-14.28s1.58-11.31,4.73-16.22c3.16-4.91,7.97-8.85,14.44-11.8,6.47-2.95,14.67-4.42,24.61-4.42,6.52,0,12.99.83,19.41,2.48,6.41,1.66,12,4.04,16.77,7.14l-6.37,15.68c-4.87-2.9-9.88-5.05-15.06-6.44-5.18-1.4-10.14-2.1-14.9-2.1-5.49,0-9.99.67-13.51,2.02-3.52,1.35-6.08,3.13-7.68,5.36-1.61,2.23-2.41,4.68-2.41,7.37,0,3.31,1.16,5.98,3.49,7.99,2.33,2.02,5.38,3.6,9.16,4.73,3.78,1.14,7.99,2.23,12.65,3.26,4.66,1.03,9.26,2.25,13.81,3.65,4.56,1.4,8.75,3.21,12.58,5.43,3.83,2.23,6.91,5.18,9.24,8.85,2.33,3.67,3.49,8.36,3.49,14.05s-1.58,11.15-4.73,16.07c-3.16,4.92-7.99,8.85-14.51,11.8-6.52,2.95-14.75,4.42-24.68,4.42Z"/><path d="m606.05,110.22V1.55h20.18v108.67h-20.18Zm17.85-25.61l-.93-23.91L679.79,1.55h22.82l-47.35,50.3-11.18,12.26-20.18,20.49Zm57.91,25.61l-41.76-49.52,13.51-14.75,52.01,64.27h-23.75Z"/><path d="m167.51,252.08h61.32v17.08h-81.5v-108.67h79.33v17.08h-59.15v74.52Zm-1.55-46.42h54.03v16.61h-54.03v-16.61Z"/><path d="m287.66,270.71c-8.49,0-16.58-1.22-24.3-3.65-7.71-2.43-13.89-5.56-18.55-9.39l6.99-15.68c4.35,3.42,9.73,6.26,16.15,8.54,6.41,2.28,12.99,3.42,19.71,3.42,5.69,0,10.3-.62,13.82-1.86,3.52-1.24,6.1-2.92,7.76-5.05,1.65-2.12,2.49-4.53,2.49-7.22,0-3.31-1.19-5.98-3.57-7.99-2.38-2.02-5.46-3.62-9.24-4.81-3.78-1.19-7.97-2.28-12.57-3.26-4.61-.98-9.21-2.2-13.82-3.65-4.61-1.45-8.82-3.28-12.65-5.51-3.83-2.23-6.91-5.2-9.24-8.93-2.33-3.73-3.49-8.48-3.49-14.28s1.58-11.31,4.73-16.22c3.16-4.91,7.97-8.85,14.44-11.8,6.47-2.95,14.67-4.42,24.61-4.42,6.52,0,12.99.83,19.41,2.48,6.41,1.66,12,4.04,16.77,7.14l-6.37,15.68c-4.87-2.9-9.88-5.05-15.06-6.44-5.18-1.4-10.14-2.1-14.9-2.1-5.49,0-9.99.67-13.51,2.02-3.52,1.35-6.08,3.13-7.68,5.36-1.61,2.23-2.41,4.68-2.41,7.37,0,3.31,1.16,5.98,3.49,7.99,2.33,2.02,5.38,3.6,9.16,4.73,3.78,1.14,7.99,2.23,12.65,3.26,4.66,1.03,9.26,2.25,13.81,3.65,4.56,1.4,8.75,3.21,12.58,5.43,3.83,2.23,6.91,5.18,9.24,8.85,2.33,3.67,3.49,8.36,3.49,14.05s-1.58,11.15-4.73,16.07c-3.16,4.92-7.99,8.85-14.51,11.8-6.52,2.95-14.75,4.42-24.68,4.42Z"/><path d="m454.53,270.71c-8.49,0-16.28-1.37-23.36-4.11-7.09-2.74-13.27-6.65-18.55-11.72-5.28-5.07-9.37-10.97-12.26-17.7-2.9-6.73-4.35-14.18-4.35-22.36s1.45-15.63,4.35-22.35c2.9-6.73,7.01-12.63,12.34-17.7,5.33-5.07,11.54-8.98,18.63-11.72,7.09-2.74,14.98-4.11,23.67-4.11s17.36,1.5,24.76,4.5c7.4,3,13.63,7.4,18.71,13.2l-12.73,12.42c-4.24-4.24-8.83-7.37-13.74-9.39-4.92-2.02-10.32-3.03-16.22-3.03s-11.1.93-15.91,2.79c-4.81,1.86-8.98,4.5-12.5,7.92s-6.26,7.45-8.23,12.11c-1.97,4.66-2.95,9.78-2.95,15.37s.98,10.58,2.95,15.29c1.96,4.71,4.71,8.77,8.23,12.19,3.52,3.42,7.66,6.05,12.42,7.92,4.76,1.86,10.04,2.79,15.84,2.79,5.38,0,10.58-.85,15.6-2.56,5.02-1.71,9.8-4.58,14.36-8.62l11.33,15.06c-5.59,4.56-12.11,7.99-19.56,10.32-7.45,2.33-15.06,3.49-22.82,3.49Zm23.44-16.46v-40.52h18.94v43.16l-18.94-2.64Z"/><path d="m518.36,269.15v-108.67h16.61l68.15,83.83h-8.23v-83.83h19.87v108.67h-16.61l-68-83.83h8.23v83.83h-20.03Z"/></g></svg>