<svg width="1425" height="641" viewBox="0 0 1425 641" fill="none" xmlns="http://www.w3.org/2000/svg">
<g opacity="0.15">
<g clip-path="url(#clip0_694_5586)">
<path d="M545.667 17.3086C527.955 17.3086 513.594 31.6694 513.594 49.3818C513.594 67.0942 527.955 81.4495 545.667 81.4495C563.379 81.4495 577.74 67.0887 577.74 49.3818C577.74 31.6749 563.374 17.3086 545.667 17.3086ZM545.667 76.5291C530.67 76.5291 518.514 64.3734 518.514 49.3763C518.514 34.3792 530.67 22.229 545.667 22.229C560.664 22.229 572.82 34.3847 572.82 49.3818C572.82 64.3789 560.664 76.5345 545.667 76.5345V76.5291Z" fill="#CC5293"/>
<path d="M545.665 27.1934C533.411 27.1934 523.477 37.1274 523.477 49.3818C523.477 61.6362 533.411 71.5703 545.665 71.5703C557.919 71.5703 567.854 61.6362 567.854 49.3818C567.854 37.1274 557.919 27.1934 545.665 27.1934ZM545.665 66.9571C535.956 66.9571 528.09 59.091 528.09 49.3818C528.09 39.6727 535.956 31.8066 545.665 31.8066C555.374 31.8066 563.24 39.6727 563.24 49.3818C563.24 59.091 555.374 66.9571 545.665 66.9571Z" fill="#CC5293"/>
<path d="M545.667 62.3442C538.508 62.3442 532.699 56.5406 532.699 49.3767C532.699 42.2127 538.503 36.4092 545.667 36.4092C552.831 36.4092 558.634 42.2127 558.634 49.3767C558.634 56.5406 552.831 62.3442 545.667 62.3442Z" fill="white"/>
<path d="M545.667 36.4141C538.508 36.4141 532.699 42.2176 532.699 49.3816C532.699 56.5455 538.503 62.3491 545.667 62.3491C552.831 62.3491 558.634 56.5455 558.634 49.3816C558.634 42.2176 552.831 36.4141 545.667 36.4141ZM545.667 58.3118C540.73 58.3118 536.731 54.3129 536.731 49.3761C536.731 44.4392 540.73 40.4404 545.667 40.4404C550.604 40.4404 554.602 44.4392 554.602 49.3761C554.602 54.3129 550.604 58.3118 545.667 58.3118Z" fill="#CC5293"/>
</g>
<g clip-path="url(#clip1_694_5586)">
<path d="M1372.4 551.998C1354.69 551.998 1340.33 566.359 1340.33 584.071C1340.33 601.784 1354.69 616.139 1372.4 616.139C1390.11 616.139 1404.47 601.778 1404.47 584.071C1404.47 566.364 1390.11 551.998 1372.4 551.998ZM1372.4 611.219C1357.4 611.219 1345.25 599.063 1345.25 584.066C1345.25 569.069 1357.4 556.918 1372.4 556.918C1387.4 556.918 1399.55 569.074 1399.55 584.071C1399.55 599.068 1387.4 611.224 1372.4 611.224V611.219Z" fill="#CC5293"/>
</g>
<path d="M394.102 582.199C385.889 582.199 379.23 588.858 379.23 597.071C379.23 605.285 385.889 611.943 394.102 611.943C402.316 611.943 408.974 605.285 408.974 597.071C408.974 588.858 402.316 582.199 394.102 582.199ZM394.102 608.851C387.595 608.851 382.323 603.579 382.323 597.071C382.323 590.564 387.595 585.291 394.102 585.291C400.61 585.291 405.882 590.564 405.882 597.071C405.882 603.579 400.61 608.851 394.102 608.851Z" fill="#D95C95"/>
<path d="M394.104 607.091C388.572 607.091 384.082 602.605 384.082 597.068C384.082 591.531 388.567 587.046 394.104 587.046C399.641 587.046 404.127 591.531 404.127 597.068C404.127 602.605 399.641 607.091 394.104 607.091Z" fill="white"/>
<circle cx="394.105" cy="597.07" r="11.8976" fill="#D95C95"/>
<path d="M1234.43 442.746C1227.7 442.746 1222.25 448.199 1222.25 454.925C1222.25 461.651 1227.7 467.103 1234.43 467.103C1241.15 467.103 1246.61 461.651 1246.61 454.925C1246.61 448.199 1241.15 442.746 1234.43 442.746ZM1234.43 464.571C1229.1 464.571 1224.78 460.254 1224.78 454.925C1224.78 449.596 1229.1 445.278 1234.43 445.278C1239.76 445.278 1244.08 449.596 1244.08 454.925C1244.08 460.254 1239.76 464.571 1234.43 464.571Z" fill="#D95C95"/>
<path d="M1234.43 463.13C1229.9 463.13 1226.23 459.457 1226.23 454.923C1226.23 450.389 1229.9 446.716 1234.43 446.716C1238.97 446.716 1242.64 450.389 1242.64 454.923C1242.64 459.457 1238.97 463.13 1234.43 463.13Z" fill="white"/>
<circle cx="1234.43" cy="454.925" r="9.74292" fill="#D95C95"/>
<path d="M19.9395 296.004C30.7101 296.004 39.4414 287.224 39.4414 276.394C39.4414 265.564 30.7101 256.784 19.9395 256.784C9.16883 256.784 0.4375 265.564 0.4375 276.394C0.4375 287.224 9.16883 296.004 19.9395 296.004Z" fill="#D95C95"/>
<path d="M1085.19 590.77L1049.19 626.772C1048.06 627.882 1046.54 628.505 1044.96 628.505C1043.38 628.505 1041.86 627.882 1040.73 626.772L1008.96 594.999C1007.85 593.871 1007.22 592.352 1007.22 590.77C1007.22 589.187 1007.85 587.668 1008.96 586.541L1044.96 550.539L1085.19 590.77Z" stroke="#D95C95" stroke-width="5" stroke-linecap="round" stroke-linejoin="round"/>
<path d="M1048.14 595.447C1052.27 595.447 1055.63 592.096 1055.63 587.962C1055.63 583.829 1052.27 580.478 1048.14 580.478C1044.01 580.478 1040.66 583.829 1040.66 587.962C1040.66 592.096 1044.01 595.447 1048.14 595.447Z" stroke="#D95C95" stroke-width="5" stroke-linecap="round" stroke-linejoin="round"/>
<path d="M1079.58 620.895C1079.58 613.411 1087.06 605.926 1087.06 605.926C1087.06 605.926 1094.55 613.411 1094.55 620.895C1094.55 622.88 1093.76 624.784 1092.36 626.188C1090.95 627.592 1089.05 628.38 1087.06 628.38C1085.08 628.38 1083.17 627.592 1081.77 626.188C1080.37 624.784 1079.58 622.88 1079.58 620.895Z" stroke="#D95C95" stroke-width="5" stroke-linecap="round" stroke-linejoin="round"/>
<path d="M1042.86 582.685L1015.91 555.74" stroke="#D95C95" stroke-width="5" stroke-linecap="round" stroke-linejoin="round"/>
<path d="M187 458.893H203.001C205.287 458.893 207.521 458.216 209.422 456.946C211.322 455.676 212.804 453.871 213.678 451.759C214.553 449.648 214.782 447.324 214.336 445.082C213.89 442.841 212.789 440.781 211.173 439.165C209.557 437.549 207.498 436.448 205.256 436.002C203.014 435.556 200.691 435.785 198.579 436.66C196.467 437.535 194.662 439.016 193.392 440.916C192.123 442.817 191.445 445.051 191.445 447.337C191.445 455.338 187 458.893 187 458.893Z" stroke="#D95C95" stroke-width="4" stroke-linecap="round" stroke-linejoin="round"/>
<path d="M207.535 436.714C211.802 430.958 222.648 417.779 232.56 417.779C232.56 427.691 219.381 438.537 213.625 442.804" stroke="#D95C95" stroke-width="4" stroke-linecap="round" stroke-linejoin="round"/>
<path d="M212.113 431.026C215.125 432.726 217.614 435.216 219.314 438.227" stroke="#D95C95" stroke-width="4" stroke-linecap="round" stroke-linejoin="round"/>
<path d="M952.015 28.3095C961.301 42.4562 956.996 61.9455 942.474 71.4778C927.953 81.0101 908.362 77.213 899.073 63.062L952.015 28.3095Z" fill="#D95C95"/>
<path d="M1366.83 312.949C1363.72 299.391 1371.56 284.938 1385.46 280.047C1399.36 275.155 1414.53 281.506 1420.59 294.031L1366.83 312.949Z" fill="#D95C95" stroke="#D95C95" stroke-width="6"/>
<path d="M91.0855 68.0106C90.8451 67.2679 90.7541 66.485 90.8179 65.707C90.8816 64.9291 91.0988 64.1714 91.4569 63.4778C91.815 62.7841 92.3068 62.1683 92.9042 61.6658C93.5015 61.1632 94.1924 60.7839 94.937 60.5498L126.989 50.3236L114.958 12.6157L82.9062 22.8419C82.1616 23.076 81.4707 23.4553 80.8734 23.9579C80.2761 24.4604 79.7842 25.0763 79.4261 25.7699C79.068 26.4635 78.8509 27.2212 78.7871 27.9991C78.7234 28.7771 78.8143 29.56 79.0547 30.3027L91.0855 68.0106Z" stroke="#D95C95" stroke-width="4" stroke-linecap="round" stroke-linejoin="round"/>
<path d="M91.0859 68.0107L91.6875 69.8961L125.625 59.0684" stroke="#D95C95" stroke-width="4" stroke-linecap="round" stroke-linejoin="round"/>
<path d="M1398.49 57.5248C1399.12 54.7535 1399.42 51.9181 1399.4 49.0759C1399.25 28.9431 1382.58 12.6541 1362.48 12.8444C1353.9 12.9349 1345.62 16.0456 1339.1 21.6307C1332.58 27.2158 1328.23 34.9186 1326.83 43.3875C1325.42 51.8565 1327.04 60.5507 1331.4 67.9447C1335.76 75.3387 1342.59 80.9603 1350.68 83.8231C1352.06 84.3191 1353.54 84.4756 1354.99 84.2792C1356.44 84.0829 1357.82 83.5396 1359.01 82.6953C1360.21 81.8511 1361.18 80.7309 1361.85 79.4299C1362.52 78.1288 1362.87 76.6853 1362.86 75.2219V73.7377C1362.86 72.5368 1363.09 71.3468 1363.55 70.2363C1364.01 69.1258 1364.68 68.1169 1365.53 67.2677C1366.38 66.4186 1367.39 65.746 1368.5 65.2887C1369.61 64.8315 1370.8 64.5986 1372 64.6037H1389.58C1391.65 64.605 1393.65 63.9057 1395.27 62.62C1396.89 61.3343 1398.02 59.5381 1398.49 57.5248Z" stroke="#D95C95" stroke-width="4" stroke-linecap="round" stroke-linejoin="round"/>
<path d="M1362.86 34.1584C1365.39 34.1584 1367.43 32.1137 1367.43 29.5914C1367.43 27.0691 1365.39 25.0244 1362.86 25.0244C1360.34 25.0244 1358.3 27.0691 1358.3 29.5914C1358.3 32.1137 1360.34 34.1584 1362.86 34.1584Z" fill="#D95C95"/>
<path d="M1345.73 44.0539C1348.26 44.0539 1350.3 42.0092 1350.3 39.4869C1350.3 36.9646 1348.26 34.9199 1345.73 34.9199C1343.21 34.9199 1341.17 36.9646 1341.17 39.4869C1341.17 42.0092 1343.21 44.0539 1345.73 44.0539Z" fill="#D95C95"/>
<path d="M1345.73 63.8439C1348.26 63.8439 1350.3 61.7992 1350.3 59.277C1350.3 56.7547 1348.26 54.71 1345.73 54.71C1343.21 54.71 1341.17 56.7547 1341.17 59.277C1341.17 61.7992 1343.21 63.8439 1345.73 63.8439Z" fill="#D95C95"/>
<path d="M1379.99 44.0539C1382.51 44.0539 1384.56 42.0092 1384.56 39.4869C1384.56 36.9646 1382.51 34.9199 1379.99 34.9199C1377.47 34.9199 1375.42 36.9646 1375.42 39.4869C1375.42 42.0092 1377.47 44.0539 1379.99 44.0539Z" fill="#D95C95"/>
<path d="M65.1663 637.966C58.4609 637.966 53.0195 632.53 53.0195 625.82C53.0195 619.109 58.4558 613.673 65.1663 613.673C71.8768 613.673 77.3131 619.109 77.3131 625.82C77.3131 632.53 71.8768 637.966 65.1663 637.966Z" fill="white"/>
<path fill-rule="evenodd" clip-rule="evenodd" d="M40.995 606.877C45.8057 603.696 52.346 604.226 56.5799 608.46C60.817 612.697 61.3446 619.235 58.1627 624.045L55.3564 621.239C57.0832 618.009 56.5843 613.904 53.8598 611.18C51.1353 608.455 47.0309 607.956 43.801 609.683L40.995 606.877Z" fill="#CC5293"/>
<path fill-rule="evenodd" clip-rule="evenodd" d="M34.6935 600.574C43.014 593.997 55.1266 594.55 62.8094 602.233C70.4922 609.916 71.0453 622.029 64.4685 630.349L61.3247 627.205C66.1975 620.631 65.6535 611.31 59.6928 605.35C53.7322 599.389 44.4113 598.845 37.8373 603.718L34.6935 600.574Z" fill="#CC5293"/>
<path fill-rule="evenodd" clip-rule="evenodd" d="M27.9846 593.864C40.0235 583.619 58.1149 584.182 69.4878 595.555C80.857 606.924 81.4207 625.022 71.1789 637.058L67.8419 633.721C76.2605 623.53 75.7011 608.417 66.1637 598.879C56.6251 589.341 41.5123 588.779 31.3212 597.201L27.9846 593.864Z" fill="#CC5293"/>
<g clip-path="url(#clip2_694_5586)">
<path d="M302.832 102.883C299.868 101.172 296.462 100.377 293.047 100.601C289.631 100.825 286.358 102.057 283.643 104.141C280.927 106.225 278.89 109.067 277.79 112.308C276.69 115.55 276.575 119.044 277.461 122.351C278.347 125.657 280.194 128.627 282.767 130.883C285.341 133.14 288.526 134.584 291.92 135.03C295.313 135.477 298.763 134.908 301.833 133.394C304.903 131.88 307.455 129.489 309.167 126.525C311.457 122.549 312.076 117.826 310.889 113.394C309.701 108.962 306.804 105.182 302.832 102.883ZM302.623 105.908C303.362 106.43 304.051 107.02 304.679 107.672L290.592 132.071C289.714 131.852 288.858 131.551 288.037 131.172L302.623 105.908ZM306.464 109.905C307.043 110.8 307.522 111.756 307.893 112.755L296.605 132.306C295.554 132.485 294.487 132.548 293.422 132.494L306.464 109.905ZM281.496 110.549C283.326 107.389 286.269 105.025 289.751 103.92C293.232 102.815 297 103.049 300.317 104.577L285.734 129.835C282.753 127.725 280.666 124.579 279.882 121.012C279.098 117.445 279.674 113.714 281.496 110.549ZM300.35 131.146L308.76 116.578C309.03 119.577 308.366 122.586 306.861 125.194C305.356 127.801 303.082 129.88 300.35 131.146Z" fill="#D95C95"/>
</g>
<path d="M1157.31 120.154C1157.08 119.902 1156.79 119.718 1156.47 119.625C1156.14 119.532 1155.8 119.533 1155.48 119.629C1155.15 119.724 1154.86 119.909 1154.64 120.163C1154.42 120.417 1154.27 120.729 1154.22 121.062L1149.11 154.063C1149.07 154.294 1149.08 154.529 1149.14 154.756C1149.19 154.983 1149.29 155.197 1149.43 155.385C1149.71 155.765 1150.12 156.02 1150.59 156.092C1151.06 156.164 1151.53 156.048 1151.91 155.77C1152.29 155.491 1152.55 155.073 1152.62 154.607L1153.95 146.017L1171.05 140.989L1176.82 147.49C1176.97 147.665 1177.16 147.807 1177.37 147.909C1177.58 148.011 1177.81 148.071 1178.04 148.085C1178.27 148.099 1178.51 148.067 1178.73 147.99C1178.95 147.914 1179.15 147.795 1179.33 147.64C1179.5 147.485 1179.64 147.297 1179.74 147.087C1179.85 146.877 1179.91 146.649 1179.92 146.416C1179.93 146.183 1179.9 145.95 1179.83 145.729C1179.75 145.509 1179.63 145.305 1179.48 145.131L1157.31 120.154ZM1154.55 142.134L1157.16 125.34L1168.44 138.051L1154.55 142.134ZM1184.06 122.338C1181.34 123.138 1179.44 124.503 1178.4 126.395C1178.18 126.807 1178.14 127.286 1178.27 127.729C1178.41 128.173 1178.71 128.547 1179.11 128.77C1179.52 128.994 1180 129.051 1180.45 128.927C1180.89 128.804 1181.27 128.511 1181.51 128.111C1182.08 127.069 1183.28 126.273 1185.07 125.748C1187.89 124.919 1190.75 126.162 1191.44 128.507L1191.64 129.193C1189.83 128.626 1187.89 128.614 1186.07 129.159C1181.37 130.542 1178.56 135.109 1179.8 139.34C1181.05 143.571 1185.88 145.889 1190.58 144.506C1192.41 143.978 1194.03 142.916 1195.25 141.456C1195.4 141.902 1195.72 142.268 1196.15 142.475C1196.57 142.681 1197.06 142.71 1197.51 142.556C1197.95 142.402 1198.32 142.077 1198.53 141.652C1198.73 141.228 1198.76 140.739 1198.61 140.293L1194.85 127.504C1193.6 123.273 1188.77 120.955 1184.06 122.338ZM1189.58 141.095C1186.76 141.925 1183.9 140.682 1183.21 138.337C1182.52 135.992 1184.25 133.399 1187.07 132.569C1189.89 131.74 1192.75 132.983 1193.44 135.328C1194.13 137.672 1192.4 140.266 1189.58 141.095Z" fill="#D95C95"/>
</g>
<defs>
<clipPath id="clip0_694_5586">
<rect width="64.1409" height="64.1409" fill="white" transform="translate(513.594 17.3086)"/>
</clipPath>
<clipPath id="clip1_694_5586">
<rect width="64.1409" height="64.1409" fill="white" transform="translate(1340.33 551.998)"/>
</clipPath>
<clipPath id="clip2_694_5586">
<rect width="42.6019" height="42.6019" fill="white" transform="translate(286.383 88.7734) rotate(30)"/>
</clipPath>
</defs>
</svg>
