<svg width="1785" height="785" viewBox="0 0 1785 785" fill="none" xmlns="http://www.w3.org/2000/svg">
<g opacity="0.15">
<g clip-path="url(#clip0_694_5645)">
<path d="M690.289 23.9414C668.473 23.9414 650.785 41.6291 650.785 63.4448C650.785 85.2605 668.473 102.941 690.289 102.941C712.104 102.941 729.792 85.2537 729.792 63.4448C729.792 41.6358 712.097 23.9414 690.289 23.9414ZM690.289 96.8811C671.817 96.8811 656.845 81.9094 656.845 63.438C656.845 44.9666 671.817 30.0017 690.289 30.0017C708.76 30.0017 723.732 44.9734 723.732 63.4448C723.732 81.9162 708.76 96.8879 690.289 96.8879V96.8811Z" fill="#CC5293"/>
<path d="M690.29 36.1152C675.196 36.1152 662.961 48.3507 662.961 63.444C662.961 78.5373 675.196 90.7727 690.29 90.7727C705.383 90.7727 717.618 78.5373 717.618 63.444C717.618 48.3507 705.383 36.1152 690.29 36.1152ZM690.29 85.0908C678.331 85.0908 668.643 75.4024 668.643 63.444C668.643 51.4855 678.331 41.7972 690.29 41.7972C702.248 41.7972 711.936 51.4855 711.936 63.444C711.936 75.4024 702.248 85.0908 690.29 85.0908Z" fill="#CC5293"/>
<path d="M690.288 79.41C681.471 79.41 674.316 72.262 674.316 63.4384C674.316 54.6148 681.464 47.4668 690.288 47.4668C699.112 47.4668 706.26 54.6148 706.26 63.4384C706.26 72.262 699.112 79.41 690.288 79.41Z" fill="white"/>
<path d="M690.288 47.4727C681.471 47.4727 674.316 54.6207 674.316 63.4443C674.316 72.2678 681.464 79.4159 690.288 79.4159C699.112 79.4159 706.26 72.2678 706.26 63.4443C706.26 54.6207 699.112 47.4727 690.288 47.4727ZM690.288 74.4433C684.207 74.4433 679.282 69.5181 679.282 63.4375C679.282 57.3569 684.207 52.4317 690.288 52.4317C696.369 52.4317 701.294 57.3569 701.294 63.4375C701.294 69.5181 696.369 74.4433 690.288 74.4433Z" fill="#CC5293"/>
</g>
<g clip-path="url(#clip1_694_5645)">
<path d="M1695.04 686.773C1673.23 686.773 1655.54 704.461 1655.54 726.277C1655.54 748.093 1673.23 765.773 1695.04 765.773C1716.86 765.773 1734.55 748.086 1734.55 726.277C1734.55 704.468 1716.85 686.773 1695.04 686.773ZM1695.04 759.713C1676.57 759.713 1661.6 744.741 1661.6 726.27C1661.6 707.799 1676.57 692.834 1695.04 692.834C1713.51 692.834 1728.49 707.805 1728.49 726.277C1728.49 744.748 1713.51 759.72 1695.04 759.72V759.713Z" fill="#CC5293"/>
</g>
<path d="M500.738 691.775C491.09 691.775 483.27 699.596 483.27 709.244C483.27 718.892 491.09 726.712 500.738 726.712C510.386 726.712 518.207 718.892 518.207 709.244C518.207 699.596 510.386 691.775 500.738 691.775ZM500.738 723.081C493.094 723.081 486.901 716.888 486.901 709.244C486.901 701.6 493.094 695.407 500.738 695.407C508.382 695.407 514.575 701.6 514.575 709.244C514.575 716.888 508.382 723.081 500.738 723.081Z" fill="#D95C95"/>
<path d="M500.741 721.014C494.242 721.014 488.969 715.746 488.969 709.242C488.969 702.738 494.237 697.47 500.741 697.47C507.245 697.47 512.513 702.738 512.513 709.242C512.513 715.746 507.245 721.014 500.741 721.014Z" fill="white"/>
<circle cx="500.74" cy="709.244" r="13.9748" fill="#D95C95"/>
<path d="M1546.65 552.695C1538.36 552.695 1531.65 559.411 1531.65 567.695C1531.65 575.98 1538.36 582.695 1546.65 582.695C1554.93 582.695 1561.65 575.98 1561.65 567.695C1561.65 559.411 1554.93 552.695 1546.65 552.695ZM1546.65 579.577C1540.08 579.577 1534.77 574.259 1534.77 567.695C1534.77 561.132 1540.08 555.814 1546.65 555.814C1553.21 555.814 1558.53 561.132 1558.53 567.695C1558.53 574.259 1553.21 579.577 1546.65 579.577Z" fill="#D95C95"/>
<path d="M1546.65 577.802C1541.07 577.802 1536.54 573.278 1536.54 567.694C1536.54 562.109 1541.07 557.585 1546.65 557.585C1552.24 557.585 1556.76 562.109 1556.76 567.694C1556.76 573.278 1552.24 577.802 1546.65 577.802Z" fill="white"/>
<circle cx="1546.65" cy="567.695" r="12" fill="#D95C95"/>
<path d="M24.5433 357.883C37.8091 357.883 48.5632 347.07 48.5632 333.731C48.5632 320.392 37.8091 309.578 24.5433 309.578C11.2775 309.578 0.523438 320.392 0.523438 333.731C0.523438 347.07 11.2775 357.883 24.5433 357.883Z" fill="#D95C95"/>
<path d="M1333.79 707.605L1289.45 751.948C1288.06 753.316 1286.19 754.083 1284.24 754.083C1282.29 754.083 1280.42 753.316 1279.03 751.948L1239.9 712.814C1238.53 711.426 1237.76 709.555 1237.76 707.605C1237.76 705.656 1238.53 703.785 1239.9 702.397L1284.24 658.055L1333.79 707.605Z" stroke="#D95C95" stroke-width="5" stroke-linecap="round" stroke-linejoin="round"/>
<path d="M1288.16 713.367C1293.25 713.367 1297.38 709.24 1297.38 704.148C1297.38 699.057 1293.25 694.93 1288.16 694.93C1283.06 694.93 1278.94 699.057 1278.94 704.148C1278.94 709.24 1283.06 713.367 1288.16 713.367Z" stroke="#D95C95" stroke-width="5" stroke-linecap="round" stroke-linejoin="round"/>
<path d="M1326.88 744.711C1326.88 735.492 1336.09 726.273 1336.09 726.273C1336.09 726.273 1345.31 735.492 1345.31 744.711C1345.31 747.156 1344.34 749.501 1342.61 751.23C1340.88 752.958 1338.54 753.93 1336.09 753.93C1333.65 753.93 1331.3 752.958 1329.58 751.23C1327.85 749.501 1326.88 747.156 1326.88 744.711Z" stroke="#D95C95" stroke-width="5" stroke-linecap="round" stroke-linejoin="round"/>
<path d="M1281.65 697.649L1248.46 664.462" stroke="#D95C95" stroke-width="5" stroke-linecap="round" stroke-linejoin="round"/>
<path d="M226.723 529.855H246.431C249.246 529.855 251.998 529.021 254.339 527.457C256.68 525.892 258.504 523.669 259.581 521.069C260.659 518.468 260.941 515.606 260.391 512.845C259.842 510.084 258.486 507.547 256.496 505.557C254.505 503.566 251.969 502.21 249.208 501.661C246.447 501.112 243.585 501.394 240.984 502.471C238.383 503.549 236.16 505.373 234.596 507.714C233.032 510.054 232.197 512.806 232.197 515.622C232.197 525.476 226.723 529.855 226.723 529.855Z" stroke="#D95C95" stroke-width="4" stroke-linecap="round" stroke-linejoin="round"/>
<path d="M252.016 502.537C257.271 495.448 270.629 479.216 282.837 479.216C282.837 491.424 266.605 504.782 259.516 510.038" stroke="#D95C95" stroke-width="4" stroke-linecap="round" stroke-linejoin="round"/>
<path d="M257.656 495.53C261.365 497.623 264.432 500.69 266.525 504.399" stroke="#D95C95" stroke-width="4" stroke-linecap="round" stroke-linejoin="round"/>
<path d="M1211.57 22.6293C1223.01 40.0534 1217.7 64.0576 1199.82 75.7982C1181.93 87.5388 1157.8 82.862 1146.36 65.4327L1211.57 22.6293Z" fill="#D95C95"/>
<path d="M1709.29 392.883C1710.88 375.136 1726.39 360.883 1745.16 360.883C1763.92 360.883 1779.44 375.131 1781.02 392.883H1709.29Z" fill="#D95C95" stroke="#D95C95" stroke-width="6"/>
<path d="M127.943 82.6932C127.647 81.7785 127.535 80.8142 127.613 79.856C127.692 78.8978 127.959 77.9646 128.4 77.1103C128.841 76.256 129.447 75.4975 130.183 74.8785C130.919 74.2596 131.77 73.7924 132.687 73.504L172.164 60.9088L157.346 14.4654L117.869 27.0606C116.952 27.349 116.101 27.8161 115.365 28.4351C114.629 29.054 114.024 29.8125 113.583 30.6669C113.142 31.5212 112.874 32.4543 112.796 33.4126C112.717 34.3708 112.829 35.3351 113.125 36.2498L127.943 82.6932Z" stroke="#D95C95" stroke-width="4" stroke-linecap="round" stroke-linejoin="round"/>
<path d="M127.941 82.6924L128.682 85.0146L170.481 71.6785" stroke="#D95C95" stroke-width="4" stroke-linecap="round" stroke-linejoin="round"/>
<path d="M1718.41 79.3868C1719.19 75.9735 1719.57 72.4812 1719.54 68.9806C1719.35 44.1837 1698.82 24.1212 1674.07 24.3555C1663.5 24.467 1653.3 28.2984 1645.27 35.1773C1637.24 42.0563 1631.89 51.5435 1630.15 61.9744C1628.42 72.4053 1630.41 83.1136 1635.79 92.2206C1641.16 101.328 1649.57 108.251 1659.54 111.777C1661.23 112.388 1663.05 112.581 1664.84 112.339C1666.62 112.097 1668.32 111.428 1669.8 110.388C1671.27 109.349 1672.47 107.969 1673.29 106.366C1674.12 104.764 1674.55 102.986 1674.54 101.184V99.3556C1674.53 97.8764 1674.82 96.4108 1675.38 95.043C1675.94 93.6753 1676.77 92.4327 1677.82 91.3868C1678.86 90.3409 1680.11 89.5124 1681.47 88.9493C1682.84 88.3861 1684.31 88.0994 1685.79 88.1056H1707.44C1709.99 88.1072 1712.46 87.2459 1714.45 85.6623C1716.44 84.0787 1717.84 81.8665 1718.41 79.3868Z" stroke="#D95C95" stroke-width="4" stroke-linecap="round" stroke-linejoin="round"/>
<path d="M1674.54 50.6055C1677.65 50.6055 1680.16 48.0871 1680.16 44.9805C1680.16 41.8739 1677.65 39.3555 1674.54 39.3555C1671.43 39.3555 1668.91 41.8739 1668.91 44.9805C1668.91 48.0871 1671.43 50.6055 1674.54 50.6055Z" fill="#D95C95"/>
<path d="M1653.45 62.793C1656.55 62.793 1659.07 60.2746 1659.07 57.168C1659.07 54.0614 1656.55 51.543 1653.45 51.543C1650.34 51.543 1647.82 54.0614 1647.82 57.168C1647.82 60.2746 1650.34 62.793 1653.45 62.793Z" fill="#D95C95"/>
<path d="M1653.45 87.168C1656.55 87.168 1659.07 84.6496 1659.07 81.543C1659.07 78.4364 1656.55 75.918 1653.45 75.918C1650.34 75.918 1647.82 78.4364 1647.82 81.543C1647.82 84.6496 1650.34 87.168 1653.45 87.168Z" fill="#D95C95"/>
<path d="M1695.63 62.793C1698.74 62.793 1701.26 60.2746 1701.26 57.168C1701.26 54.0614 1698.74 51.543 1695.63 51.543C1692.53 51.543 1690.01 54.0614 1690.01 57.168C1690.01 60.2746 1692.53 62.793 1695.63 62.793Z" fill="#D95C95"/>
<path d="M96.0076 784.687C87.7488 784.687 81.0469 777.991 81.0469 769.726C81.0469 761.461 87.7425 754.766 96.0076 754.766C104.273 754.766 110.968 761.461 110.968 769.726C110.968 777.991 104.273 784.687 96.0076 784.687Z" fill="white"/>
<path fill-rule="evenodd" clip-rule="evenodd" d="M56.8313 732.322C62.7564 728.405 70.8109 729.058 76.0252 734.272C81.2435 739.491 81.8936 747.542 77.9756 753.466L74.5192 750.01C76.645 746.032 76.0303 740.978 72.675 737.622C69.3198 734.267 64.2654 733.652 60.2875 735.778L56.8313 732.322Z" fill="#CC5293"/>
<path fill-rule="evenodd" clip-rule="evenodd" d="M49.0678 724.559C59.316 716.456 74.2365 717.137 83.7 726.6C93.1635 736.064 93.8439 750.984 85.7413 761.233L81.8692 757.36C87.8731 749.263 87.2039 737.781 79.8614 730.439C72.519 723.097 61.037 722.427 52.9399 728.431L49.0678 724.559Z" fill="#CC5293"/>
<path fill-rule="evenodd" clip-rule="evenodd" d="M40.8044 716.295C55.6323 703.674 77.9165 704.368 91.9249 718.376C105.929 732.38 106.622 754.672 94.0056 769.496L89.8957 765.387C100.267 752.834 99.5783 734.218 87.8307 722.47C76.0815 710.721 57.466 710.03 44.9139 720.405L40.8044 716.295Z" fill="#CC5293"/>
<g clip-path="url(#clip2_694_5645)">
<path d="M416.324 123.469C412.673 121.361 408.478 120.383 404.271 120.659C400.065 120.934 396.034 122.451 392.689 125.018C389.344 127.584 386.836 131.085 385.48 135.077C384.125 139.07 383.984 143.374 385.076 147.446C386.167 151.519 388.441 155.176 391.611 157.956C394.78 160.736 398.703 162.513 402.883 163.063C407.063 163.614 411.312 162.912 415.094 161.047C418.875 159.183 422.018 156.239 424.126 152.588C426.947 147.69 427.71 141.874 426.247 136.415C424.784 130.956 421.215 126.3 416.324 123.469ZM416.066 127.194C416.977 127.837 417.825 128.564 418.599 129.367L401.249 159.418C400.167 159.149 399.113 158.778 398.101 158.311L416.066 127.194ZM420.797 132.118C421.51 133.22 422.101 134.397 422.557 135.628L408.655 159.709C407.36 159.928 406.046 160.006 404.734 159.94L420.797 132.118ZM390.045 132.911C392.299 129.018 395.924 126.106 400.212 124.746C404.499 123.385 409.14 123.674 413.226 125.555L395.265 156.664C391.593 154.066 389.023 150.191 388.057 145.798C387.092 141.405 387.801 136.809 390.045 132.911ZM413.267 158.279L423.626 140.337C423.957 144.03 423.14 147.736 421.286 150.948C419.432 154.159 416.631 156.72 413.267 158.279Z" fill="#D95C95"/>
</g>
<path d="M1449.97 197.886C1449.7 197.575 1449.34 197.349 1448.94 197.234C1448.54 197.119 1448.12 197.121 1447.72 197.238C1447.32 197.355 1446.96 197.584 1446.69 197.896C1446.42 198.209 1446.24 198.593 1446.17 199.004L1439.87 239.65C1439.83 239.934 1439.84 240.224 1439.91 240.504C1439.98 240.783 1440.1 241.046 1440.27 241.278C1440.61 241.747 1441.13 242.06 1441.7 242.149C1442.28 242.237 1442.86 242.095 1443.33 241.752C1443.8 241.409 1444.11 240.894 1444.2 240.32L1445.84 229.74L1466.9 223.547L1474 231.554C1474.19 231.769 1474.42 231.944 1474.68 232.07C1474.94 232.196 1475.22 232.269 1475.51 232.287C1475.8 232.304 1476.08 232.264 1476.36 232.17C1476.63 232.076 1476.88 231.93 1477.09 231.739C1477.31 231.548 1477.48 231.317 1477.61 231.058C1477.74 230.8 1477.81 230.519 1477.83 230.232C1477.84 229.945 1477.8 229.657 1477.71 229.385C1477.62 229.114 1477.47 228.863 1477.28 228.648L1449.97 197.886ZM1446.58 224.958L1449.79 204.273L1463.68 219.928L1446.58 224.958ZM1482.93 200.575C1479.58 201.56 1477.23 203.241 1475.95 205.572C1475.68 206.079 1475.63 206.669 1475.8 207.215C1475.96 207.762 1476.33 208.222 1476.83 208.498C1477.33 208.773 1477.92 208.843 1478.47 208.691C1479.02 208.539 1479.49 208.178 1479.78 207.685C1480.49 206.402 1481.97 205.422 1484.16 204.776C1487.64 203.754 1491.16 205.285 1492.01 208.173L1492.26 209.018C1490.03 208.32 1487.64 208.305 1485.4 208.976C1479.61 210.68 1476.15 216.305 1477.68 221.516C1479.21 226.727 1485.17 229.582 1490.96 227.878C1493.21 227.228 1495.21 225.92 1496.7 224.122C1496.89 224.671 1497.29 225.123 1497.81 225.377C1498.34 225.631 1498.94 225.667 1499.49 225.477C1500.04 225.287 1500.49 224.887 1500.74 224.364C1501 223.841 1501.03 223.239 1500.84 222.689L1496.21 206.938C1494.68 201.726 1488.72 198.872 1482.93 200.575ZM1489.72 223.678C1486.25 224.699 1482.73 223.168 1481.88 220.281C1481.03 217.393 1483.16 214.198 1486.64 213.177C1490.11 212.155 1493.63 213.686 1494.48 216.574C1495.33 219.462 1493.2 222.656 1489.72 223.678Z" fill="#D95C95"/>
</g>
<defs>
<clipPath id="clip0_694_5645">
<rect width="79" height="79" fill="white" transform="translate(650.785 23.9414)"/>
</clipPath>
<clipPath id="clip1_694_5645">
<rect width="79" height="79" fill="white" transform="translate(1655.54 686.773)"/>
</clipPath>
<clipPath id="clip2_694_5645">
<rect width="52.4713" height="52.4713" fill="white" transform="translate(396.062 106.091) rotate(30)"/>
</clipPath>
</defs>
</svg>
