<svg width="462" height="646" viewBox="0 0 462 646" fill="none" xmlns="http://www.w3.org/2000/svg">
<g opacity="0.15">
<path d="M24.5944 493.319C16.252 479.906 19.5067 461.516 32.7223 451.338C45.9384 441.16 64.5476 442.707 75.3872 454.203L24.5944 493.319Z" fill="#D95C95" stroke="#D95C95" stroke-width="6"/>
<path fill-rule="evenodd" clip-rule="evenodd" d="M164.018 520.024C169.943 516.106 177.998 516.759 183.213 521.974C188.432 527.192 189.081 535.245 185.162 541.169L181.706 537.713C183.833 533.735 183.218 528.68 179.863 525.324C176.507 521.968 171.452 521.354 167.474 523.481L164.018 520.024Z" fill="#CC5293"/>
<path fill-rule="evenodd" clip-rule="evenodd" d="M156.258 512.267C166.506 504.163 181.428 504.843 190.892 514.307C200.356 523.771 201.036 538.692 192.932 548.94L189.06 545.068C195.065 536.971 194.396 525.488 187.053 518.145C179.71 510.802 168.227 510.133 160.13 516.139L156.258 512.267Z" fill="#CC5293"/>
<path fill-rule="evenodd" clip-rule="evenodd" d="M147.994 504.003C162.822 491.38 185.107 492.073 199.116 506.082C213.121 520.087 213.814 542.38 201.196 557.204L197.086 553.095C207.458 540.542 206.77 521.925 195.022 510.176C183.273 498.427 164.656 497.736 152.104 508.112L147.994 504.003Z" fill="#CC5293"/>
<path d="M110 10.4805C101.716 10.4805 95 17.1962 95 25.4805C95 33.7648 101.716 40.4805 110 40.4805C118.284 40.4805 125 33.7648 125 25.4805C125 17.1962 118.284 10.4805 110 10.4805ZM110 37.3618C103.436 37.3618 98.1187 32.0441 98.1187 25.4805C98.1187 18.9168 103.436 13.5991 110 13.5991C116.564 13.5991 121.881 18.9168 121.881 25.4805C121.881 32.0441 116.564 37.3618 110 37.3618Z" fill="#D95C95"/>
<path d="M109.999 35.5883C104.419 35.5883 99.8906 31.0642 99.8906 25.4797C99.8906 19.8952 104.415 15.3711 109.999 15.3711C115.584 15.3711 120.108 19.8952 120.108 25.4797C120.108 31.0642 115.584 35.5883 109.999 35.5883Z" fill="white"/>
<circle cx="110" cy="25.4805" r="12" fill="#D95C95"/>
<path d="M360.171 41.0039L328.606 72.5695C327.617 73.5434 326.285 74.0893 324.898 74.0893C323.51 74.0893 322.178 73.5434 321.19 72.5695L293.332 44.7117C292.358 43.7233 291.812 42.3915 291.812 41.0039C291.812 39.6163 292.358 38.2845 293.332 37.2961L324.898 5.73047L360.171 41.0039Z" stroke="#D95C95" stroke-width="5" stroke-linecap="round" stroke-linejoin="round"/>
<path d="M327.688 45.1055C331.312 45.1055 334.25 42.1673 334.25 38.543C334.25 34.9186 331.312 31.9805 327.688 31.9805C324.063 31.9805 321.125 34.9186 321.125 38.543C321.125 42.1673 324.063 45.1055 327.688 45.1055Z" stroke="#D95C95" stroke-width="5" stroke-linecap="round" stroke-linejoin="round"/>
<path d="M355.25 67.418C355.25 60.8555 361.812 54.293 361.812 54.293C361.812 54.293 368.375 60.8555 368.375 67.418C368.375 69.1585 367.684 70.8276 366.453 72.0584C365.222 73.2891 363.553 73.9805 361.812 73.9805C360.072 73.9805 358.403 73.2891 357.172 72.0584C355.941 70.8276 355.25 69.1585 355.25 67.418Z" stroke="#D95C95" stroke-width="5" stroke-linecap="round" stroke-linejoin="round"/>
<path d="M323.055 33.918L299.43 10.293" stroke="#D95C95" stroke-width="5" stroke-linecap="round" stroke-linejoin="round"/>
<path d="M450.843 586.92C451.381 584.559 451.642 582.144 451.621 579.723C451.491 562.571 437.291 548.695 420.172 548.857C412.859 548.934 405.806 551.584 400.252 556.342C394.697 561.1 390.996 567.662 389.796 574.877C388.597 582.091 389.977 589.498 393.693 595.797C397.41 602.096 403.226 606.885 410.121 609.324C411.294 609.746 412.552 609.88 413.787 609.712C415.022 609.545 416.199 609.082 417.218 608.363C418.236 607.644 419.066 606.689 419.636 605.581C420.207 604.473 420.502 603.243 420.496 601.996V600.732C420.492 599.709 420.69 598.695 421.08 597.749C421.469 596.803 422.042 595.944 422.766 595.22C423.489 594.497 424.349 593.924 425.295 593.534C426.241 593.145 427.254 592.946 428.277 592.951H443.256C445.016 592.952 446.725 592.356 448.103 591.261C449.481 590.165 450.447 588.635 450.843 586.92Z" stroke="#D95C95" stroke-width="4" stroke-linecap="round" stroke-linejoin="round"/>
<path d="M420.5 567.012C422.649 567.012 424.391 565.27 424.391 563.121C424.391 560.972 422.649 559.23 420.5 559.23C418.351 559.23 416.609 560.972 416.609 563.121C416.609 565.27 418.351 567.012 420.5 567.012Z" fill="#D95C95"/>
<path d="M405.906 575.441C408.055 575.441 409.797 573.7 409.797 571.551C409.797 569.402 408.055 567.66 405.906 567.66C403.758 567.66 402.016 569.402 402.016 571.551C402.016 573.7 403.758 575.441 405.906 575.441Z" fill="#D95C95"/>
<path d="M405.906 592.301C408.055 592.301 409.797 590.559 409.797 588.41C409.797 586.261 408.055 584.52 405.906 584.52C403.758 584.52 402.016 586.261 402.016 588.41C402.016 590.559 403.758 592.301 405.906 592.301Z" fill="#D95C95"/>
<path d="M435.094 575.441C437.242 575.441 438.984 573.7 438.984 571.551C438.984 569.402 437.242 567.66 435.094 567.66C432.945 567.66 431.203 569.402 431.203 571.551C431.203 573.7 432.945 575.441 435.094 575.441Z" fill="#D95C95"/>
<path d="M216.556 164.022L229.755 167.418C231.64 167.903 233.627 167.818 235.464 167.174C237.301 166.53 238.906 165.356 240.076 163.799C241.245 162.243 241.927 160.375 242.035 158.431C242.143 156.488 241.672 154.555 240.682 152.879C239.692 151.203 238.227 149.858 236.472 149.015C234.718 148.171 232.753 147.867 230.825 148.14C228.898 148.413 227.095 149.252 225.644 150.55C224.193 151.848 223.16 153.548 222.675 155.433C220.977 162.032 216.556 164.022 216.556 164.022Z" stroke="#D95C95" stroke-width="4" stroke-linecap="round" stroke-linejoin="round"/>
<path d="M238.2 150.084C242.942 146.241 254.684 137.672 262.86 139.776C260.757 147.952 247.584 154.101 241.931 156.399" stroke="#D95C95" stroke-width="4" stroke-linecap="round" stroke-linejoin="round"/>
<path d="M243.188 146.363C245.311 148.404 246.836 150.986 247.599 153.831" stroke="#D95C95" stroke-width="4" stroke-linecap="round" stroke-linejoin="round"/>
<g clip-path="url(#clip0_694_5386)">
<path d="M36.5026 584.48C19.6576 584.48 6 598.138 6 614.983C6 631.828 19.6576 645.48 36.5026 645.48C53.3477 645.48 67.0052 631.823 67.0052 614.983C67.0052 598.143 53.3424 584.48 36.5026 584.48ZM36.5026 640.801C22.2399 640.801 10.6795 629.241 10.6795 614.978C10.6795 600.715 22.2399 589.16 36.5026 589.16C50.7653 589.16 62.3258 600.72 62.3258 614.983C62.3258 629.246 50.7653 640.806 36.5026 640.806V640.801Z" fill="#CC5293"/>
</g>
<path d="M326.265 497.249C326.071 496.649 325.997 496.016 326.049 495.387C326.1 494.759 326.276 494.147 326.565 493.586C326.854 493.026 327.252 492.528 327.734 492.122C328.217 491.716 328.775 491.41 329.377 491.22L355.274 482.958L345.554 452.49L319.656 460.753C319.054 460.942 318.496 461.249 318.014 461.655C317.531 462.061 317.134 462.558 316.844 463.119C316.555 463.679 316.379 464.291 316.328 464.92C316.276 465.548 316.35 466.181 316.544 466.781L326.265 497.249Z" stroke="#D95C95" stroke-width="4" stroke-linecap="round" stroke-linejoin="round"/>
<path d="M326.266 497.25L326.752 498.773L354.172 490.025" stroke="#D95C95" stroke-width="4" stroke-linecap="round" stroke-linejoin="round"/>
<path d="M455 163.48C455 184.323 437.395 201.48 416 201.48C394.605 201.48 377 184.329 377 163.48L455 163.48Z" fill="#D95C95"/>
<g clip-path="url(#clip1_694_5386)">
<path d="M39.5034 127.48C17.6877 127.48 0 145.168 0 166.984C0 188.8 17.6877 206.48 39.5034 206.48C61.3191 206.48 79.0068 188.793 79.0068 166.984C79.0068 145.175 61.3123 127.48 39.5034 127.48ZM39.5034 200.42C21.032 200.42 6.06029 185.448 6.06029 166.977C6.06029 148.506 21.032 133.541 39.5034 133.541C57.9748 133.541 72.9465 148.512 72.9465 166.984C72.9465 185.455 57.9748 200.427 39.5034 200.427V200.42Z" fill="#CC5293"/>
<path d="M39.5006 139.652C24.4073 139.652 12.1719 151.888 12.1719 166.981C12.1719 182.074 24.4073 194.31 39.5006 194.31C54.5939 194.31 66.8294 182.074 66.8294 166.981C66.8294 151.888 54.5939 139.652 39.5006 139.652ZM39.5006 188.628C27.5422 188.628 17.8538 178.94 17.8538 166.981C17.8538 155.023 27.5422 145.334 39.5006 145.334C51.4591 145.334 61.1474 155.023 61.1474 166.981C61.1474 178.94 51.4591 188.628 39.5006 188.628Z" fill="#CC5293"/>
<path d="M39.5029 182.947C30.686 182.947 23.5312 175.799 23.5312 166.976C23.5312 158.152 30.6793 151.004 39.5029 151.004C48.3264 151.004 55.4745 158.152 55.4745 166.976C55.4745 175.799 48.3264 182.947 39.5029 182.947Z" fill="white"/>
<path d="M39.5029 151.012C30.686 151.012 23.5312 158.16 23.5312 166.983C23.5312 175.807 30.6793 182.955 39.5029 182.955C48.3264 182.955 55.4745 175.807 55.4745 166.983C55.4745 158.16 48.3264 151.012 39.5029 151.012ZM39.5029 177.982C33.4223 177.982 28.497 173.057 28.497 166.977C28.497 160.896 33.4223 155.971 39.5029 155.971C45.5834 155.971 50.5087 160.896 50.5087 166.977C50.5087 173.057 45.5834 177.982 39.5029 177.982Z" fill="#CC5293"/>
</g>
</g>
<defs>
<clipPath id="clip0_694_5386">
<rect width="61" height="61" fill="white" transform="translate(6 584.48)"/>
</clipPath>
<clipPath id="clip1_694_5386">
<rect width="79" height="79" fill="white" transform="translate(0 127.48)"/>
</clipPath>
</defs>
</svg>
