<svg width="747" height="616" viewBox="0 0 747 616" fill="none" xmlns="http://www.w3.org/2000/svg">
<g opacity="0.15">
<path d="M696.886 402.621C689.998 402.621 684.414 408.205 684.414 415.093C684.414 421.982 689.998 427.566 696.886 427.566C703.775 427.566 709.359 421.982 709.359 415.093C709.359 408.205 703.775 402.621 696.886 402.621ZM696.886 424.973C691.429 424.973 687.007 420.551 687.007 415.093C687.007 409.636 691.429 405.214 696.886 405.214C702.344 405.214 706.765 409.636 706.765 415.093C706.765 420.551 702.344 424.973 696.886 424.973Z" fill="#D95C95"/>
<path d="M696.89 423.494C692.25 423.494 688.484 419.732 688.484 415.089C688.484 410.445 692.246 406.684 696.89 406.684C701.533 406.684 705.295 410.445 705.295 415.089C705.295 419.732 701.533 423.494 696.89 423.494Z" fill="white"/>
<circle cx="696.892" cy="415.091" r="9.97781" fill="#D95C95"/>
<path d="M247.05 7.80469C241.085 7.80469 236.25 12.64 236.25 18.6047C236.25 24.5694 241.085 29.4047 247.05 29.4047C253.015 29.4047 257.85 24.5694 257.85 18.6047C257.85 12.64 253.015 7.80469 247.05 7.80469ZM247.05 27.1593C242.324 27.1593 238.495 23.3305 238.495 18.6047C238.495 13.8789 242.324 10.0501 247.05 10.0501C251.776 10.0501 255.605 13.8789 255.605 18.6047C255.605 23.3305 251.776 27.1593 247.05 27.1593Z" fill="#D95C95"/>
<path d="M247.052 25.8806C243.034 25.8806 239.773 22.6233 239.773 18.6024C239.773 14.5816 243.031 11.3242 247.052 11.3242C251.073 11.3242 254.33 14.5816 254.33 18.6024C254.33 22.6233 251.073 25.8806 247.052 25.8806Z" fill="white"/>
<circle cx="247.046" cy="18.6048" r="8.64" fill="#D95C95"/>
<path d="M34.5527 494.442C28.675 484.288 31.2421 470.662 41.1326 463.045C51.0235 455.427 64.8515 456.424 73.1688 464.703L34.5527 494.442Z" fill="#D95C95" stroke="#D95C95" stroke-width="6"/>
<path fill-rule="evenodd" clip-rule="evenodd" d="M247.729 511.198C252.326 508.159 258.576 508.666 262.621 512.712C266.67 516.761 267.175 523.008 264.136 527.605L261.453 524.923C263.102 521.837 262.625 517.915 260.022 515.312C257.419 512.709 253.497 512.231 250.411 513.88L247.729 511.198Z" fill="#CC5293"/>
<path fill-rule="evenodd" clip-rule="evenodd" d="M241.717 505.182C249.669 498.893 261.248 499.42 268.592 506.764C275.936 514.108 276.464 525.687 270.175 533.64L267.17 530.635C271.831 524.352 271.312 515.441 265.614 509.743C259.916 504.045 251.005 503.526 244.721 508.186L241.717 505.182Z" fill="#CC5293"/>
<path fill-rule="evenodd" clip-rule="evenodd" d="M235.299 498.765C246.805 488.972 264.096 489.511 274.966 500.381C285.832 511.247 286.37 528.544 276.582 540.047L273.392 536.858C281.439 527.118 280.904 512.673 271.789 503.558C262.672 494.441 248.228 493.904 238.488 501.954L235.299 498.765Z" fill="#CC5293"/>
<path d="M565.026 35.8281L539.473 61.3812C538.672 62.1696 537.594 62.6116 536.471 62.6116C535.348 62.6116 534.269 62.1696 533.469 61.3812L510.918 38.8297C510.129 38.0296 509.688 36.9514 509.688 35.8281C509.688 34.7049 510.129 33.6267 510.918 32.8266L536.471 7.27344L565.026 35.8281Z" stroke="#D95C95" stroke-width="5" stroke-linecap="round" stroke-linejoin="round"/>
<path d="M538.727 39.1484C541.661 39.1484 544.039 36.7699 544.039 33.8359C544.039 30.9019 541.661 28.5234 538.727 28.5234C535.793 28.5234 533.414 30.9019 533.414 33.8359C533.414 36.7699 535.793 39.1484 538.727 39.1484Z" stroke="#D95C95" stroke-width="5" stroke-linecap="round" stroke-linejoin="round"/>
<path d="M561.039 57.2109C561.039 51.8984 566.352 46.5859 566.352 46.5859C566.352 46.5859 571.664 51.8984 571.664 57.2109C571.664 58.6199 571.104 59.9712 570.108 60.9674C569.112 61.9637 567.761 62.5234 566.352 62.5234C564.943 62.5234 563.591 61.9637 562.595 60.9674C561.599 59.9712 561.039 58.6199 561.039 57.2109Z" stroke="#D95C95" stroke-width="5" stroke-linecap="round" stroke-linejoin="round"/>
<path d="M534.977 30.0938L515.852 10.9688" stroke="#D95C95" stroke-width="5" stroke-linecap="round" stroke-linejoin="round"/>
<path d="M706.343 570.604C706.881 568.243 707.142 565.827 707.121 563.406C706.991 546.255 692.791 532.378 675.672 532.54C668.359 532.618 661.306 535.268 655.752 540.026C650.197 544.783 646.496 551.345 645.296 558.56C644.097 565.775 645.477 573.181 649.193 579.48C652.91 585.779 658.726 590.568 665.621 593.007C666.794 593.43 668.052 593.563 669.287 593.396C670.522 593.229 671.699 592.766 672.718 592.047C673.736 591.327 674.566 590.373 675.136 589.265C675.707 588.156 676.002 586.927 675.996 585.68V584.415C675.992 583.392 676.19 582.379 676.58 581.433C676.969 580.487 677.542 579.627 678.266 578.904C678.989 578.18 679.849 577.607 680.795 577.218C681.741 576.828 682.754 576.63 683.777 576.634H698.756C700.516 576.635 702.225 576.04 703.603 574.944C704.981 573.849 705.947 572.319 706.343 570.604Z" stroke="#D95C95" stroke-width="4" stroke-linecap="round" stroke-linejoin="round"/>
<path d="M676 550.695C678.149 550.695 679.891 548.953 679.891 546.805C679.891 544.656 678.149 542.914 676 542.914C673.851 542.914 672.109 544.656 672.109 546.805C672.109 548.953 673.851 550.695 676 550.695Z" fill="#D95C95"/>
<path d="M661.406 559.125C663.555 559.125 665.297 557.383 665.297 555.234C665.297 553.086 663.555 551.344 661.406 551.344C659.258 551.344 657.516 553.086 657.516 555.234C657.516 557.383 659.258 559.125 661.406 559.125Z" fill="#D95C95"/>
<path d="M661.406 575.984C663.555 575.984 665.297 574.242 665.297 572.094C665.297 569.945 663.555 568.203 661.406 568.203C659.258 568.203 657.516 569.945 657.516 572.094C657.516 574.242 659.258 575.984 661.406 575.984Z" fill="#D95C95"/>
<path d="M690.594 559.125C692.742 559.125 694.484 557.383 694.484 555.234C694.484 553.086 692.742 551.344 690.594 551.344C688.445 551.344 686.703 553.086 686.703 555.234C686.703 557.383 688.445 559.125 690.594 559.125Z" fill="#D95C95"/>
<path d="M356.548 123.171L369.747 126.567C371.632 127.052 373.619 126.967 375.456 126.323C377.293 125.678 378.898 124.504 380.068 122.948C381.237 121.392 381.919 119.524 382.027 117.58C382.135 115.636 381.664 113.704 380.674 112.028C379.684 110.352 378.219 109.007 376.465 108.163C374.71 107.319 372.745 107.015 370.817 107.288C368.89 107.562 367.087 108.401 365.636 109.699C364.185 110.997 363.152 112.696 362.667 114.581C360.969 121.181 356.548 123.171 356.548 123.171Z" stroke="#D95C95" stroke-width="4" stroke-linecap="round" stroke-linejoin="round"/>
<path d="M378.192 109.232C382.934 105.39 394.677 96.8206 402.853 98.9242C400.749 107.1 387.576 113.249 381.923 115.547" stroke="#D95C95" stroke-width="4" stroke-linecap="round" stroke-linejoin="round"/>
<path d="M383.18 105.512C385.303 107.553 386.828 110.135 387.591 112.979" stroke="#D95C95" stroke-width="4" stroke-linecap="round" stroke-linejoin="round"/>
<g clip-path="url(#clip0_694_5445)">
<path d="M141.728 574.355C130.406 574.355 121.227 583.535 121.227 594.857C121.227 606.179 130.406 615.355 141.728 615.355C153.05 615.355 162.23 606.176 162.23 594.857C162.23 583.539 153.047 574.355 141.728 574.355ZM141.728 612.21C132.142 612.21 124.372 604.44 124.372 594.854C124.372 585.267 132.142 577.501 141.728 577.501C151.315 577.501 159.085 585.271 159.085 594.857C159.085 604.444 151.315 612.214 141.728 612.214V612.21Z" fill="#CC5293"/>
</g>
<g clip-path="url(#clip1_694_5445)">
<path d="M729.009 3.02344C721.277 3.02344 715.008 9.51638 715.008 17.5247C715.008 25.533 721.277 32.0234 729.009 32.0234C736.741 32.0234 743.01 25.5305 743.01 17.5247C743.01 9.51886 736.739 3.02344 729.009 3.02344ZM729.009 29.7988C722.462 29.7988 717.156 24.3028 717.156 17.5222C717.156 10.7416 722.462 5.2481 729.009 5.2481C735.556 5.2481 740.862 10.744 740.862 17.5247C740.862 24.3053 735.556 29.8013 729.009 29.8013V29.7988Z" fill="#CC5293"/>
</g>
<path d="M492.937 546.303C492.742 545.703 492.669 545.071 492.721 544.442C492.772 543.813 492.947 543.201 493.237 542.641C493.526 542.08 493.924 541.583 494.406 541.177C494.889 540.771 495.447 540.464 496.049 540.275L521.946 532.012L512.225 501.545L486.328 509.808C485.726 509.997 485.168 510.303 484.685 510.709C484.203 511.115 483.805 511.613 483.516 512.173C483.227 512.734 483.051 513.346 483 513.975C482.948 514.603 483.022 515.236 483.216 515.836L492.937 546.303Z" stroke="#D95C95" stroke-width="4" stroke-linecap="round" stroke-linejoin="round"/>
<path d="M492.938 546.305L493.424 547.828L520.844 539.079" stroke="#D95C95" stroke-width="4" stroke-linecap="round" stroke-linejoin="round"/>
<path d="M683.051 124.09C687.604 137.875 679.708 153.068 665.558 157.742C651.408 162.415 636.017 154.918 631.463 141.129L683.051 124.09Z" fill="#D95C95"/>
<g clip-path="url(#clip2_694_5445)">
<path d="M150.229 112.129C134.212 112.129 121.227 125.115 121.227 141.131C121.227 157.148 134.212 170.129 150.229 170.129C166.246 170.129 179.232 157.143 179.232 141.131C179.232 125.12 166.241 112.129 150.229 112.129ZM150.229 165.68C136.668 165.68 125.676 154.688 125.676 141.126C125.676 127.565 136.668 116.578 150.229 116.578C163.79 116.578 174.782 127.57 174.782 141.131C174.782 154.693 163.79 165.685 150.229 165.685V165.68Z" fill="#CC5293"/>
<path d="M150.228 121.066C139.147 121.066 130.164 130.049 130.164 141.131C130.164 152.212 139.147 161.195 150.228 161.195C161.309 161.195 170.292 152.212 170.292 141.131C170.292 130.049 161.309 121.066 150.228 121.066ZM150.228 157.023C141.449 157.023 134.336 149.91 134.336 141.131C134.336 132.351 141.449 125.238 150.228 125.238C159.008 125.238 166.121 132.351 166.121 141.131C166.121 149.91 159.008 157.023 150.228 157.023Z" fill="#CC5293"/>
<path d="M150.226 152.854C143.753 152.854 138.5 147.606 138.5 141.128C138.5 134.65 143.748 129.402 150.226 129.402C156.704 129.402 161.952 134.65 161.952 141.128C161.952 147.606 156.704 152.854 150.226 152.854Z" fill="white"/>
<path d="M150.226 129.406C143.753 129.406 138.5 134.654 138.5 141.132C138.5 147.61 143.748 152.858 150.226 152.858C156.704 152.858 161.952 147.61 161.952 141.132C161.952 134.654 156.704 129.406 150.226 129.406ZM150.226 149.207C145.762 149.207 142.146 145.591 142.146 141.127C142.146 136.663 145.762 133.047 150.226 133.047C154.69 133.047 158.306 136.663 158.306 141.127C158.306 145.591 154.69 149.207 150.226 149.207Z" fill="#CC5293"/>
</g>
<path d="M744.626 266.267L739.56 258.255C739.392 257.989 739.172 257.758 738.915 257.577C738.657 257.395 738.366 257.266 738.059 257.196C737.751 257.127 737.433 257.119 737.123 257.173C736.812 257.227 736.515 257.341 736.249 257.509L714.14 271.491C713.873 271.659 713.642 271.878 713.46 272.135C713.278 272.393 713.149 272.684 713.081 272.992L711.608 279.531C711.469 280.152 711.581 280.803 711.921 281.341C712.262 281.879 712.802 282.26 713.423 282.4L719.962 283.873C720.27 283.943 720.588 283.951 720.899 283.897C721.209 283.844 721.506 283.729 721.772 283.559L743.88 269.579C744.147 269.41 744.377 269.191 744.559 268.933C744.741 268.676 744.87 268.385 744.939 268.077C745.008 267.77 745.016 267.452 744.963 267.141C744.909 266.83 744.794 266.533 744.626 266.267ZM716.016 273.144L731.2 263.542L733.092 266.534L717.909 276.135L716.016 273.144ZM714.895 275.86L718.148 281.004L713.95 280.059L714.895 275.86ZM721.083 281.156L719.191 278.164L734.375 268.562L736.267 271.554L721.083 281.156ZM738.295 270.272L733.228 262.26L737.531 259.539L742.598 267.549L738.295 270.272Z" fill="#D95C95"/>
<path d="M59.1396 303.268C59.1292 302.34 58.9316 301.424 58.5589 300.574C58.1861 299.724 57.6458 298.959 56.9702 298.323C54.2728 295.763 49.8953 295.86 47.2172 298.54L43.4949 302.285C42.6158 301.483 41.4617 301.052 40.2726 301.079C39.0835 301.107 37.9507 301.592 37.1098 302.433L35.3757 304.167C35.0891 304.454 34.8617 304.794 34.7066 305.168C34.5515 305.542 34.4716 305.944 34.4716 306.349C34.4716 306.754 34.5515 307.155 34.7066 307.53C34.8617 307.904 35.0891 308.244 35.3757 308.53L35.7611 308.927L25.9349 318.755C24.9891 319.694 24.3045 320.863 23.9487 322.148C23.5929 323.432 23.5782 324.787 23.9061 326.078L22.3648 329.626C22.1498 330.114 22.0876 330.655 22.1863 331.178C22.285 331.702 22.54 332.183 22.9177 332.559C23.3546 332.999 23.9145 333.296 24.5237 333.411C25.1328 333.527 25.7625 333.455 26.3299 333.205L29.7055 331.73C30.9737 332.017 32.294 331.978 33.5428 331.616C34.7915 331.253 35.928 330.58 36.8458 329.659L46.672 319.831L47.0689 320.228C47.6469 320.806 48.4307 321.13 49.248 321.13C50.0652 321.13 50.849 320.806 51.4271 320.228L53.1611 318.493C54.0037 317.651 54.4889 316.516 54.5155 315.325C54.542 314.134 54.1079 312.978 53.3037 312.099L57.1089 308.27C57.7667 307.616 58.2857 306.836 58.6347 305.976C58.9836 305.116 59.1554 304.195 59.1396 303.268ZM34.6706 327.491C34.0774 328.085 33.3336 328.507 32.519 328.711C31.7043 328.915 30.8496 328.893 30.0465 328.647C29.6944 328.539 29.315 328.56 28.9772 328.707L25.4899 330.231L26.9638 326.799C27.1167 326.448 27.1339 326.054 27.012 325.691C26.7326 324.875 26.6884 323.996 26.8843 323.156C27.0802 322.316 27.5083 321.547 28.1198 320.939L37.946 311.111L44.4852 317.663L34.6706 327.491ZM54.9259 306.1L50.0379 311.018C49.7497 311.307 49.5878 311.699 49.5878 312.107C49.5878 312.515 49.7497 312.907 50.0379 313.196L50.9801 314.138C51.1234 314.281 51.2371 314.451 51.3146 314.639C51.3922 314.826 51.4321 315.026 51.4321 315.229C51.4321 315.431 51.3922 315.632 51.3146 315.819C51.2371 316.006 51.1234 316.176 50.9801 316.32L49.246 318.054L37.5606 306.343L39.2946 304.609C39.5837 304.32 39.9756 304.158 40.3842 304.158C40.7928 304.158 41.1847 304.32 41.4737 304.609L42.4159 305.551C42.5591 305.695 42.7292 305.809 42.9165 305.886C43.1038 305.964 43.3046 306.004 43.5074 306.004C43.7102 306.004 43.911 305.964 44.0983 305.886C44.2855 305.809 44.4557 305.695 44.5988 305.551L49.404 300.716C50.9088 299.209 53.3538 299.14 54.8547 300.56C55.2296 300.914 55.5296 301.34 55.7369 301.812C55.9442 302.285 56.0547 302.794 56.0617 303.309C56.0687 303.825 55.9721 304.337 55.7777 304.815C55.5833 305.293 55.2949 305.726 54.9298 306.091L54.9259 306.1Z" fill="#D95C95"/>
<g clip-path="url(#clip3_694_5445)">
<path d="M41.5667 26.5586C38.3658 24.7106 34.6888 23.8532 31.0007 24.095C27.3126 24.3367 23.779 25.6667 20.8467 27.9167C17.9144 30.1667 15.7152 33.2357 14.5272 36.7355C13.3391 40.2354 13.2156 44.009 14.1722 47.5791C15.1288 51.1492 17.1226 54.3555 19.9014 56.7925C22.6802 59.2294 26.1193 60.7876 29.7837 61.2701C33.4481 61.7525 37.1733 61.1375 40.4882 59.5028C43.8031 57.868 46.5587 55.2871 48.4068 52.0862C50.8796 47.7927 51.5481 42.6937 50.2658 37.9079C48.9834 33.1221 45.8549 29.0404 41.5667 26.5586ZM41.3408 29.8247C42.1392 30.3882 42.8826 31.0258 43.5611 31.7291L28.3506 58.0745C27.4023 57.8385 26.4784 57.5135 25.5912 57.1039L41.3408 29.8247ZM45.4885 34.1407C46.1135 35.1073 46.6309 36.1393 47.0314 37.2184L34.8432 58.329C33.7084 58.5217 32.556 58.5897 31.4064 58.5317L45.4885 34.1407ZM18.5289 34.8362C20.5047 31.4235 23.683 28.8709 27.4417 27.6782C31.2004 26.4854 35.2689 26.7382 38.851 28.3872L23.105 55.6601C19.8859 53.3825 17.6326 49.9854 16.7862 46.1339C15.9399 42.2824 16.5613 38.2537 18.5289 34.8362ZM38.8864 57.0759L47.9678 41.3465C48.2588 44.5844 47.5425 47.8333 45.917 50.6487C44.2915 53.4642 41.8361 55.7089 38.8864 57.0759Z" fill="#D95C95"/>
</g>
</g>
<defs>
<clipPath id="clip0_694_5445">
<rect width="41" height="41" fill="white" transform="translate(121.227 574.355)"/>
</clipPath>
<clipPath id="clip1_694_5445">
<rect width="28" height="29" fill="white" transform="translate(715.008 3.02344)"/>
</clipPath>
<clipPath id="clip2_694_5445">
<rect width="58" height="58" fill="white" transform="translate(121.227 112.129)"/>
</clipPath>
<clipPath id="clip3_694_5445">
<rect width="46" height="46" fill="white" transform="translate(23.8047 11.3242) rotate(30)"/>
</clipPath>
</defs>
</svg>
