<svg width="1163" height="672" viewBox="0 0 1163 672" fill="none" xmlns="http://www.w3.org/2000/svg">
<g opacity="0.15">
<g clip-path="url(#clip0_694_5527)">
<path d="M69.6994 161.495C71.8725 156.872 72.2598 151.609 70.7868 146.718L80.5225 154.771C80.8726 155.06 81.3234 155.199 81.7758 155.156C82.2281 155.113 82.6449 154.893 82.9345 154.542C83.2241 154.192 83.3628 153.741 83.32 153.289C83.2772 152.837 83.0565 152.42 82.7064 152.13L69.3403 141.075C69.989 139.698 70.1612 138.145 69.8296 136.66C69.4981 135.175 68.6817 133.843 67.5093 132.873C66.3368 131.903 64.8749 131.351 63.354 131.304C61.8332 131.257 60.3399 131.717 59.1095 132.612L45.7435 121.557C45.3934 121.267 44.9426 121.128 44.4902 121.171C44.0379 121.214 43.6211 121.435 43.3315 121.785C43.0419 122.135 42.9032 122.586 42.946 123.038C42.9888 123.49 43.2095 123.907 43.5597 124.197L53.2954 132.25C48.2146 131.72 43.1174 133.087 38.9839 136.089C37.5491 135.243 35.8553 134.948 34.219 135.26C32.5828 135.572 31.1162 136.47 30.0936 137.785C29.071 139.099 28.5623 140.742 28.6626 142.404C28.7629 144.067 29.4655 145.636 30.6388 146.819C31.8122 148.001 33.376 148.715 35.0379 148.828C36.6998 148.942 38.3459 148.445 39.6685 147.433C40.9912 146.42 41.8997 144.961 42.2242 143.327C42.5487 141.693 42.2671 139.997 41.4319 138.556C43.6151 137.07 46.11 136.106 48.7246 135.736C51.3392 135.366 54.0038 135.601 56.5132 136.423C56.1812 137.687 56.2176 139.02 56.6181 140.264C57.0186 141.508 57.7664 142.611 58.7734 143.444C59.7805 144.277 61.0047 144.805 62.3017 144.965C63.5988 145.125 64.9145 144.911 66.0939 144.348C67.3688 146.658 68.0971 149.23 68.2225 151.866C68.3479 154.502 67.8673 157.132 66.8174 159.553C65.2459 159.001 63.527 159.04 61.9822 159.664C60.4375 160.287 59.1726 161.451 58.4241 162.94C57.6757 164.428 57.4949 166.137 57.9156 167.749C58.3363 169.361 59.3296 170.764 60.7099 171.697C62.0901 172.629 63.7628 173.027 65.4151 172.816C67.0674 172.605 68.5862 171.799 69.6875 170.549C70.7888 169.299 71.3971 167.691 71.3988 166.026C71.4005 164.36 70.7954 162.751 69.6967 161.499L69.6994 161.495ZM38.149 144.178C37.7171 144.7 37.14 145.082 36.4908 145.276C35.8416 145.471 35.1493 145.468 34.5016 145.269C33.8539 145.069 33.2798 144.683 32.8519 144.157C32.424 143.632 32.1615 142.991 32.0977 142.316C32.0339 141.642 32.1716 140.963 32.4933 140.367C32.8151 139.77 33.3065 139.283 33.9053 138.966C34.5042 138.649 35.1837 138.516 35.8578 138.585C36.532 138.654 37.1705 138.922 37.6927 139.354C38.3929 139.933 38.8344 140.766 38.92 141.671C39.0055 142.576 38.7282 143.477 38.149 144.178ZM60.9492 140.804C60.427 140.372 60.0446 139.795 59.8504 139.146C59.6562 138.496 59.6588 137.804 59.8581 137.156C60.0573 136.509 60.4441 135.935 60.9696 135.507C61.4951 135.079 62.1357 134.816 62.8103 134.752C63.485 134.689 64.1634 134.826 64.7598 135.148C65.3562 135.47 65.8438 135.961 66.161 136.56C66.4781 137.159 66.6106 137.838 66.5415 138.513C66.4725 139.187 66.2051 139.825 65.7732 140.347C65.194 141.048 64.3604 141.489 63.4557 141.575C62.551 141.66 61.6494 141.383 60.9492 140.804ZM62.3672 168.656C61.8451 168.224 61.4627 167.647 61.2685 166.998C61.0743 166.349 61.0769 165.656 61.2761 165.009C61.4753 164.361 61.8622 163.787 62.3877 163.359C62.9132 162.931 63.5537 162.669 64.2284 162.605C64.903 162.541 65.5815 162.679 66.1779 163C66.7743 163.322 67.2619 163.814 67.5791 164.412C67.8962 165.011 68.0286 165.691 67.9596 166.365C67.8906 167.039 67.6232 167.678 67.1913 168.2C66.6121 168.9 65.7785 169.341 64.8738 169.427C63.9691 169.513 63.0675 169.235 62.3672 168.656Z" fill="#D95C95"/>
</g>
<path d="M951.844 441.557C944.285 441.557 938.156 447.685 938.156 455.245C938.156 462.805 944.285 468.933 951.844 468.933C959.404 468.933 965.533 462.805 965.533 455.245C965.533 447.685 959.404 441.557 951.844 441.557ZM951.844 466.087C945.855 466.087 941.002 461.234 941.002 455.245C941.002 449.255 945.855 444.403 951.844 444.403C957.834 444.403 962.687 449.255 962.687 455.245C962.687 461.234 957.834 466.087 951.844 466.087Z" fill="#D95C95"/>
<path d="M951.85 464.467C946.757 464.467 942.625 460.338 942.625 455.242C942.625 450.146 946.753 446.018 951.85 446.018C956.946 446.018 961.074 450.146 961.074 455.242C961.074 460.338 956.946 464.467 951.85 464.467Z" fill="white"/>
<circle cx="951.841" cy="455.245" r="10.9505" fill="#D95C95"/>
<path d="M452.268 22.498C447.041 22.498 442.805 26.7349 442.805 31.9613C442.805 37.1877 447.041 41.4245 452.268 41.4245C457.494 41.4245 461.731 37.1877 461.731 31.9613C461.731 26.7349 457.494 22.498 452.268 22.498ZM452.268 39.457C448.127 39.457 444.772 36.1021 444.772 31.9613C444.772 27.8204 448.127 24.4656 452.268 24.4656C456.409 24.4656 459.764 27.8204 459.764 31.9613C459.764 36.1021 456.409 39.457 452.268 39.457Z" fill="#D95C95"/>
<path d="M452.268 38.3386C448.747 38.3386 445.891 35.4845 445.891 31.9613C445.891 28.4381 448.745 25.584 452.268 25.584C455.791 25.584 458.645 28.4381 458.645 31.9613C458.645 35.4845 455.791 38.3386 452.268 38.3386Z" fill="white"/>
<circle cx="452.266" cy="31.9632" r="7.57057" fill="#D95C95"/>
<path d="M190.953 515.91C186.475 507.628 188.647 496.725 196.635 490.574C204.623 484.422 215.717 485.105 222.582 491.552L190.953 515.91Z" fill="#D95C95" stroke="#D95C95" stroke-width="6"/>
<path fill-rule="evenodd" clip-rule="evenodd" d="M474.803 553.729C480.047 550.266 487.173 550.846 491.787 555.459C496.404 560.077 496.981 567.2 493.517 572.443L490.457 569.383C492.335 565.863 491.789 561.393 488.821 558.425C485.853 555.457 481.383 554.911 477.862 556.789L474.803 553.729Z" fill="#CC5293"/>
<path fill-rule="evenodd" clip-rule="evenodd" d="M467.943 546.865C477.015 539.69 490.224 540.291 498.602 548.669C506.98 557.046 507.581 570.256 500.405 579.327L496.978 575.9C502.296 568.733 501.705 558.567 495.204 552.066C488.704 545.566 478.538 544.975 471.371 550.292L467.943 546.865Z" fill="#CC5293"/>
<path fill-rule="evenodd" clip-rule="evenodd" d="M460.617 539.548C473.742 528.377 493.466 528.991 505.866 541.39C518.261 553.785 518.875 573.516 507.708 586.638L504.07 583.001C513.249 571.89 512.64 555.412 502.242 545.014C491.842 534.614 475.365 534.003 464.255 543.185L460.617 539.548Z" fill="#CC5293"/>
<path fill-rule="evenodd" clip-rule="evenodd" d="M1113.04 179.276C1109.94 171.793 1112.41 162.916 1119.38 158.204C1126.35 153.489 1135.51 154.501 1141.3 160.168L1136.68 163.292C1132.68 160.053 1126.89 159.649 1122.41 162.681C1117.93 165.712 1116.14 171.238 1117.66 176.152L1113.04 179.276Z" fill="#CC5293"/>
<path fill-rule="evenodd" clip-rule="evenodd" d="M1102.67 186.293C1095.81 173.063 1099.8 156.501 1112.45 147.95C1125.09 139.398 1141.95 141.862 1151.67 153.151L1146.5 156.65C1138.73 148.177 1125.73 146.444 1115.92 153.079C1106.11 159.714 1102.87 172.427 1107.84 182.794L1102.67 186.293Z" fill="#CC5293"/>
<path fill-rule="evenodd" clip-rule="evenodd" d="M1091.64 193.751C1080.71 174.413 1086.3 149.603 1105.02 136.943C1123.74 124.287 1148.85 128.332 1162.73 145.672L1157.24 149.386C1145.42 135.053 1124.42 131.797 1108.72 142.414C1093.02 153.032 1088.22 173.734 1097.13 190.037L1091.64 193.751Z" fill="#CC5293"/>
<path d="M42.9481 363.846C28.9625 363.846 17.625 375.183 17.625 389.169C17.625 403.154 28.9625 414.492 42.9481 414.492C56.9337 414.492 68.2712 403.154 68.2712 389.169C68.2712 375.183 56.9337 363.846 42.9481 363.846ZM42.9481 409.227C31.8673 409.227 22.8899 400.25 22.8899 389.169C22.8899 378.088 31.8673 369.111 42.9481 369.111C54.0289 369.111 63.0062 378.088 63.0062 389.169C63.0062 400.25 54.0289 409.227 42.9481 409.227Z" fill="#D95C95"/>
<path d="M42.956 406.23C33.5354 406.23 25.8906 398.593 25.8906 389.165C25.8906 379.737 33.5282 372.1 42.956 372.1C52.3839 372.1 60.0215 379.737 60.0215 389.165C60.0215 398.593 52.3839 406.23 42.956 406.23Z" fill="white"/>
<circle cx="42.946" cy="389.167" r="20.2585" fill="#D95C95"/>
<path d="M747.484 58.2203L715.597 90.1071C714.599 91.0909 713.253 91.6424 711.852 91.6424C710.45 91.6424 709.105 91.0909 708.106 90.1071L679.965 61.9658C678.981 60.9674 678.43 59.622 678.43 58.2203C678.43 56.8186 678.981 55.4732 679.965 54.4747L711.852 22.5879L747.484 58.2203Z" stroke="#D95C95" stroke-width="5" stroke-linecap="round" stroke-linejoin="round"/>
<path d="M714.661 62.366C718.322 62.366 721.29 59.398 721.29 55.7367C721.29 52.0755 718.322 49.1074 714.661 49.1074C710.999 49.1074 708.031 52.0755 708.031 55.7367C708.031 59.398 710.999 62.366 714.661 62.366Z" stroke="#D95C95" stroke-width="5" stroke-linecap="round" stroke-linejoin="round"/>
<path d="M742.5 84.9011C742.5 78.2719 749.129 71.6426 749.129 71.6426C749.129 71.6426 755.759 78.2719 755.759 84.9011C755.759 86.6593 755.06 88.3455 753.817 89.5887C752.574 90.832 750.887 91.5304 749.129 91.5304C747.371 91.5304 745.685 90.832 744.442 89.5887C743.198 88.3455 742.5 86.6593 742.5 84.9011Z" stroke="#D95C95" stroke-width="5" stroke-linecap="round" stroke-linejoin="round"/>
<path d="M709.975 51.0588L686.109 27.1934" stroke="#D95C95" stroke-width="5" stroke-linecap="round" stroke-linejoin="round"/>
<path d="M975.514 631.777C976.127 629.084 976.425 626.329 976.401 623.567C976.253 604.003 960.055 588.174 940.528 588.359C932.186 588.447 924.141 591.47 917.805 596.897C911.469 602.324 907.247 609.81 905.879 618.039C904.511 626.269 906.085 634.717 910.324 641.902C914.564 649.088 921.198 654.55 929.063 657.332C930.401 657.814 931.835 657.966 933.245 657.775C934.654 657.585 935.996 657.057 937.158 656.236C938.319 655.416 939.266 654.327 939.917 653.063C940.568 651.799 940.904 650.396 940.898 648.974V647.532C940.893 646.365 941.119 645.208 941.563 644.129C942.008 643.05 942.661 642.07 943.486 641.245C944.312 640.419 945.292 639.766 946.371 639.322C947.45 638.877 948.607 638.651 949.774 638.656H966.86C968.868 638.657 970.817 637.978 972.388 636.728C973.96 635.479 975.062 633.733 975.514 631.777Z" stroke="#D95C95" stroke-width="4" stroke-linecap="round" stroke-linejoin="round"/>
<path d="M940.899 609.069C943.35 609.069 945.337 607.082 945.337 604.631C945.337 602.18 943.35 600.193 940.899 600.193C938.448 600.193 936.461 602.18 936.461 604.631C936.461 607.082 938.448 609.069 940.899 609.069Z" fill="#D95C95"/>
<path d="M924.243 618.686C926.694 618.686 928.681 616.7 928.681 614.249C928.681 611.797 926.694 609.811 924.243 609.811C921.792 609.811 919.805 611.797 919.805 614.249C919.805 616.7 921.792 618.686 924.243 618.686Z" fill="#D95C95"/>
<path d="M924.243 637.917C926.694 637.917 928.681 635.93 928.681 633.479C928.681 631.028 926.694 629.041 924.243 629.041C921.792 629.041 919.805 631.028 919.805 633.479C919.805 635.93 921.792 637.917 924.243 637.917Z" fill="#D95C95"/>
<path d="M957.54 618.686C959.991 618.686 961.977 616.7 961.977 614.249C961.977 611.797 959.991 609.811 957.54 609.811C955.089 609.811 953.102 611.797 953.102 614.249C953.102 616.7 955.089 618.686 957.54 618.686Z" fill="#D95C95"/>
<path d="M542.008 147.853L554.369 151.033C556.134 151.487 557.995 151.408 559.716 150.805C561.436 150.201 562.939 149.102 564.034 147.644C565.13 146.187 565.768 144.437 565.87 142.617C565.971 140.797 565.53 138.987 564.602 137.417C563.675 135.848 562.303 134.588 560.66 133.798C559.017 133.008 557.176 132.723 555.371 132.979C553.566 133.235 551.878 134.02 550.519 135.236C549.16 136.452 548.193 138.043 547.738 139.809C546.148 145.989 542.008 147.853 542.008 147.853Z" stroke="#D95C95" stroke-width="4" stroke-linecap="round" stroke-linejoin="round"/>
<path d="M562.276 134.797C566.716 131.199 577.713 123.174 585.37 125.144C583.4 132.801 571.064 138.559 565.769 140.711" stroke="#D95C95" stroke-width="4" stroke-linecap="round" stroke-linejoin="round"/>
<path d="M566.945 131.311C568.934 133.222 570.362 135.64 571.077 138.304" stroke="#D95C95" stroke-width="4" stroke-linecap="round" stroke-linejoin="round"/>
<g clip-path="url(#clip1_694_5527)">
<path d="M309.98 606.959C297.065 606.959 286.594 617.43 286.594 630.345C286.594 643.26 297.065 653.727 309.98 653.727C322.895 653.727 333.366 643.256 333.366 630.345C333.366 617.434 322.891 606.959 309.98 606.959ZM309.98 650.139C299.045 650.139 290.181 641.276 290.181 630.341C290.181 619.406 299.045 610.547 309.98 610.547C320.915 610.547 329.778 619.41 329.778 630.345C329.778 641.28 320.915 650.143 309.98 650.143V650.139Z" fill="#CC5293"/>
</g>
<g clip-path="url(#clip2_694_5527)">
<path d="M1116.11 537.658C1096.89 537.658 1081.31 553.237 1081.31 572.452C1081.31 591.667 1096.89 607.24 1116.11 607.24C1135.32 607.24 1150.9 591.661 1150.9 572.452C1150.9 553.243 1135.32 537.658 1116.11 537.658ZM1116.11 601.902C1099.84 601.902 1086.65 588.715 1086.65 572.446C1086.65 556.177 1099.84 542.996 1116.11 542.996C1132.38 542.996 1145.56 556.183 1145.56 572.452C1145.56 588.721 1132.38 601.908 1116.11 601.908V601.902Z" fill="#CC5293"/>
</g>
<path d="M738.077 620.909C737.884 620.314 737.811 619.686 737.863 619.063C737.914 618.44 738.088 617.833 738.375 617.277C738.661 616.721 739.056 616.228 739.534 615.825C740.013 615.423 740.566 615.119 741.163 614.931L766.842 606.738L757.203 576.527L731.524 584.72C730.927 584.908 730.374 585.212 729.895 585.614C729.417 586.017 729.023 586.51 728.736 587.066C728.449 587.622 728.275 588.229 728.224 588.852C728.173 589.475 728.245 590.103 728.438 590.698L738.077 620.909Z" stroke="#D95C95" stroke-width="4" stroke-linecap="round" stroke-linejoin="round"/>
<path d="M738.062 620.908L738.544 622.419L765.734 613.744" stroke="#D95C95" stroke-width="4" stroke-linecap="round" stroke-linejoin="round"/>
<path d="M900.203 140.743C905.397 156.468 896.39 173.799 880.249 179.13C864.107 184.461 846.552 175.909 841.356 160.179L900.203 140.743Z" fill="#D95C95"/>
<g clip-path="url(#clip3_694_5527)">
<path d="M315.323 113.08C297.097 113.08 282.32 127.857 282.32 146.083C282.32 164.309 297.097 179.08 315.323 179.08C333.549 179.08 348.326 164.303 348.326 146.083C348.326 127.863 333.543 113.08 315.323 113.08ZM315.323 174.017C299.891 174.017 287.383 161.509 287.383 146.077C287.383 130.645 299.891 118.143 315.323 118.143C330.755 118.143 343.263 130.651 343.263 146.083C343.263 161.515 330.755 174.023 315.323 174.023V174.017Z" fill="#CC5293"/>
<path d="M315.324 123.252C302.714 123.252 292.492 133.474 292.492 146.084C292.492 158.693 302.714 168.915 315.324 168.915C327.933 168.915 338.155 158.693 338.155 146.084C338.155 133.474 327.933 123.252 315.324 123.252ZM315.324 164.168C305.333 164.168 297.239 156.074 297.239 146.084C297.239 136.093 305.333 127.999 315.324 127.999C325.314 127.999 333.408 136.093 333.408 146.084C333.408 156.074 325.314 164.168 315.324 164.168Z" fill="#CC5293"/>
<path d="M315.32 159.419C307.954 159.419 301.977 153.447 301.977 146.076C301.977 138.704 307.948 132.732 315.32 132.732C322.692 132.732 328.663 138.704 328.663 146.076C328.663 153.447 322.692 159.419 315.32 159.419Z" fill="white"/>
<path d="M315.32 132.74C307.954 132.74 301.977 138.712 301.977 146.084C301.977 153.455 307.948 159.427 315.32 159.427C322.692 159.427 328.663 153.455 328.663 146.084C328.663 138.712 322.692 132.74 315.32 132.74ZM315.32 155.273C310.24 155.273 306.125 151.158 306.125 146.078C306.125 140.998 310.24 136.883 315.32 136.883C320.4 136.883 324.515 140.998 324.515 146.078C324.515 151.158 320.4 155.273 315.32 155.273Z" fill="#CC5293"/>
</g>
<g clip-path="url(#clip4_694_5527)">
<path d="M1032.04 58.3547L1029.09 57.0811L1031.87 50.644C1032.05 50.2172 1032.06 49.7347 1031.89 49.3026C1031.71 48.8706 1031.38 48.5244 1030.95 48.3402L1005.2 37.2277C1004.78 37.0435 1004.29 37.0364 1003.86 37.208C1003.43 37.3795 1003.08 37.7157 1002.9 38.1425L1000.12 44.5796L997.17 43.306C994.359 42.0931 991.139 43.2734 989.991 45.9347L983.045 62.0275C982.861 62.4543 982.854 62.9368 983.026 63.3688C983.197 63.8009 983.533 64.1471 983.96 64.3313L990.397 67.1094L987.619 73.5465C987.435 73.9733 987.428 74.4558 987.599 74.8878C987.771 75.3199 988.107 75.6661 988.534 75.8503L1014.28 86.9627C1014.71 87.1469 1015.19 87.154 1015.62 86.9825C1016.06 86.8109 1016.4 86.4748 1016.59 86.048L1019.36 79.6109L1025.8 82.389C1026.23 82.5732 1026.71 82.5803 1027.14 82.4088C1027.57 82.2372 1027.92 81.9011 1028.11 81.4743L1035.05 65.3815C1036.2 62.7202 1034.85 59.5675 1032.04 58.3547ZM1005.42 41.1408L1027.95 50.8642L1025.87 55.692L1003.34 45.9686L1005.42 41.1408ZM1014.06 83.0497L991.532 73.3263L995.699 63.6706L1018.23 73.394L1014.06 83.0497ZM1025.58 78.4759L1020.75 76.3923L1022.14 73.1738C1022.33 72.747 1022.33 72.2645 1022.16 71.8324C1021.99 71.4004 1021.65 71.0542 1021.23 70.87L995.479 59.7575C995.052 59.5733 994.57 59.5662 994.138 59.7378C993.706 59.9093 993.36 60.2455 993.175 60.6723L991.786 63.8908L986.958 61.8073L993.209 47.3238C993.592 46.4367 994.747 46.0783 995.781 46.5245L1030.65 61.5732C1031.68 62.0194 1032.21 63.1054 1031.83 63.9925L1025.58 78.4759ZM1025.27 65.9321C1025.06 66.4095 1024.72 66.8151 1024.28 67.0976C1023.85 67.3801 1023.33 67.5268 1022.81 67.5191C1022.3 67.5115 1021.79 67.3498 1021.36 67.0546C1020.93 66.7593 1020.6 66.3438 1020.41 65.8605C1020.22 65.3772 1020.17 64.8479 1020.28 64.3394C1020.39 63.831 1020.65 63.3663 1021.02 63.004C1021.4 62.6418 1021.87 62.3983 1022.38 62.3044C1022.89 62.2105 1023.42 62.2703 1023.9 62.4764C1024.54 62.7527 1025.04 63.272 1025.3 63.92C1025.55 64.5681 1025.54 65.2919 1025.27 65.9321Z" fill="#D95C95"/>
</g>
<path d="M1123.07 371.363L1117.29 362.224C1117.1 361.92 1116.85 361.657 1116.55 361.45C1116.26 361.242 1115.93 361.095 1115.58 361.016C1115.22 360.937 1114.86 360.928 1114.51 360.989C1114.15 361.051 1113.81 361.181 1113.51 361.373L1088.29 377.322C1087.99 377.513 1087.72 377.763 1087.52 378.057C1087.31 378.35 1087.16 378.682 1087.08 379.034L1085.4 386.493C1085.24 387.201 1085.37 387.944 1085.76 388.558C1086.15 389.171 1086.76 389.606 1087.47 389.765L1094.93 391.445C1095.28 391.525 1095.65 391.535 1096 391.473C1096.36 391.412 1096.69 391.281 1097 391.087L1122.22 375.14C1122.52 374.948 1122.78 374.698 1122.99 374.404C1123.2 374.11 1123.34 373.778 1123.42 373.428C1123.5 373.077 1123.51 372.714 1123.45 372.36C1123.39 372.005 1123.26 371.667 1123.07 371.363ZM1090.43 379.207L1107.75 368.254L1109.91 371.668L1092.59 382.618L1090.43 379.207ZM1089.15 382.306L1092.86 388.173L1088.07 387.094L1089.15 382.306ZM1096.21 388.346L1094.05 384.933L1111.37 373.98L1113.53 377.394L1096.21 388.346ZM1115.84 375.931L1110.06 366.792L1114.97 363.688L1120.75 372.826L1115.84 375.931Z" fill="#D95C95"/>
<path d="M89.331 610.801C89.3329 610.201 89.2156 609.608 88.986 609.054C88.7564 608.5 88.419 607.998 87.9935 607.575L68.408 587.987C67.9843 587.563 67.4813 587.227 66.9277 586.998C66.374 586.768 65.7806 586.65 65.1814 586.65C64.5821 586.65 63.9887 586.768 63.435 586.998C62.8814 587.227 62.3784 587.563 61.9547 587.987L53.8473 596.095L37.3074 602.303C36.5557 602.583 35.8909 603.056 35.3794 603.674C34.8679 604.292 34.5277 605.034 34.393 605.825L27.7656 645.591C27.711 645.918 27.7282 646.253 27.816 646.573C27.9039 646.892 28.0604 647.189 28.2745 647.442C28.4887 647.695 28.7554 647.898 29.0561 648.038C29.3567 648.177 29.6842 648.249 30.0156 648.249C30.1417 648.249 30.2676 648.238 30.3921 648.218L70.1561 641.591C70.946 641.459 71.6874 641.121 72.3056 640.612C72.9238 640.103 73.3971 639.44 73.678 638.69L79.8861 622.15L87.9935 614.029C88.4193 613.606 88.7567 613.103 88.9863 612.549C89.216 611.995 89.3331 611.401 89.331 610.801ZM69.4061 637.091L36.6658 642.546L50.1743 629.037C51.8615 629.949 53.8205 630.223 55.6932 629.81C57.5659 629.396 59.2271 628.322 60.3731 626.784C61.5191 625.246 62.0733 623.347 61.9345 621.435C61.7956 619.522 60.9729 617.723 59.6167 616.367C58.2606 615.011 56.4617 614.188 54.5489 614.049C52.6361 613.91 50.7372 614.464 49.1994 615.61C47.6616 616.756 46.5877 618.418 46.1739 620.29C45.7602 622.163 46.0343 624.122 46.9462 625.809L33.4377 639.323L38.893 606.575L54.5402 600.709L75.2721 621.443L69.4061 637.091ZM50.5479 622.014C50.5479 621.337 50.7486 620.675 51.1246 620.112C51.5006 619.55 52.035 619.111 52.6603 618.852C53.2856 618.593 53.9737 618.525 54.6375 618.657C55.3013 618.789 55.9111 619.115 56.3896 619.594C56.8682 620.072 57.1941 620.682 57.3262 621.346C57.4582 622.01 57.3905 622.698 57.1314 623.323C56.8724 623.948 56.4338 624.483 55.8711 624.859C55.3083 625.235 54.6467 625.436 53.9699 625.436C53.0623 625.436 52.1919 625.075 51.5502 624.433C50.9084 623.792 50.5479 622.921 50.5479 622.014ZM77.9242 617.645L58.3358 598.059L65.1799 591.215L84.7682 610.801L77.9242 617.645Z" fill="#D95C95"/>
<path d="M964.36 274.164C964.159 273.937 963.897 273.772 963.606 273.689C963.314 273.605 963.005 273.606 962.714 273.691C962.423 273.777 962.162 273.944 961.963 274.172C961.763 274.4 961.632 274.68 961.586 274.98L956.989 304.637C956.957 304.844 956.966 305.056 957.016 305.26C957.065 305.464 957.155 305.656 957.279 305.825C957.529 306.167 957.905 306.395 958.323 306.46C958.742 306.525 959.169 306.421 959.511 306.17C959.853 305.92 960.082 305.544 960.146 305.126L961.343 297.406L976.706 292.887L981.892 298.73C982.031 298.887 982.2 299.015 982.388 299.106C982.577 299.198 982.782 299.252 982.991 299.264C983.201 299.277 983.411 299.248 983.609 299.179C983.807 299.111 983.99 299.004 984.147 298.865C984.304 298.725 984.432 298.557 984.523 298.368C984.615 298.179 984.669 297.974 984.681 297.765C984.694 297.556 984.665 297.346 984.596 297.148C984.528 296.949 984.421 296.766 984.282 296.61L964.36 274.164ZM961.884 293.917L964.224 278.824L974.362 290.247L961.884 293.917ZM988.405 276.126C985.961 276.845 984.247 278.072 983.311 279.773C983.119 280.142 983.079 280.573 983.2 280.971C983.321 281.37 983.593 281.706 983.958 281.907C984.323 282.108 984.752 282.159 985.153 282.048C985.555 281.937 985.898 281.674 986.108 281.314C986.623 280.378 987.703 279.663 989.307 279.191C991.841 278.446 994.411 279.563 995.031 281.67L995.212 282.287C993.585 281.777 991.842 281.766 990.208 282.256C985.982 283.499 983.456 287.603 984.574 291.406C985.693 295.208 990.039 297.291 994.265 296.048C995.904 295.574 997.363 294.619 998.454 293.307C998.592 293.708 998.884 294.037 999.266 294.223C999.647 294.408 1000.09 294.434 1000.49 294.296C1000.89 294.157 1001.22 293.865 1001.4 293.484C1001.59 293.102 1001.61 292.663 1001.48 292.262L998.096 280.769C996.977 276.966 992.631 274.883 988.405 276.126ZM993.363 292.983C990.829 293.728 988.259 292.611 987.639 290.504C987.019 288.397 988.575 286.066 991.11 285.321C993.644 284.575 996.214 285.693 996.834 287.8C997.453 289.907 995.898 292.238 993.363 292.983Z" fill="#D95C95"/>
<path d="M200.306 272.672C200.294 271.613 200.068 270.568 199.643 269.599C199.218 268.63 198.602 267.757 197.831 267.031C194.754 264.112 189.761 264.222 186.706 267.28L182.46 271.551C181.457 270.637 180.141 270.144 178.784 270.176C177.428 270.207 176.136 270.76 175.177 271.72L173.199 273.698C172.872 274.025 172.612 274.413 172.435 274.84C172.258 275.267 172.167 275.724 172.167 276.187C172.167 276.649 172.258 277.107 172.435 277.533C172.612 277.96 172.872 278.348 173.199 278.675L173.638 279.128L162.43 290.339C161.351 291.409 160.57 292.743 160.164 294.208C159.758 295.673 159.741 297.218 160.115 298.692L158.357 302.738C158.112 303.295 158.041 303.912 158.154 304.509C158.266 305.106 158.557 305.656 158.988 306.084C159.486 306.586 160.125 306.925 160.82 307.056C161.515 307.188 162.233 307.106 162.88 306.82L166.731 305.139C168.177 305.466 169.683 305.421 171.108 305.008C172.532 304.595 173.829 303.827 174.875 302.776L186.084 291.565L186.537 292.018C187.196 292.677 188.09 293.047 189.022 293.047C189.955 293.047 190.849 292.677 191.508 292.018L193.486 290.04C194.447 289.079 195.001 287.784 195.031 286.425C195.061 285.067 194.566 283.749 193.649 282.746L197.989 278.378C198.74 277.632 199.332 276.742 199.73 275.761C200.128 274.781 200.324 273.73 200.306 272.672ZM172.394 300.303C171.718 300.981 170.869 301.462 169.94 301.694C169.011 301.927 168.036 301.902 167.12 301.622C166.718 301.498 166.285 301.522 165.9 301.69L161.922 303.429L163.603 299.514C163.778 299.114 163.797 298.663 163.658 298.25C163.34 297.319 163.289 296.317 163.513 295.358C163.736 294.4 164.224 293.523 164.922 292.829L176.13 281.618L183.59 289.092L172.394 300.303ZM195.499 275.903L189.923 281.513C189.595 281.843 189.41 282.289 189.41 282.755C189.41 283.22 189.595 283.667 189.923 283.997L190.998 285.072C191.162 285.235 191.291 285.429 191.38 285.642C191.468 285.856 191.514 286.085 191.514 286.316C191.514 286.547 191.468 286.776 191.38 286.989C191.291 287.203 191.162 287.397 190.998 287.56L189.02 289.538L175.691 276.18L177.669 274.202C177.998 273.872 178.446 273.687 178.912 273.687C179.378 273.687 179.825 273.872 180.154 274.202L181.229 275.277C181.392 275.44 181.587 275.57 181.8 275.659C182.014 275.748 182.243 275.793 182.474 275.793C182.705 275.793 182.935 275.748 183.148 275.659C183.362 275.57 183.556 275.44 183.719 275.277L189.2 269.761C190.917 268.042 193.706 267.963 195.418 269.583C195.845 269.987 196.188 270.473 196.424 271.012C196.661 271.551 196.787 272.131 196.795 272.72C196.803 273.308 196.692 273.892 196.471 274.437C196.249 274.982 195.92 275.477 195.503 275.892L195.499 275.903Z" fill="#D95C95"/>
<g clip-path="url(#clip5_694_5527)">
<path d="M189.867 18.1367C186.216 16.0287 182.021 15.0508 177.814 15.3265C173.607 15.6023 169.577 17.1193 166.232 19.6859C162.887 22.2524 160.379 25.7531 159.023 29.7454C157.668 33.7376 157.527 38.0421 158.619 42.1144C159.71 46.1868 161.984 49.8441 165.154 52.6239C168.323 55.4037 172.246 57.1811 176.426 57.7314C180.606 58.2817 184.855 57.5801 188.637 55.7155C192.418 53.8508 195.561 50.9067 197.669 47.2555C200.49 42.3581 201.252 36.5417 199.79 31.0826C198.327 25.6236 194.758 20.9677 189.867 18.1367ZM189.609 21.8624C190.52 22.5051 191.368 23.2324 192.142 24.0346L174.792 54.0863C173.71 53.8171 172.656 53.4464 171.644 52.9791L189.609 21.8624ZM194.34 26.7855C195.053 27.888 195.644 29.0653 196.1 30.2962L182.198 54.3766C180.903 54.5964 179.589 54.6739 178.277 54.6078L194.34 26.7855ZM163.588 27.5788C165.842 23.686 169.467 20.7744 173.755 19.4138C178.042 18.0532 182.683 18.3417 186.769 20.2226L168.808 51.3323C165.136 48.7342 162.566 44.8593 161.6 40.4659C160.635 36.0726 161.344 31.4771 163.588 27.5788ZM186.81 52.9472L197.169 35.005C197.5 38.6985 196.683 42.4043 194.829 45.6159C192.975 48.8274 190.174 51.3879 186.81 52.9472Z" fill="#D95C95"/>
</g>
</g>
<defs>
<clipPath id="clip0_694_5527">
<rect width="54.8215" height="54.8215" fill="white" transform="translate(52.9297 107.49) rotate(39.5958)"/>
</clipPath>
<clipPath id="clip1_694_5527">
<rect width="46.7679" height="46.7679" fill="white" transform="translate(286.594 606.959)"/>
</clipPath>
<clipPath id="clip2_694_5527">
<rect width="69.5814" height="69.5814" fill="white" transform="translate(1081.31 537.658)"/>
</clipPath>
<clipPath id="clip3_694_5527">
<rect width="66" height="66" fill="white" transform="translate(282.32 113.08)"/>
</clipPath>
<clipPath id="clip4_694_5527">
<rect width="56.088" height="56.088" fill="white" transform="translate(995.109 25.2363) rotate(23.344)"/>
</clipPath>
<clipPath id="clip5_694_5527">
<rect width="52.4713" height="52.4713" fill="white" transform="translate(169.609 0.759766) rotate(30)"/>
</clipPath>
</defs>
</svg>
