<svg width="20" height="25" viewBox="0 0 20 13" fill="none" xmlns="http://www.w3.org/2000/svg">
<path d="M8.12539 5.67558C9.16101 5.14107 9.72892 4.37272 9.72892 3.20348C9.72892 0.831589 7.95836 0.263672 5.95395 0.263672H0.375V12.0897H6.08757C8.25902 12.0897 10.2634 11.0541 10.2634 8.6488C10.2634 7.17889 9.56189 6.07647 8.12539 5.67558ZM2.94733 2.26808H5.41944C6.35483 2.26808 7.19 2.53534 7.19 3.63777C7.19 4.63997 6.52186 5.04085 5.58647 5.04085H2.94733V2.26808ZM5.75351 10.0853H2.94733V6.81142H5.78691C6.95615 6.81142 7.6577 7.31252 7.6577 8.51517C7.6577 9.71782 6.78912 10.0853 5.75351 10.0853ZM17.7132 2.03424V0.864995H12.936V2.03424H17.7132ZM19.6174 7.94725C19.6174 5.40833 18.114 3.27029 15.4415 3.27029C12.8024 3.27029 11.0318 5.2413 11.0318 7.81362C11.0318 10.4862 12.7355 12.3236 15.4415 12.3236C17.4793 12.3236 18.8156 11.3882 19.4503 9.45056H17.3791C17.1452 10.1855 16.2099 10.553 15.5083 10.553C14.1386 10.553 13.4037 9.75122 13.4037 8.38154H19.5839C19.5839 8.24791 19.6174 8.08088 19.6174 7.94725ZM13.4037 6.87823C13.4705 5.77581 14.2389 5.07426 15.3413 5.07426C16.5439 5.07426 17.1452 5.7424 17.2455 6.87823H13.4037Z" fill="#313131"/>
</svg>