<svg width="18" height="18" viewBox="0 0 18 14" fill="none" xmlns="http://www.w3.org/2000/svg">
<path d="M15.5008 0.878906H1.60353C0.701544 0.878906 0 1.61386 0 2.48244V12.1036C0 13.0056 0.701544 13.7071 1.60353 13.7071H15.5008C16.3694 13.7071 17.1043 13.0056 17.1043 12.1036V2.48244C17.1043 1.61386 16.3694 0.878906 15.5008 0.878906ZM15.5008 2.48244V3.85212C14.7324 4.48685 13.5298 5.42224 10.9909 7.42665C10.4229 7.86094 9.32052 8.92996 8.55216 8.89655C7.75039 8.92996 6.64797 7.86094 6.08005 7.42665C3.54113 5.42224 2.33848 4.48685 1.60353 3.85212V2.48244H15.5008ZM1.60353 12.1036V5.92334C2.33848 6.52467 3.44091 7.39325 5.07784 8.69611C5.8128 9.26403 7.11566 10.5335 8.55216 10.5001C9.95525 10.5335 11.2247 9.26403 11.9931 8.69611C13.63 7.39325 14.7324 6.52467 15.5008 5.92334V12.1036H1.60353Z" fill="#313131"/>
</svg>