<svg width="17" height="17" viewBox="0 0 17 17" fill="none" xmlns="http://www.w3.org/2000/svg">
<path d="M8.63451 0.0078125C4.05777 0.0078125 0.349609 3.71597 0.349609 8.29272C0.349609 12.8695 4.05777 16.5776 8.63451 16.5776C13.2113 16.5776 16.9194 12.8695 16.9194 8.29272C16.9194 3.71597 13.2113 0.0078125 8.63451 0.0078125ZM14.6143 5.35291H12.3761C12.1422 4.15026 11.7748 3.08124 11.3071 2.21267C12.7436 2.8474 13.9128 3.94982 14.6143 5.35291ZM8.63451 1.61134C9.23584 1.61134 10.238 3.01443 10.7391 5.35291H6.49647C6.99758 3.01443 7.99978 1.61134 8.63451 1.61134ZM1.95314 8.29272C1.95314 7.85843 1.98655 7.39073 2.08677 6.95644H4.6591C4.62569 7.42414 4.62569 7.85843 4.62569 8.29272C4.62569 8.76041 4.62569 9.1947 4.6591 9.62899H2.08677C1.98655 9.22811 1.95314 8.76041 1.95314 8.29272ZM2.62128 11.2325H4.85954C5.09338 12.4686 5.46086 13.5376 5.92856 14.4062C4.49206 13.7714 3.32282 12.6356 2.62128 11.2325ZM4.85954 5.35291H2.62128C3.32282 3.94982 4.49206 2.8474 5.92856 2.21267C5.46086 3.08124 5.09338 4.15026 4.85954 5.35291ZM8.63451 14.9741C7.99978 14.9741 6.99758 13.6044 6.49647 11.2325H10.7391C10.238 13.6044 9.23584 14.9741 8.63451 14.9741ZM10.973 9.62899H6.26262C6.22922 9.22811 6.22922 8.76041 6.22922 8.29272C6.22922 7.82502 6.22922 7.39073 6.26262 6.95644H10.973C11.0064 7.39073 11.0398 7.82502 11.0398 8.29272C11.0398 8.76041 11.0064 9.22811 10.973 9.62899ZM11.3071 14.4062C11.7748 13.5376 12.1422 12.4686 12.3761 11.2325H14.6143C13.9128 12.6356 12.7436 13.7714 11.3071 14.4062ZM12.5765 9.62899C12.6099 9.1947 12.6433 8.76041 12.6433 8.29272C12.6433 7.85843 12.6099 7.42414 12.5765 6.95644H15.1823C15.2491 7.39073 15.3159 7.85843 15.3159 8.29272C15.3159 8.76041 15.2491 9.22811 15.1823 9.62899H12.5765Z" fill="#313131"/>
</svg>