<svg width="16" height="16" viewBox="0 0 16 16" fill="none" xmlns="http://www.w3.org/2000/svg">
<path d="M8.36117 4.43519C6.22313 4.43519 4.51938 6.17235 4.51938 8.27698C4.51938 10.415 6.22313 12.1188 8.36117 12.1188C10.4658 12.1188 12.203 10.415 12.203 8.27698C12.203 6.17235 10.4658 4.43519 8.36117 4.43519ZM8.36117 10.7825C6.99149 10.7825 5.85565 9.68007 5.85565 8.27698C5.85565 6.9073 6.95808 5.80487 8.36117 5.80487C9.73085 5.80487 10.8333 6.9073 10.8333 8.27698C10.8333 9.68007 9.73085 10.7825 8.36117 10.7825ZM13.2386 4.30156C13.2386 3.80046 12.8377 3.39958 12.3366 3.39958C11.8355 3.39958 11.4346 3.80046 11.4346 4.30156C11.4346 4.80267 11.8355 5.20355 12.3366 5.20355C12.8377 5.20355 13.2386 4.80267 13.2386 4.30156ZM15.7775 5.20355C15.7107 4.0009 15.4434 2.93188 14.5748 2.0633C13.7063 1.19473 12.6372 0.927471 11.4346 0.860657C10.1985 0.793843 6.49039 0.793843 5.25433 0.860657C4.05168 0.927471 3.01607 1.19473 2.11409 2.0633C1.24551 2.93188 0.978252 4.0009 0.911438 5.20355C0.844625 6.4396 0.844625 10.1478 0.911438 11.3838C0.978252 12.5865 1.24551 13.6221 2.11409 14.5241C3.01607 15.3926 4.05168 15.6599 5.25433 15.7267C6.49039 15.7935 10.1985 15.7935 11.4346 15.7267C12.6372 15.6599 13.7063 15.3926 14.5748 14.5241C15.4434 13.6221 15.7107 12.5865 15.7775 11.3838C15.8443 10.1478 15.8443 6.4396 15.7775 5.20355ZM14.174 12.6867C13.9401 13.3548 13.4056 13.8559 12.7709 14.1232C11.7687 14.5241 9.43019 14.4238 8.36117 14.4238C7.25874 14.4238 4.92026 14.5241 3.95146 14.1232C3.28333 13.8559 2.78222 13.3548 2.51497 12.6867C2.11409 11.7179 2.21431 9.37941 2.21431 8.27698C2.21431 7.20796 2.11409 4.86948 2.51497 3.86728C2.78222 3.23254 3.28333 2.73144 3.95146 2.46419C4.92026 2.0633 7.25874 2.16352 8.36117 2.16352C9.43019 2.16352 11.7687 2.0633 12.7709 2.46419C13.4056 2.69803 13.9067 3.23254 14.174 3.86728C14.5748 4.86948 14.4746 7.20796 14.4746 8.27698C14.4746 9.37941 14.5748 11.7179 14.174 12.6867Z" fill="#313131"/>
</svg>