<svg width="16" height="14" viewBox="0 0 16 16" fill="none" xmlns="http://www.w3.org/2000/svg">
<path d="M3.50475 15.759V5.77039H0.397911V15.759H3.50475ZM1.93463 4.43411C2.93683 4.43411 3.7386 3.59894 3.7386 2.59674C3.7386 1.62794 2.93683 0.826172 1.93463 0.826172C0.965827 0.826172 0.164062 1.62794 0.164062 2.59674C0.164062 3.59894 0.965827 4.43411 1.93463 4.43411ZM15.0969 15.759H15.1303V10.2803C15.1303 7.60777 14.529 5.53654 11.3888 5.53654C9.88546 5.53654 8.88326 6.37171 8.44897 7.14007H8.41556V5.77039H5.44235V15.759H8.54919V10.8148C8.54919 9.51196 8.78303 8.2759 10.3866 8.2759C11.9901 8.2759 12.0235 9.74581 12.0235 10.915V15.759H15.0969Z" fill="#313131"/>
</svg>