<svg width="410" height="367" viewBox="0 0 410 367" fill="none" xmlns="http://www.w3.org/2000/svg">
<path d="M365.873 112.031C366.651 108.618 367.028 105.126 366.998 101.625C366.811 76.8282 346.28 56.7657 321.53 57.0001C310.956 57.1116 300.76 60.9429 292.729 67.8219C284.699 74.7008 279.347 84.188 277.613 94.6189C275.879 105.05 277.874 115.758 283.247 124.865C288.621 133.972 297.029 140.896 306.998 144.422C308.694 145.033 310.512 145.226 312.298 144.984C314.084 144.742 315.786 144.073 317.258 143.033C318.73 141.993 319.93 140.613 320.755 139.011C321.581 137.409 322.007 135.631 321.998 133.828V132C321.992 130.521 322.279 129.055 322.842 127.688C323.405 126.32 324.234 125.077 325.279 124.031C326.325 122.985 327.568 122.157 328.936 121.594C330.303 121.031 331.769 120.744 333.248 120.75H354.905C357.449 120.752 359.92 119.89 361.912 118.307C363.904 116.723 365.301 114.511 365.873 112.031Z" stroke="#D95C95" stroke-width="5" stroke-linecap="round" stroke-linejoin="round"/>
<path d="M322 83.25C325.107 83.25 327.625 80.7316 327.625 77.625C327.625 74.5184 325.107 72 322 72C318.893 72 316.375 74.5184 316.375 77.625C316.375 80.7316 318.893 83.25 322 83.25Z" fill="#D95C95"/>
<path d="M300.906 95.4375C304.013 95.4375 306.531 92.9191 306.531 89.8125C306.531 86.7059 304.013 84.1875 300.906 84.1875C297.8 84.1875 295.281 86.7059 295.281 89.8125C295.281 92.9191 297.8 95.4375 300.906 95.4375Z" fill="#D95C95"/>
<path d="M300.906 119.812C304.013 119.812 306.531 117.294 306.531 114.188C306.531 111.081 304.013 108.562 300.906 108.562C297.8 108.562 295.281 111.081 295.281 114.188C295.281 117.294 297.8 119.812 300.906 119.812Z" fill="#D95C95"/>
<path d="M343.094 95.4375C346.2 95.4375 348.719 92.9191 348.719 89.8125C348.719 86.7059 346.2 84.1875 343.094 84.1875C339.987 84.1875 337.469 86.7059 337.469 89.8125C337.469 92.9191 339.987 95.4375 343.094 95.4375Z" fill="#D95C95"/>
<path d="M248.624 202.312L212.549 238.387C211.42 239.501 209.898 240.124 208.312 240.124C206.726 240.124 205.204 239.501 204.074 238.387L172.237 206.55C171.124 205.42 170.5 203.898 170.5 202.312C170.5 200.727 171.124 199.205 172.237 198.075L208.312 162L248.624 202.312Z" stroke="#D95C95" stroke-width="5" stroke-linecap="round" stroke-linejoin="round"/>
<path d="M211.5 207C215.642 207 219 203.642 219 199.5C219 195.358 215.642 192 211.5 192C207.358 192 204 195.358 204 199.5C204 203.642 207.358 207 211.5 207Z" stroke="#D95C95" stroke-width="5" stroke-linecap="round" stroke-linejoin="round"/>
<path d="M243 232.5C243 225 250.5 217.5 250.5 217.5C250.5 217.5 258 225 258 232.5C258 234.489 257.21 236.397 255.803 237.803C254.397 239.21 252.489 240 250.5 240C248.511 240 246.603 239.21 245.197 237.803C243.79 236.397 243 234.489 243 232.5Z" stroke="#D95C95" stroke-width="5" stroke-linecap="round" stroke-linejoin="round"/>
<path d="M206.207 194.213L179.207 167.213" stroke="#D95C95" stroke-width="5" stroke-linecap="round" stroke-linejoin="round"/>
<path d="M343.5 280C355.374 280 365 270.374 365 258.5C365 246.626 355.374 237 343.5 237C331.626 237 322 246.626 322 258.5C322 270.374 331.626 280 343.5 280Z" fill="#D95C95"/>
<path d="M158.296 104C179.447 104 196.593 86.763 196.593 65.5C196.593 44.237 179.447 27 158.296 27C137.146 27 120 44.237 120 65.5C120 86.763 137.146 104 158.296 104Z" fill="#D95C95"/>
<path d="M158.297 98.9066C176.635 98.9066 191.501 83.9496 191.501 65.4992C191.501 47.0488 176.635 32.0918 158.297 32.0918C139.96 32.0918 125.094 47.0488 125.094 65.4992C125.094 83.9496 139.96 98.9066 158.297 98.9066Z" fill="white"/>
<path d="M158.193 86.8891C169.95 86.8891 179.48 77.313 179.48 65.5002C179.48 53.6875 169.95 44.1113 158.193 44.1113C146.437 44.1113 136.906 53.6875 136.906 65.5002C136.906 77.313 146.437 86.8891 158.193 86.8891Z" fill="white"/>
<g clip-path="url(#clip0_323_2805)">
<path d="M158.503 26C136.688 26 119 43.6877 119 65.5034C119 87.3191 136.688 105 158.503 105C180.319 105 198.007 87.3123 198.007 65.5034C198.007 43.6944 180.312 26 158.503 26ZM158.503 98.9397C140.032 98.9397 125.06 83.968 125.06 65.4966C125.06 47.0252 140.032 32.0603 158.503 32.0603C176.975 32.0603 191.946 47.032 191.946 65.5034C191.946 83.9748 176.975 98.9465 158.503 98.9465V98.9397Z" fill="#CC5293"/>
<path d="M158.505 38.1738C143.411 38.1738 131.176 50.4093 131.176 65.5026C131.176 80.5959 143.411 92.8313 158.505 92.8313C173.598 92.8313 185.833 80.5959 185.833 65.5026C185.833 50.4093 173.598 38.1738 158.505 38.1738ZM158.505 87.1494C146.546 87.1494 136.858 77.461 136.858 65.5026C136.858 53.5441 146.546 43.8558 158.505 43.8558C170.463 43.8558 180.151 53.5441 180.151 65.5026C180.151 77.461 170.463 87.1494 158.505 87.1494Z" fill="#CC5293"/>
<path d="M158.503 81.4686C149.686 81.4686 142.531 74.3206 142.531 65.497C142.531 56.6734 149.679 49.5254 158.503 49.5254C167.326 49.5254 174.474 56.6734 174.474 65.497C174.474 74.3206 167.326 81.4686 158.503 81.4686Z" fill="white"/>
<path d="M158.503 49.5312C149.686 49.5312 142.531 56.6793 142.531 65.5029C142.531 74.3264 149.679 81.4745 158.503 81.4745C167.326 81.4745 174.474 74.3264 174.474 65.5029C174.474 56.6793 167.326 49.5312 158.503 49.5312ZM158.503 76.5019C152.422 76.5019 147.497 71.5767 147.497 65.4961C147.497 59.4155 152.422 54.4903 158.503 54.4903C164.583 54.4903 169.509 59.4155 169.509 65.4961C169.509 71.5767 164.583 76.5019 158.503 76.5019Z" fill="#CC5293"/>
</g>
<path d="M87.1706 195.888C73.5726 203.739 55.7475 198.715 47.6887 184.757C39.63 170.799 44.1882 152.853 57.7903 144.999L87.1706 195.888Z" fill="#D95C95"/>
<path d="M106.506 317.306C112.412 299.444 132.012 288.941 150.989 294.026C169.967 299.111 181.691 318.002 177.873 336.429L106.506 317.306Z" stroke="#D95C95" stroke-width="4"/>
<defs>
<clipPath id="clip0_323_2805">
<rect width="79" height="79" fill="white" transform="translate(119 26)"/>
</clipPath>
</defs>
</svg>
