<svg width="32" height="32" viewBox="0 0 32 32" fill="none" xmlns="http://www.w3.org/2000/svg">
<path d="M16.4625 1.00763C12.3875 0.878878 8.5125 2.38388 5.58187 5.2295C2.62687 8.09388 1 11.9501 1 16.0751C1 23.4876 6.49312 29.8939 13.7812 30.9814C13.8562 30.9939 13.925 31.0001 14 31.0001C14.7306 31.0001 15.37 30.4659 15.4812 29.722C15.6033 28.9026 15.0389 28.1389 14.2194 28.017C8.39375 27.1439 4 22.0126 4 16.0751C4 12.7664 5.30375 9.68138 7.67063 7.38138C10.0163 5.10575 13.0612 3.892 16.3706 4.0045C22.7812 4.20013 28 9.86888 28 16.6439V17.8345C28 19.3626 26.7669 20.607 25.25 20.607C23.7331 20.607 22.5 19.3626 22.5 17.8314V10.5439C22.5 9.71575 21.8281 9.10013 21 9.10013C20.255 9.10013 19.6637 9.65357 19.5475 10.3658C18.4 9.49388 17.0125 9.00013 15.5 9.00013C11.6406 9.00013 8.5 12.1408 8.5 15.9439C8.5 19.747 11.6406 22.8876 15.5 22.8876C17.4219 22.8876 19.1637 22.1076 20.43 20.8489C21.4556 22.4364 23.2281 23.4939 25.25 23.4939C28.4206 23.4939 31 20.9039 31 17.7214V16.6439C31 8.26263 24.475 1.19388 16.4625 1.00763ZM15.5 20.0001C13.2937 20.0001 11.5 18.2064 11.5 16.0564C11.5 13.8508 13.2937 12.1126 15.5 12.1126C17.7062 12.1126 19.5 13.9064 19.5 16.0564C19.5 18.2064 17.7062 20.0001 15.5 20.0001Z" fill="#313131"/>
</svg>
