<svg width="46" height="46" viewBox="0 0 46 46" fill="none" xmlns="http://www.w3.org/2000/svg">
<path d="M23.0513 11.1406C16.4799 11.1406 11.2433 16.4799 11.2433 22.9487C11.2433 29.5201 16.4799 34.7567 23.0513 34.7567C29.5201 34.7567 34.8594 29.5201 34.8594 22.9487C34.8594 16.4799 29.5201 11.1406 23.0513 11.1406ZM23.0513 30.6496C18.8415 30.6496 15.3504 27.2612 15.3504 22.9487C15.3504 18.7388 18.7388 15.3504 23.0513 15.3504C27.2612 15.3504 30.6495 18.7388 30.6495 22.9487C30.6495 27.2612 27.2612 30.6496 23.0513 30.6496ZM38.0424 10.7299C38.0424 9.18973 36.8103 7.95759 35.2701 7.95759C33.7299 7.95759 32.4978 9.18973 32.4978 10.7299C32.4978 12.2701 33.7299 13.5022 35.2701 13.5022C36.8103 13.5022 38.0424 12.2701 38.0424 10.7299ZM45.846 13.5022C45.6406 9.8058 44.8192 6.52009 42.1496 3.85045C39.4799 1.1808 36.1942 0.359375 32.4978 0.154018C28.6987 -0.0513393 17.3013 -0.0513393 13.5022 0.154018C9.80581 0.359375 6.62277 1.1808 3.85045 3.85045C1.18081 6.52009 0.359375 9.8058 0.154018 13.5022C-0.0513393 17.3013 -0.0513393 28.6987 0.154018 32.4978C0.359375 36.1942 1.18081 39.3772 3.85045 42.1496C6.62277 44.8192 9.80581 45.6406 13.5022 45.846C17.3013 46.0513 28.6987 46.0513 32.4978 45.846C36.1942 45.6406 39.4799 44.8192 42.1496 42.1496C44.8192 39.3772 45.6406 36.1942 45.846 32.4978C46.0513 28.6987 46.0513 17.3013 45.846 13.5022ZM40.9174 36.5022C40.1987 38.5558 38.5558 40.096 36.6049 40.9174C33.5245 42.1496 26.3371 41.8415 23.0513 41.8415C19.6629 41.8415 12.4754 42.1496 9.49777 40.9174C7.4442 40.096 5.90402 38.5558 5.08259 36.5022C3.85045 33.5246 4.15848 26.3371 4.15848 22.9487C4.15848 19.6629 3.85045 12.4754 5.08259 9.39509C5.90402 7.4442 7.4442 5.90402 9.49777 5.08259C12.4754 3.85045 19.6629 4.15848 23.0513 4.15848C26.3371 4.15848 33.5245 3.85045 36.6049 5.08259C38.5558 5.80134 40.096 7.4442 40.9174 9.39509C42.1495 12.4754 41.8415 19.6629 41.8415 22.9487C41.8415 26.3371 42.1495 33.5246 40.9174 36.5022Z" fill="#313131"/>
</svg>
