<svg width="410" height="367" viewBox="0 0 410 367" fill="none" xmlns="http://www.w3.org/2000/svg">
<g clip-path="url(#clip0_323_2804)">
<g clip-path="url(#clip1_323_2804)">
<path d="M7 183H57V133L7 183Z" fill="#72AD56"/>
</g>
<g clip-path="url(#clip2_323_2804)">
<path d="M274.45 180.753C271.858 182.301 270.083 182.013 267.612 179.697C263.274 175.632 257.565 174.265 251.52 174.77C250.814 174.832 250.089 175.095 249.416 174.982C247.701 174.714 246.793 173.68 246.637 171.906C246.48 170.189 247.428 169.819 248.855 169.4C255.24 167.524 258.716 162.864 258.274 157.445C257.963 153.557 254.218 148.832 249.74 148.293C244.225 147.626 239.586 149.993 237.733 154.678C237.312 155.739 237.015 156.877 236.823 158.01C236.491 159.91 235.446 161.144 233.517 160.841C231.645 160.538 230.669 158.956 231.017 157.177C232.095 151.723 234.115 146.74 239.69 144.26C246.207 141.363 252.53 141.405 258.353 146.007C264.037 150.496 265.853 159.568 262.187 165.852C260.799 168.231 259.944 169.798 263.716 170.806C267.697 171.869 270.912 174.533 273.956 177.26L274.448 180.744L274.45 180.753Z" fill="#72AD56"/>
<path d="M236.317 200.331C242.685 202.247 248.16 205.462 252.229 210.728C252.66 211.281 253.126 211.811 253.512 212.389C254.498 213.838 253.968 215.142 252.822 216.135C251.541 217.252 250.188 216.98 249.058 215.788C247.524 214.172 246.181 212.358 244.508 210.902C232.593 200.612 212.326 204.166 205.739 220.787C204.776 223.21 203.355 224.205 201.312 223.501C198.959 222.7 199.675 220.482 200.314 218.737C202.599 212.46 206.867 207.67 212.399 203.532C206.882 199.35 202.764 194.214 202.303 187.313C201.913 181.518 203.99 176.263 208.023 171.836C214.077 165.196 227.073 164.389 234.774 170.276C243.532 176.968 244.147 187.92 236.305 200.314L236.317 200.331ZM236.193 184.224C235.974 176.675 229.075 170.94 220.17 172.038C213.708 172.828 207.175 179.253 208.147 187.612C209.018 195.05 216.479 201.056 224.178 199.854C232.652 198.533 238.099 190.562 236.194 184.234L236.193 184.224Z" fill="#72AD56"/>
<path d="M180.011 167.97C180.814 173.584 185.636 177.704 191.582 177.44C193.456 177.354 194.816 177.739 194.956 179.401C195.095 181.13 194.328 182.911 192.103 183.15C184.838 183.922 179.821 187.92 176.164 193.929C175.229 195.469 174.063 196.456 172.163 195.146C170.38 193.924 170.015 192.284 171.246 190.682C173.707 187.471 175.826 183.722 179.459 181.79C182.171 180.348 180.777 179.855 179.488 178.894C177.571 177.464 176.181 175.449 175.267 173.432C171.4 164.877 175.235 152.719 187.53 150.461C194.282 149.224 200.947 152.364 204.67 158.218C205.553 159.605 205.662 161.055 205.862 162.539C206.064 163.966 205.029 164.66 203.908 165.093C202.824 165.511 201.81 165.276 201.16 164.186C200.81 163.593 200.415 163.025 200.128 162.414C197.128 155.948 188.984 154.074 183.417 158.632C180.445 161.066 179.349 164.226 180.022 167.978L180.011 167.97Z" fill="#72AD56"/>
</g>
<g clip-path="url(#clip3_323_2804)">
<path d="M214.533 295.711L214.533 353.29L222.871 348.44L222.871 300.561L214.533 295.711Z" fill="#72AD56"/>
<path d="M228.216 303.676L228.216 345.325L236.555 340.476L236.555 308.526L228.216 303.676Z" fill="#72AD56"/>
<path d="M255.576 329.402L264 324.501L255.576 319.6L255.576 329.402Z" fill="#72AD56"/>
<path d="M241.892 311.635L241.892 337.367L250.23 332.511L250.23 316.49L241.892 311.635Z" fill="#72AD56"/>
<path d="M209.187 356.398L209.187 292.602L203.002 289L203.002 360L209.187 356.398Z" fill="#72AD56"/>
</g>
<path d="M319.725 108.383L357.732 80.0408L314.144 61.3019L319.725 108.383Z" fill="#72AD56" stroke="#72AD56" stroke-width="5" stroke-miterlimit="10"/>
<path d="M377.143 272.806L367.169 200.459L309.478 245.328L377.143 272.806Z" stroke="#72AD56" stroke-width="5" stroke-miterlimit="10"/>
<g clip-path="url(#clip4_323_2804)">
<path d="M126.036 89.6873C125.713 89.9243 125.334 90.0835 124.938 90.1484C124.542 90.2132 124.144 90.1814 123.784 90.0562C123.425 89.931 123.117 89.717 122.894 89.4364C122.671 89.1558 122.539 88.8188 122.514 88.4603L121.763 78.0616C116.964 74.5641 113.868 69.4863 113.044 63.7588C112.22 58.0313 113.722 52.0378 117.275 46.8768C120.827 41.7158 126.193 37.7331 132.389 35.6584C138.584 33.5838 145.194 33.5563 151.007 35.581C156.82 37.6057 161.447 41.547 164.039 46.6824C166.631 51.8178 167.016 57.8035 165.121 63.5422C163.227 69.281 159.182 74.3885 153.726 77.9287C148.271 81.4688 141.77 83.2044 135.417 82.8174L126.036 89.6873Z" stroke="#72AD56" stroke-width="5" stroke-linecap="round" stroke-linejoin="round"/>
<path d="M147.177 81.1412C149.619 83.6744 152.686 85.6421 156.164 86.9084C159.643 88.1746 163.45 88.7092 167.324 88.4751C171.197 88.241 175.045 87.2439 178.599 85.5527C182.154 83.8614 185.332 81.5164 187.912 78.6797L199.426 77.0563C199.822 77.0006 200.205 76.85 200.534 76.6201C200.863 76.3903 201.126 76.0895 201.297 75.7491C201.467 75.4086 201.538 75.0409 201.502 74.684C201.466 74.3271 201.325 73.9941 201.093 73.7194L194.376 65.7461C195.077 61.6362 194.637 57.5243 193.097 53.7937C191.558 50.0631 188.968 46.8353 185.57 44.4113C182.173 41.9873 178.077 40.4459 173.666 39.9309C169.255 39.4159 164.671 39.9441 160.343 41.4662" stroke="#72AD56" stroke-width="5" stroke-linecap="round" stroke-linejoin="round"/>
</g>
<path d="M123.625 247.85H72.375C71.0158 247.85 69.7122 248.39 68.7511 249.351C67.79 250.312 67.25 251.615 67.25 252.975V304.225C67.25 305.584 67.79 306.887 68.7511 307.849C69.7122 308.81 71.0158 309.35 72.375 309.35H107.19C107.863 309.352 108.53 309.22 109.152 308.962C109.774 308.704 110.338 308.325 110.812 307.847L127.248 291.412C127.726 290.938 128.105 290.373 128.363 289.752C128.62 289.13 128.752 288.463 128.75 287.789V252.975C128.75 251.615 128.21 250.312 127.249 249.351C126.288 248.39 124.984 247.85 123.625 247.85ZM72.375 252.975H123.625V286.287H108.25C107.57 286.287 106.919 286.557 106.438 287.038C105.957 287.518 105.688 288.17 105.688 288.85V304.225H72.375V252.975ZM120.002 291.412L110.812 300.602V291.412H120.002Z" fill="#72AD56"/>
</g>
<defs>
<clipPath id="clip0_323_2804">
<rect width="410" height="367" fill="white"/>
</clipPath>
<clipPath id="clip1_323_2804">
<rect width="50" height="50" fill="white" transform="translate(7 133)"/>
</clipPath>
<clipPath id="clip2_323_2804">
<rect width="104.579" height="74.6989" fill="white" transform="translate(165 153.637) rotate(-8.04563)"/>
</clipPath>
<clipPath id="clip3_323_2804">
<rect width="71" height="61" fill="white" transform="translate(264 289) rotate(90)"/>
</clipPath>
<clipPath id="clip4_323_2804">
<rect width="96.6496" height="84.985" fill="white" transform="translate(92.9922 40.1367) rotate(-22.1219)"/>
</clipPath>
</defs>
</svg>
