<svg width="27" height="36" viewBox="0 0 27 36" fill="none" xmlns="http://www.w3.org/2000/svg">
<g clip-path="url(#clip0_323_2196)">
<path d="M19.125 13.5C19.125 16.6078 16.6078 19.125 13.5 19.125C10.3922 19.125 7.875 16.6078 7.875 13.5C7.875 10.3922 10.3922 7.875 13.5 7.875C16.6078 7.875 19.125 10.3922 19.125 13.5ZM13.5 11.25C12.2555 11.25 11.25 12.2555 11.25 13.5C11.25 14.7445 12.2555 15.75 13.5 15.75C14.7445 15.75 15.75 14.7445 15.75 13.5C15.75 12.2555 14.7445 11.25 13.5 11.25ZM27 13.5C27 19.6453 18.7734 30.5859 15.1664 35.1C14.3016 36.1758 12.6984 36.1758 11.8336 35.1C8.16328 30.5859 0 19.6453 0 13.5C0 6.04406 6.04406 0 13.5 0C20.9531 0 27 6.04406 27 13.5ZM13.5 3.375C7.91016 3.375 3.375 7.91016 3.375 13.5C3.375 14.3719 3.6907 15.7219 4.45078 17.5219C5.18766 19.2656 6.23391 21.1922 7.43906 23.1398C9.43594 26.3883 11.7563 29.468 13.5 31.7602C15.2437 29.468 17.5641 26.3883 19.5609 23.1398C20.7633 21.1922 21.8109 19.2656 22.5492 17.5219C23.3086 15.7219 23.625 14.3719 23.625 13.5C23.625 7.91016 19.0898 3.375 13.5 3.375Z" fill="#313131"/>
</g>
<defs>
<clipPath id="clip0_323_2196">
<rect width="27" height="36" fill="white"/>
</clipPath>
</defs>
</svg>
