<?xml version="1.0" encoding="utf-8"?>
<!-- Generator: Adobe Illustrator 27.2.0, SVG Export Plug-In . SVG Version: 6.00 Build 0)  -->
<svg version="1.1" id="Layer_1" xmlns="http://www.w3.org/2000/svg" xmlns:xlink="http://www.w3.org/1999/xlink" x="0px" y="0px"
	 viewBox="0 0 1366 768" style="enable-background:new 0 0 1366 768;" xml:space="preserve">
<style type="text/css">
	.st0{fill:#E45197;}
	.st1{fill:#EC6F3A;}
	.st2{fill:#5CA545;}
	.st3{fill:#F86820;}
</style>
<path class="st3" d="M585.4,370.1c15.7-28.4,31.4-56.8,47.1-85.2c16.3,28.4,32.5,56.8,48.8,85.2
	C649.3,370.1,617.4,370.1,585.4,370.1z"/>
<rect x="842.3" y="398" transform="matrix(-1 -1.224647e-16 1.224647e-16 -1 1703.2917 879.2761)" class="st3" width="18.7" height="83.3"/>
<path d="M332.7,369.5l37.1-82.4h15.1l37.2,82.4h-16.1l-31.8-74.2h6.1l-31.9,74.2H332.7z M349.7,350.5l4.2-12h44.4l4.1,12H349.7z"/>
<path d="M450.5,369.5l-36-82.4h16.6l32.1,74.5h-9.6l32.7-74.5h15.2l-35.9,82.4H450.5z"/>
<path d="M545.8,370.7c-6.4,0-12.3-1-17.7-3.1c-5.4-2.1-10.1-5-14.1-8.9c-4-3.8-7.1-8.3-9.3-13.4c-2.2-5.1-3.3-10.7-3.3-16.9
	c0-6.2,1.1-11.8,3.3-16.9c2.2-5.1,5.3-9.6,9.4-13.4c4-3.8,8.7-6.8,14.1-8.9c5.4-2.1,11.4-3.1,17.9-3.1c6.9,0,13.2,1.1,18.8,3.4
	c5.6,2.3,10.3,5.6,14.2,10l-9.6,9.4c-3.2-3.2-6.7-5.6-10.4-7.1c-3.7-1.5-7.8-2.3-12.3-2.3c-4.4,0-8.4,0.7-12.1,2.1
	c-3.6,1.4-6.8,3.4-9.5,6c-2.7,2.6-4.7,5.6-6.2,9.2c-1.5,3.5-2.2,7.4-2.2,11.6c0,4.2,0.7,8,2.2,11.6c1.5,3.6,3.6,6.6,6.2,9.2
	c2.7,2.6,5.8,4.6,9.4,6c3.6,1.4,7.6,2.1,12,2.1c4.1,0,8-0.6,11.8-1.9c3.8-1.3,7.4-3.5,10.9-6.5l8.6,11.4c-4.2,3.5-9.2,6.1-14.8,7.8
	C557.5,369.8,551.7,370.7,545.8,370.7z M563.6,358.2v-30.7h14.4v32.7L563.6,358.2z"/>
<path d="M690.3,369.5v-82.4h12.6l51.7,63.5h-6.2v-63.5h15.1v82.4h-12.6L699.2,306h6.2v63.5H690.3z"/>
<path d="M824.1,370.7c-6.4,0-12.3-1-17.7-3.1c-5.4-2.1-10.1-5-14.1-8.9c-4-3.8-7.1-8.3-9.3-13.4c-2.2-5.1-3.3-10.7-3.3-16.9
	c0-6.2,1.1-11.8,3.3-16.9c2.2-5.1,5.3-9.6,9.4-13.4c4-3.8,8.7-6.8,14.1-8.9c5.4-2.1,11.4-3.1,17.9-3.1c6.9,0,13.2,1.1,18.8,3.4
	c5.6,2.3,10.3,5.6,14.2,10l-9.6,9.4c-3.2-3.2-6.7-5.6-10.4-7.1c-3.7-1.5-7.8-2.3-12.3-2.3c-4.4,0-8.4,0.7-12.1,2.1
	c-3.6,1.4-6.8,3.4-9.5,6c-2.7,2.6-4.7,5.6-6.2,9.2c-1.5,3.5-2.2,7.4-2.2,11.6c0,4.2,0.7,8,2.2,11.6c1.5,3.6,3.6,6.6,6.2,9.2
	c2.7,2.6,5.8,4.6,9.4,6c3.6,1.4,7.6,2.1,12,2.1c4.1,0,8-0.6,11.8-1.9c3.8-1.3,7.4-3.5,10.9-6.5l8.6,11.4c-4.2,3.5-9.2,6.1-14.8,7.8
	C835.7,369.8,829.9,370.7,824.1,370.7z M841.8,358.2v-30.7h14.4v32.7L841.8,358.2z"/>
<path d="M903.9,370.7c-6.4,0-12.6-0.9-18.4-2.8c-5.8-1.8-10.5-4.2-14.1-7.1l5.3-11.9c3.3,2.6,7.4,4.7,12.2,6.5
	c4.9,1.7,9.8,2.6,14.9,2.6c4.3,0,7.8-0.5,10.5-1.4c2.7-0.9,4.6-2.2,5.9-3.8c1.3-1.6,1.9-3.4,1.9-5.5c0-2.5-0.9-4.5-2.7-6.1
	c-1.8-1.5-4.1-2.7-7-3.6c-2.9-0.9-6-1.7-9.5-2.5c-3.5-0.7-7-1.7-10.5-2.8c-3.5-1.1-6.7-2.5-9.6-4.2c-2.9-1.7-5.2-3.9-7-6.8
	c-1.8-2.8-2.6-6.4-2.6-10.8c0-4.5,1.2-8.6,3.6-12.3c2.4-3.7,6-6.7,10.9-8.9c4.9-2.2,11.1-3.4,18.6-3.4c4.9,0,9.8,0.6,14.7,1.9
	c4.9,1.3,9.1,3.1,12.7,5.4l-4.8,11.9c-3.7-2.2-7.5-3.8-11.4-4.9c-3.9-1.1-7.7-1.6-11.3-1.6c-4.2,0-7.6,0.5-10.2,1.5
	c-2.7,1-4.6,2.4-5.8,4.1c-1.2,1.7-1.8,3.5-1.8,5.6c0,2.5,0.9,4.5,2.6,6.1s4.1,2.7,6.9,3.6c2.9,0.9,6.1,1.7,9.6,2.5
	c3.5,0.8,7,1.7,10.5,2.8c3.5,1.1,6.6,2.4,9.5,4.1c2.9,1.7,5.2,3.9,7,6.7c1.8,2.8,2.6,6.3,2.6,10.6c0,4.4-1.2,8.5-3.6,12.2
	c-2.4,3.7-6.1,6.7-11,8.9C917.7,369.6,911.4,370.7,903.9,370.7z"/>
<path d="M369,482c-11.2,0-20-3.2-26.4-9.5c-6.4-6.4-9.6-15.6-9.6-27.7v-46.4h15.3v45.9c0,8.5,1.8,14.6,5.5,18.5
	c3.6,3.8,8.8,5.8,15.5,5.8c6.7,0,11.8-1.9,15.4-5.8c3.6-3.8,5.4-10,5.4-18.5v-45.9h15.1v46.4c0,12.1-3.2,21.3-9.6,27.7
	C389.2,478.9,380.3,482,369,482z"/>
<path d="M536.4,482c-6.4,0-12.6-0.9-18.4-2.8c-5.8-1.8-10.5-4.2-14.1-7.1l5.3-11.9c3.3,2.6,7.4,4.7,12.2,6.5
	c4.9,1.7,9.8,2.6,14.9,2.6c4.3,0,7.8-0.5,10.5-1.4c2.7-0.9,4.6-2.2,5.9-3.8c1.3-1.6,1.9-3.4,1.9-5.5c0-2.5-0.9-4.5-2.7-6.1
	c-1.8-1.5-4.1-2.7-7-3.6c-2.9-0.9-6-1.7-9.5-2.5c-3.5-0.7-7-1.7-10.5-2.8c-3.5-1.1-6.7-2.5-9.6-4.2c-2.9-1.7-5.2-3.9-7-6.8
	c-1.8-2.8-2.6-6.4-2.6-10.8c0-4.5,1.2-8.6,3.6-12.3c2.4-3.7,6-6.7,10.9-8.9c4.9-2.2,11.1-3.4,18.6-3.4c4.9,0,9.8,0.6,14.7,1.9
	c4.9,1.3,9.1,3.1,12.7,5.4l-4.8,11.9c-3.7-2.2-7.5-3.8-11.4-4.9c-3.9-1.1-7.7-1.6-11.3-1.6c-4.2,0-7.6,0.5-10.2,1.5
	c-2.7,1-4.6,2.4-5.8,4.1c-1.2,1.7-1.8,3.5-1.8,5.6c0,2.5,0.9,4.5,2.6,6.1c1.8,1.5,4.1,2.7,6.9,3.6c2.9,0.9,6.1,1.7,9.6,2.5
	c3.5,0.8,7,1.7,10.5,2.8c3.5,1.1,6.6,2.4,9.5,4.1c2.9,1.7,5.2,3.9,7,6.7c1.8,2.8,2.6,6.3,2.6,10.6c0,4.4-1.2,8.5-3.6,12.2
	c-2.4,3.7-6.1,6.7-11,8.9C550.1,480.9,543.9,482,536.4,482z"/>
<path d="M602.3,480.9v-69.4H575v-12.9h69.9v12.9h-27.3v69.4H602.3z"/>
<path d="M660.4,480.9v-82.4h15.3v82.4H660.4z"/>
<path d="M699.9,480.9v-82.4h15.3v69.4h43.1v12.9H699.9z"/>
<path d="M770.4,480.9v-82.4h15.3v69.4h43.1v12.9H770.4z"/>
<path d="M882.4,480.9v-82.4h12.6l51.7,63.5h-6.2v-63.5h15.1v82.4h-12.6l-51.5-63.5h6.2v63.5H882.4z"/>
<path d="M1014.2,482c-6.4,0-12.3-1-17.7-3.1c-5.4-2.1-10.1-5-14.1-8.9c-4-3.8-7.1-8.3-9.3-13.4c-2.2-5.1-3.3-10.7-3.3-16.9
	c0-6.2,1.1-11.8,3.3-16.9c2.2-5.1,5.3-9.6,9.4-13.4c4-3.8,8.7-6.8,14.1-8.9c5.4-2.1,11.4-3.1,17.9-3.1c6.9,0,13.2,1.1,18.8,3.4
	c5.6,2.3,10.3,5.6,14.2,10l-9.6,9.4c-3.2-3.2-6.7-5.6-10.4-7.1c-3.7-1.5-7.8-2.3-12.3-2.3c-4.4,0-8.4,0.7-12.1,2.1
	c-3.6,1.4-6.8,3.4-9.5,6c-2.7,2.6-4.7,5.6-6.2,9.2s-2.2,7.4-2.2,11.6c0,4.2,0.7,8,2.2,11.6c1.5,3.6,3.6,6.6,6.2,9.2
	c2.7,2.6,5.8,4.6,9.4,6c3.6,1.4,7.6,2.1,12,2.1c4.1,0,8-0.6,11.8-1.9c3.8-1.3,7.4-3.5,10.9-6.5l8.6,11.4c-4.2,3.5-9.2,6.1-14.8,7.8
	C1025.8,481.1,1020.1,482,1014.2,482z M1031.9,469.6v-30.7h14.4v32.7L1031.9,469.6z"/>
<rect x="447.5" y="372" transform="matrix(0.1541 -0.9881 0.9881 0.1541 -16.5501 796.346)" class="st3" width="18.7" height="71.6"/>
<circle class="st3" cx="455.6" cy="453.2" r="29.9"/>
</svg>
