<svg width="32" height="32" viewBox="0 0 32 32" fill="none" xmlns="http://www.w3.org/2000/svg">
<g clip-path="url(#clip0_323_2204)">
<path d="M30.0188 20.0191L23.8813 17.3879C22.5431 16.8078 20.9663 17.1936 20.0563 18.3222L18.3413 20.416C15.5425 18.8066 13.1981 16.4629 11.5913 13.7222L13.6881 12.0047C14.8075 11.091 15.1938 9.52349 14.6269 8.18911L11.9813 1.97099C11.3463 0.520985 9.7725 -0.270265 8.23938 0.0841103L2.53625 1.40036C1.04375 1.74161 0 3.05224 0 4.58724C0 19.706 12.2938 31.9997 27.4125 31.9997C28.9475 31.9997 30.2581 30.9566 30.5438 29.4666L31.86 23.7579C32.275 22.2191 31.475 20.6441 30.0188 20.0191ZM28.9938 23.0816L27.6756 28.7947C27.6463 28.8635 27.5438 28.9998 27.4119 28.9998C13.9494 28.9998 2.99944 18.0498 2.99944 4.5873C2.99944 4.45642 3.0805 4.35392 3.20844 4.32461L8.91719 3.00711C8.93672 3.00223 8.95723 3.00027 8.97676 3.00027C9.08513 3.00027 9.18669 3.06571 9.22969 3.16334L11.8634 9.30896C11.9103 9.41934 11.8791 9.54821 11.7853 9.62534L8.7375 12.0691C8.19844 12.5105 8.03438 13.2654 8.341 13.8904C10.4041 18.0922 13.8573 21.5466 18.0598 23.6091C18.6285 23.9157 19.4404 23.7517 19.8823 23.2126L22.3829 20.1582C22.4522 20.0704 22.5821 20.0371 22.6905 20.0879L28.8318 22.7186C28.95 22.8254 29.0188 22.9566 28.9938 23.0816Z" fill="#313131"/>
</g>
<defs>
<clipPath id="clip0_323_2204">
<rect width="32" height="32" fill="white"/>
</clipPath>
</defs>
</svg>
