<svg width="32" height="36" viewBox="0 0 32 36" fill="none" xmlns="http://www.w3.org/2000/svg">
<g clip-path="url(#clip0_323_2200)">
<path d="M17.4375 22.5H12.9375V25.3125C12.9375 26.2477 12.1852 27 11.25 27C10.3148 27 9.5625 26.2477 9.5625 25.3125V11.25C9.5625 10.0055 10.568 9 11.8125 9H17.4375C21.1641 9 24.1875 11.9602 24.1875 15.75C24.1875 19.4766 21.1641 22.5 17.4375 22.5ZM17.4375 19.125C19.3008 19.125 20.8125 17.6133 20.8125 15.75C20.8125 13.8867 19.3008 12.375 17.4375 12.375H12.9375V19.125H17.4375ZM0 6.75C0 4.26445 2.01445 2.25 4.5 2.25H27C29.482 2.25 31.5 4.26445 31.5 6.75V29.25C31.5 31.732 29.482 33.75 27 33.75H4.5C2.01445 33.75 0 31.732 0 29.25V6.75ZM3.375 6.75V29.25C3.375 29.8687 3.87844 30.375 4.5 30.375H27C27.6187 30.375 28.125 29.8687 28.125 29.25V6.75C28.125 6.12844 27.6187 5.625 27 5.625H4.5C3.87844 5.625 3.375 6.12844 3.375 6.75Z" fill="#313131"/>
</g>
<defs>
<clipPath id="clip0_323_2200">
<rect width="31.5" height="36" fill="white"/>
</clipPath>
</defs>
</svg>
