<svg width="410" height="367" viewBox="0 0 410 367" fill="none" xmlns="http://www.w3.org/2000/svg">
<path d="M209.928 211.753L168.242 201.127C166.031 200.563 164.134 199.144 162.969 197.182C161.804 195.22 161.467 192.876 162.03 190.665L171.594 153.148C172.157 150.937 173.576 149.04 175.538 147.875C177.5 146.71 179.845 146.372 182.056 146.936L223.741 157.562" stroke="#5091CC" stroke-width="5" stroke-linecap="round" stroke-linejoin="round"/>
<path d="M205.675 228.428L180.664 222.053" stroke="#5091CC" stroke-width="5" stroke-linecap="round" stroke-linejoin="round"/>
<path d="M274.823 166.145L258.148 161.895" stroke="#5091CC" stroke-width="5" stroke-linecap="round" stroke-linejoin="round"/>
<path d="M270.573 182.819L253.898 178.568" stroke="#5091CC" stroke-width="5" stroke-linecap="round" stroke-linejoin="round"/>
<path d="M291.581 152.659L249.895 142.033C247.593 141.446 245.251 142.837 244.664 145.139L223.412 228.51C222.825 230.813 224.216 233.155 226.518 233.742L268.203 244.368C270.506 244.954 272.848 243.564 273.435 241.262L294.687 157.89C295.273 155.588 293.883 153.246 291.581 152.659Z" stroke="#5091CC" stroke-width="5" stroke-linecap="round" stroke-linejoin="round"/>
<path d="M197.422 208.566L193.171 225.241" stroke="#5091CC" stroke-width="5" stroke-linecap="round" stroke-linejoin="round"/>
<path d="M250.546 226.549C253.999 227.429 257.512 225.343 258.392 221.89C259.273 218.437 257.187 214.923 253.733 214.043C250.28 213.163 246.767 215.249 245.887 218.702C245.006 222.155 247.092 225.669 250.546 226.549Z" fill="#5091CC"/>
<path d="M320.664 264.578L320.509 264.103L320.034 264.259L313.844 266.287L313.369 266.442L313.525 266.917L328.865 313.744L329.02 314.219L329.496 314.063L335.685 312.036L336.16 311.88L336.004 311.405L320.664 264.578ZM336.676 259.333L336.521 258.858L336.046 259.014L329.856 261.041L329.381 261.197L329.537 261.672L344.877 308.498L345.032 308.974L345.508 308.818L351.697 306.79L352.172 306.635L352.016 306.16L336.676 259.333ZM352.683 254.089L352.528 253.614L352.052 253.77L345.863 255.798L345.388 255.953L345.544 256.428L360.884 303.255L361.039 303.73L361.514 303.574L367.704 301.547L368.179 301.391L368.023 300.916L352.683 254.089ZM368.695 248.844L368.54 248.369L368.064 248.525L361.875 250.552L361.4 250.708L361.556 251.183L376.896 298.009L377.051 298.485L377.526 298.329L383.716 296.301L384.191 296.146L384.035 295.67L368.695 248.844Z" fill="#5D91CD" stroke="#5091CC"/>
<path d="M36.2953 196.023L17.7683 203.239L28.2069 220.161" stroke="#5091CC" stroke-width="5" stroke-linecap="round" stroke-linejoin="round"/>
<path d="M74.918 208.965L85.3566 225.887L66.8296 233.103" stroke="#5091CC" stroke-width="5" stroke-linecap="round" stroke-linejoin="round"/>
<path d="M70.115 191.246L33.0104 237.879" stroke="#5091CC" stroke-width="5" stroke-linecap="round" stroke-linejoin="round"/>
<path d="M160.298 61.44L137.969 33L70.9971 85.582L93.3264 114.022L160.298 61.44Z" fill="#5091CC"/>
<path d="M183.861 315.44L161.531 287L128.998 312.543L151.327 340.983L183.861 315.44Z" fill="#5091CC"/>
<path d="M325.648 96.423L317.258 89.9492" stroke="#5091CC" stroke-width="5" stroke-linecap="round" stroke-linejoin="round"/>
<path d="M313.357 103.673L321.449 93.1855" stroke="#5091CC" stroke-width="5" stroke-linecap="round" stroke-linejoin="round"/>
<path d="M303.621 79.4297L295.529 89.9174" stroke="#5091CC" stroke-width="5" stroke-linecap="round" stroke-linejoin="round"/>
<path d="M310.965 85.0938L302.873 95.5814" stroke="#5091CC" stroke-width="5" stroke-linecap="round" stroke-linejoin="round"/>
<path d="M299.574 84.6738L306.916 90.3384" stroke="#5091CC" stroke-width="5" stroke-linecap="round" stroke-linejoin="round"/>
<path d="M349.77 115.035L341.677 125.523L347.97 130.378" stroke="#5091CC" stroke-width="5" stroke-linecap="round" stroke-linejoin="round"/>
<path d="M323.849 111.767L331.941 101.279L331.521 112.667L342.429 109.372L334.337 119.859" stroke="#5091CC" stroke-width="5" stroke-linecap="round" stroke-linejoin="round"/>
<path d="M314.859 71.3695L334.28 46.1991C334.709 45.6428 335.342 45.2798 336.039 45.1899C336.736 45.1001 337.44 45.2908 337.996 45.72L363.166 65.1414L366.52 91.1533L356.809 103.739" stroke="#5091CC" stroke-width="5" stroke-linecap="round" stroke-linejoin="round"/>
<path d="M363.168 65.1406L351.839 79.8234L366.522 91.1525" stroke="#5091CC" stroke-width="5" stroke-linecap="round" stroke-linejoin="round"/>
</svg>
