<svg width="1414" height="666" viewBox="0 0 1414 666" fill="none" xmlns="http://www.w3.org/2000/svg">
<g opacity="0.15">
<path d="M550.74 7.69336L544.461 7.69336L544.461 52.2516L550.74 52.2516L550.74 7.69336Z" fill="#5091CC"/>
<path d="M565.723 7.69336L559.039 7.69336L559.039 52.2516L565.723 52.2516L565.723 7.69336Z" fill="#5091CC"/>
<path d="M581.117 7.69336L574.23 7.69336L574.23 52.2516L581.117 52.2516L581.117 7.69336Z" fill="#5091CC"/>
<path d="M535.953 8.09961L529.27 8.09961L529.27 52.6579L535.953 52.6579L535.953 8.09961Z" fill="#5091CC"/>
<path d="M1235.27 397.699L1214.27 409.822L1242.82 459.271L1263.82 447.147L1235.27 397.699Z" fill="#5091CC"/>
<path d="M53.7435 620.697L47.4648 620.697L47.4648 665.256L53.7435 665.256L53.7435 620.697Z" fill="#5091CC"/>
<path d="M68.7267 620.697L62.043 620.697L62.043 665.256L68.7267 665.256L68.7267 620.697Z" fill="#5091CC"/>
<path d="M84.1206 620.697L77.2344 620.697L77.2344 665.256L84.1206 665.256L84.1206 620.697Z" fill="#5091CC"/>
<path d="M38.9572 621.104L32.2734 621.104L32.2734 665.662L38.9572 665.662L38.9572 621.104Z" fill="#5091CC"/>
<path d="M1315.86 50.4513C1318.77 50.4422 1321.65 51.0079 1324.33 52.1159C1327.02 53.2239 1329.46 54.8524 1331.52 56.9076C1333.57 58.9627 1335.2 61.404 1336.31 64.091C1337.42 66.7779 1337.98 69.6575 1337.97 72.5639" stroke="#5091CC" stroke-width="5" stroke-linecap="round" stroke-linejoin="round"/>
<path d="M1315.86 33.8652C1326.12 33.8652 1335.97 37.9422 1343.22 45.1994C1350.48 52.4565 1354.56 62.2992 1354.56 72.5623" stroke="#5091CC" stroke-width="5" stroke-linecap="round" stroke-linejoin="round"/>
<path d="M1315.86 17.2813C1323.12 17.2677 1330.31 18.6927 1337.02 21.474C1343.73 24.2553 1349.82 28.3378 1354.94 33.4858C1360.08 38.6063 1364.17 44.696 1366.95 51.4031C1369.73 58.1103 1371.15 65.302 1371.14 72.5629" stroke="#5091CC" stroke-width="5" stroke-linecap="round" stroke-linejoin="round"/>
<path d="M1317.24 75.3274C1319.53 75.3274 1321.39 73.4711 1321.39 71.1813C1321.39 68.8914 1319.53 67.0352 1317.24 67.0352C1314.95 67.0352 1313.1 68.8914 1313.1 71.1813C1313.1 73.4711 1314.95 75.3274 1317.24 75.3274Z" fill="#5091CC"/>
<path d="M910.78 46.5958L898.484 25.6973L849.272 54.651L861.567 75.5496L910.78 46.5958Z" fill="#5091CC"/>
<path d="M1069.47 614.136L1042.77 619.708C1041.36 620.004 1039.88 619.725 1038.67 618.932C1037.46 618.14 1036.61 616.899 1036.32 615.483L1031.3 591.452C1031.01 590.035 1031.29 588.56 1032.08 587.349C1032.87 586.139 1034.11 585.292 1035.53 584.997L1062.23 579.424" stroke="#5091CC" stroke-width="5" stroke-linecap="round" stroke-linejoin="round"/>
<path d="M1071.7 624.815L1055.68 628.158" stroke="#5091CC" stroke-width="5" stroke-linecap="round" stroke-linejoin="round"/>
<path d="M1093.71 570.066L1083.03 572.295" stroke="#5091CC" stroke-width="5" stroke-linecap="round" stroke-linejoin="round"/>
<path d="M1095.94 580.748L1085.26 582.977" stroke="#5091CC" stroke-width="5" stroke-linecap="round" stroke-linejoin="round"/>
<path d="M1099.49 557.716L1072.79 563.288C1071.32 563.596 1070.37 565.041 1070.68 566.516L1081.82 619.918C1082.13 621.393 1083.58 622.339 1085.05 622.031L1111.75 616.459C1113.23 616.151 1114.17 614.706 1113.86 613.231L1102.72 559.829C1102.41 558.354 1100.97 557.408 1099.49 557.716Z" stroke="#5091CC" stroke-width="5" stroke-linecap="round" stroke-linejoin="round"/>
<path d="M1061.47 615.807L1063.7 626.487" stroke="#5091CC" stroke-width="5" stroke-linecap="round" stroke-linejoin="round"/>
<path d="M1096.73 611.235C1098.94 610.773 1100.36 608.606 1099.9 606.394C1099.44 604.182 1097.27 602.763 1095.06 603.225C1092.85 603.686 1091.43 605.854 1091.89 608.066C1092.35 610.278 1094.52 611.697 1096.73 611.235Z" fill="#5091CC"/>
<path d="M84.2009 34.5977L72.2539 44.5535L84.2009 54.5093" stroke="#5091CC" stroke-width="5" stroke-linecap="round" stroke-linejoin="round"/>
<path d="M116.055 34.5977L128.002 44.5535L116.055 54.5093" stroke="#5091CC" stroke-width="5" stroke-linecap="round" stroke-linejoin="round"/>
<path d="M108.093 22.6484L92.1641 66.4541" stroke="#5091CC" stroke-width="5" stroke-linecap="round" stroke-linejoin="round"/>
<path d="M37.0352 310.455L37.0352 273.693L0.273273 273.693L0.273272 310.455L37.0352 310.455Z" fill="#5091CC"/>
<path d="M201.355 477.285H193.066" stroke="#5091CC" stroke-width="4" stroke-linecap="round" stroke-linejoin="round"/>
<path d="M197.211 487.646V477.285" stroke="#5091CC" stroke-width="4" stroke-linecap="round" stroke-linejoin="round"/>
<path d="M179.598 477.285V487.646" stroke="#5091CC" stroke-width="4" stroke-linecap="round" stroke-linejoin="round"/>
<path d="M186.852 477.285V487.646" stroke="#5091CC" stroke-width="4" stroke-linecap="round" stroke-linejoin="round"/>
<path d="M179.598 482.469H186.85" stroke="#5091CC" stroke-width="4" stroke-linecap="round" stroke-linejoin="round"/>
<path d="M225.184 477.285V487.646H231.4" stroke="#5091CC" stroke-width="4" stroke-linecap="round" stroke-linejoin="round"/>
<path d="M207.574 487.646V477.285L212.755 484.538L217.935 477.285V487.646" stroke="#5091CC" stroke-width="4" stroke-linecap="round" stroke-linejoin="round"/>
<path d="M182.703 466.925V442.059C182.703 441.509 182.921 440.982 183.31 440.593C183.699 440.205 184.226 439.986 184.775 439.986H209.642L224.148 454.492V466.925" stroke="#5091CC" stroke-width="4" stroke-linecap="round" stroke-linejoin="round"/>
<path d="M209.645 439.986V454.492H224.15" stroke="#5091CC" stroke-width="4" stroke-linecap="round" stroke-linejoin="round"/>
<g clip-path="url(#clip0_694_5272)">
<path d="M414.646 592.357L411.262 591.697L406.272 617.303L409.656 617.963L414.646 592.357Z" fill="#5D91CD"/>
<path d="M420.279 593.454L416.895 592.795L411.905 618.401L415.289 619.06L420.279 593.454Z" fill="#5D91CD"/>
<path d="M425.908 594.552L422.523 593.893L417.534 619.499L420.918 620.158L425.908 594.552Z" fill="#5D91CD"/>
<path d="M431.541 595.65L428.156 594.99L423.166 620.596L426.551 621.256L431.541 595.65Z" fill="#5D91CD"/>
</g>
<g clip-path="url(#clip1_694_5272)">
<path d="M437.107 596.738L433.723 596.078L428.733 621.684L432.117 622.344L437.107 596.738Z" fill="#5D91CD"/>
</g>
<path d="M1352.58 628.52L1378.39 571L1400.24 580.803L1374.42 638.323L1352.58 628.52Z" stroke="#5091CC" stroke-width="5"/>
</g>
<g opacity="0.15">
<path d="M1132.42 128.358L1140.64 124.785C1141.18 124.545 1141.63 124.147 1141.94 123.643C1142.26 123.139 1142.41 122.553 1142.38 121.961C1142.35 121.369 1142.15 120.8 1141.79 120.328C1141.43 119.855 1140.94 119.502 1140.38 119.314L1110.99 109.718C1110.47 109.549 1109.92 109.527 1109.4 109.652C1108.87 109.778 1108.39 110.047 1108.01 110.43C1107.62 110.813 1107.35 111.294 1107.23 111.82C1107.1 112.346 1107.13 112.897 1107.29 113.411L1116.89 142.801C1117.07 143.368 1117.42 143.866 1117.89 144.227C1118.37 144.589 1118.94 144.796 1119.54 144.821H1119.68C1120.25 144.823 1120.81 144.657 1121.28 144.344C1121.76 144.031 1122.14 143.584 1122.36 143.06L1125.93 134.84L1135.05 143.96C1135.33 144.232 1135.65 144.449 1136.01 144.597C1136.36 144.744 1136.74 144.82 1137.13 144.82C1137.52 144.82 1137.9 144.744 1138.25 144.597C1138.61 144.449 1138.94 144.232 1139.21 143.96L1141.54 141.632C1141.81 141.359 1142.03 141.035 1142.17 140.679C1142.32 140.322 1142.4 139.94 1142.4 139.554C1142.4 139.168 1142.32 138.786 1142.17 138.43C1142.03 138.074 1141.81 137.75 1141.54 137.477L1132.42 128.358ZM1137.13 141.883L1128.01 132.764C1127.67 132.425 1127.26 132.174 1126.8 132.032C1126.34 131.891 1125.85 131.864 1125.38 131.953C1124.91 132.042 1124.47 132.245 1124.1 132.545C1123.72 132.844 1123.43 133.23 1123.24 133.669L1119.67 141.868L1110.08 112.508L1139.44 122.092L1131.24 125.657C1130.8 125.848 1130.41 126.143 1130.11 126.518C1129.81 126.892 1129.61 127.334 1129.52 127.804C1129.43 128.275 1129.46 128.76 1129.6 129.218C1129.74 129.676 1129.99 130.092 1130.33 130.431L1139.46 139.553L1137.13 141.883Z" fill="#5091CC"/>
</g>
<g opacity="0.15" clip-path="url(#clip2_694_5272)">
<path d="M1400.2 264.809C1401.98 268.878 1402.38 273.417 1401.34 277.736C1401.29 277.974 1401.18 278.199 1401.04 278.398C1400.89 278.596 1400.71 278.764 1400.5 278.893C1400.29 279.021 1400.06 279.107 1399.82 279.146C1399.58 279.184 1399.33 279.175 1399.09 279.118C1398.85 279.061 1398.63 278.958 1398.43 278.814C1398.23 278.67 1398.06 278.488 1397.94 278.28C1397.81 278.071 1397.72 277.839 1397.68 277.597C1397.64 277.355 1397.65 277.107 1397.71 276.869C1398.56 273.337 1398.23 269.624 1396.78 266.296C1395 262.213 1391.68 259.003 1387.53 257.371C1383.39 255.739 1378.77 255.82 1374.69 257.594C1370.61 259.369 1367.4 262.693 1365.76 266.836C1364.13 270.978 1364.21 275.598 1365.99 279.681C1366.18 280.135 1366.19 280.648 1366.01 281.108C1365.83 281.568 1365.47 281.938 1365.02 282.135C1364.57 282.332 1364.05 282.341 1363.59 282.16C1363.13 281.978 1362.76 281.622 1362.57 281.168C1361.82 279.442 1361.3 277.621 1361.05 275.757C1360.81 275.832 1360.57 275.935 1360.34 276.037C1357.61 277.22 1355.47 279.436 1354.39 282.197C1353.3 284.959 1353.35 288.039 1354.53 290.761C1355.72 293.483 1357.93 295.623 1360.7 296.711C1363.46 297.799 1366.54 297.745 1369.26 296.562L1374.39 294.331C1374.84 294.134 1375.36 294.125 1375.82 294.307C1376.28 294.488 1376.65 294.845 1376.84 295.298C1377.04 295.752 1377.05 296.265 1376.87 296.726C1376.69 297.186 1376.33 297.555 1375.88 297.752L1370.75 299.983C1368.87 300.801 1366.84 301.223 1364.78 301.222C1362.73 301.22 1360.7 300.796 1358.82 299.975C1356.94 299.155 1355.25 297.955 1353.86 296.452C1352.46 294.949 1351.39 293.174 1350.71 291.238C1350.04 289.302 1349.76 287.248 1349.91 285.202C1350.06 283.156 1350.64 281.164 1351.59 279.349C1352.55 277.534 1353.87 275.936 1355.47 274.654C1357.07 273.371 1358.92 272.433 1360.9 271.898C1361.15 267.283 1362.94 262.888 1366 259.423C1369.06 255.957 1373.19 253.626 1377.74 252.806C1382.29 251.985 1386.98 252.724 1391.06 254.903C1395.13 257.081 1398.35 260.572 1400.2 264.809ZM1380.35 271.996C1380.13 271.906 1379.88 271.862 1379.64 271.866C1379.39 271.87 1379.15 271.923 1378.93 272.02C1378.7 272.118 1378.5 272.259 1378.33 272.435C1378.16 272.612 1378.02 272.82 1377.93 273.048L1374.07 282.864C1373.98 283.092 1373.93 283.336 1373.94 283.581C1373.94 283.826 1373.99 284.068 1374.09 284.292C1374.19 284.517 1374.33 284.72 1374.51 284.891C1374.68 285.061 1374.89 285.195 1375.12 285.285C1375.58 285.466 1376.09 285.457 1376.55 285.26C1376.77 285.162 1376.98 285.021 1377.15 284.845C1377.32 284.668 1377.45 284.46 1377.54 284.232L1379.76 278.604L1385.4 291.58C1385.59 292.034 1385.96 292.391 1386.42 292.572C1386.88 292.753 1387.4 292.744 1387.85 292.547C1388.3 292.35 1388.66 291.981 1388.84 291.52C1389.02 291.06 1389.01 290.547 1388.82 290.093L1383.18 277.117L1388.8 279.336C1389.03 279.426 1389.27 279.47 1389.52 279.465C1389.76 279.461 1390.01 279.409 1390.23 279.311C1390.46 279.213 1390.66 279.072 1390.83 278.896C1391 278.72 1391.13 278.512 1391.22 278.284C1391.31 278.056 1391.36 277.812 1391.35 277.567C1391.35 277.322 1391.3 277.08 1391.2 276.856C1391.1 276.631 1390.96 276.427 1390.78 276.257C1390.61 276.087 1390.4 275.953 1390.17 275.863L1380.35 271.996Z" fill="#5091CC"/>
</g>
<g opacity="0.15" clip-path="url(#clip3_694_5272)">
<path d="M336.468 116.532L302.238 107.36C301.229 107.09 300.155 107.231 299.25 107.753C298.346 108.276 297.686 109.136 297.416 110.144L296.397 113.948L292.593 112.929C291.585 112.658 290.51 112.8 289.605 113.322C288.701 113.844 288.041 114.704 287.771 115.713L280.637 142.336C280.367 143.345 280.508 144.42 281.03 145.324C281.553 146.228 282.413 146.888 283.421 147.158L317.651 156.33C318.66 156.601 319.735 156.459 320.639 155.937C321.544 155.415 322.204 154.555 322.474 153.546L323.493 149.743L327.296 150.762C328.305 151.032 329.38 150.891 330.284 150.369C331.188 149.846 331.848 148.986 332.119 147.978L339.252 121.354C339.523 120.346 339.381 119.271 338.859 118.367C338.337 117.462 337.477 116.802 336.468 116.532ZM325.804 125.904L324.785 129.707L290.555 120.535L291.574 116.732L325.804 125.904ZM318.67 152.527L284.44 143.355L289.536 124.338L323.766 133.51L318.67 152.527ZM328.315 146.959L324.512 145.939L329.607 126.923C329.878 125.914 329.736 124.839 329.214 123.935C328.692 123.031 327.832 122.371 326.823 122.1L300.2 114.967L301.219 111.163L335.449 120.335L328.315 146.959Z" fill="#5091CC"/>
</g>
<defs>
<clipPath id="clip0_694_5272">
<rect width="30.2067" height="26.0876" fill="white" transform="translate(411.262 591.697) rotate(11.0272)"/>
</clipPath>
<clipPath id="clip1_694_5272">
<rect width="30.2067" height="26.0876" fill="white" transform="translate(433.723 596.078) rotate(11.0272)"/>
</clipPath>
<clipPath id="clip2_694_5272">
<rect width="59.6831" height="59.6831" fill="white" transform="translate(1335.27 260.494) rotate(-23.4964)"/>
</clipPath>
<clipPath id="clip3_694_5272">
<rect width="63" height="63" fill="white" transform="translate(287.672 93.2676) rotate(15)"/>
</clipPath>
</defs>
</svg>
