<svg width="1700" height="800" viewBox="0 0 1700 800" fill="none" xmlns="http://www.w3.org/2000/svg">
<g opacity="0.15">
<path d="M661.998 9.06836L654.453 9.06836L654.453 62.6105L661.998 62.6105L661.998 9.06836Z" fill="#5091CC"/>
<path d="M680.012 9.06836L671.98 9.06836L671.98 62.6105L680.012 62.6105L680.012 9.06836Z" fill="#5091CC"/>
<path d="M698.505 9.06836L690.23 9.06836L690.23 62.6105L698.505 62.6105L698.505 9.06836Z" fill="#5091CC"/>
<path d="M644.234 9.55664L636.203 9.55664L636.203 63.0988L644.234 63.0988L644.234 9.55664Z" fill="#5091CC"/>
<path d="M1489.54 481.707L1464.31 496.275L1498.61 555.694L1523.85 541.126L1489.54 481.707Z" fill="#5091CC"/>
<path d="M64.7907 745.668L57.2461 745.668L57.2461 799.21L64.7907 799.21L64.7907 745.668Z" fill="#5091CC"/>
<path d="M82.8047 745.668L74.7734 745.668L74.7734 799.21L82.8048 799.21L82.8047 745.668Z" fill="#5091CC"/>
<path d="M101.298 745.668L93.0234 745.668L93.0234 799.21L101.298 799.21L101.298 745.668Z" fill="#5091CC"/>
<path d="M47.0274 746.156L38.9961 746.156L38.9961 799.698L47.0274 799.698L47.0274 746.156Z" fill="#5091CC"/>
<path d="M1581.38 60.4474C1584.87 60.4364 1588.33 61.1162 1591.56 62.4477C1594.79 63.7791 1597.72 65.7359 1600.19 68.2054C1602.66 70.6749 1604.62 73.6085 1605.95 76.8371C1607.28 80.0658 1607.96 83.526 1607.95 87.0184" stroke="#5091CC" stroke-width="5" stroke-linecap="round" stroke-linejoin="round"/>
<path d="M1581.38 40.5176C1593.71 40.5176 1605.54 45.4166 1614.26 54.1369C1622.98 62.8572 1627.88 74.6844 1627.88 87.0168" stroke="#5091CC" stroke-width="5" stroke-linecap="round" stroke-linejoin="round"/>
<path d="M1581.38 20.5919C1590.1 20.5755 1598.75 22.2878 1606.8 25.6299C1614.86 28.9719 1622.18 33.8776 1628.33 40.0635C1634.52 46.2164 1639.43 53.5339 1642.77 61.5933C1646.11 69.6528 1647.82 78.2945 1647.81 87.0194" stroke="#5091CC" stroke-width="5" stroke-linecap="round" stroke-linejoin="round"/>
<path d="M1583.04 90.3372C1585.79 90.3372 1588.02 88.1066 1588.02 85.3551C1588.02 82.6036 1585.79 80.373 1583.04 80.373C1580.29 80.373 1578.05 82.6036 1578.05 85.3551C1578.05 88.1066 1580.29 90.3372 1583.04 90.3372Z" fill="#5091CC"/>
<path d="M1094.63 55.8152L1079.85 30.7031L1020.72 65.4946L1035.49 90.6067L1094.63 55.8152Z" fill="#5091CC"/>
<path d="M1285.31 737.784L1253.23 744.48C1251.53 744.835 1249.75 744.5 1248.3 743.548C1246.84 742.595 1245.83 741.104 1245.47 739.403L1239.44 710.526C1239.09 708.824 1239.42 707.051 1240.38 705.597C1241.33 704.142 1242.82 703.125 1244.52 702.77L1276.61 696.074" stroke="#5091CC" stroke-width="5" stroke-linecap="round" stroke-linejoin="round"/>
<path d="M1287.99 750.617L1268.74 754.635" stroke="#5091CC" stroke-width="5" stroke-linecap="round" stroke-linejoin="round"/>
<path d="M1314.44 684.829L1301.61 687.508" stroke="#5091CC" stroke-width="5" stroke-linecap="round" stroke-linejoin="round"/>
<path d="M1317.12 697.661L1304.29 700.34" stroke="#5091CC" stroke-width="5" stroke-linecap="round" stroke-linejoin="round"/>
<path d="M1321.38 669.99L1289.29 676.686C1287.52 677.056 1286.39 678.792 1286.76 680.564L1300.15 744.733C1300.52 746.505 1302.25 747.642 1304.03 747.272L1336.11 740.576C1337.88 740.206 1339.02 738.47 1338.65 736.698L1325.26 672.529C1324.89 670.757 1323.15 669.62 1321.38 669.99Z" stroke="#5091CC" stroke-width="5" stroke-linecap="round" stroke-linejoin="round"/>
<path d="M1275.7 739.793L1278.37 752.627" stroke="#5091CC" stroke-width="5" stroke-linecap="round" stroke-linejoin="round"/>
<path d="M1318.07 734.299C1320.73 733.744 1322.43 731.14 1321.88 728.482C1321.32 725.824 1318.72 724.119 1316.06 724.673C1313.4 725.228 1311.7 727.832 1312.25 730.49C1312.81 733.148 1315.41 734.853 1318.07 734.299Z" fill="#5091CC"/>
<path d="M101.399 41.3965L87.043 53.3596L101.399 65.3228" stroke="#5091CC" stroke-width="5" stroke-linecap="round" stroke-linejoin="round"/>
<path d="M139.68 41.3965L154.035 53.3596L139.68 65.3228" stroke="#5091CC" stroke-width="5" stroke-linecap="round" stroke-linejoin="round"/>
<path d="M130.102 27.0371L110.961 79.6749" stroke="#5091CC" stroke-width="5" stroke-linecap="round" stroke-linejoin="round"/>
<path d="M44.7227 372.873L44.7227 328.699L0.548809 328.699L0.548807 372.873L44.7227 372.873Z" fill="#5091CC"/>
<path d="M242.163 573.342H232.203" stroke="#5091CC" stroke-width="4" stroke-linecap="round" stroke-linejoin="round"/>
<path d="M237.188 585.792V573.342" stroke="#5091CC" stroke-width="4" stroke-linecap="round" stroke-linejoin="round"/>
<path d="M216.027 573.342V585.792" stroke="#5091CC" stroke-width="4" stroke-linecap="round" stroke-linejoin="round"/>
<path d="M224.742 573.342V585.792" stroke="#5091CC" stroke-width="4" stroke-linecap="round" stroke-linejoin="round"/>
<path d="M216.027 579.566H224.742" stroke="#5091CC" stroke-width="4" stroke-linecap="round" stroke-linejoin="round"/>
<path d="M270.805 573.342V585.792H278.275" stroke="#5091CC" stroke-width="4" stroke-linecap="round" stroke-linejoin="round"/>
<path d="M249.637 585.792V573.342L255.862 582.057L262.087 573.342V585.792" stroke="#5091CC" stroke-width="4" stroke-linecap="round" stroke-linejoin="round"/>
<path d="M219.758 560.892V531.012C219.758 530.351 220.02 529.718 220.487 529.251C220.954 528.784 221.587 528.521 222.248 528.521H252.128L269.559 545.952V560.892" stroke="#5091CC" stroke-width="4" stroke-linecap="round" stroke-linejoin="round"/>
<path d="M252.133 528.521V545.952H269.563" stroke="#5091CC" stroke-width="4" stroke-linecap="round" stroke-linejoin="round"/>
<g clip-path="url(#clip0_694_5336)">
<path d="M498.465 711.617L494.398 710.824L488.402 741.593L492.469 742.385L498.465 711.617Z" fill="#5D91CD"/>
<path d="M505.231 712.935L501.164 712.143L495.168 742.911L499.235 743.704L505.231 712.935Z" fill="#5D91CD"/>
<path d="M511.997 714.253L507.93 713.461L501.934 744.23L506.001 745.022L511.997 714.253Z" fill="#5D91CD"/>
<path d="M518.766 715.572L514.699 714.779L508.703 745.548L512.77 746.341L518.766 715.572Z" fill="#5D91CD"/>
</g>
<g clip-path="url(#clip1_694_5336)">
<path d="M525.454 716.88L521.387 716.088L515.391 746.857L519.458 747.649L525.454 716.88Z" fill="#5D91CD"/>
</g>
<path d="M1624.84 755.323L1656.27 685.285L1683.44 697.477L1652 767.515L1624.84 755.323Z" stroke="#5091CC" stroke-width="5"/>
</g>
<g opacity="0.15">
<path d="M1360.95 154.061L1370.83 149.768C1371.48 149.48 1372.02 149.001 1372.4 148.396C1372.77 147.79 1372.95 147.086 1372.92 146.375C1372.89 145.664 1372.64 144.98 1372.21 144.412C1371.78 143.844 1371.19 143.42 1370.51 143.194L1335.2 131.663C1334.58 131.461 1333.92 131.434 1333.29 131.585C1332.65 131.736 1332.08 132.059 1331.62 132.519C1331.16 132.979 1330.83 133.557 1330.68 134.189C1330.53 134.822 1330.56 135.484 1330.76 136.102L1342.29 171.417C1342.51 172.098 1342.93 172.697 1343.5 173.131C1344.07 173.565 1344.76 173.814 1345.47 173.843H1345.64C1346.33 173.846 1347 173.647 1347.57 173.27C1348.15 172.894 1348.6 172.358 1348.87 171.728L1353.16 161.851L1364.12 172.809C1364.44 173.137 1364.83 173.397 1365.26 173.574C1365.69 173.752 1366.15 173.843 1366.61 173.843C1367.08 173.843 1367.54 173.752 1367.96 173.574C1368.39 173.397 1368.78 173.137 1369.11 172.809L1371.91 170.011C1372.23 169.684 1372.49 169.295 1372.67 168.866C1372.85 168.438 1372.94 167.979 1372.94 167.515C1372.94 167.052 1372.85 166.593 1372.67 166.164C1372.49 165.736 1372.23 165.347 1371.91 165.019L1360.95 154.061ZM1366.61 170.314L1355.65 159.356C1355.25 158.949 1354.75 158.647 1354.2 158.477C1353.65 158.307 1353.06 158.274 1352.5 158.382C1351.93 158.489 1351.4 158.733 1350.95 159.092C1350.5 159.452 1350.15 159.916 1349.92 160.444L1345.64 170.296L1334.11 135.016L1369.38 146.532L1359.53 150.816C1359 151.046 1358.54 151.4 1358.18 151.85C1357.82 152.3 1357.58 152.831 1357.47 153.396C1357.36 153.962 1357.4 154.545 1357.57 155.095C1357.74 155.645 1358.04 156.145 1358.44 156.552L1369.41 167.514L1366.61 170.314Z" fill="#5091CC"/>
</g>
<g opacity="0.15" clip-path="url(#clip2_694_5336)">
<path d="M1682.71 318.023C1684.86 322.912 1685.34 328.367 1684.09 333.556C1684.02 333.843 1683.9 334.113 1683.73 334.351C1683.55 334.59 1683.34 334.792 1683.08 334.946C1682.83 335.1 1682.55 335.204 1682.26 335.25C1681.97 335.297 1681.68 335.285 1681.39 335.217C1681.1 335.148 1680.83 335.024 1680.59 334.851C1680.36 334.679 1680.15 334.46 1680 334.21C1679.84 333.959 1679.74 333.68 1679.7 333.389C1679.65 333.098 1679.66 332.801 1679.73 332.514C1680.75 328.27 1680.36 323.808 1678.6 319.81C1676.47 314.904 1672.48 311.046 1667.5 309.085C1662.52 307.124 1656.97 307.221 1652.06 309.354C1647.16 311.487 1643.3 315.481 1641.34 320.458C1639.38 325.435 1639.48 330.987 1641.61 335.893C1641.85 336.438 1641.86 337.055 1641.64 337.608C1641.42 338.161 1640.99 338.605 1640.45 338.842C1639.9 339.079 1639.28 339.09 1638.73 338.872C1638.18 338.654 1637.73 338.226 1637.5 337.68C1636.6 335.607 1635.98 333.419 1635.68 331.178C1635.38 331.269 1635.1 331.392 1634.82 331.514C1631.55 332.936 1628.97 335.599 1627.67 338.917C1626.36 342.235 1626.42 345.937 1627.85 349.208C1629.27 352.478 1631.93 355.05 1635.25 356.357C1638.57 357.664 1642.27 357.6 1645.54 356.178L1651.71 353.498C1652.25 353.261 1652.87 353.25 1653.42 353.468C1653.97 353.686 1654.42 354.114 1654.65 354.659C1654.89 355.205 1654.9 355.821 1654.68 356.375C1654.47 356.928 1654.04 357.371 1653.49 357.608L1647.33 360.289C1645.07 361.272 1642.63 361.779 1640.16 361.777C1637.7 361.776 1635.26 361.266 1633 360.28C1630.74 359.294 1628.71 357.852 1627.03 356.046C1625.36 354.239 1624.07 352.107 1623.26 349.781C1622.44 347.455 1622.11 344.986 1622.29 342.528C1622.48 340.07 1623.16 337.675 1624.31 335.494C1625.46 333.314 1627.04 331.393 1628.97 329.852C1630.89 328.312 1633.11 327.185 1635.49 326.541C1635.79 320.996 1637.95 315.714 1641.62 311.55C1645.3 307.387 1650.27 304.585 1655.73 303.599C1661.2 302.614 1666.84 303.502 1671.73 306.119C1676.63 308.737 1680.5 312.931 1682.71 318.023ZM1658.87 326.659C1658.6 326.551 1658.31 326.498 1658.01 326.503C1657.72 326.508 1657.43 326.571 1657.16 326.688C1656.89 326.806 1656.64 326.975 1656.44 327.187C1656.23 327.399 1656.07 327.649 1655.96 327.923L1651.32 339.719C1651.21 339.993 1651.16 340.285 1651.16 340.58C1651.17 340.874 1651.23 341.164 1651.35 341.435C1651.46 341.705 1651.63 341.949 1651.85 342.153C1652.06 342.358 1652.31 342.519 1652.58 342.627C1653.14 342.845 1653.75 342.834 1654.3 342.597C1654.57 342.48 1654.81 342.31 1655.02 342.098C1655.22 341.886 1655.38 341.636 1655.49 341.362L1658.15 334.6L1664.93 350.192C1665.17 350.737 1665.61 351.166 1666.16 351.383C1666.72 351.601 1667.33 351.591 1667.88 351.354C1668.42 351.117 1668.85 350.673 1669.07 350.12C1669.29 349.567 1669.28 348.95 1669.04 348.405L1662.26 332.813L1669.02 335.479C1669.3 335.587 1669.59 335.639 1669.89 335.634C1670.18 335.629 1670.47 335.566 1670.74 335.449C1671.01 335.331 1671.25 335.162 1671.46 334.95C1671.66 334.738 1671.82 334.488 1671.93 334.214C1672.04 333.94 1672.09 333.648 1672.09 333.353C1672.08 333.059 1672.02 332.768 1671.9 332.498C1671.79 332.228 1671.62 331.984 1671.4 331.779C1671.19 331.575 1670.94 331.414 1670.67 331.306L1658.87 326.659Z" fill="#5091CC"/>
</g>
<g opacity="0.15" clip-path="url(#clip3_694_5336)">
<path d="M419.447 144.369L378.316 133.348C377.104 133.023 375.812 133.193 374.726 133.82C373.639 134.448 372.846 135.481 372.521 136.693L371.297 141.263L366.726 140.039C365.514 139.714 364.223 139.884 363.136 140.511C362.05 141.139 361.257 142.172 360.932 143.384L352.36 175.375C352.035 176.588 352.205 177.879 352.832 178.966C353.46 180.052 354.493 180.845 355.705 181.17L396.837 192.191C398.049 192.516 399.34 192.346 400.427 191.719C401.514 191.091 402.307 190.058 402.632 188.846L403.856 184.276L408.426 185.5C409.638 185.825 410.93 185.655 412.017 185.028C413.103 184.4 413.896 183.367 414.221 182.155L422.793 150.163C423.118 148.951 422.948 147.66 422.32 146.573C421.693 145.486 420.66 144.693 419.447 144.369ZM406.633 155.63L405.409 160.2L364.277 149.179L365.502 144.609L406.633 155.63ZM398.061 187.621L356.93 176.6L363.053 153.749L404.184 164.77L398.061 187.621ZM409.651 180.93L405.081 179.705L411.204 156.855C411.528 155.643 411.358 154.351 410.731 153.264C410.103 152.178 409.07 151.385 407.858 151.06L375.867 142.488L377.091 137.918L418.223 148.939L409.651 180.93Z" fill="#5091CC"/>
</g>
<defs>
<clipPath id="clip0_694_5336">
<rect width="36.2971" height="31.3475" fill="white" transform="translate(494.398 710.824) rotate(11.0272)"/>
</clipPath>
<clipPath id="clip1_694_5336">
<rect width="36.2971" height="31.3475" fill="white" transform="translate(521.387 716.088) rotate(11.0272)"/>
</clipPath>
<clipPath id="clip2_694_5336">
<rect width="71.7165" height="71.7165" fill="white" transform="translate(1604.7 312.84) rotate(-23.4964)"/>
</clipPath>
<clipPath id="clip3_694_5336">
<rect width="75.7021" height="75.7021" fill="white" transform="translate(360.812 116.414) rotate(15)"/>
</clipPath>
</defs>
</svg>
