<?xml version="1.0" encoding="UTF-8"?><svg id="Layer_2" xmlns="http://www.w3.org/2000/svg" viewBox="0 0 714.81 198.09"><defs><style>.cls-1{fill:#f86820;}</style></defs><g id="Layer_1-2"><path class="cls-1" d="m252.74,85.17c15.7-28.39,31.4-56.78,47.1-85.17,16.27,28.39,32.54,56.78,48.81,85.17h-95.92Z"/><rect class="cls-1" x="509.63" y="113.01" width="18.71" height="83.34" transform="translate(1037.97 309.36) rotate(180)"/><path d="m0,84.58L37.07,2.21h15.06l37.18,82.37h-16.12L41.42,10.33h6.12L15.65,84.58H0Zm17.06-19.06l4.24-12h44.36l4.12,12H17.06Z"/><path d="m117.82,84.58L81.81,2.21h16.59l32.12,74.48h-9.65L153.59,2.21h15.18l-35.89,82.37h-15.06Z"/><path d="m213.17,85.75c-6.44,0-12.34-1.04-17.71-3.12-5.37-2.08-10.06-5.04-14.06-8.88-4-3.84-7.1-8.31-9.3-13.41-2.2-5.1-3.3-10.75-3.3-16.94s1.1-11.85,3.3-16.94c2.19-5.1,5.31-9.57,9.35-13.41,4.04-3.84,8.75-6.81,14.12-8.88,5.37-2.08,11.35-3.12,17.94-3.12s13.16,1.14,18.77,3.41c5.61,2.28,10.33,5.61,14.18,10l-9.65,9.41c-3.22-3.21-6.69-5.59-10.41-7.12-3.73-1.53-7.83-2.29-12.3-2.29s-8.41.71-12.06,2.12c-3.65,1.41-6.81,3.41-9.47,6-2.67,2.59-4.75,5.65-6.24,9.18-1.49,3.53-2.24,7.41-2.24,11.65s.75,8.02,2.24,11.59c1.49,3.57,3.57,6.65,6.24,9.24,2.67,2.59,5.8,4.59,9.41,6,3.61,1.41,7.61,2.12,12,2.12,4.08,0,8.02-.65,11.83-1.94,3.8-1.29,7.43-3.47,10.88-6.53l8.59,11.41c-4.24,3.45-9.18,6.06-14.83,7.83-5.65,1.76-11.41,2.65-17.3,2.65Zm17.77-12.47v-30.71h14.36v32.71l-14.36-2Z"/><path d="m357.6,84.58V2.21h12.59l51.66,63.54h-6.24V2.21h15.06v82.37h-12.59l-51.54-63.54h6.24v63.54h-15.18Z"/><path d="m491.39,85.75c-6.44,0-12.34-1.04-17.71-3.12-5.37-2.08-10.06-5.04-14.06-8.88-4-3.84-7.1-8.31-9.3-13.41-2.2-5.1-3.3-10.75-3.3-16.94s1.1-11.85,3.3-16.94c2.19-5.1,5.31-9.57,9.35-13.41,4.04-3.84,8.75-6.81,14.12-8.88,5.37-2.08,11.35-3.12,17.94-3.12s13.16,1.14,18.77,3.41c5.61,2.28,10.33,5.61,14.18,10l-9.65,9.41c-3.22-3.21-6.69-5.59-10.41-7.12-3.73-1.53-7.83-2.29-12.3-2.29s-8.41.71-12.06,2.12c-3.65,1.41-6.81,3.41-9.47,6-2.67,2.59-4.75,5.65-6.24,9.18-1.49,3.53-2.24,7.41-2.24,11.65s.75,8.02,2.24,11.59c1.49,3.57,3.57,6.65,6.24,9.24,2.67,2.59,5.8,4.59,9.41,6,3.61,1.41,7.61,2.12,12,2.12,4.08,0,8.02-.65,11.83-1.94,3.8-1.29,7.43-3.47,10.88-6.53l8.59,11.41c-4.24,3.45-9.18,6.06-14.83,7.83-5.65,1.76-11.41,2.65-17.3,2.65Zm17.77-12.47v-30.71h14.36v32.71l-14.36-2Z"/><path d="m571.25,85.75c-6.43,0-12.57-.92-18.41-2.76-5.84-1.84-10.53-4.22-14.06-7.12l5.29-11.89c3.3,2.59,7.37,4.75,12.24,6.47,4.86,1.73,9.84,2.59,14.94,2.59,4.31,0,7.81-.47,10.47-1.41,2.67-.94,4.63-2.22,5.88-3.82,1.26-1.61,1.88-3.43,1.88-5.47,0-2.51-.9-4.53-2.71-6.06-1.81-1.53-4.14-2.75-7-3.65-2.86-.9-6.04-1.72-9.53-2.47-3.49-.74-6.98-1.66-10.47-2.76-3.49-1.1-6.69-2.49-9.59-4.18-2.9-1.69-5.24-3.94-7-6.77-1.76-2.82-2.65-6.43-2.65-10.83s1.2-8.57,3.59-12.3c2.39-3.73,6.04-6.71,10.94-8.94,4.9-2.24,11.12-3.35,18.65-3.35,4.94,0,9.84.63,14.71,1.88,4.86,1.26,9.1,3.06,12.71,5.41l-4.83,11.89c-3.69-2.2-7.49-3.82-11.41-4.88-3.92-1.06-7.69-1.59-11.3-1.59-4.16,0-7.57.51-10.24,1.53-2.67,1.02-4.61,2.37-5.83,4.06-1.22,1.69-1.82,3.55-1.82,5.59,0,2.51.88,4.53,2.65,6.06,1.76,1.53,4.08,2.73,6.94,3.59,2.86.86,6.06,1.69,9.59,2.47,3.53.78,7.02,1.71,10.47,2.76,3.45,1.06,6.63,2.43,9.53,4.12,2.9,1.69,5.24,3.92,7,6.71,1.76,2.79,2.65,6.34,2.65,10.65s-1.2,8.45-3.59,12.18c-2.39,3.73-6.06,6.71-11,8.94-4.94,2.24-11.18,3.35-18.71,3.35Z"/><path d="m36.39,197.07c-11.22,0-20.02-3.18-26.42-9.53-6.39-6.35-9.59-15.57-9.59-27.65v-46.36h15.3v45.89c0,8.47,1.82,14.63,5.47,18.47,3.65,3.85,8.81,5.77,15.47,5.77s11.81-1.92,15.42-5.77c3.61-3.84,5.41-10,5.41-18.47v-45.89h15.06v46.36c0,12.08-3.2,21.3-9.59,27.65-6.39,6.35-15.24,9.53-26.53,9.53Z"/><path d="m203.7,197.07c-6.43,0-12.57-.92-18.41-2.76-5.84-1.84-10.53-4.22-14.06-7.12l5.29-11.89c3.3,2.59,7.37,4.75,12.24,6.47,4.86,1.73,9.84,2.59,14.94,2.59,4.31,0,7.81-.47,10.47-1.41,2.67-.94,4.63-2.22,5.88-3.82,1.26-1.61,1.88-3.43,1.88-5.47,0-2.51-.9-4.53-2.71-6.06-1.81-1.53-4.14-2.75-7-3.65-2.86-.9-6.04-1.72-9.53-2.47-3.49-.74-6.98-1.66-10.47-2.76-3.49-1.1-6.69-2.49-9.59-4.18-2.9-1.69-5.24-3.94-7-6.77-1.76-2.82-2.65-6.43-2.65-10.83s1.2-8.57,3.59-12.3c2.39-3.73,6.04-6.71,10.94-8.94,4.9-2.24,11.12-3.35,18.65-3.35,4.94,0,9.84.63,14.71,1.88,4.86,1.26,9.1,3.06,12.71,5.41l-4.83,11.89c-3.69-2.2-7.49-3.82-11.41-4.88-3.92-1.06-7.69-1.59-11.3-1.59-4.16,0-7.57.51-10.24,1.53-2.67,1.02-4.61,2.37-5.83,4.06-1.22,1.69-1.82,3.55-1.82,5.59,0,2.51.88,4.53,2.65,6.06,1.76,1.53,4.08,2.73,6.94,3.59,2.86.86,6.06,1.69,9.59,2.47,3.53.78,7.02,1.71,10.47,2.76,3.45,1.06,6.63,2.43,9.53,4.12,2.9,1.69,5.24,3.92,7,6.71,1.76,2.79,2.65,6.34,2.65,10.65s-1.2,8.45-3.59,12.18c-2.39,3.73-6.06,6.71-11,8.94-4.94,2.24-11.18,3.35-18.71,3.35Z"/><path d="m269.68,195.9v-69.43h-27.3v-12.94h69.89v12.94h-27.3v69.43h-15.3Z"/><path d="m327.75,195.9v-82.37h15.3v82.37h-15.3Z"/><path d="m367.25,195.9v-82.37h15.3v69.43h43.07v12.94h-58.36Z"/><path d="m437.73,195.9v-82.37h15.3v69.43h43.07v12.94h-58.36Z"/><path d="m549.69,195.9v-82.37h12.59l51.66,63.54h-6.24v-63.54h15.06v82.37h-12.59l-51.54-63.54h6.24v63.54h-15.18Z"/><path d="m681.51,197.07c-6.44,0-12.34-1.04-17.71-3.12-5.37-2.08-10.06-5.04-14.06-8.88-4-3.84-7.1-8.31-9.3-13.41-2.2-5.1-3.3-10.75-3.3-16.94s1.1-11.85,3.3-16.94c2.19-5.1,5.31-9.57,9.35-13.41,4.04-3.84,8.75-6.81,14.12-8.88,5.37-2.08,11.35-3.12,17.94-3.12s13.16,1.14,18.77,3.41c5.61,2.28,10.33,5.61,14.18,10l-9.65,9.41c-3.22-3.21-6.69-5.59-10.41-7.12-3.73-1.53-7.83-2.29-12.3-2.29s-8.41.71-12.06,2.12c-3.65,1.41-6.81,3.41-9.47,6-2.67,2.59-4.75,5.65-6.24,9.18-1.49,3.53-2.24,7.41-2.24,11.65s.75,8.02,2.24,11.59c1.49,3.57,3.57,6.65,6.24,9.24,2.67,2.59,5.8,4.59,9.41,6,3.61,1.41,7.61,2.12,12,2.12,4.08,0,8.02-.65,11.83-1.94,3.8-1.29,7.43-3.47,10.88-6.53l8.59,11.41c-4.24,3.45-9.18,6.06-14.83,7.83-5.65,1.76-11.41,2.65-17.3,2.65Zm17.77-12.47v-30.71h14.36v32.71l-14.36-2Z"/><rect class="cls-1" x="114.81" y="87.08" width="18.71" height="71.61" transform="translate(-16.39 226.62) rotate(-81.13)"/><circle class="cls-1" cx="122.89" cy="168.21" r="29.88"/></g></svg>