<svg width="433" height="627" viewBox="0 0 433 627" fill="none" xmlns="http://www.w3.org/2000/svg">
<g opacity="0.15">
<g clip-path="url(#clip0_694_5912)">
<path d="M97.1367 29.3307L91.9145 24.2246L67.1391 24.2246L67.1391 29.3307L97.1367 29.3307Z" fill="#F47A43"/>
<path d="M67.1402 7.33789L67.1402 12.444L79.8672 12.444L74.645 7.33789L67.1402 7.33789Z" fill="#F47A43"/>
<path d="M88.5 20.8858L83.2815 15.7832L67.1395 15.7832L67.1395 20.8858L88.5 20.8858Z" fill="#F47A43"/>
<path d="M105.77 37.7725L100.551 32.6699L67.1385 32.6699L67.1385 37.7725L105.77 37.7725Z" fill="#F47A43"/>
<path d="M109.187 41.1113L67.1406 41.1113L67.1406 43.9997L112.141 43.9997L109.187 41.1113Z" fill="#F47A43"/>
<path d="M71.2344 4.00258L67.1408 -1.78935e-07L67.1408 4.00258L71.2344 4.00258Z" fill="#F47A43"/>
</g>
<rect x="392.848" y="141.912" width="33.9847" height="33.9847" transform="rotate(22.8337 392.848 141.912)" fill="#F47A43"/>
<path d="M35.5273 141C18.0689 141 3.91406 155.155 3.91406 172.613C3.91406 190.072 18.0689 204.221 35.5273 204.221C52.9857 204.221 67.1406 190.066 67.1406 172.613C67.1406 155.16 52.9803 141 35.5273 141ZM35.5273 199.371C20.7453 199.371 8.76392 187.39 8.76392 172.608C8.76392 157.826 20.7453 145.85 35.5273 145.85C50.3094 145.85 62.2908 157.831 62.2908 172.613C62.2908 187.395 50.3094 199.377 35.5273 199.377V199.371Z" fill="#F47A43"/>
<path d="M35.5227 150.742C23.444 150.742 13.6523 160.534 13.6523 172.613C13.6523 184.691 23.444 194.483 35.5227 194.483C47.6013 194.483 57.393 184.691 57.393 172.613C57.393 160.534 47.6013 150.742 35.5227 150.742ZM35.5227 189.936C25.9527 189.936 18.1994 182.182 18.1994 172.613C18.1994 163.043 25.9527 155.289 35.5227 155.289C45.0926 155.289 52.8459 163.043 52.8459 172.613C52.8459 182.182 45.0926 189.936 35.5227 189.936Z" fill="#F47A43"/>
<path d="M35.5237 185.387C28.4679 185.387 22.7422 179.667 22.7422 172.606C22.7422 165.545 28.4625 159.824 35.5237 159.824C42.585 159.824 48.3053 165.545 48.3053 172.606C48.3053 179.667 42.585 185.387 35.5237 185.387Z" fill="white"/>
<path d="M35.5237 159.83C28.4679 159.83 22.7422 165.55 22.7422 172.612C22.7422 179.673 28.4625 185.393 35.5237 185.393C42.585 185.393 48.3053 179.673 48.3053 172.612C48.3053 165.55 42.585 159.83 35.5237 159.83ZM35.5237 181.414C30.6577 181.414 26.7161 177.472 26.7161 172.606C26.7161 167.74 30.6577 163.799 35.5237 163.799C40.3898 163.799 44.3313 167.74 44.3313 172.606C44.3313 177.472 40.3898 181.414 35.5237 181.414Z" fill="#F47A43"/>
<path d="M373.252 443.765C379.134 454.954 374.526 469.133 363.041 475.171C351.556 481.209 337.264 476.971 331.38 465.779L373.252 443.765Z" fill="#F47A43"/>
<g clip-path="url(#clip1_694_5912)">
<path d="M391.902 600.802L424.417 582.029L418.933 578.855L391.895 594.466L391.902 600.802Z" fill="#F47A43"/>
<path d="M391.894 590.402L415.414 576.823L409.93 573.648L391.887 584.065L391.894 590.402Z" fill="#F47A43"/>
<path d="M397.411 566.409L391.869 563.203L391.875 569.605L397.411 566.409Z" fill="#F47A43"/>
<path d="M391.886 580.005L406.417 571.616L400.93 568.444L391.883 573.667L391.886 580.005Z" fill="#F47A43"/>
<path d="M427.936 584.063L391.909 604.863L391.912 609.565L432.007 586.416L427.936 584.063Z" fill="#F47A43"/>
</g>
<path d="M65.8901 444.55L63.4062 440.248L6.52605 473.088L9.00994 477.39L65.8901 444.55Z" fill="#F47A43"/>
<path d="M71.8199 454.818L69.1758 450.238L12.2956 483.078L14.9397 487.658L71.8199 454.818Z" fill="#F47A43"/>
<path d="M77.904 465.361L75.1797 460.643L18.2995 493.482L21.0238 498.201L77.904 465.361Z" fill="#F47A43"/>
<path d="M59.5231 434.715L56.8789 430.135L-0.00129524 462.975L2.64285 467.554L59.5231 434.715Z" fill="#F47A43"/>
<path d="M322.367 57.7129C333.946 57.7129 343.332 48.3266 343.332 36.748C343.332 25.1695 333.946 15.7832 322.367 15.7832C310.789 15.7832 301.402 25.1695 301.402 36.748C301.402 48.3266 310.789 57.7129 322.367 57.7129Z" fill="#F47A43"/>
<path d="M182.371 144.36L215.957 110.774L228.592 123.409L195.006 156.996L182.371 144.36Z" stroke="#F47A43" stroke-width="4"/>
<path d="M179.046 525.657L221.765 508.071L215.636 553.859L179.046 525.657Z" stroke="#F47A43" stroke-width="4"/>
<path d="M57.3951 626.413L70.1992 610.75L33.3143 580.598L20.5102 596.262L57.3951 626.413Z" fill="#F47A43"/>
</g>
<defs>
<clipPath id="clip0_694_5912">
<rect width="44" height="45" fill="white" transform="translate(112.141) rotate(90)"/>
</clipPath>
<clipPath id="clip1_694_5912">
<rect width="46.2975" height="40.1698" fill="white" transform="translate(371.824 574.777) rotate(-30)"/>
</clipPath>
</defs>
</svg>
