<svg width="1746" height="824" viewBox="0 0 1746 824" fill="none" xmlns="http://www.w3.org/2000/svg">
<g opacity="0.15">
<path d="M1659.3 133.305C1680.45 133.305 1697.6 116.068 1697.6 94.8047C1697.6 73.5417 1680.45 56.3047 1659.3 56.3047C1638.15 56.3047 1621.01 73.5417 1621.01 94.8047C1621.01 116.068 1638.15 133.305 1659.3 133.305Z" fill="#D95C95"/>
<path d="M1659.31 128.211C1677.64 128.211 1692.51 113.254 1692.51 94.8039C1692.51 76.3535 1677.64 61.3965 1659.31 61.3965C1640.97 61.3965 1626.1 76.3535 1626.1 94.8039C1626.1 113.254 1640.97 128.211 1659.31 128.211Z" fill="white"/>
<path d="M1659.2 116.194C1670.96 116.194 1680.49 106.618 1680.49 94.8049C1680.49 82.9922 1670.96 73.416 1659.2 73.416C1647.44 73.416 1637.91 82.9922 1637.91 94.8049C1637.91 106.618 1647.44 116.194 1659.2 116.194Z" fill="white"/>
<g clip-path="url(#clip0_694_5965)">
<path d="M1659.51 55.3047C1637.7 55.3047 1620.01 72.9924 1620.01 94.8081C1620.01 116.624 1637.7 134.305 1659.51 134.305C1681.33 134.305 1699.01 116.617 1699.01 94.8081C1699.01 72.9991 1681.32 55.3047 1659.51 55.3047ZM1659.51 128.244C1641.04 128.244 1626.07 113.273 1626.07 94.8013C1626.07 76.3299 1641.04 61.365 1659.51 61.365C1677.98 61.365 1692.95 76.3367 1692.95 94.8081C1692.95 113.279 1677.98 128.251 1659.51 128.251V128.244Z" fill="#F47A43"/>
<path d="M1659.51 67.4785C1644.42 67.4785 1632.18 79.714 1632.18 94.8073C1632.18 109.901 1644.42 122.136 1659.51 122.136C1674.6 122.136 1686.84 109.901 1686.84 94.8073C1686.84 79.714 1674.6 67.4785 1659.51 67.4785ZM1659.51 116.454C1647.55 116.454 1637.86 106.766 1637.86 94.8073C1637.86 82.8488 1647.55 73.1605 1659.51 73.1605C1671.47 73.1605 1681.16 82.8488 1681.16 94.8073C1681.16 106.766 1671.47 116.454 1659.51 116.454Z" fill="#F47A43"/>
<path d="M1659.51 110.773C1650.69 110.773 1643.54 103.625 1643.54 94.8017C1643.54 85.9781 1650.69 78.8301 1659.51 78.8301C1668.33 78.8301 1675.48 85.9781 1675.48 94.8017C1675.48 103.625 1668.33 110.773 1659.51 110.773Z" fill="white"/>
<path d="M1659.51 78.8359C1650.69 78.8359 1643.54 85.984 1643.54 94.8075C1643.54 103.631 1650.69 110.779 1659.51 110.779C1668.33 110.779 1675.48 103.631 1675.48 94.8075C1675.48 85.984 1668.33 78.8359 1659.51 78.8359ZM1659.51 105.807C1653.43 105.807 1648.5 100.881 1648.5 94.8008C1648.5 88.7202 1653.43 83.795 1659.51 83.795C1665.59 83.795 1670.52 88.7202 1670.52 94.8008C1670.52 100.881 1665.59 105.807 1659.51 105.807Z" fill="#F47A43"/>
</g>
<g clip-path="url(#clip1_694_5965)">
<path d="M246.504 620.425H301.65L297.005 612.359H251.149L246.504 620.425Z" fill="#F47A43"/>
<path d="M254.129 607.19H294.019L289.374 599.125H258.774L254.129 607.19Z" fill="#F47A43"/>
<path d="M278.767 580.726L274.073 572.578L269.379 580.726H278.767Z" fill="#F47A43"/>
<path d="M261.754 593.96H286.398L281.748 585.895H266.404L261.754 593.96Z" fill="#F47A43"/>
<path d="M304.625 625.596H243.524L240.074 631.579H308.074L304.625 625.596Z" fill="#F47A43"/>
</g>
<path d="M716.523 31L708.496 31L708.496 87.9676L716.523 87.9676L716.523 31Z" fill="#F47A43"/>
<path d="M735.686 31L727.141 31L727.141 87.9676L735.686 87.9676L735.686 31Z" fill="#F47A43"/>
<path d="M755.363 31L746.559 31L746.559 87.9676L755.363 87.9676L755.363 31Z" fill="#F47A43"/>
<path d="M697.619 31.5176L689.074 31.5176L689.074 88.4852L697.619 88.4852L697.619 31.5176Z" fill="#F47A43"/>
<g clip-path="url(#clip2_694_5965)">
<path d="M88.7383 100.647L80.2667 92.1758L40.0755 92.1758L40.0755 100.647L88.7383 100.647Z" fill="#F47A43"/>
<path d="M40.0727 64.1582L40.0727 72.6297L60.7187 72.6297L52.2472 64.1582L40.0727 64.1582Z" fill="#F47A43"/>
<path d="M74.7266 86.6356L66.2609 78.1699L40.0751 78.1699L40.0751 86.6356L74.7266 86.6356Z" fill="#F47A43"/>
<path d="M102.742 114.653L94.2765 106.187L40.074 106.187L40.074 114.653L102.742 114.653Z" fill="#F47A43"/>
<path d="M108.282 120.191L40.0742 120.191L40.0742 124.983L113.074 124.984L108.282 120.191Z" fill="#F47A43"/>
<path d="M46.7148 58.625L40.0742 51.9844L40.0742 58.625L46.7148 58.625Z" fill="#F47A43"/>
</g>
<path d="M1335.07 62.5176C1355.74 41.8509 1376.41 21.1842 1397.07 0.517577L1397.07 62.5176" fill="#F47A43"/>
<path d="M1726.2 349.92L1704.28 328L1652.66 379.619L1674.58 401.539L1726.2 349.92Z" fill="#F47A43"/>
<g clip-path="url(#clip3_694_5965)">
<path d="M1266.17 734.724L1322.86 701.997L1313.3 696.464L1266.16 723.677L1266.17 734.724Z" fill="#F47A43"/>
<path d="M1266.16 716.591L1307.16 692.918L1297.6 687.385L1266.15 705.544L1266.16 716.591Z" fill="#F47A43"/>
<path d="M1275.78 674.768L1266.12 669.179L1266.13 680.34L1275.78 674.768Z" fill="#F47A43"/>
<path d="M1266.15 698.47L1291.48 683.844L1281.91 678.314L1266.14 687.42L1266.15 698.47Z" fill="#F47A43"/>
<path d="M1328.99 705.544L1266.18 741.805L1266.19 750.001L1336.08 709.647L1328.99 705.544Z" fill="#F47A43"/>
</g>
<path d="M70.5698 744.484C48.7541 744.484 31.0664 762.172 31.0664 783.988C31.0664 805.803 48.7541 823.484 70.5698 823.484C92.3855 823.484 110.073 805.797 110.073 783.988C110.073 762.179 92.3787 744.484 70.5698 744.484ZM70.5698 817.424C52.0984 817.424 37.1267 802.452 37.1267 783.981C37.1267 765.51 52.0984 750.545 70.5698 750.545C89.0412 750.545 104.013 765.516 104.013 783.988C104.013 802.459 89.0412 817.431 70.5698 817.431V817.424Z" fill="#F47A43"/>
<path d="M70.567 756.658C55.4737 756.658 43.2383 768.894 43.2383 783.987C43.2383 799.08 55.4737 811.316 70.567 811.316C85.6603 811.316 97.8958 799.08 97.8958 783.987C97.8958 768.894 85.6603 756.658 70.567 756.658ZM70.567 805.634C58.6086 805.634 48.9202 795.945 48.9202 783.987C48.9202 772.029 58.6086 762.34 70.567 762.34C82.5255 762.34 92.2138 772.029 92.2138 783.987C92.2138 795.945 82.5255 805.634 70.567 805.634Z" fill="#F47A43"/>
<path d="M70.5693 799.953C61.7524 799.953 54.5977 792.805 54.5977 783.981C54.5977 775.158 61.7457 768.01 70.5693 768.01C79.3928 768.01 86.5409 775.158 86.5409 783.981C86.5409 792.805 79.3928 799.953 70.5693 799.953Z" fill="white"/>
<path d="M70.5693 768.016C61.7524 768.016 54.5977 775.164 54.5977 783.987C54.5977 792.811 61.7457 799.959 70.5693 799.959C79.3928 799.959 86.5409 792.811 86.5409 783.987C86.5409 775.164 79.3928 768.016 70.5693 768.016ZM70.5693 794.986C64.4887 794.986 59.5634 790.061 59.5634 783.98C59.5634 777.9 64.4887 772.975 70.5693 772.975C76.6498 772.975 81.5751 777.9 81.5751 783.98C81.5751 790.061 76.6498 794.986 70.5693 794.986Z" fill="#F47A43"/>
<path d="M551.747 726.436C558.043 738.413 553.11 753.59 540.817 760.053C528.523 766.517 513.225 761.98 506.927 750L551.747 726.436Z" fill="#F47A43"/>
<path d="M384.409 154.669C377.643 142.951 381.972 127.59 394.001 120.646C406.029 113.701 421.494 117.629 428.261 129.35L384.409 154.669Z" fill="#F47A43"/>
<path d="M1056.58 163C1069.01 163 1079.08 152.926 1079.08 140.5C1079.08 128.074 1069.01 118 1056.58 118C1044.16 118 1034.08 128.074 1034.08 140.5C1034.08 152.926 1044.16 163 1056.58 163Z" fill="#F47A43"/>
<path d="M1550.07 622.689C1558.63 622.689 1565.57 615.75 1565.57 607.189C1565.57 598.629 1558.63 591.689 1550.07 591.689C1541.51 591.689 1534.57 598.629 1534.57 607.189C1534.57 615.75 1541.51 622.689 1550.07 622.689Z" fill="#F47A43"/>
<path d="M1707.04 744.484L1699.01 744.484L1699.01 801.452L1707.04 801.452L1707.04 744.484Z" fill="#F47A43"/>
<path d="M1726.2 744.484L1717.65 744.484L1717.65 801.452L1726.2 801.452L1726.2 744.484Z" fill="#F47A43"/>
<path d="M1745.87 744.484L1737.07 744.484L1737.07 801.452L1745.87 801.452L1745.87 744.484Z" fill="#F47A43"/>
<path d="M1688.13 745.002L1679.59 745.002L1679.59 801.97L1688.13 801.97L1688.13 745.002Z" fill="#F47A43"/>
<rect x="22.2305" y="363.5" width="56.9614" height="56.9614" transform="rotate(22.8337 22.2305 363.5)" fill="#F47A43"/>
</g>
<defs>
<clipPath id="clip0_694_5965">
<rect width="79" height="79" fill="white" transform="translate(1620.01 55.3047)"/>
</clipPath>
<clipPath id="clip1_694_5965">
<rect width="68" height="59" fill="white" transform="translate(240.074 572.578)"/>
</clipPath>
<clipPath id="clip2_694_5965">
<rect width="73" height="73" fill="white" transform="translate(113.074 51.9844) rotate(90)"/>
</clipPath>
<clipPath id="clip3_694_5965">
<rect width="80.7093" height="70.0272" fill="white" transform="translate(1231.17 689.355) rotate(-30)"/>
</clipPath>
</defs>
</svg>
