<?xml version="1.0" standalone="no"?>
<!DOCTYPE svg PUBLIC "-//W3C//DTD SVG 20010904//EN"
 "http://www.w3.org/TR/2001/REC-SVG-20010904/DTD/svg10.dtd">
<svg version="1.0" xmlns="http://www.w3.org/2000/svg"
 width="700.000000pt" height="700.000000pt" viewBox="0 0 700.000000 700.000000"
 preserveAspectRatio="xMidYMid meet">
<metadata>
Created by potrace 1.14, written by Peter Selinger 2001-2017
</metadata>
<g transform="translate(0.000000,700.000000) scale(0.100000,-0.100000)"
fill="#000000" stroke="none">
<path d="M4445 6498 c-153 -277 -546 -984 -872 -1572 -326 -588 -593 -1073
-593 -1078 0 -4 799 -8 1775 -8 976 0 1775 3 1775 6 0 6 -1789 3134 -1800
3147 -4 4 -132 -219 -285 -495z"/>
<path d="M700 3490 l0 -3490 700 0 700 0 0 3490 0 3490 -700 0 -700 0 0 -3490z"/>
<path d="M4380 3333 c-244 -32 -521 -136 -725 -271 -118 -78 -153 -106 -259
-210 -257 -253 -424 -569 -488 -921 -29 -164 -29 -429 0 -593 108 -594 525
-1095 1087 -1304 l90 -34 507 0 507 0 73 26 c596 214 1030 754 1114 1384 118
886 -469 1711 -1351 1900 -80 18 -142 22 -310 25 -115 2 -226 1 -245 -2z"/>
</g>
</svg>
