<?xml version="1.0" encoding="UTF-8"?><svg id="Layer_2" xmlns="http://www.w3.org/2000/svg" viewBox="0 0 1258.85 84.81"><defs><style>.cls-1{fill:#f86820;}</style></defs><g id="Layer_1-2"><g><path class="cls-1" d="m238.24,83.3c14.8-26.76,29.6-53.52,44.4-80.29,15.34,26.76,30.68,53.52,46.02,80.29h-90.42Z"/><rect class="cls-1" x="1065.44" y="4.61" width="17.63" height="78.57" transform="translate(2148.51 87.78) rotate(180)"/><path d="m0,82.74L34.94,5.1h14.2l35.05,77.65h-15.2L39.04,12.75h5.77L14.75,82.74H0Zm16.08-17.97l3.99-11.31h41.82l3.88,11.31H16.08Z"/><path d="m111.06,82.74L77.12,5.1h15.64l30.28,70.21h-9.1L144.79,5.1h14.31l-33.83,77.65h-14.2Z"/><path d="m200.94,83.85c-6.07,0-11.63-.98-16.7-2.94-5.07-1.96-9.48-4.75-13.25-8.37-3.77-3.62-6.69-7.84-8.76-12.64-2.07-4.81-3.11-10.13-3.11-15.97s1.03-11.17,3.11-15.97c2.07-4.81,5.01-9.02,8.82-12.64,3.81-3.62,8.24-6.42,13.31-8.37,5.06-1.96,10.7-2.94,16.91-2.94s12.4,1.07,17.69,3.22c5.29,2.15,9.74,5.29,13.37,9.43l-9.1,8.87c-3.03-3.03-6.31-5.27-9.82-6.71-3.51-1.44-7.38-2.16-11.59-2.16s-7.93.67-11.37,2c-3.44,1.33-6.42,3.22-8.93,5.66-2.52,2.44-4.47,5.32-5.88,8.65s-2.11,6.99-2.11,10.98.7,7.56,2.11,10.92c1.4,3.37,3.36,6.27,5.88,8.71,2.51,2.44,5.47,4.33,8.87,5.66,3.4,1.33,7.17,2,11.31,2,3.84,0,7.56-.61,11.15-1.83,3.58-1.22,7-3.27,10.26-6.16l8.1,10.76c-3.99,3.26-8.65,5.71-13.98,7.38-5.32,1.66-10.76,2.5-16.3,2.5Zm16.75-11.76v-28.95h13.53v30.84l-13.53-1.88Z"/><path d="m337.09,82.74V5.1h11.87l48.69,59.9h-5.88V5.1h14.2v77.65h-11.87l-48.58-59.9h5.88v59.9h-14.31Z"/><path d="m463.21,83.85c-6.07,0-11.63-.98-16.7-2.94-5.07-1.96-9.48-4.75-13.25-8.37-3.77-3.62-6.69-7.84-8.76-12.64-2.07-4.81-3.11-10.13-3.11-15.97s1.03-11.17,3.11-15.97c2.07-4.81,5.01-9.02,8.82-12.64,3.81-3.62,8.24-6.42,13.31-8.37,5.06-1.96,10.7-2.94,16.91-2.94s12.4,1.07,17.69,3.22c5.29,2.15,9.74,5.29,13.37,9.43l-9.1,8.87c-3.03-3.03-6.31-5.27-9.82-6.71-3.51-1.44-7.38-2.16-11.59-2.16s-7.93.67-11.37,2c-3.44,1.33-6.42,3.22-8.93,5.66-2.52,2.44-4.47,5.32-5.88,8.65-1.4,3.33-2.11,6.99-2.11,10.98s.7,7.56,2.11,10.92c1.4,3.37,3.36,6.27,5.88,8.71,2.51,2.44,5.47,4.33,8.87,5.66,3.4,1.33,7.17,2,11.31,2,3.84,0,7.56-.61,11.15-1.83,3.58-1.22,7-3.27,10.26-6.16l8.1,10.76c-3.99,3.26-8.65,5.71-13.98,7.38-5.32,1.66-10.76,2.5-16.3,2.5Zm16.75-11.76v-28.95h13.53v30.84l-13.53-1.88Z"/><path d="m538.5,83.85c-6.06,0-11.85-.87-17.36-2.61-5.51-1.74-9.93-3.97-13.26-6.71l4.99-11.2c3.11,2.44,6.95,4.48,11.54,6.1,4.59,1.63,9.28,2.44,14.09,2.44,4.07,0,7.36-.44,9.87-1.33,2.51-.89,4.36-2.09,5.55-3.6s1.78-3.24,1.78-5.16c0-2.37-.85-4.27-2.55-5.71-1.7-1.44-3.9-2.59-6.6-3.44-2.7-.85-5.69-1.63-8.98-2.33-3.29-.7-6.58-1.57-9.87-2.61-3.29-1.03-6.31-2.35-9.04-3.94-2.74-1.59-4.94-3.72-6.6-6.38-1.66-2.66-2.5-6.06-2.5-10.21s1.13-8.08,3.38-11.59c2.25-3.51,5.69-6.32,10.32-8.43,4.62-2.11,10.48-3.16,17.58-3.16,4.66,0,9.28.59,13.87,1.77,4.58,1.18,8.58,2.88,11.98,5.1l-4.55,11.2c-3.48-2.07-7.06-3.6-10.76-4.6-3.7-1-7.25-1.5-10.65-1.5-3.92,0-7.14.48-9.65,1.44-2.52.96-4.35,2.24-5.49,3.83-1.15,1.59-1.72,3.35-1.72,5.27,0,2.37.83,4.27,2.5,5.71s3.84,2.57,6.54,3.38c2.7.81,5.71,1.59,9.04,2.33,3.33.74,6.62,1.61,9.87,2.61,3.25,1,6.25,2.29,8.98,3.88,2.73,1.59,4.94,3.7,6.6,6.32,1.66,2.63,2.5,5.97,2.5,10.04s-1.13,7.97-3.38,11.48c-2.26,3.51-5.71,6.32-10.37,8.43-4.66,2.11-10.54,3.16-17.64,3.16Z"/><path d="m619.33,83.85c-10.58,0-18.88-2.99-24.9-8.98-6.03-5.99-9.04-14.68-9.04-26.07V5.1h14.42v43.26c0,7.99,1.72,13.79,5.16,17.42,3.44,3.62,8.3,5.44,14.59,5.44s11.13-1.81,14.53-5.44c3.4-3.62,5.1-9.43,5.1-17.42V5.1h14.2v43.7c0,11.39-3.01,20.08-9.04,26.07-6.03,5.99-14.36,8.98-25.01,8.98Z"/><path d="m777.05,83.85c-6.06,0-11.85-.87-17.36-2.61-5.51-1.74-9.93-3.97-13.26-6.71l4.99-11.2c3.11,2.44,6.95,4.48,11.54,6.1,4.59,1.63,9.28,2.44,14.09,2.44,4.07,0,7.36-.44,9.87-1.33,2.51-.89,4.36-2.09,5.55-3.6s1.78-3.24,1.78-5.16c0-2.37-.85-4.27-2.55-5.71-1.7-1.44-3.9-2.59-6.6-3.44-2.7-.85-5.69-1.63-8.98-2.33-3.29-.7-6.58-1.57-9.87-2.61-3.29-1.03-6.31-2.35-9.04-3.94-2.74-1.59-4.94-3.72-6.6-6.38s-2.5-6.06-2.5-10.21,1.13-8.08,3.38-11.59c2.25-3.51,5.69-6.32,10.32-8.43,4.62-2.11,10.48-3.16,17.58-3.16,4.66,0,9.28.59,13.87,1.77,4.58,1.18,8.58,2.88,11.98,5.1l-4.55,11.2c-3.48-2.07-7.06-3.6-10.76-4.6-3.7-1-7.25-1.5-10.65-1.5-3.92,0-7.14.48-9.65,1.44-2.52.96-4.35,2.24-5.49,3.83-1.15,1.59-1.72,3.35-1.72,5.27,0,2.37.83,4.27,2.5,5.71s3.84,2.57,6.54,3.38c2.7.81,5.71,1.59,9.04,2.33,3.33.74,6.62,1.61,9.87,2.61,3.25,1,6.25,2.29,8.98,3.88,2.73,1.59,4.94,3.7,6.6,6.32,1.66,2.63,2.5,5.97,2.5,10.04s-1.13,7.97-3.38,11.48c-2.26,3.51-5.71,6.32-10.37,8.43-4.66,2.11-10.54,3.16-17.64,3.16Z"/><path d="m839.25,82.74V17.3h-25.73V5.1h65.89v12.2h-25.73v65.44h-14.42Z"/><path d="m893.98,82.74V5.1h14.42v77.65h-14.42Z"/><path d="m931.22,82.74V5.1h14.42v65.44h40.6v12.2h-55.02Z"/><path d="m997.66,82.74V5.1h14.42v65.44h40.6v12.2h-55.02Z"/><path d="m1103.2,82.74V5.1h11.87l48.69,59.9h-5.88V5.1h14.2v77.65h-11.87l-48.58-59.9h5.88v59.9h-14.31Z"/><path d="m1227.46,83.85c-6.07,0-11.63-.98-16.7-2.94-5.07-1.96-9.48-4.75-13.25-8.37-3.77-3.62-6.69-7.84-8.76-12.64-2.07-4.81-3.11-10.13-3.11-15.97s1.03-11.17,3.11-15.97c2.07-4.81,5.01-9.02,8.82-12.64,3.81-3.62,8.24-6.42,13.31-8.37,5.06-1.96,10.7-2.94,16.91-2.94s12.4,1.07,17.69,3.22c5.29,2.15,9.74,5.29,13.37,9.43l-9.1,8.87c-3.03-3.03-6.31-5.27-9.82-6.71-3.51-1.44-7.38-2.16-11.59-2.16s-7.93.67-11.37,2c-3.44,1.33-6.42,3.22-8.93,5.66-2.52,2.44-4.47,5.32-5.88,8.65s-2.11,6.99-2.11,10.98.7,7.56,2.11,10.92c1.4,3.37,3.36,6.27,5.88,8.71,2.51,2.44,5.47,4.33,8.87,5.66,3.4,1.33,7.17,2,11.31,2,3.84,0,7.56-.61,11.15-1.83,3.58-1.22,7-3.27,10.26-6.16l8.1,10.76c-3.99,3.26-8.65,5.71-13.98,7.38-5.32,1.66-10.76,2.5-16.3,2.5Zm16.75-11.76v-28.95h13.53v30.84l-13.53-1.88Z"/><rect class="cls-1" x="693.25" y="-19.84" width="17.63" height="67.5" transform="translate(580.12 705.45) rotate(-81.13)"/><circle class="cls-1" cx="700.87" cy="56.64" r="28.17"/></g></g></svg>