<svg width="1924" height="1084" viewBox="0 0 1924 1084" fill="none" xmlns="http://www.w3.org/2000/svg">
<rect x="1" y="1" width="1922" height="1082" fill="white"/>
<path d="M985.02 457.305C998.286 457.305 1009.04 446.492 1009.04 433.153C1009.04 419.813 998.286 409 985.02 409C971.754 409 961 419.813 961 433.153C961 446.492 971.754 457.305 985.02 457.305Z" fill="#F47A43"/>
<path d="M1700 246C1700 266.843 1682.39 284 1661 284C1639.61 284 1622 266.849 1622 246L1700 246Z" fill="#F47A43"/>
<path d="M1389 396C1409.67 375.333 1430.34 354.667 1451 334L1451 396" fill="#F47A43"/>
<path d="M544 464C564.669 443.333 585.337 422.667 606 402L606 464" fill="#F47A43"/>
<path d="M579.449 223L571.422 223L571.422 279.968L579.449 279.968L579.449 223Z" fill="#F47A43"/>
<path d="M598.612 223L590.066 223L590.066 279.968L598.612 279.968L598.612 223Z" fill="#F47A43"/>
<path d="M618.288 223L609.484 223L609.484 279.968L618.288 279.968L618.288 223Z" fill="#F47A43"/>
<path d="M560.545 223.518L552 223.518L552 280.485L560.545 280.485L560.545 223.518Z" fill="#F47A43"/>
<path d="M1349.45 521L1341.42 521L1341.42 577.968L1349.45 577.968L1349.45 521Z" fill="#F47A43"/>
<path d="M1368.61 521L1360.07 521L1360.07 577.968L1368.61 577.968L1368.61 521Z" fill="#F47A43"/>
<path d="M1388.29 521L1379.48 521L1379.48 577.968L1388.29 577.968L1388.29 521Z" fill="#F47A43"/>
<path d="M1330.55 521.518L1322 521.518L1322 578.485L1330.55 578.485L1330.55 521.518Z" fill="#F47A43"/>
<path d="M286 433V402H213V433H286Z" fill="#F47A43"/>
<path d="M1599.54 462.92L1577.62 441L1526 492.619L1547.92 514.539L1599.54 462.92Z" fill="#F47A43"/>
<path d="M861.353 292.404L829.949 261L755.998 334.951L787.402 366.355L861.353 292.404Z" fill="#F47A43"/>
<path d="M186.296 310C207.447 310 224.593 292.763 224.593 271.5C224.593 250.237 207.447 233 186.296 233C165.146 233 148 250.237 148 271.5C148 292.763 165.146 310 186.296 310Z" fill="#D95C95"/>
<path d="M186.298 304.907C204.636 304.907 219.502 289.95 219.502 271.5C219.502 253.05 204.636 238.093 186.298 238.093C167.96 238.093 153.095 253.05 153.095 271.5C153.095 289.95 167.96 304.907 186.298 304.907Z" fill="white"/>
<path d="M186.194 292.889C197.95 292.889 207.481 283.313 207.481 271.5C207.481 259.687 197.95 250.111 186.194 250.111C174.437 250.111 164.907 259.687 164.907 271.5C164.907 283.313 174.437 292.889 186.194 292.889Z" fill="white"/>
<g clip-path="url(#clip0_80_2)">
<path d="M186.503 232C164.688 232 147 249.688 147 271.503C147 293.319 164.688 311 186.503 311C208.319 311 226.007 293.312 226.007 271.503C226.007 249.694 208.312 232 186.503 232ZM186.503 304.94C168.032 304.94 153.06 289.968 153.06 271.497C153.06 253.025 168.032 238.06 186.503 238.06C204.975 238.06 219.946 253.032 219.946 271.503C219.946 289.975 204.975 304.946 186.503 304.946V304.94Z" fill="#F47A43"/>
<path d="M186.503 244.175C171.41 244.175 159.175 256.41 159.175 271.503C159.175 286.597 171.41 298.832 186.503 298.832C201.597 298.832 213.832 286.597 213.832 271.503C213.832 256.41 201.597 244.175 186.503 244.175ZM186.503 293.15C174.545 293.15 164.857 283.462 164.857 271.503C164.857 259.545 174.545 249.857 186.503 249.857C198.462 249.857 208.15 259.545 208.15 271.503C208.15 283.462 198.462 293.15 186.503 293.15Z" fill="#F47A43"/>
<path d="M186.503 287.468C177.687 287.468 170.532 280.32 170.532 271.497C170.532 262.673 177.68 255.525 186.503 255.525C195.327 255.525 202.475 262.673 202.475 271.497C202.475 280.32 195.327 287.468 186.503 287.468Z" fill="white"/>
<path d="M186.503 255.532C177.687 255.532 170.532 262.68 170.532 271.503C170.532 280.327 177.68 287.475 186.503 287.475C195.327 287.475 202.475 280.327 202.475 271.503C202.475 262.68 195.327 255.532 186.503 255.532ZM186.503 282.502C180.423 282.502 175.498 277.577 175.498 271.497C175.498 265.416 180.423 260.491 186.503 260.491C192.584 260.491 197.509 265.416 197.509 271.497C197.509 277.577 192.584 282.502 186.503 282.502Z" fill="#F47A43"/>
</g>
<g clip-path="url(#clip1_80_2)">
<path d="M395.427 320.847H450.573L445.928 312.782H400.072L395.427 320.847Z" fill="#F47A43"/>
<path d="M403.055 307.612H442.945L438.3 299.547H407.7L403.055 307.612Z" fill="#F47A43"/>
<path d="M427.694 281.148L423 273L418.306 281.148H427.694Z" fill="#F47A43"/>
<path d="M410.678 294.383H435.322L430.672 286.317H415.328L410.678 294.383Z" fill="#F47A43"/>
<path d="M453.551 326.017H392.449L389 332H457L453.551 326.017Z" fill="#F47A43"/>
</g>
<g clip-path="url(#clip2_80_2)">
<path d="M1066.33 257.327L1053.56 244.562L993 244.562L993 257.327L1066.33 257.327Z" fill="#F47A43"/>
<path d="M993 202.345L993 215.111L1024.11 215.111L1011.35 202.345L993 202.345Z" fill="#F47A43"/>
<path d="M1045.21 236.214L1032.46 223.458L993 223.458L993 236.214L1045.21 236.214Z" fill="#F47A43"/>
<path d="M1087.43 278.431L1074.67 265.675L993 265.675L993 278.431L1087.43 278.431Z" fill="#F47A43"/>
<path d="M1095.78 286.779L993 286.779L993 294L1103 294L1095.78 286.779Z" fill="#F47A43"/>
<path d="M1003.01 194.006L993 184L993 194.006L1003.01 194.006Z" fill="#F47A43"/>
</g>
<path d="M1221.3 384C1242.45 384 1259.59 366.763 1259.59 345.5C1259.59 324.237 1242.45 307 1221.3 307C1200.15 307 1183 324.237 1183 345.5C1183 366.763 1200.15 384 1221.3 384Z" fill="#D95C95"/>
<path d="M1221.3 378.907C1239.64 378.907 1254.5 363.95 1254.5 345.5C1254.5 327.05 1239.64 312.093 1221.3 312.093C1202.96 312.093 1188.09 327.05 1188.09 345.5C1188.09 363.95 1202.96 378.907 1221.3 378.907Z" fill="white"/>
<path d="M1221.19 366.889C1232.95 366.889 1242.48 357.313 1242.48 345.5C1242.48 333.687 1232.95 324.111 1221.19 324.111C1209.44 324.111 1199.91 333.687 1199.91 345.5C1199.91 357.313 1209.44 366.889 1221.19 366.889Z" fill="white"/>
<g clip-path="url(#clip3_80_2)">
<path d="M1221.5 306C1199.69 306 1182 323.688 1182 345.503C1182 367.319 1199.69 385 1221.5 385C1243.32 385 1261.01 367.312 1261.01 345.503C1261.01 323.694 1243.31 306 1221.5 306ZM1221.5 378.94C1203.03 378.94 1188.06 363.968 1188.06 345.497C1188.06 327.025 1203.03 312.06 1221.5 312.06C1239.97 312.06 1254.95 327.032 1254.95 345.503C1254.95 363.975 1239.97 378.946 1221.5 378.946V378.94Z" fill="#F47A43"/>
<path d="M1221.5 318.175C1206.41 318.175 1194.17 330.41 1194.17 345.503C1194.17 360.597 1206.41 372.832 1221.5 372.832C1236.6 372.832 1248.83 360.597 1248.83 345.503C1248.83 330.41 1236.6 318.175 1221.5 318.175ZM1221.5 367.15C1209.54 367.15 1199.86 357.462 1199.86 345.503C1199.86 333.545 1209.54 323.857 1221.5 323.857C1233.46 323.857 1243.15 333.545 1243.15 345.503C1243.15 357.462 1233.46 367.15 1221.5 367.15Z" fill="#F47A43"/>
<path d="M1221.5 361.468C1212.69 361.468 1205.53 354.32 1205.53 345.497C1205.53 336.673 1212.68 329.525 1221.5 329.525C1230.33 329.525 1237.47 336.673 1237.47 345.497C1237.47 354.32 1230.33 361.468 1221.5 361.468Z" fill="white"/>
<path d="M1221.5 329.532C1212.69 329.532 1205.53 336.68 1205.53 345.503C1205.53 354.327 1212.68 361.475 1221.5 361.475C1230.33 361.475 1237.47 354.327 1237.47 345.503C1237.47 336.68 1230.33 329.532 1221.5 329.532ZM1221.5 356.502C1215.42 356.502 1210.5 351.577 1210.5 345.497C1210.5 339.416 1215.42 334.491 1221.5 334.491C1227.58 334.491 1232.51 339.416 1232.51 345.497C1232.51 351.577 1227.58 356.502 1221.5 356.502Z" fill="#F47A43"/>
</g>
<g clip-path="url(#clip4_80_2)">
<path d="M1422.43 232.847H1477.57L1472.93 224.782H1427.07L1422.43 232.847Z" fill="#F47A43"/>
<path d="M1430.06 219.612H1469.94L1465.3 211.547H1434.7L1430.06 219.612Z" fill="#F47A43"/>
<path d="M1454.69 193.148L1450 185L1445.31 193.148H1454.69Z" fill="#F47A43"/>
<path d="M1437.68 206.383H1462.32L1457.67 198.317H1442.33L1437.68 206.383Z" fill="#F47A43"/>
<path d="M1480.55 238.017H1419.45L1416 244H1484L1480.55 238.017Z" fill="#F47A43"/>
</g>
<g clip-path="url(#clip5_80_2)">
<path d="M1698.63 596.648L1775.76 552.115L1762.75 544.585L1698.61 581.616L1698.63 596.648Z" fill="#F47A43"/>
<path d="M1698.61 571.976L1754.41 539.763L1741.4 532.233L1698.59 556.944L1698.61 571.976Z" fill="#F47A43"/>
<path d="M1711.7 515.062L1698.56 507.457L1698.57 522.644L1711.7 515.062Z" fill="#F47A43"/>
<path d="M1698.59 547.316L1733.06 527.414L1720.04 519.889L1698.58 532.28L1698.59 547.316Z" fill="#F47A43"/>
<path d="M1784.1 556.942L1698.64 606.284L1698.65 617.438L1793.76 562.525L1784.1 556.942Z" fill="#F47A43"/>
</g>
<g clip-path="url(#clip6_80_2)">
<path d="M1798.5 388C1776.69 388 1759 405.688 1759 427.503C1759 449.319 1776.69 467 1798.5 467C1820.32 467 1838.01 449.312 1838.01 427.503C1838.01 405.694 1820.31 388 1798.5 388ZM1798.5 460.94C1780.03 460.94 1765.06 445.968 1765.06 427.497C1765.06 409.025 1780.03 394.06 1798.5 394.06C1816.97 394.06 1831.95 409.032 1831.95 427.503C1831.95 445.975 1816.97 460.946 1798.5 460.946V460.94Z" fill="#F47A43"/>
<path d="M1798.5 400.175C1783.41 400.175 1771.17 412.41 1771.17 427.503C1771.17 442.597 1783.41 454.832 1798.5 454.832C1813.6 454.832 1825.83 442.597 1825.83 427.503C1825.83 412.41 1813.6 400.175 1798.5 400.175ZM1798.5 449.15C1786.54 449.15 1776.86 439.462 1776.86 427.503C1776.86 415.545 1786.54 405.857 1798.5 405.857C1810.46 405.857 1820.15 415.545 1820.15 427.503C1820.15 439.462 1810.46 449.15 1798.5 449.15Z" fill="#F47A43"/>
<path d="M1798.5 443.468C1789.69 443.468 1782.53 436.32 1782.53 427.497C1782.53 418.673 1789.68 411.525 1798.5 411.525C1807.33 411.525 1814.47 418.673 1814.47 427.497C1814.47 436.32 1807.33 443.468 1798.5 443.468Z" fill="white"/>
<path d="M1798.5 411.532C1789.69 411.532 1782.53 418.68 1782.53 427.503C1782.53 436.327 1789.68 443.475 1798.5 443.475C1807.33 443.475 1814.47 436.327 1814.47 427.503C1814.47 418.68 1807.33 411.532 1798.5 411.532ZM1798.5 438.502C1792.42 438.502 1787.5 433.577 1787.5 427.497C1787.5 421.416 1792.42 416.491 1798.5 416.491C1804.58 416.491 1809.51 421.416 1809.51 427.497C1809.51 433.577 1804.58 438.502 1798.5 438.502Z" fill="#F47A43"/>
</g>
<rect x="1" y="1" width="1922" height="1082" stroke="black" stroke-width="2"/>
<defs>
<clipPath id="clip0_80_2">
<rect width="79" height="79" fill="white" transform="translate(147 232)"/>
</clipPath>
<clipPath id="clip1_80_2">
<rect width="68" height="59" fill="white" transform="translate(389 273)"/>
</clipPath>
<clipPath id="clip2_80_2">
<rect width="110" height="110" fill="white" transform="translate(1103 184) rotate(90)"/>
</clipPath>
<clipPath id="clip3_80_2">
<rect width="79" height="79" fill="white" transform="translate(1182 306)"/>
</clipPath>
<clipPath id="clip4_80_2">
<rect width="68" height="59" fill="white" transform="translate(1416 185)"/>
</clipPath>
<clipPath id="clip5_80_2">
<rect width="109.827" height="95.2915" fill="white" transform="translate(1651 534.914) rotate(-30)"/>
</clipPath>
<clipPath id="clip6_80_2">
<rect width="79" height="79" fill="white" transform="translate(1759 388)"/>
</clipPath>
</defs>
</svg>
