<svg width="1920" height="1080" viewBox="0 0 1920 1080" fill="none" xmlns="http://www.w3.org/2000/svg">
<rect width="1920" height="1080" fill="white"/>
<path d="M983.02 455.305C996.286 455.305 1007.04 444.492 1007.04 431.153C1007.04 417.813 996.286 407 983.02 407C969.754 407 959 417.813 959 431.153C959 444.492 969.754 455.305 983.02 455.305Z" fill="#F47A43"/>
<path d="M1698 244C1698 264.843 1680.39 282 1659 282C1637.61 282 1620 264.849 1620 244L1698 244Z" fill="#F47A43"/>
<path d="M1387 394C1407.67 373.333 1428.34 352.667 1449 332L1449 394" fill="#F47A43"/>
<path d="M542 462C562.669 441.333 583.337 420.667 604 400L604 462" fill="#F47A43"/>
<path d="M577.449 221L569.422 221L569.422 277.968L577.449 277.968L577.449 221Z" fill="#F47A43"/>
<path d="M596.612 221L588.066 221L588.066 277.968L596.612 277.968L596.612 221Z" fill="#F47A43"/>
<path d="M616.288 221L607.484 221L607.484 277.968L616.288 277.968L616.288 221Z" fill="#F47A43"/>
<path d="M558.545 221.518L550 221.518L550 278.485L558.545 278.485L558.545 221.518Z" fill="#F47A43"/>
<path d="M1347.45 519L1339.42 519L1339.42 575.968L1347.45 575.968L1347.45 519Z" fill="#F47A43"/>
<path d="M1366.61 519L1358.07 519L1358.07 575.968L1366.61 575.968L1366.61 519Z" fill="#F47A43"/>
<path d="M1386.29 519L1377.48 519L1377.48 575.968L1386.29 575.968L1386.29 519Z" fill="#F47A43"/>
<path d="M1328.55 519.518L1320 519.518L1320 576.485L1328.55 576.485L1328.55 519.518Z" fill="#F47A43"/>
<path d="M284 431V400H211V431H284Z" fill="#F47A43"/>
<path d="M1597.54 460.92L1575.62 439L1524 490.619L1545.92 512.539L1597.54 460.92Z" fill="#F47A43"/>
<path d="M859.353 290.404L827.949 259L753.998 332.951L785.402 364.355L859.353 290.404Z" fill="#F47A43"/>
<path d="M184.296 308C205.447 308 222.593 290.763 222.593 269.5C222.593 248.237 205.447 231 184.296 231C163.146 231 146 248.237 146 269.5C146 290.763 163.146 308 184.296 308Z" fill="#D95C95"/>
<path d="M184.298 302.907C202.636 302.907 217.502 287.95 217.502 269.5C217.502 251.05 202.636 236.093 184.298 236.093C165.96 236.093 151.095 251.05 151.095 269.5C151.095 287.95 165.96 302.907 184.298 302.907Z" fill="white"/>
<path d="M184.194 290.889C195.95 290.889 205.481 281.313 205.481 269.5C205.481 257.687 195.95 248.111 184.194 248.111C172.437 248.111 162.907 257.687 162.907 269.5C162.907 281.313 172.437 290.889 184.194 290.889Z" fill="white"/>
<g clip-path="url(#clip0_80_2)">
<path d="M184.503 230C162.688 230 145 247.688 145 269.503C145 291.319 162.688 309 184.503 309C206.319 309 224.007 291.312 224.007 269.503C224.007 247.694 206.312 230 184.503 230ZM184.503 302.94C166.032 302.94 151.06 287.968 151.06 269.497C151.06 251.025 166.032 236.06 184.503 236.06C202.975 236.06 217.946 251.032 217.946 269.503C217.946 287.975 202.975 302.946 184.503 302.946V302.94Z" fill="#F47A43"/>
<path d="M184.503 242.175C169.41 242.175 157.175 254.41 157.175 269.503C157.175 284.597 169.41 296.832 184.503 296.832C199.597 296.832 211.832 284.597 211.832 269.503C211.832 254.41 199.597 242.175 184.503 242.175ZM184.503 291.15C172.545 291.15 162.857 281.462 162.857 269.503C162.857 257.545 172.545 247.857 184.503 247.857C196.462 247.857 206.15 257.545 206.15 269.503C206.15 281.462 196.462 291.15 184.503 291.15Z" fill="#F47A43"/>
<path d="M184.503 285.468C175.687 285.468 168.532 278.32 168.532 269.497C168.532 260.673 175.68 253.525 184.503 253.525C193.327 253.525 200.475 260.673 200.475 269.497C200.475 278.32 193.327 285.468 184.503 285.468Z" fill="white"/>
<path d="M184.503 253.532C175.687 253.532 168.532 260.68 168.532 269.503C168.532 278.327 175.68 285.475 184.503 285.475C193.327 285.475 200.475 278.327 200.475 269.503C200.475 260.68 193.327 253.532 184.503 253.532ZM184.503 280.502C178.423 280.502 173.498 275.577 173.498 269.497C173.498 263.416 178.423 258.491 184.503 258.491C190.584 258.491 195.509 263.416 195.509 269.497C195.509 275.577 190.584 280.502 184.503 280.502Z" fill="#F47A43"/>
</g>
<g clip-path="url(#clip1_80_2)">
<path d="M393.427 318.847H448.573L443.928 310.782H398.072L393.427 318.847Z" fill="#F47A43"/>
<path d="M401.055 305.612H440.945L436.3 297.547H405.7L401.055 305.612Z" fill="#F47A43"/>
<path d="M425.694 279.148L421 271L416.306 279.148H425.694Z" fill="#F47A43"/>
<path d="M408.678 292.383H433.322L428.672 284.317H413.328L408.678 292.383Z" fill="#F47A43"/>
<path d="M451.551 324.017H390.449L387 330H455L451.551 324.017Z" fill="#F47A43"/>
</g>
<g clip-path="url(#clip2_80_2)">
<path d="M1064.33 255.327L1051.56 242.562L991 242.562L991 255.327L1064.33 255.327Z" fill="#F47A43"/>
<path d="M991 200.345L991 213.111L1022.11 213.111L1009.35 200.345L991 200.345Z" fill="#F47A43"/>
<path d="M1043.21 234.214L1030.46 221.458L991 221.458L991 234.214L1043.21 234.214Z" fill="#F47A43"/>
<path d="M1085.43 276.431L1072.67 263.675L991 263.675L991 276.431L1085.43 276.431Z" fill="#F47A43"/>
<path d="M1093.78 284.779L991 284.779L991 292L1101 292L1093.78 284.779Z" fill="#F47A43"/>
<path d="M1001.01 192.006L991 182L991 192.006L1001.01 192.006Z" fill="#F47A43"/>
</g>
<path d="M1219.3 382C1240.45 382 1257.59 364.763 1257.59 343.5C1257.59 322.237 1240.45 305 1219.3 305C1198.15 305 1181 322.237 1181 343.5C1181 364.763 1198.15 382 1219.3 382Z" fill="#D95C95"/>
<path d="M1219.3 376.907C1237.64 376.907 1252.5 361.95 1252.5 343.5C1252.5 325.05 1237.64 310.093 1219.3 310.093C1200.96 310.093 1186.09 325.05 1186.09 343.5C1186.09 361.95 1200.96 376.907 1219.3 376.907Z" fill="white"/>
<path d="M1219.19 364.889C1230.95 364.889 1240.48 355.313 1240.48 343.5C1240.48 331.687 1230.95 322.111 1219.19 322.111C1207.44 322.111 1197.91 331.687 1197.91 343.5C1197.91 355.313 1207.44 364.889 1219.19 364.889Z" fill="white"/>
<g clip-path="url(#clip3_80_2)">
<path d="M1219.5 304C1197.69 304 1180 321.688 1180 343.503C1180 365.319 1197.69 383 1219.5 383C1241.32 383 1259.01 365.312 1259.01 343.503C1259.01 321.694 1241.31 304 1219.5 304ZM1219.5 376.94C1201.03 376.94 1186.06 361.968 1186.06 343.497C1186.06 325.025 1201.03 310.06 1219.5 310.06C1237.97 310.06 1252.95 325.032 1252.95 343.503C1252.95 361.975 1237.97 376.946 1219.5 376.946V376.94Z" fill="#F47A43"/>
<path d="M1219.5 316.175C1204.41 316.175 1192.17 328.41 1192.17 343.503C1192.17 358.597 1204.41 370.832 1219.5 370.832C1234.6 370.832 1246.83 358.597 1246.83 343.503C1246.83 328.41 1234.6 316.175 1219.5 316.175ZM1219.5 365.15C1207.54 365.15 1197.86 355.462 1197.86 343.503C1197.86 331.545 1207.54 321.857 1219.5 321.857C1231.46 321.857 1241.15 331.545 1241.15 343.503C1241.15 355.462 1231.46 365.15 1219.5 365.15Z" fill="#F47A43"/>
<path d="M1219.5 359.468C1210.69 359.468 1203.53 352.32 1203.53 343.497C1203.53 334.673 1210.68 327.525 1219.5 327.525C1228.33 327.525 1235.47 334.673 1235.47 343.497C1235.47 352.32 1228.33 359.468 1219.5 359.468Z" fill="white"/>
<path d="M1219.5 327.532C1210.69 327.532 1203.53 334.68 1203.53 343.503C1203.53 352.327 1210.68 359.475 1219.5 359.475C1228.33 359.475 1235.47 352.327 1235.47 343.503C1235.47 334.68 1228.33 327.532 1219.5 327.532ZM1219.5 354.502C1213.42 354.502 1208.5 349.577 1208.5 343.497C1208.5 337.416 1213.42 332.491 1219.5 332.491C1225.58 332.491 1230.51 337.416 1230.51 343.497C1230.51 349.577 1225.58 354.502 1219.5 354.502Z" fill="#F47A43"/>
</g>
<g clip-path="url(#clip4_80_2)">
<path d="M1420.43 230.847H1475.57L1470.93 222.782H1425.07L1420.43 230.847Z" fill="#F47A43"/>
<path d="M1428.06 217.612H1467.94L1463.3 209.547H1432.7L1428.06 217.612Z" fill="#F47A43"/>
<path d="M1452.69 191.148L1448 183L1443.31 191.148H1452.69Z" fill="#F47A43"/>
<path d="M1435.68 204.383H1460.32L1455.67 196.317H1440.33L1435.68 204.383Z" fill="#F47A43"/>
<path d="M1478.55 236.017H1417.45L1414 242H1482L1478.55 236.017Z" fill="#F47A43"/>
</g>
<g clip-path="url(#clip5_80_2)">
<path d="M1696.63 594.648L1773.76 550.115L1760.75 542.585L1696.61 579.616L1696.63 594.648Z" fill="#F47A43"/>
<path d="M1696.61 569.976L1752.41 537.763L1739.4 530.233L1696.59 554.944L1696.61 569.976Z" fill="#F47A43"/>
<path d="M1709.7 513.062L1696.56 505.457L1696.57 520.644L1709.7 513.062Z" fill="#F47A43"/>
<path d="M1696.59 545.316L1731.06 525.414L1718.04 517.889L1696.58 530.28L1696.59 545.316Z" fill="#F47A43"/>
<path d="M1782.1 554.942L1696.64 604.284L1696.65 615.438L1791.76 560.525L1782.1 554.942Z" fill="#F47A43"/>
</g>
<g clip-path="url(#clip6_80_2)">
<path d="M1796.5 386C1774.69 386 1757 403.688 1757 425.503C1757 447.319 1774.69 465 1796.5 465C1818.32 465 1836.01 447.312 1836.01 425.503C1836.01 403.694 1818.31 386 1796.5 386ZM1796.5 458.94C1778.03 458.94 1763.06 443.968 1763.06 425.497C1763.06 407.025 1778.03 392.06 1796.5 392.06C1814.97 392.06 1829.95 407.032 1829.95 425.503C1829.95 443.975 1814.97 458.946 1796.5 458.946V458.94Z" fill="#F47A43"/>
<path d="M1796.5 398.175C1781.41 398.175 1769.17 410.41 1769.17 425.503C1769.17 440.597 1781.41 452.832 1796.5 452.832C1811.6 452.832 1823.83 440.597 1823.83 425.503C1823.83 410.41 1811.6 398.175 1796.5 398.175ZM1796.5 447.15C1784.54 447.15 1774.86 437.462 1774.86 425.503C1774.86 413.545 1784.54 403.857 1796.5 403.857C1808.46 403.857 1818.15 413.545 1818.15 425.503C1818.15 437.462 1808.46 447.15 1796.5 447.15Z" fill="#F47A43"/>
<path d="M1796.5 441.468C1787.69 441.468 1780.53 434.32 1780.53 425.497C1780.53 416.673 1787.68 409.525 1796.5 409.525C1805.33 409.525 1812.47 416.673 1812.47 425.497C1812.47 434.32 1805.33 441.468 1796.5 441.468Z" fill="white"/>
<path d="M1796.5 409.532C1787.69 409.532 1780.53 416.68 1780.53 425.503C1780.53 434.327 1787.68 441.475 1796.5 441.475C1805.33 441.475 1812.47 434.327 1812.47 425.503C1812.47 416.68 1805.33 409.532 1796.5 409.532ZM1796.5 436.502C1790.42 436.502 1785.5 431.577 1785.5 425.497C1785.5 419.416 1790.42 414.491 1796.5 414.491C1802.58 414.491 1807.51 419.416 1807.51 425.497C1807.51 431.577 1802.58 436.502 1796.5 436.502Z" fill="#F47A43"/>
</g>
<defs>
<clipPath id="clip0_80_2">
<rect width="79" height="79" fill="white" transform="translate(145 230)"/>
</clipPath>
<clipPath id="clip1_80_2">
<rect width="68" height="59" fill="white" transform="translate(387 271)"/>
</clipPath>
<clipPath id="clip2_80_2">
<rect width="110" height="110" fill="white" transform="translate(1101 182) rotate(90)"/>
</clipPath>
<clipPath id="clip3_80_2">
<rect width="79" height="79" fill="white" transform="translate(1180 304)"/>
</clipPath>
<clipPath id="clip4_80_2">
<rect width="68" height="59" fill="white" transform="translate(1414 183)"/>
</clipPath>
<clipPath id="clip5_80_2">
<rect width="109.827" height="95.2915" fill="white" transform="translate(1649 532.914) rotate(-30)"/>
</clipPath>
<clipPath id="clip6_80_2">
<rect width="79" height="79" fill="white" transform="translate(1757 386)"/>
</clipPath>
</defs>
</svg>
