<svg width="430" height="932" viewBox="0 0 430 932" fill="none" xmlns="http://www.w3.org/2000/svg">
<rect width="430" height="932" fill="white"/>
<path d="M220 89C220 109.843 202.395 127 181 127C159.605 127 142 109.849 142 89L220 89Z" fill="#F47A43"/>
<path d="M344.296 148C365.447 148 382.593 130.763 382.593 109.5C382.593 88.237 365.447 71 344.296 71C323.146 71 306 88.237 306 109.5C306 130.763 323.146 148 344.296 148Z" fill="#D95C95"/>
<path d="M344.298 142.907C362.636 142.907 377.502 127.95 377.502 109.5C377.502 91.0495 362.636 76.0925 344.298 76.0925C325.961 76.0925 311.095 91.0495 311.095 109.5C311.095 127.95 325.961 142.907 344.298 142.907Z" fill="white"/>
<path d="M344.194 130.889C355.95 130.889 365.481 121.313 365.481 109.5C365.481 97.6871 355.95 88.111 344.194 88.111C332.437 88.111 322.907 97.6871 322.907 109.5C322.907 121.313 332.437 130.889 344.194 130.889Z" fill="white"/>
<g clip-path="url(#clip0_88_79)">
<path d="M344.503 70C322.688 70 305 87.6877 305 109.503C305 131.319 322.688 149 344.503 149C366.319 149 384.007 131.312 384.007 109.503C384.007 87.6944 366.312 70 344.503 70ZM344.503 142.94C326.032 142.94 311.06 127.968 311.06 109.497C311.06 91.0252 326.032 76.0603 344.503 76.0603C362.975 76.0603 377.946 91.032 377.946 109.503C377.946 127.975 362.975 142.946 344.503 142.946V142.94Z" fill="#F47A43"/>
<path d="M344.503 82.1747C329.41 82.1747 317.175 94.4101 317.175 109.503C317.175 124.597 329.41 136.832 344.503 136.832C359.597 136.832 371.832 124.597 371.832 109.503C371.832 94.4101 359.597 82.1747 344.503 82.1747ZM344.503 131.15C332.545 131.15 322.857 121.462 322.857 109.503C322.857 97.545 332.545 87.8566 344.503 87.8566C356.462 87.8566 366.15 97.545 366.15 109.503C366.15 121.462 356.462 131.15 344.503 131.15Z" fill="#F47A43"/>
<path d="M344.503 125.468C335.687 125.468 328.532 118.32 328.532 109.497C328.532 100.673 335.68 93.525 344.503 93.525C353.327 93.525 360.475 100.673 360.475 109.497C360.475 118.32 353.327 125.468 344.503 125.468Z" fill="white"/>
<path d="M344.503 93.5317C335.687 93.5317 328.532 100.68 328.532 109.503C328.532 118.327 335.68 125.475 344.503 125.475C353.327 125.475 360.475 118.327 360.475 109.503C360.475 100.68 353.327 93.5317 344.503 93.5317ZM344.503 120.502C338.423 120.502 333.498 115.577 333.498 109.497C333.498 103.416 338.423 98.4908 344.503 98.4908C350.584 98.4908 355.509 103.416 355.509 109.497C355.509 115.577 350.584 120.502 344.503 120.502Z" fill="#F47A43"/>
</g>
<path d="M157.296 918C178.447 918 195.593 900.763 195.593 879.5C195.593 858.237 178.447 841 157.296 841C136.146 841 119 858.237 119 879.5C119 900.763 136.146 918 157.296 918Z" fill="#D95C95"/>
<path d="M157.298 912.907C175.636 912.907 190.502 897.95 190.502 879.5C190.502 861.05 175.636 846.093 157.298 846.093C138.961 846.093 124.095 861.05 124.095 879.5C124.095 897.95 138.961 912.907 157.298 912.907Z" fill="white"/>
<path d="M157.194 900.889C168.95 900.889 178.481 891.313 178.481 879.5C178.481 867.687 168.95 858.111 157.194 858.111C145.437 858.111 135.907 867.687 135.907 879.5C135.907 891.313 145.437 900.889 157.194 900.889Z" fill="white"/>
<g clip-path="url(#clip1_88_79)">
<path d="M157.503 840C135.688 840 118 857.688 118 879.503C118 901.319 135.688 919 157.503 919C179.319 919 197.007 901.312 197.007 879.503C197.007 857.694 179.312 840 157.503 840ZM157.503 912.94C139.032 912.94 124.06 897.968 124.06 879.497C124.06 861.025 139.032 846.06 157.503 846.06C175.975 846.06 190.946 861.032 190.946 879.503C190.946 897.975 175.975 912.946 157.503 912.946V912.94Z" fill="#F47A43"/>
<path d="M157.503 852.175C142.41 852.175 130.175 864.41 130.175 879.503C130.175 894.597 142.41 906.832 157.503 906.832C172.597 906.832 184.832 894.597 184.832 879.503C184.832 864.41 172.597 852.175 157.503 852.175ZM157.503 901.15C145.545 901.15 135.857 891.462 135.857 879.503C135.857 867.545 145.545 857.857 157.503 857.857C169.462 857.857 179.15 867.545 179.15 879.503C179.15 891.462 169.462 901.15 157.503 901.15Z" fill="#F47A43"/>
<path d="M157.503 895.468C148.687 895.468 141.532 888.32 141.532 879.497C141.532 870.673 148.68 863.525 157.503 863.525C166.327 863.525 173.475 870.673 173.475 879.497C173.475 888.32 166.327 895.468 157.503 895.468Z" fill="white"/>
<path d="M157.503 863.532C148.687 863.532 141.532 870.68 141.532 879.503C141.532 888.327 148.68 895.475 157.503 895.475C166.327 895.475 173.475 888.327 173.475 879.503C173.475 870.68 166.327 863.532 157.503 863.532ZM157.503 890.502C151.423 890.502 146.498 885.577 146.498 879.497C146.498 873.416 151.423 868.491 157.503 868.491C163.584 868.491 168.509 873.416 168.509 879.497C168.509 885.577 163.584 890.502 157.503 890.502Z" fill="#F47A43"/>
</g>
<g clip-path="url(#clip2_88_79)">
<path d="M35.427 172.847H90.5728L85.928 164.782H40.0718L35.427 172.847Z" fill="#F47A43"/>
<path d="M43.0552 159.612H82.9449L78.3 151.547H47.7L43.0552 159.612Z" fill="#F47A43"/>
<path d="M67.6943 133.148L63.0001 125L58.3059 133.148H67.6943Z" fill="#F47A43"/>
<path d="M50.6777 146.383H75.3223L70.6719 138.317H55.3281L50.6777 146.383Z" fill="#F47A43"/>
<path d="M93.5506 178.017H32.4494L29 184H97L93.5506 178.017Z" fill="#F47A43"/>
</g>
<path d="M322 871C342.669 850.333 363.337 829.667 384 809L384 871" fill="#F47A43"/>
<path d="M117.539 808.92L95.6189 787L44.0001 838.619L65.9204 860.539L117.539 808.92Z" fill="#F47A43"/>
<path d="M142.02 252.305C155.286 252.305 166.04 241.492 166.04 228.153C166.04 214.813 155.286 204 142.02 204C128.754 204 118 214.813 118 228.153C118 241.492 128.754 252.305 142.02 252.305Z" fill="#F47A43"/>
<g clip-path="url(#clip3_88_79)">
<path d="M286.664 184.664L279.933 177.933L248 177.933L248 184.664L286.664 184.664Z" fill="#F47A43"/>
<path d="M248 155.673L248 162.404L264.404 162.404L257.673 155.673L248 155.673Z" fill="#F47A43"/>
<path d="M275.531 173.531L268.805 166.805L248 166.805L248 173.531L275.531 173.531Z" fill="#F47A43"/>
<path d="M297.791 195.791L291.065 189.065L248 189.065L248 195.791L297.791 195.791Z" fill="#F47A43"/>
<path d="M302.193 200.193L248 200.193L248 204L306 204L302.193 200.193Z" fill="#F47A43"/>
<path d="M253.276 151.276L248 146L248 151.276L253.276 151.276Z" fill="#F47A43"/>
</g>
<defs>
<clipPath id="clip0_88_79">
<rect width="79" height="79" fill="white" transform="translate(305 70)"/>
</clipPath>
<clipPath id="clip1_88_79">
<rect width="79" height="79" fill="white" transform="translate(118 840)"/>
</clipPath>
<clipPath id="clip2_88_79">
<rect width="68" height="59" fill="white" transform="translate(29 125)"/>
</clipPath>
<clipPath id="clip3_88_79">
<rect width="58" height="58" fill="white" transform="translate(306 146) rotate(90)"/>
</clipPath>
</defs>
</svg>
