<svg width="834" height="1194" viewBox="0 0 834 1194" fill="none" xmlns="http://www.w3.org/2000/svg">
<rect width="834" height="1194" fill="white"/>
<path d="M396 136C396 156.843 378.395 174 357 174C335.605 174 318 156.849 318 136L396 136Z" fill="#F47A43"/>
<path d="M120.296 208C141.447 208 158.593 190.763 158.593 169.5C158.593 148.237 141.447 131 120.296 131C99.1458 131 82 148.237 82 169.5C82 190.763 99.1458 208 120.296 208Z" fill="#D95C95"/>
<path d="M120.298 202.907C138.636 202.907 153.502 187.95 153.502 169.5C153.502 151.05 138.636 136.093 120.298 136.093C101.961 136.093 87.0947 151.05 87.0947 169.5C87.0947 187.95 101.961 202.907 120.298 202.907Z" fill="white"/>
<path d="M120.194 190.889C131.95 190.889 141.481 181.313 141.481 169.5C141.481 157.687 131.95 148.111 120.194 148.111C108.437 148.111 98.9067 157.687 98.9067 169.5C98.9067 181.313 108.437 190.889 120.194 190.889Z" fill="white"/>
<g clip-path="url(#clip0_88_117)">
<path d="M120.503 130C98.6877 130 81 147.688 81 169.503C81 191.319 98.6877 209 120.503 209C142.319 209 160.007 191.312 160.007 169.503C160.007 147.694 142.312 130 120.503 130ZM120.503 202.94C102.032 202.94 87.0603 187.968 87.0603 169.497C87.0603 151.025 102.032 136.06 120.503 136.06C138.975 136.06 153.946 151.032 153.946 169.503C153.946 187.975 138.975 202.946 120.503 202.946V202.94Z" fill="#F47A43"/>
<path d="M120.503 142.175C105.41 142.175 93.1746 154.41 93.1746 169.503C93.1746 184.597 105.41 196.832 120.503 196.832C135.597 196.832 147.832 184.597 147.832 169.503C147.832 154.41 135.597 142.175 120.503 142.175ZM120.503 191.15C108.545 191.15 98.8565 181.462 98.8565 169.503C98.8565 157.545 108.545 147.857 120.503 147.857C132.462 147.857 142.15 157.545 142.15 169.503C142.15 181.462 132.462 191.15 120.503 191.15Z" fill="#F47A43"/>
<path d="M120.503 185.468C111.687 185.468 104.532 178.32 104.532 169.497C104.532 160.673 111.68 153.525 120.503 153.525C129.327 153.525 136.475 160.673 136.475 169.497C136.475 178.32 129.327 185.468 120.503 185.468Z" fill="white"/>
<path d="M120.503 153.532C111.687 153.532 104.532 160.68 104.532 169.503C104.532 178.327 111.68 185.475 120.503 185.475C129.327 185.475 136.475 178.327 136.475 169.503C136.475 160.68 129.327 153.532 120.503 153.532ZM120.503 180.502C114.423 180.502 109.498 175.577 109.498 169.497C109.498 163.416 114.423 158.491 120.503 158.491C126.584 158.491 131.509 163.416 131.509 169.497C131.509 175.577 126.584 180.502 120.503 180.502Z" fill="#F47A43"/>
</g>
<path d="M747.296 463C768.447 463 785.593 445.763 785.593 424.5C785.593 403.237 768.447 386 747.296 386C726.146 386 709 403.237 709 424.5C709 445.763 726.146 463 747.296 463Z" fill="#D95C95"/>
<path d="M747.298 457.907C765.636 457.907 780.502 442.95 780.502 424.5C780.502 406.05 765.636 391.093 747.298 391.093C728.961 391.093 714.095 406.05 714.095 424.5C714.095 442.95 728.961 457.907 747.298 457.907Z" fill="white"/>
<path d="M747.194 445.889C758.95 445.889 768.481 436.313 768.481 424.5C768.481 412.687 758.95 403.111 747.194 403.111C735.437 403.111 725.907 412.687 725.907 424.5C725.907 436.313 735.437 445.889 747.194 445.889Z" fill="white"/>
<g clip-path="url(#clip1_88_117)">
<path d="M747.503 385C725.688 385 708 402.688 708 424.503C708 446.319 725.688 464 747.503 464C769.319 464 787.007 446.312 787.007 424.503C787.007 402.694 769.312 385 747.503 385ZM747.503 457.94C729.032 457.94 714.06 442.968 714.06 424.497C714.06 406.025 729.032 391.06 747.503 391.06C765.975 391.06 780.946 406.032 780.946 424.503C780.946 442.975 765.975 457.946 747.503 457.946V457.94Z" fill="#F47A43"/>
<path d="M747.504 397.175C732.41 397.175 720.175 409.41 720.175 424.503C720.175 439.597 732.41 451.832 747.504 451.832C762.597 451.832 774.832 439.597 774.832 424.503C774.832 409.41 762.597 397.175 747.504 397.175ZM747.504 446.15C735.545 446.15 725.857 436.462 725.857 424.503C725.857 412.545 735.545 402.857 747.504 402.857C759.462 402.857 769.15 412.545 769.15 424.503C769.15 436.462 759.462 446.15 747.504 446.15Z" fill="#F47A43"/>
<path d="M747.503 440.468C738.687 440.468 731.532 433.32 731.532 424.497C731.532 415.673 738.68 408.525 747.503 408.525C756.327 408.525 763.475 415.673 763.475 424.497C763.475 433.32 756.327 440.468 747.503 440.468Z" fill="white"/>
<path d="M747.503 408.532C738.687 408.532 731.532 415.68 731.532 424.503C731.532 433.327 738.68 440.475 747.503 440.475C756.327 440.475 763.475 433.327 763.475 424.503C763.475 415.68 756.327 408.532 747.503 408.532ZM747.503 435.502C741.423 435.502 736.498 430.577 736.498 424.497C736.498 418.416 741.423 413.491 747.503 413.491C753.584 413.491 758.509 418.416 758.509 424.497C758.509 430.577 753.584 435.502 747.503 435.502Z" fill="#F47A43"/>
</g>
<g clip-path="url(#clip2_88_117)">
<path d="M617.427 285.847H672.573L667.928 277.782H622.072L617.427 285.847Z" fill="#F47A43"/>
<path d="M625.055 272.612H664.945L660.3 264.547H629.7L625.055 272.612Z" fill="#F47A43"/>
<path d="M649.694 246.148L645 238L640.306 246.148H649.694Z" fill="#F47A43"/>
<path d="M632.678 259.383H657.322L652.672 251.317H637.328L632.678 259.383Z" fill="#F47A43"/>
<path d="M675.551 291.017H614.449L611 297H679L675.551 291.017Z" fill="#F47A43"/>
</g>
<path d="M567 416C587.669 395.333 608.337 374.667 629 354L629 416" fill="#F47A43"/>
<path d="M157.539 273.92L135.619 252L84.0001 303.619L105.92 325.539L157.539 273.92Z" fill="#F47A43"/>
<path d="M318.02 299.305C331.286 299.305 342.04 288.492 342.04 275.153C342.04 261.813 331.286 251 318.02 251C304.754 251 294 261.813 294 275.153C294 288.492 304.754 299.305 318.02 299.305Z" fill="#F47A43"/>
<path d="M707.5 185C723.24 185 736 172.24 736 156.5C736 140.76 723.24 128 707.5 128C691.76 128 679 140.76 679 156.5C679 172.24 691.76 185 707.5 185Z" fill="#F47A43"/>
<g clip-path="url(#clip3_88_117)">
<path d="M475.664 277.664L468.933 270.933L437 270.933L437 277.664L475.664 277.664Z" fill="#F47A43"/>
<path d="M437 248.673L437 255.404L453.404 255.404L446.673 248.673L437 248.673Z" fill="#F47A43"/>
<path d="M464.531 266.531L457.805 259.805L437 259.805L437 266.531L464.531 266.531Z" fill="#F47A43"/>
<path d="M486.791 288.791L480.065 282.065L437 282.065L437 288.791L486.791 288.791Z" fill="#F47A43"/>
<path d="M491.193 293.193L437 293.193L437 297L495 297L491.193 293.193Z" fill="#F47A43"/>
<path d="M442.276 244.276L437 239L437 244.276L442.276 244.276Z" fill="#F47A43"/>
</g>
<path d="M529 377V346H456V377H529Z" fill="#F47A43"/>
<defs>
<clipPath id="clip0_88_117">
<rect width="79" height="79" fill="white" transform="translate(81 130)"/>
</clipPath>
<clipPath id="clip1_88_117">
<rect width="79" height="79" fill="white" transform="translate(708 385)"/>
</clipPath>
<clipPath id="clip2_88_117">
<rect width="68" height="59" fill="white" transform="translate(611 238)"/>
</clipPath>
<clipPath id="clip3_88_117">
<rect width="58" height="58" fill="white" transform="translate(495 239) rotate(90)"/>
</clipPath>
</defs>
</svg>
