<?xml version="1.0" encoding="UTF-8"?><svg id="Layer_2" xmlns="http://www.w3.org/2000/svg" viewBox="0 0 800.15 166.71"><defs><style>.cls-1{fill:#5ca545;}</style></defs><g id="Layer_1-2"><path d="m1.27,68.76V2.12h12.38v66.63H1.27Z"/><path d="m31.64,68.76V2.12h10.19l41.79,51.4h-5.05V2.12h12.19v66.63h-10.19L38.87,17.35h5.05v51.4h-12.28Z"/><path d="m181.64,58.29h37.6v10.47h-49.98V2.12h48.64v10.47h-36.27v45.69Zm-.95-28.46h33.13v10.19h-33.13v-10.19Z"/><path d="m231.43,68.76V2.12h27.42c5.9,0,10.96.94,15.18,2.81,4.22,1.87,7.47,4.58,9.76,8.14,2.29,3.56,3.43,7.81,3.43,12.76s-1.14,9.08-3.43,12.56c-2.28,3.49-5.54,6.19-9.76,8.09-4.22,1.9-9.28,2.86-15.18,2.86h-20.47l5.43-5.52v24.94h-12.38Zm12.38-23.61l-5.43-6h19.9c5.46,0,9.57-1.17,12.33-3.52,2.76-2.35,4.14-5.62,4.14-9.8s-1.38-7.44-4.14-9.76c-2.76-2.32-6.87-3.47-12.33-3.47h-19.9l5.43-6.09v38.65Zm31.22,23.61l-16.85-24.18h13.23l16.94,24.18h-13.33Z"/><path d="m291.59,68.76L321.58,2.12h12.18l30.08,66.63h-13.04l-25.7-60.07h4.95l-25.8,60.07h-12.66Zm13.8-15.42l3.43-9.71h35.89l3.33,9.71h-42.64Z"/><path d="m459.32,69.71c-5.2,0-10.17-.75-14.9-2.24-4.73-1.49-8.52-3.41-11.38-5.76l4.28-9.61c2.67,2.09,5.96,3.84,9.9,5.24,3.93,1.4,7.96,2.09,12.09,2.09,3.49,0,6.31-.38,8.47-1.14,2.16-.76,3.74-1.79,4.76-3.09,1.01-1.3,1.52-2.78,1.52-4.43,0-2.03-.73-3.66-2.19-4.9-1.46-1.24-3.35-2.22-5.66-2.95-2.32-.73-4.89-1.4-7.71-2-2.82-.6-5.65-1.35-8.47-2.24-2.82-.89-5.41-2.01-7.76-3.38-2.35-1.36-4.24-3.19-5.66-5.47-1.43-2.29-2.14-5.2-2.14-8.76s.97-6.93,2.9-9.95c1.94-3.01,4.89-5.43,8.85-7.23,3.96-1.81,9-2.71,15.09-2.71,4,0,7.96.51,11.9,1.52,3.93,1.02,7.36,2.48,10.28,4.38l-3.9,9.61c-2.98-1.78-6.06-3.09-9.23-3.95-3.17-.86-6.22-1.28-9.14-1.28-3.36,0-6.13.41-8.28,1.24-2.16.83-3.73,1.92-4.71,3.28-.98,1.37-1.48,2.87-1.48,4.52,0,2.03.71,3.67,2.14,4.9,1.43,1.24,3.3,2.21,5.62,2.9,2.32.7,4.9,1.37,7.76,2,2.85.63,5.68,1.38,8.47,2.24,2.79.86,5.36,1.97,7.71,3.33,2.35,1.37,4.24,3.17,5.66,5.43,1.43,2.25,2.14,5.13,2.14,8.62s-.97,6.84-2.9,9.85c-1.94,3.01-4.9,5.43-8.9,7.23s-9.04,2.71-15.14,2.71Z"/><path d="m516.87,69.71c-4.19,0-8.08-.83-11.66-2.48-3.59-1.65-6.52-4.06-8.81-7.23l7.04-8.38c1.84,2.54,3.85,4.44,6.04,5.71s4.62,1.9,7.28,1.9c6.85,0,10.28-4.09,10.28-12.28V12.59h-23.7V2.12h35.98v44.17c0,7.87-1.9,13.74-5.71,17.61-3.81,3.87-9.39,5.81-16.75,5.81Z"/><path d="m584.76,69.71c-5.14,0-9.92-.86-14.33-2.57-4.41-1.71-8.23-4.13-11.47-7.23-3.24-3.11-5.74-6.74-7.52-10.9-1.78-4.16-2.67-8.68-2.67-13.56s.89-9.5,2.67-13.66c1.78-4.16,4.28-7.77,7.52-10.85s7.04-5.47,11.42-7.19c4.38-1.71,9.17-2.57,14.37-2.57s9.9.84,14.28,2.52c4.38,1.68,8.17,4.06,11.38,7.14,3.2,3.08,5.69,6.71,7.47,10.9,1.78,4.19,2.66,8.76,2.66,13.71s-.89,9.5-2.66,13.66c-1.78,4.16-4.27,7.79-7.47,10.9-3.21,3.11-7,5.51-11.38,7.19-4.38,1.68-9.14,2.52-14.28,2.52Zm0-10.85c3.36,0,6.46-.57,9.28-1.71,2.82-1.14,5.28-2.76,7.38-4.86,2.09-2.09,3.73-4.57,4.9-7.42,1.17-2.86,1.76-6,1.76-9.42s-.57-6.57-1.71-9.42c-1.14-2.86-2.78-5.33-4.9-7.42-2.13-2.09-4.6-3.71-7.42-4.86-2.82-1.14-5.92-1.71-9.28-1.71s-6.49.57-9.38,1.71c-2.89,1.14-5.38,2.78-7.47,4.9-2.09,2.13-3.75,4.6-4.95,7.42-1.21,2.82-1.81,5.95-1.81,9.38s.6,6.47,1.81,9.33c1.2,2.86,2.86,5.35,4.95,7.47,2.09,2.13,4.58,3.76,7.47,4.9,2.89,1.14,6.01,1.71,9.38,1.71Z"/><path d="m632.07,68.76V2.12h10.19l41.79,51.4h-5.05V2.12h12.19v66.63h-10.19l-41.69-51.4h5.05v51.4h-12.28Z"/><path d="m729.83,69.71c-5.2,0-10.17-.75-14.9-2.24-4.73-1.49-8.52-3.41-11.38-5.76l4.28-9.61c2.67,2.09,5.96,3.84,9.9,5.24,3.93,1.4,7.96,2.09,12.09,2.09,3.49,0,6.31-.38,8.47-1.14,2.16-.76,3.74-1.79,4.76-3.09,1.01-1.3,1.52-2.78,1.52-4.43,0-2.03-.73-3.66-2.19-4.9-1.46-1.24-3.35-2.22-5.66-2.95-2.32-.73-4.89-1.4-7.71-2-2.82-.6-5.65-1.35-8.47-2.24-2.82-.89-5.41-2.01-7.76-3.38-2.35-1.36-4.24-3.19-5.66-5.47-1.43-2.29-2.14-5.2-2.14-8.76s.97-6.93,2.9-9.95c1.94-3.01,4.89-5.43,8.85-7.23,3.96-1.81,9-2.71,15.09-2.71,4,0,7.96.51,11.9,1.52,3.93,1.02,7.36,2.48,10.28,4.38l-3.9,9.61c-2.98-1.78-6.06-3.09-9.23-3.95-3.17-.86-6.22-1.28-9.14-1.28-3.36,0-6.13.41-8.28,1.24-2.16.83-3.73,1.92-4.71,3.28-.98,1.37-1.48,2.87-1.48,4.52,0,2.03.71,3.67,2.14,4.9,1.43,1.24,3.3,2.21,5.62,2.9,2.32.7,4.9,1.37,7.76,2,2.85.63,5.68,1.38,8.47,2.24,2.79.86,5.36,1.97,7.71,3.33,2.35,1.37,4.24,3.17,5.66,5.43,1.43,2.25,2.14,5.13,2.14,8.62s-.97,6.84-2.9,9.85c-1.94,3.01-4.9,5.43-8.9,7.23s-9.04,2.71-15.14,2.71Z"/><path d="m96.63,155.28h37.6v10.47h-49.98v-66.63h48.64v10.47h-36.27v45.69Zm-.95-28.46h33.13v10.19h-33.13v-10.19Z"/><path d="m170.29,166.71c-5.2,0-10.17-.75-14.9-2.24-4.73-1.49-8.52-3.41-11.38-5.76l4.28-9.61c2.67,2.09,5.96,3.84,9.9,5.24,3.93,1.4,7.96,2.09,12.09,2.09,3.49,0,6.31-.38,8.47-1.14,2.16-.76,3.74-1.79,4.76-3.09,1.01-1.3,1.52-2.78,1.52-4.43,0-2.03-.73-3.66-2.19-4.9-1.46-1.24-3.35-2.22-5.66-2.95-2.32-.73-4.89-1.4-7.71-2-2.82-.6-5.65-1.35-8.47-2.24-2.82-.89-5.41-2.01-7.76-3.38-2.35-1.36-4.24-3.19-5.66-5.47-1.43-2.29-2.14-5.2-2.14-8.76s.97-6.93,2.9-9.95c1.94-3.01,4.89-5.43,8.85-7.23,3.96-1.81,9-2.71,15.09-2.71,4,0,7.96.51,11.9,1.52,3.93,1.02,7.36,2.48,10.28,4.38l-3.9,9.61c-2.98-1.78-6.06-3.09-9.23-3.95-3.17-.86-6.22-1.28-9.14-1.28-3.36,0-6.13.41-8.28,1.24-2.16.83-3.73,1.92-4.71,3.28-.98,1.37-1.48,2.87-1.48,4.52,0,2.03.71,3.67,2.14,4.9,1.43,1.24,3.3,2.21,5.62,2.9,2.32.7,4.9,1.37,7.76,2,2.85.63,5.68,1.38,8.47,2.24,2.79.86,5.36,1.97,7.71,3.33,2.35,1.37,4.24,3.17,5.66,5.43,1.43,2.25,2.14,5.13,2.14,8.62s-.97,6.84-2.9,9.85c-1.94,3.01-4.9,5.43-8.9,7.23-4,1.81-9.04,2.71-15.14,2.71Z"/><path d="m209.51,165.76v-66.63h12.38v66.63h-12.38Z"/><path d="m271,166.71c-5.2,0-9.98-.84-14.33-2.52-4.35-1.68-8.14-4.08-11.38-7.19-3.24-3.11-5.74-6.72-7.52-10.85-1.78-4.13-2.67-8.69-2.67-13.71s.89-9.58,2.67-13.71c1.78-4.12,4.3-7.74,7.57-10.85,3.27-3.11,7.07-5.5,11.42-7.19,4.35-1.68,9.18-2.52,14.52-2.52s10.64.92,15.18,2.76c4.54,1.84,8.36,4.54,11.47,8.09l-7.81,7.62c-2.6-2.6-5.41-4.52-8.43-5.76-3.01-1.24-6.33-1.86-9.95-1.86s-6.81.57-9.76,1.71c-2.95,1.14-5.51,2.76-7.66,4.86-2.16,2.09-3.84,4.57-5.05,7.42-1.21,2.86-1.81,6-1.81,9.42s.6,6.49,1.81,9.38c1.2,2.89,2.89,5.38,5.05,7.47,2.16,2.09,4.7,3.71,7.62,4.86,2.92,1.14,6.16,1.71,9.71,1.71,3.3,0,6.49-.52,9.57-1.57,3.08-1.05,6.01-2.81,8.8-5.28l6.95,9.23c-3.43,2.79-7.42,4.9-12,6.33-4.57,1.43-9.23,2.14-13.99,2.14Zm14.37-10.09v-24.84h11.61v26.46l-11.61-1.62Z"/><path d="m311.75,165.76v-66.63h10.19l41.79,51.4h-5.05v-51.4h12.19v66.63h-10.19l-41.69-51.4h5.05v51.4h-12.28Z"/><rect class="cls-1" x="121.48" y="-16.08" width="14.3" height="54.73" transform="translate(97.66 136.63) rotate(-81.13)"/><circle class="cls-1" cx="127.66" cy="45.92" r="22.84"/><rect class="cls-1" x="371.98" y=".58" width="15.3" height="68.18" transform="translate(759.26 69.34) rotate(180)"/><path class="cls-1" d="m40.19,97.39c18.93,0,34.28,15.35,34.28,34.28s-15.35,34.28-34.28,34.28"/><rect class="cls-1" x="11.79" y="97.58" width="15.3" height="68.18" transform="translate(-9.97 261.47) rotate(-158.83)"/><circle class="cls-1" cx="407.53" cy="16.56" r="15.98"/><circle class="cls-1" cx="407.53" cy="53.34" r="15.98"/><rect class="cls-1" x="778.09" y="25.09" width="14.3" height="29.83" transform="translate(745.23 825.24) rotate(-90)"/></g></svg>