<svg width="1428" height="659" viewBox="0 0 1428 659" fill="none" xmlns="http://www.w3.org/2000/svg">
<g opacity="0.15">
<path d="M1397.13 271.167C1397.4 271.666 1397.45 272.25 1397.29 272.791C1397.12 273.332 1396.75 273.785 1396.25 274.051L1381.21 282.075C1380.71 282.342 1380.12 282.398 1379.58 282.234C1379.04 282.069 1378.59 281.697 1378.32 281.198C1378.06 280.699 1378 280.115 1378.17 279.574C1378.33 279.033 1378.7 278.58 1379.2 278.314L1394.25 270.29C1394.75 270.024 1395.33 269.967 1395.87 270.131C1396.41 270.296 1396.86 270.668 1397.13 271.167ZM1398.26 277.812L1383.21 285.837C1382.71 286.103 1382.34 286.556 1382.18 287.097C1382.01 287.638 1382.07 288.222 1382.34 288.721C1382.6 289.219 1383.06 289.592 1383.6 289.757C1384.14 289.921 1384.72 289.864 1385.22 289.598L1400.27 281.574C1400.76 281.308 1401.14 280.854 1401.3 280.314C1401.47 279.773 1401.41 279.189 1401.14 278.69C1400.88 278.191 1400.42 277.819 1399.88 277.654C1399.34 277.489 1398.76 277.546 1398.26 277.812ZM1414.18 266.904C1416.43 271.125 1417.56 275.856 1417.44 280.639C1417.32 285.421 1415.96 290.091 1413.5 294.195C1411.04 298.298 1407.56 301.694 1403.4 304.054C1399.24 306.413 1394.54 307.655 1389.75 307.658L1383.17 314.596C1382.63 315.17 1381.93 315.581 1381.17 315.784C1380.4 315.986 1379.6 315.971 1378.84 315.74C1378.08 315.51 1377.4 315.073 1376.88 314.478C1376.36 313.884 1376.01 313.156 1375.88 312.375L1374.28 302.947C1370.78 300.599 1367.87 297.485 1365.76 293.843C1363.65 290.201 1362.4 286.126 1362.1 281.928C1361.8 277.729 1362.46 273.518 1364.03 269.613C1365.6 265.708 1368.04 262.212 1371.17 259.391C1374.29 256.57 1378.01 254.497 1382.06 253.331C1386.1 252.164 1390.36 251.934 1394.51 252.658C1398.65 253.383 1402.58 255.042 1405.99 257.51C1409.4 259.979 1412.2 263.191 1414.18 266.904ZM1410.42 268.91C1408.73 265.737 1406.33 262.997 1403.4 260.9C1400.48 258.803 1397.12 257.407 1393.57 256.819C1390.02 256.231 1386.38 256.468 1382.94 257.51C1379.5 258.552 1376.34 260.372 1373.72 262.829C1371.09 265.286 1369.07 268.314 1367.8 271.68C1366.53 275.045 1366.05 278.657 1366.4 282.237C1366.75 285.816 1367.92 289.267 1369.82 292.322C1371.72 295.377 1374.29 297.954 1377.35 299.855C1377.6 300.014 1377.82 300.226 1377.99 300.477C1378.16 300.728 1378.27 301.012 1378.32 301.309L1380.08 311.665L1387.31 304.044C1387.46 303.877 1387.65 303.736 1387.85 303.628C1388.18 303.453 1388.55 303.367 1388.93 303.381C1393.04 303.523 1397.12 302.579 1400.76 300.643C1404.39 298.707 1407.45 295.849 1409.63 292.355C1411.81 288.86 1413.03 284.854 1413.17 280.738C1413.31 276.623 1412.36 272.543 1410.42 268.91Z" fill="#72AD56"/>
<g clip-path="url(#clip0_694_5836)">
<path d="M271.698 127.811C269.956 122.363 268.206 116.917 266.475 111.465C265.623 108.789 266.319 107.423 269.008 106.559C280.082 103.006 291.162 99.4632 302.242 95.9322C304.653 95.1612 306.238 95.9813 307.004 98.3626C309.343 105.64 311.645 112.929 314.008 120.204C314.423 121.477 314.31 122.59 313.676 123.772C311.278 128.253 308.904 132.746 306.593 137.271C306.058 138.318 305.343 138.942 304.237 139.291C296.608 141.711 288.992 144.17 281.362 146.586C278.883 147.37 277.803 146.815 276.987 144.314C275.195 138.823 273.457 133.313 271.698 127.811ZM274.286 126.796C275.959 132.027 277.671 137.242 279.274 142.495C279.669 143.796 280.119 144.178 281.537 143.704C288.201 141.494 294.893 139.37 301.596 137.282C302.789 136.913 303.156 136.517 302.707 135.266C301.712 132.495 300.929 129.654 299.967 126.873C299.495 125.498 299.834 124.763 301.271 124.336C304.193 123.465 307.073 122.453 310.001 121.588C311.084 121.27 311.308 120.844 310.958 119.776C308.773 113.107 306.627 106.421 304.549 99.7175C304.167 98.4848 303.682 98.2971 302.469 98.6928C291.796 102.154 281.106 105.576 270.403 108.946C269.105 109.353 268.812 109.829 269.244 111.118C270.986 116.323 272.618 121.567 274.291 126.798L274.286 126.796ZM304.961 133.294C306.476 130.414 308.058 127.406 309.539 124.585C307.913 125.105 305.953 125.768 303.97 126.35C303.116 126.599 302.886 126.956 303.187 127.808C303.86 129.724 304.443 131.674 304.962 133.297L304.961 133.294Z" fill="#72AD56"/>
</g>
<g clip-path="url(#clip1_694_5836)">
<path d="M1155.02 598.553C1152.71 600.344 1150.96 600.276 1148.32 598.342C1143.67 594.947 1138.02 594.305 1132.26 595.501C1131.59 595.643 1130.92 595.981 1130.26 595.952C1128.58 595.896 1127.59 595.009 1127.23 593.324C1126.88 591.693 1127.75 591.226 1129.07 590.656C1134.99 588.103 1137.79 583.219 1136.73 578.065C1135.98 574.367 1131.82 570.268 1127.45 570.276C1122.07 570.284 1117.88 573.103 1116.65 577.821C1116.37 578.89 1116.21 580.018 1116.16 581.129C1116.06 582.993 1115.2 584.302 1113.31 584.237C1111.48 584.166 1110.35 582.761 1110.48 581.011C1110.88 575.645 1112.24 570.621 1117.31 567.583C1123.24 564.035 1129.33 563.332 1135.47 567.068C1141.46 570.712 1144.27 579.213 1141.48 585.68C1140.42 588.129 1139.78 589.735 1143.53 590.259C1147.48 590.812 1150.89 592.994 1154.13 595.255L1155.02 598.544L1155.02 598.553Z" fill="#72AD56"/>
<path d="M1120.62 621.841C1126.97 622.934 1132.61 625.378 1137.14 629.958C1137.62 630.439 1138.13 630.893 1138.57 631.403C1139.69 632.679 1139.33 633.993 1138.35 635.083C1137.24 636.306 1135.91 636.204 1134.68 635.192C1133.02 633.819 1131.52 632.234 1129.74 631.033C1117.07 622.549 1097.99 628.345 1093.6 645.085C1092.95 647.526 1091.7 648.649 1089.66 648.213C1087.3 647.72 1087.73 645.505 1088.14 643.754C1089.6 637.455 1093.15 632.352 1097.99 627.728C1092.19 624.359 1087.63 619.909 1086.38 613.335C1085.32 607.814 1086.71 602.521 1090.07 597.795C1095.12 590.705 1107.52 588.403 1115.62 593.152C1124.83 598.551 1126.7 608.999 1120.61 621.826L1120.62 621.841ZM1118.62 606.384C1117.52 599.158 1110.22 594.459 1101.78 596.561C1095.65 598.08 1090.12 605.019 1092.03 612.935C1093.74 619.977 1101.62 624.869 1108.89 622.81C1116.88 620.545 1121.19 612.247 1118.62 606.393L1118.62 606.384Z" fill="#72AD56"/>
<path d="M1062.67 597.372C1064.1 602.671 1069.22 606.061 1074.91 605.109C1076.7 604.807 1078.05 605.016 1078.38 606.597C1078.72 608.241 1078.19 610.042 1076.08 610.533C1069.18 612.128 1064.82 616.559 1062 622.76C1061.28 624.35 1060.28 625.435 1058.3 624.4C1056.44 623.436 1055.9 621.903 1056.89 620.22C1058.88 616.846 1060.48 612.995 1063.75 610.713C1066.19 609.009 1064.79 608.7 1063.44 607.928C1061.43 606.779 1059.86 605.007 1058.74 603.177C1054.02 595.414 1056.29 583.284 1067.85 579.67C1074.2 577.687 1080.98 579.921 1085.25 585.106C1086.26 586.335 1086.53 587.715 1086.9 589.117C1087.26 590.464 1086.35 591.252 1085.32 591.8C1084.33 592.328 1083.32 592.222 1082.57 591.252C1082.16 590.723 1081.72 590.224 1081.37 589.67C1077.73 583.812 1069.67 582.97 1064.85 588.002C1062.28 590.689 1061.59 593.854 1062.68 597.379L1062.67 597.372Z" fill="#72AD56"/>
</g>
<g clip-path="url(#clip2_694_5836)">
<path d="M1251.48 427.526L1239.94 470.573L1282.99 482.107L1251.48 427.526Z" fill="#72AD56"/>
</g>
<g clip-path="url(#clip3_694_5836)">
<path d="M91.1898 74.0084C91.2266 74.4106 91.1279 74.8135 90.9094 75.1532C90.691 75.4929 90.3652 75.7498 89.984 75.8831C89.8402 75.9341 89.6906 75.9671 89.5386 75.9812L82.1021 76.6615C81.895 76.6802 81.6862 76.6632 81.4849 76.611L75.1607 74.9841C74.6955 74.8643 74.297 74.5646 74.0528 74.1509C73.8086 73.7372 73.7388 73.2435 73.8586 72.7784C73.9784 72.3132 74.2782 71.9147 74.6918 71.6705C75.1055 71.4263 75.5992 71.3564 76.0644 71.4763L82.0832 73.0253L89.2086 72.3745C89.4461 72.351 89.6859 72.3748 89.9142 72.4443C90.1425 72.5138 90.3548 72.6278 90.5389 72.7796C90.723 72.9314 90.8752 73.1182 90.9869 73.329C91.0987 73.5399 91.1676 73.7708 91.1898 74.0084ZM112.343 43.4825C112.352 43.9577 112.266 44.4298 112.092 44.8717C111.917 45.3136 111.656 45.7164 111.324 46.0569L107.148 50.356L99.4911 66.2437C99.3551 66.5254 99.1485 66.7671 98.8913 66.9452C98.6342 67.1233 98.3353 67.2318 98.0237 67.2601L83.1508 68.6208C82.9245 68.6413 82.6964 68.6193 82.4782 68.5561L67.6519 64.2311L61.5561 63.4501C60.6035 63.3281 59.7382 62.8327 59.1507 62.073C58.5632 61.3132 58.3014 60.3512 58.423 59.3985L60.0226 46.9228C60.1446 45.9701 60.6399 45.1049 61.3997 44.5174C62.1594 43.9299 63.1214 43.6681 64.0742 43.7897L69.6104 44.4929L79.8066 37.2987C80.0831 37.1034 80.4089 36.9895 80.7469 36.97L93.2048 36.2471L97.0978 32.2486C97.7673 31.56 98.683 31.1656 99.6433 31.1519C100.604 31.1383 101.53 31.5067 102.219 32.176L111.241 40.9395C111.584 41.2695 111.858 41.6642 112.047 42.1007C112.236 42.5372 112.337 43.0069 112.343 43.4825ZM103.44 49.6972L93.5605 40.0991L86.76 42.4757L80.6558 54.6814C83.9657 55.4648 88.3746 54.4588 90.8402 49.2924C91.0328 48.8888 91.3678 48.5708 91.7807 48.3995C92.1937 48.2281 92.6555 48.2156 93.0771 48.3643L102.49 51.6864L103.44 49.6972ZM62.0154 59.8577L66.457 60.4279L68.0566 47.9522L63.6149 47.3821L62.0154 59.8577ZM100.898 54.96L93.3186 52.2873C90.3376 57.1662 85.1929 59.4702 79.8197 58.204C79.2913 58.0801 78.7976 57.8391 78.3749 57.4988C77.9523 57.1585 77.6115 56.7276 77.3777 56.2379C77.1439 55.7481 77.0232 55.2122 77.0244 54.6695C77.0256 54.1269 77.1486 53.5914 77.3845 53.1027C77.3875 53.0947 77.3912 53.087 77.3957 53.0797L83.7333 40.4302L81.4769 40.5616L71.7776 47.4072L70.0159 61.1482L83.1562 64.9856L96.667 63.7485L100.898 54.96ZM108.715 43.5372L99.6989 34.7714L96.5793 37.984L105.602 46.7476L108.715 43.5372Z" fill="#72AD56"/>
</g>
<g clip-path="url(#clip4_694_5836)">
<path d="M1164.18 128.585C1163.15 129.041 1162.82 130.117 1162.37 130.946C1160.43 134.513 1157.48 136.809 1153.77 138.354C1152.51 138.88 1151.75 139.952 1151.37 141.317C1150.57 144.122 1149.16 144.912 1146.38 144.154C1142.36 143.061 1138.34 141.95 1134.34 140.796C1131.49 139.974 1130.55 138.397 1131.44 135.608C1131.91 134.108 1131.67 132.938 1130.77 131.722C1128.2 128.259 1127.08 124.333 1127.41 120.107C1128.1 111.247 1133.13 105.763 1141.52 103.234C1145.16 102.14 1148.76 102.749 1152.43 103.92C1158.55 105.86 1162.03 110.068 1164.21 115.676C1165.28 118.441 1165.18 121.332 1164.99 124.215C1164.97 124.5 1164.94 124.762 1165.2 124.958L1164.19 128.586L1164.18 128.585ZM1144.42 127.053C1146.91 125.77 1149.2 124.593 1151.49 123.421C1152.44 122.938 1153.23 123.037 1153.84 124.019C1154.45 125.024 1154.1 125.748 1153.22 126.312C1152.69 126.65 1152.15 127.019 1151.56 127.224C1146.82 128.892 1144.34 132.172 1143.64 137.123C1143.17 140.49 1142.19 139.767 1145.97 140.879C1146.24 140.955 1146.52 141.031 1146.79 141.094C1147.45 141.234 1147.98 140.99 1148.09 140.356C1148.65 137.209 1151.1 135.864 1153.63 134.613C1158.9 131.999 1161.28 127.615 1161.62 121.962C1162.35 110.133 1150.24 103.972 1141.67 106.7C1135.25 108.74 1131.47 113.244 1130.82 120.15C1130.43 124.284 1132.11 127.686 1134.17 131.03C1135.09 132.526 1135.51 134.089 1134.86 135.759C1134.26 137.28 1134.85 137.964 1136.35 138.22C1137.05 138.338 1137.72 138.577 1138.4 138.776C1139.13 138.988 1139.69 138.803 1139.9 138.062C1140.65 135.451 1141.35 132.822 1142.1 130.205C1142.28 129.595 1141.77 129.339 1141.55 128.934C1140.35 126.646 1138.87 124.508 1137.83 122.114C1137.33 120.959 1137.22 120.072 1138.44 119.565C1139.59 119.086 1140.42 119.674 1140.99 120.75C1142.1 122.857 1143.27 124.94 1144.42 127.054L1144.42 127.053Z" fill="#72AD56"/>
<path d="M1139.4 145.761C1141.92 146.462 1144.44 147.146 1146.94 147.873C1148.2 148.238 1149.23 148.989 1148.8 150.404C1148.4 151.769 1147.16 151.406 1146.13 151.127C1141.1 149.756 1136.06 148.371 1131.03 146.991C1129.78 146.646 1128.6 145.947 1128.98 144.585C1129.33 143.317 1130.73 143.38 1131.86 143.673C1134.39 144.326 1136.89 145.061 1139.41 145.767L1139.4 145.761Z" fill="#72AD56"/>
</g>
<path d="M35.1481 268.397L35.1482 268.396C42.1501 267.399 47.8476 269.102 52.5481 272.801L52.4553 272.919L52.5481 272.801C53.1357 273.264 53.6696 273.556 54.2704 273.71C54.8727 273.865 55.5534 273.883 56.4389 273.78C65.5109 272.717 72.4831 275.3 77.0097 281.532M35.1481 268.397L81.9589 299.309L82.0897 299.235C82.0897 299.235 82.0897 299.235 82.0897 299.235C81.8256 298.764 81.4578 298.344 81.1021 297.938L81.0881 297.922C80.7238 297.506 80.3733 297.104 80.1261 296.656L80.1256 296.655C80.028 296.481 79.9037 296.324 79.7836 296.176C79.7694 296.159 79.7552 296.142 79.7412 296.124C79.6341 295.993 79.5322 295.868 79.4449 295.735C79.2537 295.442 79.1393 295.12 79.2568 294.66L79.2569 294.66C80.4592 289.885 79.8375 285.42 77.0097 281.532M35.1481 268.397C32.582 268.762 30.2034 269.18 27.9437 270.153L27.9435 270.153C22.3816 272.561 18.0623 276.049 15.4695 280.899C13.6824 284.238 12.8604 287.467 13.0342 290.565C13.208 293.665 14.3776 296.623 16.5543 299.419L16.5544 299.42C16.8008 299.735 17.0657 300.043 17.3271 300.347C17.4304 300.467 17.5331 300.587 17.6339 300.706C17.9923 301.129 18.33 301.55 18.603 301.995C19.1451 302.878 19.4306 303.851 19.0917 305.097C18.9778 305.514 18.9944 305.939 19.0137 306.339L19.0158 306.382C19.0348 306.774 19.0527 307.142 18.9735 307.5L18.9734 307.5C18.8199 308.212 18.9728 308.791 19.3108 309.251C19.6447 309.705 20.1515 310.033 20.6926 310.265L20.6927 310.265L35.1481 268.397ZM77.0097 281.532L76.8884 281.62L77.0097 281.532C77.0097 281.532 77.0097 281.532 77.0097 281.532ZM39.8814 302.457L40.0333 302.417C43.1238 301.598 45.7867 300.204 48.0165 298.288C50.8822 295.822 52.868 293.203 53.9045 290.431C54.9402 287.661 55.0318 284.729 54.0946 281.626C52.3 275.693 47.5357 272.363 40.4618 271.49C32.1882 270.469 23.1627 274.6 19.1457 281.401L19.1457 281.401C15.6923 287.245 15.9048 294.331 21.0083 298.623L20.9118 298.738L21.0083 298.623C21.7711 299.264 22.3211 299.944 22.6499 300.706C22.9792 301.469 23.0824 302.306 22.9664 303.253M39.8814 302.457L27.1764 304.662C28.7756 303.629 30.3857 303.117 32.3315 303.419C34.9151 303.82 37.5672 303.465 40.0741 302.571L39.9315 302.616L39.9286 302.607L39.8879 302.478M39.8814 302.457L39.8879 302.478M39.8814 302.457L40.0745 302.571M22.9664 303.253C22.9664 303.253 22.9664 303.253 22.9664 303.253L22.8175 303.235L22.9664 303.253C22.9664 303.253 22.9664 303.253 22.9664 303.253ZM22.9664 303.253C22.9102 303.725 22.8956 304.198 22.8857 304.677C22.8845 304.737 22.8833 304.797 22.8822 304.857C22.8741 305.276 22.8658 305.701 22.8319 306.128L22.8318 306.128C22.8261 306.197 22.8151 306.269 22.8051 306.335C22.8018 306.356 22.7986 306.377 22.7958 306.397C22.7834 306.483 22.7761 306.554 22.7801 306.616C22.7839 306.675 22.7979 306.714 22.8192 306.742C22.8399 306.769 22.8797 306.801 22.9654 306.824L22.9667 306.824C23.1063 306.863 23.2558 306.839 23.4239 306.769C23.5827 306.703 23.7416 306.603 23.909 306.498C23.921 306.491 23.9329 306.483 23.945 306.476L24.0246 306.603L23.944 306.476C24.4267 306.169 24.9169 305.874 25.405 305.58C25.4454 305.555 25.4858 305.531 25.5262 305.507C26.0549 305.188 26.5805 304.869 27.0948 304.536L27.095 304.536C28.7168 303.488 30.3636 302.962 32.3545 303.271C34.8629 303.66 37.4406 303.33 39.8879 302.478M39.8879 302.478C39.9334 302.462 39.9788 302.446 40.0242 302.43L40.0713 302.562L40.0728 302.566M40.0717 302.562C40.1201 302.549 40.1684 302.536 40.2167 302.523L40.2148 302.517L40.0717 302.562ZM40.0717 302.562L40.0745 302.571M40.0717 302.562L40.0728 302.566M40.0745 302.571L40.0728 302.566M40.0745 302.571L40.0728 302.566M56.4086 277.866L56.5235 277.77C57.2338 278.616 57.4957 279.617 57.7461 280.573C57.8023 280.788 57.8579 281 57.9178 281.208C59.5832 286.933 57.7949 292.385 53.5556 297.486C50.9153 300.667 47.3638 303.008 43.2381 304.755C43.2669 304.789 43.294 304.821 43.3197 304.852C43.3446 304.882 43.3682 304.91 43.3906 304.937C43.4735 305.034 43.5442 305.108 43.6265 305.165L43.6273 305.166C48.6704 308.753 54.7146 309.647 61.5281 307.82C64.7156 306.966 67.5299 305.218 69.938 303.069C70.6446 302.436 71.3157 302.049 72.4113 302.017C73.9652 301.965 75.5253 301.808 77.206 301.638C77.8394 301.574 78.49 301.509 79.1637 301.446C78.836 301.014 78.5159 300.595 78.2024 300.185C77.4247 299.166 76.6876 298.201 75.9755 297.224C75.4934 296.57 75.275 295.839 75.4991 294.943L75.4992 294.943C76.4177 291.312 76.2259 287.938 74.532 284.673C71.7981 279.409 64.6285 275.964 57.3078 276.788L57.3076 276.788C57.0339 276.819 56.821 276.871 56.6634 276.937C56.5051 277.004 56.4115 277.081 56.3621 277.156C56.276 277.286 56.2864 277.484 56.524 277.771L56.4086 277.866ZM56.4086 277.866C57.0951 278.684 57.3472 279.645 57.5976 280.6C57.6546 280.817 57.7116 281.035 57.7737 281.25L56.4086 277.866ZM27.6783 307.982C27.6783 307.982 27.6784 307.982 27.6784 307.982L27.5941 307.858L27.6783 307.982ZM24.7301 309.604L24.815 309.728C24.8151 309.728 24.8152 309.728 24.8152 309.728L24.7301 309.604Z" fill="#72AD56" stroke="#72AD56" stroke-width="0.3"/>
<path d="M350.598 603.56L400.648 560.569L412.854 625.409L350.598 603.56Z" stroke="#72AD56" stroke-width="3"/>
<g clip-path="url(#clip5_694_5836)">
<path d="M33.3798 591.963L27.7031 597.543V624.018H33.3798V591.963Z" fill="#72AD56"/>
<path d="M8.92969 624.02H14.6063V610.42L8.92969 616V624.02Z" fill="#72AD56"/>
<path d="M23.993 601.193L18.3203 606.77V624.019H23.993V601.193Z" fill="#72AD56"/>
<path d="M42.7665 582.736L37.0938 588.313V624.018H42.7665V582.736Z" fill="#72AD56"/>
<path d="M46.4766 579.088V624.019H49.6877V575.932L46.4766 579.088Z" fill="#72AD56"/>
<path d="M5.22323 619.643L0.773438 624.017H5.22323V619.643Z" fill="#72AD56"/>
</g>
<g clip-path="url(#clip6_694_5836)">
<path d="M1364.73 632.787L1407.21 646.538L1405.6 639.295L1370.28 627.859L1364.73 632.787Z" fill="#72AD56"/>
<path d="M1373.64 625.33L1404.36 635.277L1402.76 628.033L1379.19 620.402L1373.64 625.33Z" fill="#72AD56"/>
<path d="M1398.68 612.757L1397.05 605.438L1391.45 610.415L1398.68 612.757Z" fill="#72AD56"/>
<path d="M1382.55 617.873L1401.53 624.018L1399.92 616.773L1388.1 612.947L1382.55 617.873Z" fill="#72AD56"/>
<path d="M1408.45 650.552L1361.38 635.315L1357.26 638.97L1409.64 655.927L1408.45 650.552Z" fill="#72AD56"/>
</g>
<g clip-path="url(#clip7_694_5836)">
<path d="M944.407 49.8655L903.184 39.8416L893.16 81.064L944.407 49.8655Z" fill="#72AD56"/>
</g>
<g clip-path="url(#clip8_694_5836)">
<path d="M549.434 16.5723L549.434 64.3101L556.461 60.2892L556.461 20.5931L549.434 16.5723Z" fill="#72AD56"/>
<path d="M560.958 23.1777L560.958 57.7089L567.984 53.688L567.984 27.1986L560.958 23.1777Z" fill="#72AD56"/>
<path d="M584.019 44.5042L591.117 40.4406L584.019 36.377L584.019 44.5042Z" fill="#72AD56"/>
<path d="M572.489 29.7754L572.489 51.1093L579.516 47.0837L579.516 33.801L572.489 29.7754Z" fill="#72AD56"/>
<path d="M544.93 66.889L544.93 13.9958L539.717 11.0098L539.717 69.875L544.93 66.889Z" fill="#72AD56"/>
</g>
<g clip-path="url(#clip9_694_5836)">
<path d="M1340.08 37.6883C1340.32 37.1339 1340.78 36.7001 1341.35 36.4821C1341.91 36.2641 1342.54 36.2798 1343.1 36.5258L1368.18 47.6579C1368.73 47.904 1369.16 48.3601 1369.38 48.9261C1369.6 49.492 1369.58 50.1214 1369.34 50.6757C1369.09 51.23 1368.64 51.6639 1368.07 51.8819C1367.5 52.0999 1366.88 52.0842 1366.32 51.8381L1341.24 40.706C1340.69 40.46 1340.25 40.0038 1340.03 39.4379C1339.82 38.872 1339.83 38.2426 1340.08 37.6883ZM1362.61 60.1986L1337.53 49.0665C1336.97 48.8204 1336.35 48.8047 1335.78 49.0227C1335.21 49.2407 1334.76 49.6746 1334.51 50.2289C1334.27 50.7832 1334.25 51.4126 1334.47 51.9785C1334.69 52.5445 1335.12 53.0006 1335.67 53.2467L1360.75 64.3788C1361.31 64.6248 1361.94 64.6406 1362.5 64.4226C1363.07 64.2046 1363.53 63.7707 1363.77 63.2163C1364.02 62.662 1364.03 62.0326 1363.82 61.4667C1363.6 60.9008 1363.16 60.4446 1362.61 60.1986ZM1357.04 72.7392L1338.23 64.3901C1337.68 64.1441 1337.05 64.1283 1336.48 64.3463C1335.92 64.5643 1335.46 64.9982 1335.22 65.5525C1334.97 66.1069 1334.95 66.7362 1335.17 67.3022C1335.39 67.8681 1335.82 68.3243 1336.38 68.5703L1355.19 76.9194C1355.74 77.1654 1356.37 77.1812 1356.94 76.9632C1357.5 76.7452 1357.96 76.3113 1358.21 75.757C1358.45 75.2026 1358.47 74.5733 1358.25 74.0073C1358.03 73.4414 1357.6 72.9852 1357.04 72.7392ZM1329.35 67.3259C1329.3 67.6221 1329.19 67.9056 1329.03 68.1603C1328.87 68.4149 1328.66 68.6357 1328.42 68.81C1328.17 68.9843 1327.9 69.1087 1327.6 69.176C1327.31 69.2434 1327.01 69.2525 1326.71 69.2027C1326.52 69.173 1326.34 69.1178 1326.16 69.0387C1325.7 68.8332 1325.31 68.4794 1325.07 68.0329C1324.83 67.5864 1324.75 67.0727 1324.83 66.5724C1326 59.6035 1321.77 52.0812 1315 49.0767C1308.24 46.0721 1299.83 47.984 1295.44 53.527C1295.06 54.0025 1294.51 54.3088 1293.91 54.3785C1293.31 54.4482 1292.7 54.2756 1292.22 53.8986C1291.75 53.5217 1291.44 52.9713 1291.37 52.3686C1291.3 51.7658 1291.48 51.1601 1291.85 50.6846C1295.83 45.6608 1302.11 42.9521 1308.51 43.0676C1307.15 40.5492 1306.6 37.6666 1306.96 34.8242C1307.32 31.9817 1308.55 29.322 1310.5 27.2179C1312.44 25.1139 1314.99 23.6711 1317.8 23.0919C1320.61 22.5126 1323.52 22.8261 1326.14 23.9882C1328.76 25.1503 1330.95 27.1028 1332.4 29.5719C1333.85 32.041 1334.5 34.9028 1334.24 37.756C1333.98 40.6091 1332.84 43.3105 1330.97 45.4813C1329.1 47.6521 1326.6 49.1834 1323.82 49.8605C1328.2 54.5283 1330.4 61.0057 1329.35 67.3259ZM1316.86 44.8976C1318.52 45.6315 1320.35 45.8586 1322.13 45.5502C1323.92 45.2417 1325.57 44.4116 1326.88 43.1648C1328.19 41.918 1329.1 40.3105 1329.5 38.5455C1329.89 36.7806 1329.76 34.9375 1329.11 33.2493C1328.46 31.5612 1327.32 30.1037 1325.84 29.0613C1324.37 28.0189 1322.61 27.4384 1320.8 27.3931C1318.99 27.3479 1317.21 27.8399 1315.68 28.8071C1314.15 29.7742 1312.95 31.173 1312.21 32.8265C1311.23 35.0438 1311.17 37.5613 1312.04 39.825C1312.91 42.0888 1314.65 43.9135 1316.86 44.8976Z" fill="#72AD56"/>
</g>
<path d="M188.649 458.221L211.409 497.643H165.888L188.649 458.221Z" fill="#72AD56"/>
</g>
<defs>
<clipPath id="clip0_694_5836">
<rect width="42.6246" height="41.9142" fill="white" transform="translate(265.273 107.744) rotate(-17.7319)"/>
</clipPath>
<clipPath id="clip1_694_5836">
<rect width="101.354" height="72.2832" fill="white" transform="translate(1046.55 585.369) rotate(-15)"/>
</clipPath>
<clipPath id="clip2_694_5836">
<rect width="44.565" height="44.565" fill="white" transform="translate(1294.52 439.061) rotate(105)"/>
</clipPath>
<clipPath id="clip3_694_5836">
<rect width="57.9566" height="57.9566" fill="white" transform="translate(49.3203 36.377) rotate(-19.2636)"/>
</clipPath>
<clipPath id="clip4_694_5836">
<rect width="38.1381" height="47.258" fill="white" transform="translate(1132.99 98.4707) rotate(15.5846)"/>
</clipPath>
<clipPath id="clip5_694_5836">
<rect width="48.9162" height="48.0871" fill="white" transform="translate(0.773438 575.932)"/>
</clipPath>
<clipPath id="clip6_694_5836">
<rect width="55.052" height="46.7942" fill="white" transform="translate(1370.87 596.959) rotate(17.9399)"/>
</clipPath>
<clipPath id="clip7_694_5836">
<rect width="42.4236" height="42.4236" fill="white" transform="translate(934.383 91.0879) rotate(-166.333)"/>
</clipPath>
<clipPath id="clip8_694_5836">
<rect width="58.8653" height="51.4035" fill="white" transform="translate(591.117 11.0098) rotate(90)"/>
</clipPath>
<clipPath id="clip9_694_5836">
<rect width="73.1752" height="73.1752" fill="white" transform="translate(1311.73 0.0878906) rotate(23.9336)"/>
</clipPath>
</defs>
</svg>
