<svg width="797" height="669" viewBox="0 0 797 669" fill="none" xmlns="http://www.w3.org/2000/svg">
<g opacity="0.15">
<path d="M285.125 21.1016L303.115 52.2617H267.135L285.125 21.1016Z" fill="#72AD56"/>
<g clip-path="url(#clip0_694_5732)">
<path d="M412.856 133.379C412.121 133.703 411.884 134.469 411.565 135.059C410.185 137.596 408.084 139.23 405.45 140.329C404.549 140.703 404.013 141.466 403.738 142.438C403.172 144.433 402.168 144.995 400.187 144.456C397.327 143.678 394.468 142.887 391.62 142.066C389.594 141.481 388.926 140.36 389.557 138.376C389.895 137.308 389.725 136.476 389.083 135.611C387.254 133.147 386.461 130.353 386.696 127.347C387.186 121.043 390.76 117.141 396.733 115.342C399.322 114.563 401.879 114.997 404.497 115.831C408.848 117.211 411.326 120.205 412.874 124.194C413.638 126.161 413.567 128.218 413.427 130.269C413.414 130.472 413.392 130.659 413.579 130.798L412.859 133.379L412.856 133.379ZM398.793 132.289C400.569 131.376 402.196 130.538 403.825 129.705C404.501 129.361 405.065 129.432 405.494 130.13C405.933 130.845 405.681 131.361 405.053 131.761C404.675 132.002 404.292 132.265 403.873 132.411C400.503 133.597 398.739 135.931 398.242 139.454C397.905 141.849 397.205 141.334 399.899 142.126C400.093 142.18 400.287 142.234 400.483 142.279C400.948 142.378 401.327 142.204 401.406 141.754C401.801 139.514 403.549 138.557 405.345 137.667C409.096 135.808 410.788 132.689 411.033 128.667C411.549 120.25 402.935 115.867 396.838 117.808C392.271 119.26 389.582 122.464 389.119 127.377C388.842 130.318 390.039 132.739 391.504 135.118C392.158 136.182 392.459 137.295 391.993 138.483C391.566 139.565 391.987 140.052 393.056 140.234C393.548 140.318 394.027 140.488 394.511 140.629C395.028 140.78 395.426 140.648 395.577 140.121C396.112 138.264 396.613 136.393 397.146 134.532C397.27 134.097 396.906 133.916 396.754 133.627C395.896 132 394.843 130.478 394.107 128.775C393.749 127.953 393.672 127.322 394.538 126.961C395.355 126.62 395.95 127.039 396.354 127.804C397.147 129.303 397.975 130.786 398.797 132.289L398.793 132.289Z" fill="#72AD56"/>
<path d="M395.229 145.598C397.016 146.096 398.81 146.583 400.591 147.1C401.487 147.36 402.222 147.894 401.917 148.901C401.627 149.872 400.751 149.614 400.013 149.415C396.433 148.44 392.852 147.454 389.274 146.473C388.381 146.227 387.541 145.73 387.812 144.76C388.063 143.859 389.059 143.904 389.865 144.112C391.661 144.576 393.442 145.099 395.231 145.602L395.229 145.598Z" fill="#72AD56"/>
</g>
<g clip-path="url(#clip1_694_5732)">
<path d="M578.555 42.4642C576.879 43.7635 575.616 43.7142 573.696 42.3113C570.324 39.849 566.225 39.3835 562.05 40.2505C561.563 40.3539 561.08 40.599 560.6 40.5778C559.381 40.5373 558.66 39.8943 558.401 38.6718C558.146 37.4891 558.776 37.1503 559.736 36.7367C564.031 34.8854 566.061 31.3429 565.293 27.6051C564.746 24.9231 561.732 21.9502 558.563 21.9564C554.658 21.9623 551.623 24.0063 550.727 27.4283C550.523 28.2038 550.413 29.022 550.375 29.8278C550.305 31.1793 549.68 32.1285 548.308 32.0813C546.977 32.0302 546.161 31.0112 546.254 29.7421C546.543 25.8502 547.53 22.2065 551.209 20.0035C555.51 17.43 559.925 16.9203 564.378 19.6298C568.724 22.2729 570.761 28.4382 568.736 33.1283C567.97 34.9044 567.506 36.0689 570.223 36.4491C573.09 36.8504 575.56 38.4325 577.915 40.0726L578.554 42.4579L578.555 42.4642Z" fill="#72AD56"/>
<path d="M553.612 59.3544C558.218 60.1466 562.31 61.9193 565.596 65.2409C565.944 65.5898 566.313 65.9191 566.632 66.2892C567.443 67.2143 567.183 68.1677 566.468 68.9576C565.67 69.8448 564.702 69.7708 563.813 69.037C562.605 68.0413 561.515 66.8921 560.224 66.0208C551.038 59.8673 537.2 64.0716 534.014 76.2122C533.548 77.9826 532.641 78.7969 531.156 78.4809C529.446 78.1229 529.757 76.5165 530.056 75.2467C531.117 70.6786 533.688 66.9776 537.197 63.6237C532.993 61.1804 529.685 57.9533 528.778 53.1851C528.014 49.181 529.017 45.3425 531.455 41.915C535.116 36.7729 544.114 35.103 549.987 38.5475C556.665 42.4628 558.022 50.0407 553.602 59.3434L553.612 59.3544ZM552.16 48.1438C551.366 42.9033 546.067 39.4957 539.947 41.0199C535.506 42.1215 531.493 47.154 532.88 52.8949C534.119 58.0027 539.833 61.5506 545.103 60.057C550.903 58.4145 554.027 52.3963 552.161 48.1502L552.16 48.1438Z" fill="#72AD56"/>
<path d="M511.582 41.6066C512.619 45.4493 516.333 47.9083 520.458 47.2176C521.759 46.9983 522.74 47.1502 522.978 48.2965C523.222 49.489 522.838 50.7955 521.307 51.1515C516.303 52.3085 513.142 55.5218 511.1 60.0194C510.578 61.1723 509.849 61.9593 508.412 61.2088C507.065 60.5092 506.671 59.3976 507.394 58.1771C508.839 55.7298 509.999 52.9372 512.37 51.282C514.139 50.0463 513.125 49.8217 512.144 49.2618C510.685 48.4288 509.545 47.1434 508.736 45.8166C505.312 40.1862 506.957 31.389 515.343 28.7679C519.948 27.33 524.865 28.9499 527.959 32.7104C528.692 33.6018 528.892 34.6023 529.157 35.6191C529.419 36.596 528.756 37.1682 528.011 37.565C527.29 37.9485 526.562 37.8715 526.017 37.1678C525.722 36.7844 525.398 36.4224 525.146 36.0207C522.505 31.7718 516.664 31.161 513.166 34.8111C511.3 36.7596 510.803 39.055 511.591 41.6112L511.582 41.6066Z" fill="#72AD56"/>
</g>
<g clip-path="url(#clip2_694_5732)">
<path d="M312.622 513.81C313.18 514.67 314.314 514.685 315.16 515.039C320.236 517.158 323.36 520.559 325.027 524.895C325.454 526.008 326.024 526.598 327.312 527.175C333.804 530.077 337.421 534.572 337.965 540.52C338.306 544.224 336.953 547.441 334.256 550.147C333.672 550.729 334.021 551.337 334.007 551.916C333.98 552.745 334.316 553.609 334.294 554.436C334.27 555.411 334.284 556.406 333.001 556.965C331.791 557.491 330.779 556.984 329.71 556.597C329.303 556.451 328.902 556.237 328.566 555.989C326.379 554.372 323.955 554.765 321.547 554.839C313.198 555.095 304.981 549.214 303.198 542.763C303.026 542.14 302.789 541.712 301.873 541.373C300.63 540.91 299.344 540.365 298.289 539.522C297.159 538.619 295.806 538.341 294.338 538.427C293.471 538.479 292.579 538.398 291.715 538.454C290.464 538.538 289.439 538.047 288.832 537.214C288.304 536.487 288.044 535.602 288.774 534.817C289.207 534.356 289.354 533.694 289.811 533.254C291.321 531.795 290.63 530.046 290.413 528.324C289.73 522.864 291.993 518.599 297.039 515.559C300.694 513.354 304.964 512.739 309.646 513.344C309.865 513.373 310.095 513.451 310.233 513.246L312.622 513.81ZM304.843 539.861C307.264 540.552 309.629 540.682 311.913 540.283C317.765 539.257 321.523 536.399 322.758 531.431C323.94 526.669 322.041 522.481 317.611 519.043C312.426 515.02 304.657 514.176 299.192 517.163C294.498 519.728 291.761 524.628 293.497 529.624C294.001 531.072 293.871 532.256 292.978 533.409C292.517 534.009 292.172 534.674 291.735 535.291C291.58 535.507 291.312 535.708 291.557 535.961C291.764 536.179 292.116 536.162 292.442 536.155C293.407 536.127 294.374 536.149 295.337 536.112C296.825 536.057 298.112 536.358 299.298 537.339C300.874 538.643 302.799 539.466 304.841 539.868L304.843 539.861ZM331.701 554.953C331.528 553.399 331.353 552.012 331.224 550.63C331.165 550.026 331.302 549.484 331.783 549C333.87 546.911 335.107 544.541 335.277 541.635C335.549 536.945 332.072 531.721 326.788 529.33C325.977 528.963 325.608 529.193 325.704 529.802C325.869 530.814 325.507 531.709 325.267 532.622C324.108 537.087 320.762 540.012 315.896 541.735C312.825 542.824 309.465 542.965 305.947 542.463C306.004 542.721 306.006 542.909 306.083 543.081C308.053 547.546 311.788 550.586 317.126 552.093C319.632 552.801 322.242 552.751 324.734 552.267C325.443 552.129 326.019 552.138 326.737 552.538C328.258 553.376 329.878 554.077 331.693 554.947L331.701 554.953Z" fill="#72AD56"/>
</g>
<path d="M772.649 413.747L757.631 469.793L716.602 428.764L772.649 413.747Z" fill="#72AD56"/>
<g clip-path="url(#clip3_694_5732)">
<path d="M165.571 620.07L165.571 663.863L171.859 660.174L171.859 623.759L165.571 620.07Z" fill="#72AD56"/>
<path d="M175.892 626.125L175.892 657.802L182.18 654.114L182.18 629.814L175.892 626.125Z" fill="#72AD56"/>
<path d="M196.523 645.694L202.875 641.966L196.523 638.238L196.523 645.694Z" fill="#72AD56"/>
<path d="M186.204 632.18L186.204 651.75L192.492 648.057L192.492 635.873L186.204 632.18Z" fill="#72AD56"/>
<path d="M161.539 666.226L161.539 617.704L156.874 614.965L156.874 668.965L161.539 666.226Z" fill="#72AD56"/>
</g>
<g clip-path="url(#clip4_694_5732)">
<path d="M690.816 143.633L683.969 150.48V182.963H690.816V143.633Z" fill="#72AD56"/>
<path d="M661.32 182.964H668.167V166.277L661.32 173.124V182.964Z" fill="#72AD56"/>
<path d="M679.491 154.957L672.648 161.799V182.963H679.491V154.957Z" fill="#72AD56"/>
<path d="M702.131 132.316L695.289 139.159V182.966H702.131V132.316Z" fill="#72AD56"/>
<path d="M706.609 127.838V182.965H710.482V123.965L706.609 127.838Z" fill="#72AD56"/>
<path d="M656.851 177.598L651.484 182.965H656.851V177.598Z" fill="#72AD56"/>
</g>
<g clip-path="url(#clip5_694_5732)">
<path d="M51.2146 44.1343L42.4008 40.1248L11.9822 51.5209L14.3843 57.9326L51.2146 44.1343Z" fill="#72AD56"/>
<path d="M4.03815 30.3151L6.44024 36.7268L22.0662 30.8726L13.2524 26.863L4.03815 30.3151Z" fill="#72AD56"/>
<path d="M36.6348 37.501L27.8272 33.4942L8.00851 40.9191L10.4089 47.3263L36.6348 37.501Z" fill="#72AD56"/>
<path d="M65.7832 50.7627L56.9756 46.7559L15.9526 62.125L18.353 68.5322L65.7832 50.7627Z" fill="#72AD56"/>
<path d="M71.5528 53.3822L19.9298 72.7225L21.2886 76.3494L76.5385 55.6503L71.5528 53.3822Z" fill="#72AD56"/>
<path d="M7.49232 24.2447L0.583419 21.1017L2.46637 26.1277L7.49232 24.2447Z" fill="#72AD56"/>
</g>
<g clip-path="url(#clip6_694_5732)">
<path d="M89.9189 477.306L46.0258 476.059L44.7788 519.952L89.9189 477.306Z" fill="#72AD56"/>
</g>
<path d="M154.906 195.069L124.392 163.054L167.375 152.635L154.906 195.069Z" stroke="#72AD56" stroke-width="3"/>
<g clip-path="url(#clip7_694_5732)">
<path d="M534.388 565.166L570.987 577.015L569.602 570.773L539.169 560.92L534.388 565.166Z" fill="#72AD56"/>
<path d="M542.06 558.744L568.534 567.315L567.149 561.073L546.84 554.498L542.06 558.744Z" fill="#72AD56"/>
<path d="M563.641 547.908L562.24 541.602L557.41 545.891L563.641 547.908Z" fill="#72AD56"/>
<path d="M549.732 552.318L566.088 557.613L564.699 551.37L554.516 548.073L549.732 552.318Z" fill="#72AD56"/>
<path d="M572.051 580.475L531.5 567.347L527.952 570.495L573.081 585.106L572.051 580.475Z" fill="#72AD56"/>
</g>
<g clip-path="url(#clip8_694_5732)">
<path d="M685.585 637.707C683.611 631.532 681.629 625.36 679.667 619.182C678.701 616.149 679.49 614.6 682.538 613.622C695.087 609.595 707.644 605.58 720.201 601.578C722.934 600.705 724.73 601.634 725.598 604.333C728.249 612.58 730.858 620.841 733.536 629.085C734.006 630.529 733.878 631.789 733.16 633.13C730.442 638.208 727.751 643.3 725.132 648.427C724.526 649.615 723.715 650.321 722.462 650.717C713.816 653.459 705.185 656.246 696.538 658.984C693.728 659.873 692.504 659.244 691.58 656.41C689.548 650.186 687.579 643.942 685.585 637.707ZM688.519 636.556C690.414 642.485 692.354 648.395 694.171 654.349C694.619 655.822 695.129 656.255 696.736 655.719C704.289 653.213 711.872 650.807 719.469 648.441C720.821 648.022 721.237 647.573 720.728 646.155C719.601 643.016 718.713 639.795 717.623 636.644C717.088 635.085 717.473 634.253 719.101 633.768C722.412 632.782 725.676 631.634 728.994 630.655C730.222 630.294 730.476 629.811 730.08 628.601C727.603 621.042 725.171 613.465 722.815 605.868C722.382 604.471 721.833 604.258 720.459 604.707C708.362 608.629 696.247 612.507 684.118 616.327C682.647 616.788 682.315 617.328 682.805 618.788C684.778 624.687 686.628 630.631 688.524 636.559L688.519 636.556ZM723.283 643.92C724.999 640.657 726.793 637.247 728.471 634.051C726.628 634.64 724.406 635.391 722.16 636.051C721.191 636.333 720.931 636.737 721.272 637.703C722.035 639.875 722.696 642.085 723.284 643.924L723.283 643.92Z" fill="#72AD56"/>
</g>
<g clip-path="url(#clip9_694_5732)">
<path d="M763.432 289.92C763.211 290.288 762.853 290.553 762.436 290.657C762.02 290.761 761.579 290.695 761.211 290.474L750.113 283.805C749.745 283.584 749.48 283.226 749.376 282.81C749.272 282.393 749.338 281.952 749.559 281.585C749.78 281.217 750.139 280.952 750.555 280.848C750.971 280.744 751.412 280.81 751.78 281.031L762.878 287.699C763.246 287.92 763.511 288.279 763.615 288.695C763.719 289.112 763.653 289.552 763.432 289.92ZM766.212 282.15L755.114 275.482C754.746 275.261 754.306 275.195 753.889 275.299C753.473 275.403 753.115 275.668 752.894 276.035C752.672 276.403 752.607 276.844 752.71 277.261C752.814 277.677 753.079 278.035 753.447 278.256L764.545 284.925C764.913 285.146 765.354 285.212 765.77 285.108C766.187 285.004 766.545 284.739 766.766 284.371C766.987 284.003 767.053 283.563 766.949 283.146C766.845 282.73 766.58 282.371 766.212 282.15ZM782.592 276.887L765.087 306.02C764.645 306.756 763.928 307.286 763.095 307.493C762.262 307.701 761.381 307.569 760.645 307.127L735.675 292.123C734.939 291.681 734.409 290.964 734.201 290.131C733.993 289.298 734.125 288.417 734.567 287.681L752.072 258.549C752.514 257.813 753.231 257.283 754.064 257.075C754.897 256.868 755.778 256.999 756.514 257.441L762.802 261.22C764.105 260.815 765.48 260.691 766.835 260.854C768.19 261.018 769.496 261.466 770.666 262.169C771.836 262.872 772.845 263.815 773.625 264.934C774.406 266.054 774.942 267.326 775.197 268.667L781.484 272.446C782.22 272.888 782.75 273.604 782.958 274.437C783.166 275.27 783.034 276.151 782.592 276.887ZM760.116 267.158L771.214 273.827C772.098 272.355 772.362 270.592 771.946 268.926C771.531 267.261 770.471 265.828 768.999 264.944C767.527 264.059 765.765 263.796 764.099 264.211C762.433 264.626 761 265.687 760.116 267.158ZM779.817 275.22L775.179 272.433C774.959 273.514 774.556 274.549 773.988 275.494L773.155 276.881C772.934 277.249 772.576 277.514 772.159 277.618C771.743 277.722 771.302 277.656 770.934 277.435L757.061 269.099C756.693 268.878 756.428 268.52 756.325 268.103C756.221 267.687 756.287 267.246 756.508 266.878L757.341 265.491C757.909 264.546 758.634 263.705 759.485 263.003L754.847 260.216L737.342 289.348L762.312 304.353L779.817 275.22Z" fill="#72AD56"/>
</g>
<g clip-path="url(#clip10_694_5732)">
<path d="M54.3911 343.899C54.4242 344.261 54.3355 344.623 54.139 344.929C53.9425 345.234 53.6496 345.465 53.3067 345.585C53.1774 345.631 53.0429 345.661 52.9063 345.673L46.219 346.285C46.0327 346.302 45.845 346.287 45.664 346.24L39.9768 344.777C39.5585 344.669 39.2002 344.399 38.9806 344.027C38.761 343.655 38.6982 343.211 38.806 342.793C38.9137 342.375 39.1832 342.016 39.5552 341.797C39.9272 341.577 40.3712 341.514 40.7895 341.622L46.2019 343.015L52.6095 342.43C52.8231 342.409 53.0387 342.43 53.244 342.493C53.4493 342.555 53.6402 342.658 53.8057 342.794C53.9713 342.931 54.1082 343.099 54.2087 343.288C54.3091 343.478 54.3711 343.686 54.3911 343.899ZM73.4135 316.449C73.4212 316.876 73.3443 317.301 73.187 317.698C73.0297 318.095 72.7953 318.458 72.4973 318.764L68.7415 322.63L61.8561 336.917C61.7338 337.17 61.548 337.387 61.3167 337.548C61.0855 337.708 60.8167 337.805 60.5365 337.831L47.162 339.054C46.9585 339.073 46.7534 339.053 46.5572 338.996L33.2246 335.107L27.7429 334.405C26.8862 334.295 26.1082 333.85 25.5798 333.166C25.0515 332.483 24.8161 331.618 24.9255 330.761L26.3639 319.542C26.4736 318.686 26.919 317.908 27.6022 317.379C28.2855 316.851 29.1505 316.616 30.0073 316.725L34.9857 317.357L44.1547 310.888C44.4034 310.712 44.6964 310.61 45.0003 310.592L56.203 309.942L59.7038 306.347C60.306 305.727 61.1293 305.373 61.9929 305.36C62.8565 305.348 63.6896 305.679 64.3091 306.281L72.4223 314.162C72.7305 314.459 72.9767 314.814 73.1468 315.206C73.3169 315.599 73.4076 316.021 73.4135 316.449ZM65.4074 322.037L56.5229 313.406L50.4076 315.543L44.9184 326.519C47.8948 327.224 51.8595 326.319 54.0767 321.673C54.2499 321.31 54.5511 321.024 54.9225 320.87C55.2939 320.716 55.7091 320.705 56.0883 320.839L64.5532 323.826L65.4074 322.037ZM28.1559 331.174L32.1501 331.687L33.5885 320.468L29.5943 319.955L28.1559 331.174ZM63.1213 326.77L56.3054 324.367C53.6248 328.754 48.9983 330.826 44.1665 329.687C43.6914 329.576 43.2474 329.359 42.8673 329.053C42.4872 328.747 42.1807 328.359 41.9705 327.919C41.7603 327.479 41.6517 326.997 41.6528 326.509C41.6538 326.021 41.7645 325.539 41.9767 325.1C41.9793 325.093 41.9827 325.086 41.9867 325.079L47.6858 313.704L45.6568 313.822L36.9346 319.978L35.3504 332.335L47.1668 335.786L59.3164 334.673L63.1213 326.77ZM70.1505 316.498L62.043 308.615L59.2376 311.504L67.3509 319.385L70.1505 316.498Z" fill="#72AD56"/>
</g>
</g>
<defs>
<clipPath id="clip0_694_5732">
<rect width="27.1343" height="33.623" fill="white" transform="translate(390.664 111.953) rotate(15.5846)"/>
</clipPath>
<clipPath id="clip1_694_5732">
<rect width="73.5068" height="52.4235" fill="white" transform="translate(499.891 32.9023) rotate(-15)"/>
</clipPath>
<clipPath id="clip2_694_5732">
<rect width="50.5821" height="38.4863" fill="white" transform="translate(293.977 509.402) rotate(13.3012)"/>
</clipPath>
<clipPath id="clip3_694_5732">
<rect width="54" height="46" fill="white" transform="translate(202.875 614.965) rotate(90)"/>
</clipPath>
<clipPath id="clip4_694_5732">
<rect width="59" height="59" fill="white" transform="translate(651.484 123.965)"/>
</clipPath>
<clipPath id="clip5_694_5732">
<rect width="59" height="59" fill="white" transform="translate(55.8359 0.402344) rotate(69.4618)"/>
</clipPath>
<clipPath id="clip6_694_5732">
<rect width="43.9108" height="43.9108" fill="white" transform="translate(88.6719 521.199) rotate(-178.373)"/>
</clipPath>
<clipPath id="clip7_694_5732">
<rect width="47.4356" height="40.3202" fill="white" transform="translate(539.672 534.297) rotate(17.9399)"/>
</clipPath>
<clipPath id="clip8_694_5732">
<rect width="48.3066" height="47.5015" fill="white" transform="translate(678.305 614.965) rotate(-17.7319)"/>
</clipPath>
<clipPath id="clip9_694_5732">
<rect width="51.7898" height="51.7898" fill="white" transform="translate(750.141 246.059) rotate(31.0007)"/>
</clipPath>
<clipPath id="clip10_694_5732">
<rect width="52.1176" height="52.1176" fill="white" transform="translate(16.7344 310.059) rotate(-19.2636)"/>
</clipPath>
</defs>
</svg>
