<svg width="1721" height="795" viewBox="0 0 1721 795" fill="none" xmlns="http://www.w3.org/2000/svg">
<g opacity="0.15">
<path d="M1684.6 327.333C1684.92 327.934 1684.99 328.639 1684.79 329.291C1684.59 329.943 1684.14 330.49 1683.54 330.811L1665.4 340.49C1664.79 340.811 1664.09 340.879 1663.44 340.681C1662.78 340.482 1662.24 340.033 1661.92 339.431C1661.6 338.83 1661.53 338.125 1661.73 337.473C1661.92 336.821 1662.37 336.274 1662.98 335.953L1681.12 326.274C1681.72 325.953 1682.43 325.885 1683.08 326.083C1683.73 326.282 1684.28 326.731 1684.6 327.333ZM1685.96 335.348L1667.82 345.026C1667.21 345.347 1666.76 345.894 1666.57 346.546C1666.37 347.199 1666.44 347.903 1666.76 348.505C1667.08 349.106 1667.62 349.556 1668.28 349.754C1668.93 349.953 1669.63 349.884 1670.23 349.563L1688.38 339.885C1688.98 339.564 1689.43 339.017 1689.63 338.365C1689.83 337.712 1689.76 337.008 1689.44 336.406C1689.12 335.805 1688.57 335.355 1687.92 335.157C1687.27 334.958 1686.56 335.027 1685.96 335.348ZM1705.17 322.191C1707.88 327.281 1709.24 332.989 1709.09 338.757C1708.95 344.525 1707.31 350.158 1704.35 355.107C1701.38 360.056 1697.18 364.153 1692.17 366.999C1687.15 369.844 1681.48 371.342 1675.71 371.346L1667.77 379.714C1667.11 380.407 1666.27 380.903 1665.35 381.147C1664.43 381.39 1663.45 381.372 1662.54 381.094C1661.63 380.816 1660.81 380.289 1660.18 379.572C1659.55 378.856 1659.13 377.977 1658.97 377.036L1657.04 365.664C1652.82 362.831 1649.31 359.076 1646.77 354.683C1644.22 350.29 1642.71 345.375 1642.35 340.312C1641.99 335.248 1642.78 330.168 1644.68 325.458C1646.57 320.748 1649.52 316.532 1653.28 313.129C1657.05 309.726 1661.54 307.226 1666.42 305.819C1671.3 304.412 1676.43 304.135 1681.44 305.008C1686.44 305.882 1691.17 307.883 1695.28 310.86C1699.4 313.838 1702.78 317.712 1705.17 322.191ZM1700.63 324.611C1698.59 320.784 1695.69 317.478 1692.17 314.949C1688.64 312.42 1684.58 310.736 1680.31 310.027C1676.03 309.318 1671.64 309.603 1667.49 310.86C1663.34 312.117 1659.53 314.312 1656.36 317.276C1653.19 320.239 1650.75 323.892 1649.22 327.951C1647.69 332.01 1647.12 336.367 1647.54 340.684C1647.96 345.001 1649.37 349.163 1651.66 352.848C1653.95 356.533 1657.06 359.642 1660.74 361.934C1661.05 362.126 1661.31 362.382 1661.52 362.685C1661.72 362.987 1661.85 363.329 1661.91 363.689L1664.04 376.179L1672.75 366.987C1672.94 366.785 1673.16 366.616 1673.41 366.485C1673.81 366.274 1674.25 366.171 1674.71 366.187C1679.67 366.358 1684.59 365.22 1688.97 362.885C1693.36 360.55 1697.05 357.102 1699.68 352.888C1702.31 348.673 1703.78 343.841 1703.95 338.877C1704.11 333.913 1702.97 328.992 1700.63 324.611Z" fill="#72AD56"/>
<g clip-path="url(#clip0_694_5879)">
<path d="M327.163 154.424C325.062 147.853 322.952 141.284 320.864 134.709C319.836 131.481 320.676 129.833 323.919 128.791C337.275 124.506 350.639 120.233 364.003 115.974C366.912 115.044 368.824 116.033 369.747 118.905C372.568 127.683 375.345 136.475 378.195 145.249C378.696 146.785 378.559 148.126 377.795 149.553C374.902 154.957 372.039 160.377 369.251 165.834C368.606 167.098 367.743 167.849 366.41 168.271C357.208 171.189 348.022 174.155 338.819 177.069C335.829 178.016 334.526 177.346 333.542 174.33C331.38 167.706 329.285 161.061 327.163 154.424ZM330.284 153.2C332.302 159.51 334.367 165.799 336.3 172.136C336.777 173.704 337.32 174.165 339.031 173.594C347.068 170.928 355.139 168.366 363.224 165.848C364.663 165.403 365.105 164.925 364.564 163.415C363.364 160.074 362.419 156.647 361.259 153.293C360.69 151.634 361.099 150.748 362.833 150.233C366.357 149.183 369.83 147.961 373.362 146.919C374.668 146.535 374.938 146.021 374.517 144.733C371.881 136.689 369.293 128.625 366.786 120.539C366.325 119.053 365.74 118.826 364.278 119.303C351.404 123.478 338.51 127.605 325.601 131.671C324.036 132.161 323.682 132.736 324.204 134.29C326.304 140.568 328.273 146.893 330.29 153.203L330.284 153.2ZM367.283 161.037C369.11 157.564 371.019 153.936 372.805 150.534C370.844 151.161 368.479 151.96 366.088 152.662C365.057 152.963 364.78 153.393 365.143 154.421C365.955 156.732 366.658 159.084 367.284 161.041L367.283 161.037Z" fill="#72AD56"/>
</g>
<g clip-path="url(#clip1_694_5879)">
<path d="M1392.58 722.207C1389.79 724.368 1387.69 724.286 1384.5 721.953C1378.89 717.858 1372.07 717.084 1365.13 718.526C1364.32 718.698 1363.52 719.105 1362.72 719.07C1360.69 719.003 1359.49 717.933 1359.06 715.9C1358.64 713.933 1359.68 713.37 1361.28 712.682C1368.42 709.603 1371.8 703.712 1370.52 697.496C1369.61 693.035 1364.6 688.091 1359.33 688.101C1352.84 688.111 1347.79 691.511 1346.3 697.202C1345.96 698.491 1345.78 699.852 1345.71 701.192C1345.6 703.44 1344.56 705.018 1342.28 704.94C1340.06 704.855 1338.71 703.16 1338.86 701.05C1339.34 694.577 1340.98 688.517 1347.1 684.854C1354.25 680.574 1361.6 679.726 1369 684.232C1376.23 688.628 1379.62 698.881 1376.25 706.681C1374.97 709.635 1374.2 711.571 1378.72 712.204C1383.49 712.871 1387.6 715.502 1391.51 718.23L1392.58 722.197L1392.58 722.207Z" fill="#72AD56"/>
<path d="M1351.09 750.294C1358.75 751.611 1365.56 754.559 1371.02 760.084C1371.6 760.664 1372.21 761.211 1372.74 761.827C1374.09 763.365 1373.66 764.951 1372.47 766.265C1371.14 767.74 1369.54 767.617 1368.06 766.397C1366.05 764.741 1364.23 762.829 1362.09 761.38C1346.81 751.147 1323.8 758.139 1318.5 778.33C1317.72 781.274 1316.21 782.628 1313.74 782.103C1310.9 781.507 1311.42 778.836 1311.91 776.724C1313.68 769.127 1317.96 762.972 1323.79 757.394C1316.8 753.331 1311.3 747.964 1309.79 740.034C1308.52 733.375 1310.19 726.991 1314.24 721.291C1320.33 712.739 1335.3 709.962 1345.06 715.69C1356.17 722.202 1358.43 734.804 1351.07 750.276L1351.09 750.294ZM1348.68 731.65C1347.36 722.934 1338.54 717.267 1328.37 719.802C1320.98 721.634 1314.31 730.004 1316.61 739.551C1318.67 748.046 1328.18 753.946 1336.94 751.462C1346.59 748.731 1351.78 738.722 1348.68 731.66L1348.68 731.65Z" fill="#72AD56"/>
<path d="M1281.19 720.785C1282.92 727.176 1289.09 731.265 1295.96 730.116C1298.12 729.752 1299.75 730.004 1300.15 731.911C1300.55 733.894 1299.91 736.067 1297.37 736.659C1289.05 738.583 1283.79 743.927 1280.39 751.407C1279.52 753.324 1278.31 754.633 1275.92 753.385C1273.68 752.221 1273.03 750.373 1274.23 748.343C1276.63 744.273 1278.56 739.629 1282.5 736.876C1285.45 734.821 1283.76 734.447 1282.13 733.516C1279.7 732.131 1277.81 729.993 1276.46 727.786C1270.77 718.423 1273.5 703.792 1287.45 699.433C1295.11 697.042 1303.28 699.736 1308.43 705.99C1309.65 707.473 1309.98 709.136 1310.42 710.827C1310.86 712.452 1309.75 713.404 1308.52 714.063C1307.32 714.701 1306.11 714.573 1305.2 713.403C1304.71 712.765 1304.17 712.163 1303.75 711.495C1299.36 704.429 1289.65 703.413 1283.83 709.484C1280.72 712.724 1279.9 716.541 1281.21 720.793L1281.19 720.785Z" fill="#72AD56"/>
</g>
<g clip-path="url(#clip2_694_5879)">
<path d="M1508.92 515.926L1495 567.846L1546.92 581.758L1508.92 515.926Z" fill="#72AD56"/>
</g>
<g clip-path="url(#clip3_694_5879)">
<path d="M109.447 89.5346C109.491 90.0197 109.372 90.5057 109.109 90.9154C108.845 91.3251 108.452 91.635 107.993 91.7958C107.819 91.8573 107.639 91.8971 107.455 91.9141L98.4859 92.7347C98.2361 92.7573 97.9843 92.7367 97.7415 92.6738L90.1135 90.7115C89.5524 90.567 89.0718 90.2055 88.7773 89.7065C88.4827 89.2076 88.3985 88.6121 88.543 88.051C88.6875 87.49 89.049 87.0093 89.548 86.7148C90.0469 86.4203 90.6424 86.336 91.2035 86.4805L98.4631 88.3489L107.057 87.5639C107.344 87.5356 107.633 87.5643 107.908 87.6481C108.184 87.732 108.44 87.8694 108.662 88.0525C108.884 88.2357 109.068 88.4609 109.202 88.7152C109.337 88.9696 109.42 89.248 109.447 89.5346ZM134.961 52.7161C134.972 53.2891 134.868 53.8586 134.657 54.3916C134.446 54.9245 134.132 55.4104 133.732 55.8212L128.695 61.0065L119.46 80.1692C119.296 80.509 119.046 80.8006 118.736 81.0154C118.426 81.2303 118.065 81.3611 117.69 81.3952L99.7507 83.0364C99.4778 83.0611 99.2027 83.0346 98.9395 82.9583L81.0568 77.7418L73.7044 76.7998C72.5554 76.6526 71.5118 76.0552 70.8032 75.1388C70.0945 74.2224 69.7788 73.0621 69.9255 71.913L71.8548 56.8655C72.0019 55.7164 72.5993 54.6729 73.5157 53.9642C74.4321 53.2556 75.5925 52.9399 76.7416 53.0866L83.419 53.9348L95.7171 45.2574C96.0507 45.0219 96.4436 44.8846 96.8513 44.861L111.877 43.9891L116.573 39.1663C117.38 38.3358 118.485 37.86 119.643 37.8436C120.801 37.8271 121.919 38.2714 122.75 39.0787L133.632 49.6488C134.045 50.0469 134.375 50.5229 134.604 51.0494C134.832 51.5758 134.953 52.1423 134.961 52.7161ZM124.223 60.2119L112.306 48.6351L104.104 51.5017L96.7414 66.2235C100.734 67.1684 106.051 65.955 109.025 59.7235C109.258 59.2368 109.662 58.8532 110.16 58.6466C110.658 58.4399 111.215 58.4248 111.723 58.6042L123.077 62.6111L124.223 60.2119ZM74.2584 72.4669L79.6157 73.1546L81.5449 58.1071L76.1876 57.4194L74.2584 72.4669ZM121.157 66.5596L112.015 63.3359C108.419 69.2206 102.214 71.9995 95.7329 70.4723C95.0957 70.3229 94.5002 70.0322 93.9904 69.6217C93.4806 69.2112 93.0695 68.6915 92.7876 68.1008C92.5056 67.5101 92.36 66.8637 92.3614 66.2092C92.3628 65.5546 92.5113 64.9088 92.7958 64.3194C92.7994 64.3097 92.8039 64.3004 92.8092 64.2916L100.453 49.0345L97.7318 49.193L86.033 57.4498L83.9082 74.0234L99.7572 78.6519L116.053 77.1597L121.157 66.5596ZM130.585 52.7819L119.71 42.2091L115.947 46.0841L126.83 56.6542L130.585 52.7819Z" fill="#72AD56"/>
</g>
<g clip-path="url(#clip4_694_5879)">
<path d="M1403.63 155.363C1402.38 155.913 1401.98 157.211 1401.44 158.211C1399.1 162.513 1395.54 165.282 1391.07 167.146C1389.55 167.781 1388.64 169.073 1388.17 170.72C1387.21 174.103 1385.51 175.056 1382.15 174.142C1377.3 172.823 1372.46 171.483 1367.63 170.091C1364.19 169.099 1363.06 167.198 1364.13 163.834C1364.7 162.025 1364.42 160.613 1363.33 159.147C1360.23 154.97 1358.88 150.234 1359.28 145.137C1360.11 134.451 1366.17 127.836 1376.3 124.787C1380.68 123.466 1385.02 124.201 1389.46 125.614C1396.83 127.954 1401.03 133.03 1403.66 139.793C1404.95 143.128 1404.83 146.615 1404.6 150.092C1404.57 150.436 1404.54 150.753 1404.86 150.988L1403.63 155.364L1403.63 155.363ZM1379.79 153.515C1382.8 151.968 1385.56 150.548 1388.32 149.135C1389.47 148.552 1390.42 148.672 1391.15 149.856C1391.89 151.068 1391.47 151.942 1390.4 152.621C1389.76 153.029 1389.11 153.474 1388.4 153.722C1382.69 155.734 1379.7 159.69 1378.85 165.662C1378.28 169.722 1377.1 168.85 1381.66 170.191C1381.99 170.283 1382.32 170.375 1382.65 170.451C1383.44 170.62 1384.08 170.325 1384.22 169.561C1384.89 165.765 1387.85 164.142 1390.9 162.633C1397.25 159.481 1400.12 154.193 1400.54 147.375C1401.41 133.107 1386.81 125.677 1376.47 128.967C1368.73 131.428 1364.17 136.86 1363.39 145.189C1362.92 150.175 1364.95 154.279 1367.43 158.312C1368.54 160.116 1369.05 162.002 1368.26 164.016C1367.54 165.851 1368.25 166.676 1370.06 166.984C1370.9 167.127 1371.71 167.415 1372.53 167.655C1373.41 167.911 1374.08 167.687 1374.34 166.794C1375.24 163.644 1376.09 160.474 1377 157.318C1377.21 156.581 1376.59 156.273 1376.33 155.784C1374.88 153.025 1373.09 150.445 1371.84 147.558C1371.24 146.165 1371.11 145.096 1372.58 144.484C1373.96 143.906 1374.97 144.616 1375.65 145.913C1377 148.454 1378.4 150.967 1379.79 153.517L1379.79 153.515Z" fill="#72AD56"/>
<path d="M1373.75 176.076C1376.78 176.921 1379.82 177.746 1382.84 178.623C1384.36 179.063 1385.6 179.969 1385.09 181.676C1384.59 183.321 1383.11 182.884 1381.86 182.547C1375.79 180.894 1369.72 179.223 1363.65 177.559C1362.14 177.143 1360.72 176.3 1361.17 174.656C1361.6 173.128 1363.29 173.204 1364.66 173.556C1367.7 174.344 1370.72 175.231 1373.75 176.082L1373.75 176.076Z" fill="#72AD56"/>
</g>
<path d="M41.8778 324.174L41.8567 324.026C50.2938 322.824 57.1573 324.876 62.82 329.332L62.7272 329.45L62.82 329.332C63.531 329.892 64.1788 330.247 64.9088 330.434C65.6403 330.622 66.4655 330.643 67.5355 330.519C78.4693 329.237 86.8666 332.351 92.3184 339.857M41.8778 324.174L98.3128 361.279L98.4436 361.206C98.1268 360.641 97.6849 360.136 97.2551 359.646L97.2393 359.627C96.8003 359.126 96.3751 358.638 96.0751 358.095L96.0746 358.094C95.9583 357.887 95.8099 357.699 95.665 357.521C95.6479 357.5 95.6309 357.479 95.6139 357.458C95.4849 357.3 95.361 357.148 95.2547 356.986C95.0206 356.628 94.8794 356.23 95.0237 355.665L95.0238 355.664C96.4721 349.913 95.7229 344.537 92.3184 339.857M41.8778 324.174L41.8566 324.026C38.7617 324.467 35.8963 324.97 33.175 326.142L33.1747 326.142C26.471 329.044 21.2675 333.248 18.1442 339.089C15.9908 343.113 15.0013 347.002 15.2105 350.732C15.4197 354.464 16.8277 358.025 19.4498 361.394L19.4499 361.394C19.7466 361.774 20.0654 362.145 20.3805 362.511C20.5052 362.656 20.6293 362.8 20.7512 362.944C21.1836 363.455 21.5923 363.965 21.9227 364.503C22.58 365.574 22.9273 366.756 22.5157 368.27C22.3798 368.767 22.3994 369.274 22.4227 369.757L22.4253 369.811C22.4482 370.282 22.4699 370.73 22.3736 371.166L22.3734 371.166C22.1902 372.016 22.3727 372.706 22.775 373.253C23.1733 373.795 23.7791 374.187 24.429 374.465L24.4291 374.465L41.8778 324.174ZM92.3184 339.857L92.197 339.945L92.3183 339.856C92.3183 339.857 92.3184 339.857 92.3184 339.857ZM93.9719 367.907C93.9721 367.907 93.9722 367.907 93.9723 367.907L93.9436 367.76L93.9719 367.907ZM32.8252 371.716C32.8252 371.716 32.8253 371.716 32.8253 371.716L32.741 371.592L32.8252 371.716ZM47.7524 365.059L47.6005 365.099L47.6076 365.121C44.6434 366.157 41.519 366.561 38.478 366.089C36.0859 365.718 34.1072 366.349 32.1558 367.61L32.1556 367.61C31.5348 368.013 30.9004 368.397 30.2628 368.782C30.2139 368.811 30.165 368.841 30.1161 368.87C29.5276 369.225 28.937 369.581 28.3554 369.951C28.3409 369.96 28.3265 369.969 28.3121 369.978C28.1108 370.104 27.9171 370.226 27.723 370.306C27.5169 370.392 27.329 370.424 27.1513 370.374L27.15 370.374C27.0419 370.345 26.9874 370.303 26.9574 370.264C26.9266 370.224 26.9087 370.17 26.9038 370.095C26.8988 370.017 26.908 369.928 26.9229 369.825C26.9265 369.8 26.9303 369.775 26.9343 369.748C26.9464 369.669 26.9594 369.584 26.9662 369.503L26.9663 369.502C27.0071 368.989 27.017 368.477 27.0268 367.971C27.0282 367.898 27.0296 367.826 27.0311 367.754C27.043 367.176 27.0606 366.605 27.1286 366.033C27.268 364.895 27.1439 363.892 26.7492 362.977C26.355 362.064 25.6951 361.248 24.7777 360.476L24.6812 360.591L24.7777 360.476C18.6072 355.287 18.3539 346.722 22.5243 339.664L22.5244 339.664C27.3763 331.45 38.275 326.463 48.2651 327.695C56.8059 328.75 62.565 332.772 64.7341 339.943C65.8663 343.692 65.7558 347.235 64.5041 350.583C63.2516 353.932 60.8527 357.095 57.3936 360.072C54.7004 362.386 51.4842 364.07 47.7524 365.059ZM93.8064 362.317C94.1953 362.826 94.5926 363.346 94.9997 363.883C94.168 363.96 93.3654 364.041 92.5843 364.12C90.5566 364.325 88.6731 364.515 86.7978 364.577C85.4857 364.616 84.683 365.078 83.8345 365.837C80.9274 368.433 77.5287 370.543 73.6783 371.576C65.4528 373.78 58.1528 372.702 52.0615 368.369L52.0607 368.369C51.9581 368.297 51.8708 368.205 51.7703 368.088C51.7429 368.056 51.7142 368.021 51.684 367.985C51.6451 367.938 51.6036 367.888 51.5589 367.837C56.5486 365.729 60.8416 362.903 64.0305 359.061C69.1395 352.915 71.291 346.349 69.286 339.456C69.2133 339.204 69.146 338.947 69.0781 338.687C68.7761 337.534 68.4621 336.335 67.6103 335.321L67.4954 335.417L67.6108 335.321C67.3213 334.973 67.2981 334.717 67.4136 334.543C67.4776 334.446 67.5964 334.35 67.7907 334.268C67.9845 334.186 68.2444 334.123 68.5763 334.086L68.5765 334.086C77.4163 333.09 86.0777 337.25 89.3822 343.612C91.4295 347.559 91.6608 351.636 90.5515 356.021L90.5514 356.021C90.2836 357.092 90.5439 357.964 91.1209 358.747C91.9796 359.925 92.8684 361.089 93.8064 362.317ZM29.2866 373.697L29.3715 373.821C29.3716 373.821 29.3717 373.821 29.3717 373.821L29.2866 373.697Z" fill="#72AD56" stroke="#72AD56" stroke-width="0.3"/>
<path d="M421.719 728.363L482.899 675.812L497.819 755.07L421.719 728.363Z" stroke="#72AD56" stroke-width="3"/>
<g clip-path="url(#clip5_694_5879)">
<path d="M39.7219 714.26L32.875 720.991V752.923H39.7219V714.26Z" fill="#72AD56"/>
<path d="M10.2266 752.925H17.0734V736.521L10.2266 743.252V752.925Z" fill="#72AD56"/>
<path d="M28.3968 725.393L21.5547 732.119V752.924H28.3968V725.393Z" fill="#72AD56"/>
<path d="M51.0374 703.131L44.1953 709.857V752.922H51.0374V703.131Z" fill="#72AD56"/>
<path d="M55.5156 698.731V752.924H59.3887V694.924L55.5156 698.731Z" fill="#72AD56"/>
<path d="M5.75772 747.646L0.390625 752.923H5.75772V747.646Z" fill="#72AD56"/>
</g>
<g clip-path="url(#clip6_694_5879)">
<path d="M1645.53 763.498L1696.76 780.085L1694.82 771.348L1652.22 757.555L1645.53 763.498Z" fill="#72AD56"/>
<path d="M1656.27 754.506L1693.33 766.504L1691.39 757.767L1662.96 748.563L1656.27 754.506Z" fill="#72AD56"/>
<path d="M1686.47 739.343L1684.51 730.515L1677.75 736.519L1686.47 739.343Z" fill="#72AD56"/>
<path d="M1667.01 745.51L1689.9 752.923L1687.96 744.184L1673.7 739.569L1667.01 745.51Z" fill="#72AD56"/>
<path d="M1698.25 784.929L1641.49 766.551L1636.52 770.959L1699.69 791.411L1698.25 784.929Z" fill="#72AD56"/>
</g>
<g clip-path="url(#clip7_694_5879)">
<path d="M1138.55 60.4107L1088.83 48.3205L1076.74 98.0406L1138.55 60.4107Z" fill="#72AD56"/>
</g>
<g clip-path="url(#clip8_694_5879)">
<path d="M662.15 20.2559L662.15 77.8346L670.625 72.9848L670.625 25.1056L662.15 20.2559Z" fill="#72AD56"/>
<path d="M676.056 28.2207L676.056 69.8702L684.531 65.0205L684.531 33.0705L676.056 28.2207Z" fill="#72AD56"/>
<path d="M703.868 53.9452L712.43 49.0439L703.868 44.1426L703.868 53.9452Z" fill="#72AD56"/>
<path d="M689.962 36.1777L689.962 61.9095L698.437 57.054L698.437 41.0332L689.962 36.1777Z" fill="#72AD56"/>
<path d="M656.719 80.9434L656.719 17.1465L650.432 13.5449L650.432 84.5449L656.719 80.9434Z" fill="#72AD56"/>
</g>
<g clip-path="url(#clip9_694_5879)">
<path d="M1615.79 45.722C1616.09 45.0533 1616.64 44.53 1617.32 44.2671C1618 44.0041 1618.76 44.0231 1619.43 44.3199L1649.68 57.7468C1650.35 58.0436 1650.87 58.5938 1651.14 59.2764C1651.4 59.959 1651.38 60.7181 1651.08 61.3867C1650.79 62.0553 1650.24 62.5786 1649.55 62.8416C1648.87 63.1045 1648.11 63.0855 1647.44 62.7887L1617.19 49.3618C1616.52 49.0651 1616 48.5149 1615.74 47.8323C1615.47 47.1497 1615.49 46.3906 1615.79 45.722ZM1642.97 72.8726L1612.72 59.4457C1612.05 59.1489 1611.29 59.1299 1610.61 59.3929C1609.92 59.6558 1609.37 60.1792 1609.08 60.8478C1608.78 61.5164 1608.76 62.2755 1609.02 62.9581C1609.29 63.6407 1609.81 64.1909 1610.48 64.4876L1640.73 77.9145C1641.4 78.2113 1642.16 78.2303 1642.84 77.9674C1643.52 77.7044 1644.07 77.1811 1644.37 76.5125C1644.67 75.8439 1644.69 75.0848 1644.42 74.4022C1644.16 73.7196 1643.64 73.1694 1642.97 72.8726ZM1636.25 87.9984L1613.57 77.9282C1612.9 77.6315 1612.14 77.6125 1611.45 77.8754C1610.77 78.1383 1610.22 78.6617 1609.93 79.3303C1609.63 79.9989 1609.61 80.758 1609.87 81.4406C1610.14 82.1232 1610.66 82.6734 1611.33 82.9702L1634.02 93.0404C1634.68 93.3371 1635.44 93.3561 1636.13 93.0932C1636.81 92.8302 1637.36 92.3069 1637.66 91.6383C1637.95 90.9697 1637.97 90.2106 1637.71 89.528C1637.45 88.8454 1636.92 88.2952 1636.25 87.9984ZM1602.85 81.4692C1602.79 81.8265 1602.66 82.1685 1602.46 82.4756C1602.27 82.7828 1602.02 83.049 1601.73 83.2592C1601.43 83.4695 1601.1 83.6195 1600.75 83.7007C1600.39 83.782 1600.03 83.7929 1599.67 83.7329C1599.44 83.697 1599.21 83.6305 1599 83.5351C1598.44 83.2872 1597.98 82.8604 1597.69 82.322C1597.4 81.7835 1597.3 81.1638 1597.4 80.5604C1598.81 72.1548 1593.71 63.0819 1585.55 59.458C1577.38 55.8341 1567.24 58.1401 1561.95 64.8257C1561.49 65.3992 1560.83 65.7687 1560.1 65.8527C1559.38 65.9368 1558.65 65.7286 1558.07 65.274C1557.5 64.8194 1557.13 64.1555 1557.04 63.4285C1556.96 62.7015 1557.17 61.9709 1557.62 61.3974C1562.42 55.3379 1570 52.0709 1577.72 52.2102C1576.07 49.1726 1575.42 45.6958 1575.85 42.2674C1576.27 38.839 1577.77 35.631 1580.11 33.0932C1582.46 30.5554 1585.54 28.8152 1588.92 28.1166C1592.3 27.418 1595.82 27.796 1598.98 29.1977C1602.14 30.5994 1604.78 32.9544 1606.53 35.9325C1608.28 38.9105 1609.06 42.3623 1608.75 45.8036C1608.44 49.2449 1607.06 52.5032 1604.81 55.1215C1602.55 57.7398 1599.53 59.5868 1596.18 60.4034C1601.46 66.0335 1604.12 73.8461 1602.85 81.4692ZM1587.79 54.4174C1589.78 55.3026 1592 55.5766 1594.15 55.2045C1596.3 54.8325 1598.29 53.8313 1599.87 52.3275C1601.45 50.8236 1602.55 48.8847 1603.03 46.756C1603.51 44.6272 1603.34 42.4041 1602.56 40.368C1601.78 38.3318 1600.41 36.5739 1598.62 35.3166C1596.84 34.0593 1594.72 33.3591 1592.54 33.3045C1590.36 33.25 1588.21 33.8434 1586.37 35.0099C1584.52 36.1764 1583.07 37.8635 1582.18 39.8579C1580.99 42.5323 1580.92 45.5688 1581.97 48.2992C1583.02 51.0296 1585.11 53.2304 1587.79 54.4174Z" fill="#72AD56"/>
</g>
<path d="M226.996 552.947L254.448 600.496H199.544L226.996 552.947Z" fill="#72AD56"/>
</g>
<defs>
<clipPath id="clip0_694_5879">
<rect width="51.4114" height="50.5546" fill="white" transform="translate(319.414 130.221) rotate(-17.7319)"/>
</clipPath>
<clipPath id="clip1_694_5879">
<rect width="122.247" height="87.1839" fill="white" transform="translate(1261.76 706.307) rotate(-15)"/>
</clipPath>
<clipPath id="clip2_694_5879">
<rect width="53.7518" height="53.7518" fill="white" transform="translate(1560.84 529.838) rotate(105)"/>
</clipPath>
<clipPath id="clip3_694_5879">
<rect width="69.904" height="69.904" fill="white" transform="translate(58.9453 44.1426) rotate(-19.2636)"/>
</clipPath>
<clipPath id="clip4_694_5879">
<rect width="46" height="57" fill="white" transform="translate(1366.01 119.037) rotate(15.5846)"/>
</clipPath>
<clipPath id="clip5_694_5879">
<rect width="59" height="58" fill="white" transform="translate(0.390625 694.924)"/>
</clipPath>
<clipPath id="clip6_694_5879">
<rect width="66.4007" height="56.4406" fill="white" transform="translate(1652.92 720.287) rotate(17.9399)"/>
</clipPath>
<clipPath id="clip7_694_5879">
<rect width="51.169" height="51.169" fill="white" transform="translate(1126.46 110.131) rotate(-166.333)"/>
</clipPath>
<clipPath id="clip8_694_5879">
<rect width="71" height="62" fill="white" transform="translate(712.43 13.5449) rotate(90)"/>
</clipPath>
<clipPath id="clip9_694_5879">
<rect width="88.2599" height="88.2599" fill="white" transform="translate(1581.6 0.373047) rotate(23.9336)"/>
</clipPath>
</defs>
</svg>
