<svg width="456" height="652" viewBox="0 0 456 652" fill="none" xmlns="http://www.w3.org/2000/svg">
<g opacity="0.15">
<g clip-path="url(#clip0_694_5683)">
<path d="M372.516 34.7738C370.48 36.3514 368.947 36.2916 366.615 34.5881C362.521 31.5982 357.544 31.033 352.475 32.0858C351.883 32.2113 351.296 32.5089 350.714 32.4832C349.234 32.434 348.358 31.6532 348.043 30.1688C347.734 28.7326 348.499 28.3213 349.664 27.819C354.88 25.5711 357.345 21.2696 356.412 16.7309C355.748 13.4743 352.088 9.86445 348.24 9.87198C343.499 9.87909 339.813 12.3611 338.726 16.5163C338.478 17.4579 338.344 18.4515 338.298 19.4298C338.212 21.0709 337.454 22.2235 335.788 22.1662C334.171 22.1041 333.181 20.8668 333.294 19.3258C333.644 14.6001 334.843 10.1757 339.311 7.50066C344.533 4.37576 349.893 3.75681 355.301 7.0469C360.579 10.2562 363.051 17.7426 360.593 23.4376C359.662 25.5942 359.099 27.0082 362.399 27.4699C365.88 27.9571 368.879 29.8782 371.738 31.8697L372.514 34.7661L372.516 34.7738Z" fill="#72AD56"/>
<path d="M342.225 55.2837C347.817 56.2456 352.786 58.3981 356.776 62.4314C357.198 62.855 357.647 63.2549 358.034 63.7043C359.019 64.8276 358.704 65.9853 357.835 66.9445C356.865 68.0217 355.691 67.9319 354.61 67.0408C353.145 65.8318 351.82 64.4363 350.253 63.3784C339.099 55.9065 322.296 61.0116 318.428 75.7534C317.862 77.9031 316.76 78.8919 314.956 78.5081C312.881 78.0735 313.259 76.1229 313.621 74.5811C314.91 69.0342 318.032 64.5402 322.292 60.4677C317.188 57.5009 313.17 53.5823 312.069 47.7926C311.141 42.9305 312.36 38.2696 315.321 34.1077C319.766 27.8639 330.692 25.8362 337.822 30.0187C345.931 34.7729 347.58 43.9744 342.213 55.2703L342.225 55.2837ZM340.461 41.6711C339.498 35.3078 333.063 31.1701 325.632 33.0208C320.239 34.3585 315.366 40.4692 317.051 47.4402C318.554 53.6423 325.493 57.9504 331.892 56.1367C338.935 54.1424 342.728 46.8348 340.463 41.6788L340.461 41.6711Z" fill="#72AD56"/>
<path d="M291.197 33.7341C292.455 38.4001 296.965 41.386 301.975 40.5473C303.554 40.281 304.745 40.4654 305.035 41.8574C305.331 43.3054 304.864 44.8919 303.004 45.3241C296.929 46.729 293.09 50.6308 290.611 56.092C289.978 57.4919 289.092 58.4476 287.347 57.5362C285.711 56.6867 285.233 55.337 286.111 53.855C287.865 50.8833 289.274 47.4923 292.153 45.4825C294.301 43.9821 293.07 43.7094 291.879 43.0295C290.107 42.018 288.722 40.4572 287.74 38.8461C283.583 32.0093 285.58 21.3273 295.763 18.1446C301.355 16.3986 307.325 18.3656 311.083 22.9318C311.973 24.0143 312.215 25.2291 312.538 26.4637C312.855 27.65 312.05 28.3447 311.145 28.8265C310.27 29.2923 309.386 29.1988 308.724 28.3442C308.366 27.8788 307.973 27.4391 307.667 26.9514C304.459 21.7921 297.367 21.0504 293.12 25.4826C290.853 27.8486 290.25 30.6358 291.207 33.7397L291.197 33.7341Z" fill="#72AD56"/>
</g>
<g clip-path="url(#clip1_694_5683)">
<path d="M256.565 157.211C255.634 157.622 255.333 158.592 254.928 159.339C253.181 162.555 250.518 164.625 247.18 166.018C246.039 166.492 245.359 167.458 245.012 168.69C244.294 171.218 243.022 171.93 240.511 171.247C236.888 170.261 233.265 169.259 229.657 168.219C227.09 167.478 226.242 166.057 227.042 163.543C227.47 162.19 227.256 161.135 226.442 160.039C224.124 156.917 223.12 153.377 223.417 149.568C224.038 141.581 228.567 136.636 236.135 134.357C239.415 133.37 242.656 133.92 245.973 134.976C251.487 136.724 254.626 140.518 256.588 145.574C257.556 148.066 257.465 150.672 257.288 153.271C257.272 153.528 257.244 153.765 257.481 153.941L256.569 157.212L256.565 157.211ZM238.746 155.83C240.996 154.673 243.058 153.612 245.122 152.556C245.979 152.12 246.693 152.21 247.237 153.095C247.792 154.001 247.473 154.654 246.677 155.162C246.199 155.467 245.713 155.799 245.183 155.984C240.912 157.488 238.677 160.445 238.048 164.908C237.62 167.944 236.733 167.291 240.147 168.294C240.392 168.363 240.638 168.431 240.887 168.488C241.476 168.614 241.957 168.394 242.056 167.823C242.557 164.985 244.771 163.773 247.048 162.645C251.8 160.289 253.945 156.337 254.255 151.24C254.909 140.576 243.994 135.022 236.268 137.481C230.481 139.321 227.075 143.381 226.488 149.606C226.137 153.333 227.653 156.401 229.51 159.415C230.339 160.764 230.719 162.173 230.129 163.678C229.588 165.05 230.121 165.667 231.476 165.897C232.1 166.003 232.707 166.219 233.319 166.398C233.975 166.59 234.479 166.422 234.67 165.755C235.348 163.401 235.983 161.031 236.658 158.672C236.816 158.121 236.355 157.891 236.162 157.525C235.074 155.463 233.74 153.535 232.807 151.377C232.354 150.336 232.256 149.537 233.354 149.08C234.389 148.647 235.143 149.178 235.655 150.147C236.66 152.047 237.709 153.925 238.75 155.831L238.746 155.83Z" fill="#72AD56"/>
<path d="M234.226 172.695C236.49 173.327 238.763 173.944 241.021 174.599C242.156 174.928 243.087 175.605 242.701 176.881C242.332 178.111 241.222 177.784 240.288 177.532C235.752 176.296 231.214 175.048 226.68 173.804C225.549 173.493 224.485 172.863 224.828 171.634C225.146 170.492 226.408 170.549 227.429 170.812C229.706 171.401 231.961 172.064 234.229 172.7L234.226 172.695Z" fill="#72AD56"/>
</g>
<g clip-path="url(#clip2_694_5683)">
<path d="M341.827 448.74C343.05 449.383 344.393 448.653 345.621 448.509C352.986 447.652 358.902 449.589 363.722 453.587C364.959 454.613 366.018 454.931 367.912 454.759C377.459 453.888 384.676 456.785 389.239 463.419C392.084 467.549 392.616 472.222 391.231 477.183C390.928 478.253 391.74 478.736 392.105 479.427C392.62 480.419 393.585 481.213 394.105 482.199C394.721 483.361 395.393 484.522 394.254 486.025C393.179 487.442 391.654 487.513 390.142 487.764C389.567 487.861 388.955 487.874 388.397 487.804C384.758 487.347 382.169 489.407 379.386 491.083C369.741 496.892 356.201 495.4 349.85 488.992C349.236 488.373 348.675 488.027 347.375 488.233C345.608 488.509 343.737 488.716 341.941 488.421C340.016 488.105 338.242 488.671 336.574 489.741C335.589 490.373 334.486 490.867 333.508 491.503C332.093 492.427 330.563 492.526 329.301 491.946C328.201 491.441 327.31 490.572 327.651 489.168C327.856 488.34 327.592 487.464 327.839 486.646C328.651 483.935 326.685 482.334 325.294 480.454C320.889 474.486 320.735 467.979 324.661 461.076C327.503 456.073 332.118 452.533 338.021 450.156C338.297 450.045 338.619 449.984 338.646 449.652L341.827 448.74ZM349.868 484.496C353.17 483.711 356.036 482.304 358.458 480.328C364.66 475.261 367.192 469.422 365.367 462.767C363.615 456.389 358.619 452.719 351.143 451.6C342.394 450.292 332.705 454.425 328.251 461.542C324.425 467.653 324.44 475.219 329.777 479.947C331.325 481.317 331.953 482.794 331.665 484.739C331.518 485.748 331.551 486.758 331.444 487.771C331.405 488.128 331.222 488.541 331.678 488.677C332.065 488.796 332.467 488.545 332.846 488.321C333.961 487.651 335.113 487.038 336.22 486.36C337.934 485.314 339.644 484.819 341.687 485.19C344.4 485.682 347.205 485.38 349.871 484.505L349.868 484.496ZM391.398 484.518C390.169 482.805 389.049 481.291 387.985 479.75C387.517 479.08 387.321 478.351 387.567 477.465C388.642 473.633 388.532 470.031 386.815 466.503C384.041 460.81 376.507 456.963 368.718 457.639C367.523 457.741 367.241 458.256 367.755 458.908C368.616 459.989 368.782 461.28 369.102 462.511C370.686 468.525 368.682 474.171 364.099 479.406C361.206 482.714 357.35 485.095 352.883 486.826C353.12 487.092 353.247 487.312 353.451 487.463C358.712 491.412 365.109 492.522 372.378 490.772C375.791 489.95 378.826 488.17 381.436 485.957C382.178 485.326 382.861 484.958 383.97 484.954C386.311 484.936 388.677 484.691 391.384 484.516L391.398 484.518Z" fill="#72AD56"/>
</g>
<g clip-path="url(#clip3_694_5683)">
<path d="M47.148 642.197L65.3918 585.674L7.28149 598.17L47.148 642.197Z" stroke="#72AD56" stroke-width="5" stroke-miterlimit="10"/>
</g>
<g clip-path="url(#clip4_694_5683)">
<path d="M164.956 523.695L209.268 535.042L207.189 527.63L170.342 518.194L164.956 523.695Z" fill="#72AD56"/>
<path d="M173.628 515.335L205.681 523.544L203.602 516.131L179.014 509.835L173.628 515.335Z" fill="#72AD56"/>
<path d="M198.514 500.548L196.413 493.06L190.97 498.616L198.514 500.548Z" fill="#72AD56"/>
<path d="M182.3 506.976L202.103 512.047L200.019 504.634L187.69 501.476L182.3 506.976Z" fill="#72AD56"/>
<path d="M210.775 539.127L161.678 526.554L157.68 530.633L212.321 544.626L210.775 539.127Z" fill="#72AD56"/>
</g>
<g clip-path="url(#clip5_694_5683)">
<path d="M86.4776 458.321L39.2639 431.063L12.0051 478.276L86.4776 458.321Z" fill="#72AD56"/>
</g>
<g clip-path="url(#clip6_694_5683)">
<path d="M388.178 574.096C390.969 567.844 393.753 561.588 396.557 555.342C397.932 552.274 399.643 551.61 402.732 552.984C415.448 558.648 428.163 564.326 440.868 570.014C443.635 571.25 444.395 573.246 443.179 575.982C439.46 584.343 435.7 592.685 432.005 601.061C431.359 602.529 430.371 603.431 428.862 603.981C423.147 606.067 417.444 608.182 411.771 610.376C410.458 610.885 409.323 610.87 408.057 610.3C399.319 606.373 390.561 602.492 381.824 598.561C378.985 597.283 378.465 595.926 379.732 593.043C382.513 586.712 385.358 580.41 388.178 574.096ZM391.297 575.255C388.616 581.258 385.984 587.277 383.223 593.244C382.539 594.72 382.636 595.42 384.279 596.129C391.99 599.473 399.656 602.916 407.303 606.401C408.662 607.022 409.306 606.961 409.904 605.487C411.226 602.221 412.794 599.06 414.154 595.811C414.829 594.207 415.718 593.823 417.342 594.588C420.644 596.142 424.022 597.536 427.324 599.1C428.545 599.68 429.085 599.478 429.625 598.246C432.995 590.551 436.414 582.873 439.907 575.232C440.549 573.827 440.266 573.273 438.869 572.659C426.582 567.232 414.312 561.758 402.072 556.227C400.589 555.555 399.948 555.747 399.306 557.241C396.707 563.276 393.98 569.258 391.299 575.261L391.297 575.255ZM413.488 605.525C417.137 604.164 420.949 602.742 424.521 601.406C422.655 600.573 420.377 599.6 418.144 598.538C417.182 598.079 416.693 598.214 416.281 599.214C415.353 601.462 414.318 603.667 413.486 605.529L413.488 605.525Z" fill="#72AD56"/>
</g>
<path d="M110.5 10.0625L128.254 40.8125H92.7465L110.5 10.0625Z" fill="#72AD56"/>
<g clip-path="url(#clip7_694_5683)">
<path d="M429.487 165.819L420.353 169.033L406.311 198.325L412.485 201.285L429.487 165.819Z" fill="#72AD56"/>
<path d="M385.896 188.535L392.07 191.495L399.283 176.448L390.15 179.662L385.896 188.535Z" fill="#72AD56"/>
<path d="M414.381 171.133L405.253 174.346L396.105 193.43L402.274 196.388L414.381 171.133Z" fill="#72AD56"/>
<path d="M444.592 160.501L435.464 163.713L416.527 203.216L422.697 206.173L444.592 160.501Z" fill="#72AD56"/>
<path d="M450.56 158.399L426.73 208.109L430.223 209.783L455.727 156.58L450.56 158.399Z" fill="#72AD56"/>
<path d="M384.176 181.761L377.016 184.281L381.856 186.601L384.176 181.761Z" fill="#72AD56"/>
</g>
<g clip-path="url(#clip8_694_5683)">
<path d="M52.272 198.598L52.272 134.531L42.9766 139.927L42.9766 193.201L52.272 198.598Z" fill="#72AD56"/>
<path d="M37.983 189.734L37.983 143.392L28.6875 148.788L28.6875 184.338L37.983 189.734Z" fill="#72AD56"/>
<path d="M9.39045 161.109L-2.38382e-07 166.562L9.39045 172.016L9.39045 161.109Z" fill="#72AD56"/>
<path d="M23.6861 180.879L23.6861 152.248L14.3906 157.65L14.3906 175.476L23.6861 180.879Z" fill="#72AD56"/>
<path d="M57.2734 131.07L57.2734 202.055L64.1691 206.062L64.169 127.062L57.2734 131.07Z" fill="#72AD56"/>
</g>
</g>
<defs>
<clipPath id="clip0_694_5683">
<rect width="89.2562" height="63.6556" fill="white" transform="translate(277 23.1641) rotate(-15)"/>
</clipPath>
<clipPath id="clip1_694_5683">
<rect width="34.382" height="42.6038" fill="white" transform="translate(228.445 130.062) rotate(15.5846)"/>
</clipPath>
<clipPath id="clip2_694_5683">
<rect width="68.1855" height="51.8803" fill="white" transform="translate(317 455.859) rotate(-16.0007)"/>
</clipPath>
<clipPath id="clip3_694_5683">
<rect width="63.5899" height="55.016" fill="white" transform="translate(78.7344 637.852) rotate(167.864)"/>
</clipPath>
<clipPath id="clip4_694_5683">
<rect width="56.4041" height="48.7561" fill="white" transform="translate(169.094 486.062) rotate(14.3637)"/>
</clipPath>
<clipPath id="clip5_694_5683">
<rect width="54.5177" height="54.5177" fill="white" transform="translate(59.2188 505.535) rotate(-150)"/>
</clipPath>
<clipPath id="clip6_694_5683">
<rect width="51.0227" height="50.1723" fill="white" transform="translate(398.453 551.062) rotate(24.0632)"/>
</clipPath>
<clipPath id="clip7_694_5683">
<rect width="59" height="59" fill="white" transform="translate(402.523 131.078) rotate(25.6122)"/>
</clipPath>
<clipPath id="clip8_694_5683">
<rect width="79" height="68" fill="white" transform="translate(0 206.062) rotate(-90)"/>
</clipPath>
</defs>
</svg>
