<svg width="1172" height="702" viewBox="0 0 1172 702" fill="none" xmlns="http://www.w3.org/2000/svg">
<g opacity="0.15">
<path d="M748.344 7.36914C748.672 7.36914 749 7.0957 749 6.71289V4.96289C749 4.63477 748.672 4.30664 748.344 4.30664H725.156C724.773 4.30664 724.5 4.63477 724.5 4.96289V6.71289C724.5 7.0957 724.773 7.36914 725.156 7.36914H748.344ZM748.344 16.1191C748.672 16.1191 749 15.8457 749 15.4629V13.7129C749 13.3848 748.672 13.0566 748.344 13.0566H725.156C724.773 13.0566 724.5 13.3848 724.5 13.7129V15.4629C724.5 15.8457 724.773 16.1191 725.156 16.1191H748.344ZM748.344 24.8691C748.672 24.8691 749 24.5957 749 24.2129V22.4629C749 22.1348 748.672 21.8066 748.344 21.8066H725.156C724.773 21.8066 724.5 22.1348 724.5 22.4629V24.2129C724.5 24.5957 724.773 24.8691 725.156 24.8691H748.344Z" fill="black"/>
<g clip-path="url(#clip0_694_5793)">
<path d="M1011.86 113.207C1012.02 112.86 1012.3 112.589 1012.66 112.452C1013.01 112.316 1013.41 112.326 1013.75 112.48L1029.44 119.444C1029.79 119.598 1030.06 119.884 1030.2 120.238C1030.33 120.592 1030.32 120.986 1030.17 121.332C1030.02 121.679 1029.73 121.951 1029.38 122.087C1029.02 122.224 1028.63 122.214 1028.28 122.06L1012.59 115.095C1012.24 114.941 1011.97 114.656 1011.84 114.302C1011.7 113.948 1011.71 113.554 1011.86 113.207ZM1025.96 127.29L1010.27 120.326C1009.92 120.172 1009.53 120.162 1009.18 120.298C1008.82 120.435 1008.54 120.706 1008.38 121.053C1008.23 121.4 1008.22 121.794 1008.35 122.148C1008.49 122.502 1008.76 122.787 1009.11 122.941L1024.8 129.906C1025.15 130.06 1025.54 130.069 1025.9 129.933C1026.25 129.797 1026.53 129.525 1026.69 129.178C1026.84 128.832 1026.85 128.438 1026.72 128.084C1026.58 127.73 1026.31 127.444 1025.96 127.29ZM1022.48 135.136L1010.71 129.913C1010.36 129.759 1009.97 129.749 1009.62 129.885C1009.26 130.022 1008.98 130.293 1008.82 130.64C1008.67 130.987 1008.66 131.381 1008.79 131.735C1008.93 132.089 1009.2 132.374 1009.55 132.528L1021.32 137.751C1021.67 137.905 1022.06 137.915 1022.41 137.779C1022.77 137.642 1023.05 137.371 1023.21 137.024C1023.36 136.677 1023.37 136.284 1023.23 135.93C1023.1 135.575 1022.83 135.29 1022.48 135.136ZM1005.15 131.749C1005.12 131.935 1005.05 132.112 1004.95 132.271C1004.85 132.431 1004.72 132.569 1004.57 132.678C1004.42 132.787 1004.24 132.865 1004.06 132.907C1003.88 132.949 1003.69 132.955 1003.5 132.924C1003.38 132.905 1003.27 132.87 1003.16 132.821C1002.87 132.692 1002.63 132.471 1002.48 132.192C1002.33 131.912 1002.27 131.591 1002.33 131.278C1003.06 126.918 1000.41 122.212 996.178 120.332C991.943 118.452 986.681 119.648 983.936 123.116C983.701 123.414 983.356 123.605 982.979 123.649C982.602 123.693 982.223 123.585 981.926 123.349C981.628 123.113 981.436 122.769 981.393 122.392C981.349 122.014 981.457 121.636 981.693 121.338C984.182 118.195 988.113 116.5 992.116 116.573C991.262 114.997 990.922 113.194 991.145 111.415C991.367 109.637 992.141 107.973 993.357 106.656C994.574 105.34 996.171 104.437 997.926 104.075C999.682 103.713 1001.51 103.909 1003.14 104.636C1004.78 105.363 1006.15 106.584 1007.06 108.129C1007.97 109.674 1008.37 111.464 1008.21 113.249C1008.05 115.034 1007.34 116.725 1006.17 118.083C1005 119.441 1003.43 120.399 1001.69 120.822C1004.43 123.743 1005.81 127.795 1005.15 131.749ZM997.34 117.718C998.375 118.177 999.522 118.319 1000.64 118.126C1001.75 117.933 1002.79 117.413 1003.61 116.633C1004.43 115.853 1005 114.848 1005.24 113.743C1005.49 112.639 1005.41 111.486 1005 110.43C1004.6 109.374 1003.88 108.462 1002.96 107.81C1002.03 107.158 1000.94 106.794 999.805 106.766C998.673 106.738 997.559 107.046 996.602 107.651C995.646 108.256 994.89 109.131 994.431 110.165C993.815 111.553 993.776 113.128 994.322 114.544C994.867 115.96 995.953 117.102 997.34 117.718Z" fill="#72AD56"/>
</g>
<g clip-path="url(#clip1_694_5793)">
<path d="M164.93 357.05C164.963 357.411 164.875 357.774 164.678 358.079C164.482 358.385 164.189 358.616 163.846 358.735C163.716 358.781 163.582 358.811 163.445 358.824L156.758 359.435C156.572 359.452 156.384 359.437 156.203 359.39L150.516 357.927C150.098 357.819 149.739 357.55 149.52 357.178C149.3 356.806 149.237 356.362 149.345 355.944C149.453 355.525 149.722 355.167 150.094 354.947C150.466 354.728 150.91 354.665 151.329 354.773L156.741 356.166L163.149 355.58C163.362 355.559 163.578 355.581 163.783 355.643C163.988 355.706 164.179 355.808 164.345 355.945C164.51 356.081 164.647 356.249 164.748 356.439C164.848 356.628 164.91 356.836 164.93 357.05ZM183.953 329.599C183.96 330.026 183.883 330.451 183.726 330.848C183.569 331.246 183.334 331.608 183.036 331.914L179.281 335.78L172.395 350.067C172.273 350.321 172.087 350.538 171.856 350.698C171.625 350.858 171.356 350.956 171.076 350.981L157.701 352.205C157.498 352.223 157.292 352.204 157.096 352.147L143.764 348.257L138.282 347.555C137.425 347.445 136.647 347 136.119 346.317C135.591 345.633 135.355 344.768 135.465 343.912L136.903 332.693C137.013 331.836 137.458 331.058 138.141 330.53C138.825 330.001 139.69 329.766 140.546 329.875L145.525 330.508L154.694 324.038C154.942 323.863 155.235 323.76 155.539 323.743L166.742 323.093L170.243 319.497C170.845 318.878 171.668 318.523 172.532 318.511C173.396 318.499 174.229 318.83 174.848 319.432L182.961 327.312C183.27 327.609 183.516 327.964 183.686 328.357C183.856 328.749 183.947 329.171 183.953 329.599ZM175.947 335.188L167.062 326.557L160.947 328.694L155.457 339.67C158.434 340.374 162.399 339.47 164.616 334.824C164.789 334.461 165.09 334.175 165.462 334.021C165.833 333.867 166.248 333.855 166.627 333.989L175.092 336.977L175.947 335.188ZM138.695 344.325L142.689 344.837L144.128 333.619L140.133 333.106L138.695 344.325ZM173.66 339.92L166.844 337.517C164.164 341.904 159.537 343.976 154.706 342.838C154.23 342.726 153.786 342.509 153.406 342.203C153.026 341.897 152.72 341.51 152.51 341.069C152.299 340.629 152.191 340.147 152.192 339.659C152.193 339.171 152.304 338.69 152.516 338.25C152.518 338.243 152.522 338.236 152.526 338.229L158.225 326.854L156.196 326.973L147.474 333.128L145.889 345.485L157.706 348.936L169.856 347.823L173.66 339.92ZM180.69 329.648L172.582 321.766L169.777 324.655L177.89 332.535L180.69 329.648Z" fill="#72AD56"/>
</g>
<path d="M291.428 220.864L281.75 177.708L323.963 190.905L291.428 220.864Z" stroke="#72AD56" stroke-width="3"/>
<path d="M1062.87 601.562L1124.05 549.011L1138.97 628.269L1062.87 601.562Z" stroke="#72AD56" stroke-width="3"/>
<path d="M441.699 70.1973L455.187 93.5586H428.212L441.699 70.1973Z" fill="#72AD56"/>
<g clip-path="url(#clip2_694_5793)">
<path d="M182.489 85.5955L176.164 82.718L154.334 90.8964L156.058 95.4978L182.489 85.5955Z" fill="#72AD56"/>
<path d="M148.63 75.6797L150.354 80.2811L161.568 76.0798L155.242 73.2024L148.63 75.6797Z" fill="#72AD56"/>
<path d="M172.027 80.8383L165.707 77.9629L151.484 83.2914L153.206 87.8895L172.027 80.8383Z" fill="#72AD56"/>
<path d="M192.941 90.354L186.621 87.4785L157.181 98.5081L158.903 103.106L192.941 90.354Z" fill="#72AD56"/>
<path d="M197.085 92.2349L160.038 106.114L161.013 108.717L200.663 93.8626L197.085 92.2349Z" fill="#72AD56"/>
<path d="M151.109 71.3237L146.151 69.0681L147.502 72.675L151.109 71.3237Z" fill="#72AD56"/>
</g>
<g clip-path="url(#clip3_694_5793)">
<path d="M61.1767 185.66L17.2836 184.413L16.0366 228.306L61.1767 185.66Z" fill="#72AD56"/>
</g>
<g clip-path="url(#clip4_694_5793)">
<path d="M217.558 556.172L193.662 534.52L172.01 558.416L217.558 556.172Z" fill="#72AD56"/>
</g>
<g clip-path="url(#clip5_694_5793)">
<path d="M1136.54 248.754L1102.73 220.736L1074.71 254.546L1136.54 248.754Z" fill="#72AD56"/>
</g>
<g clip-path="url(#clip6_694_5793)">
<path d="M287.852 659.865L287.852 694.737L292.773 691.8L292.773 662.802L287.852 659.865Z" fill="#72AD56"/>
<path d="M295.93 664.689L295.93 689.914L300.852 686.977L300.852 667.627L295.93 664.689Z" fill="#72AD56"/>
<path d="M312.075 680.271L317.047 677.302L312.075 674.334L312.075 680.271Z" fill="#72AD56"/>
<path d="M304.001 669.51L304.001 685.094L308.922 682.153L308.922 672.45L304.001 669.51Z" fill="#72AD56"/>
<path d="M284.695 696.622L284.695 657.984L281.045 655.803L281.045 698.803L284.695 696.622Z" fill="#72AD56"/>
</g>
<path d="M487.373 585.408L487.373 585.408C492.486 587.543 495.639 590.974 497.321 595.349L497.181 595.403L497.321 595.349C497.53 595.892 497.77 596.298 498.108 596.638C498.447 596.979 498.893 597.262 499.527 597.546C506.058 600.465 509.719 605 510.269 611.014C510.614 614.769 509.241 618.028 506.516 620.761L506.516 620.761C506.261 621.016 506.211 621.268 506.222 621.534C506.227 621.657 506.246 621.78 506.265 621.911C506.268 621.928 506.27 621.946 506.273 621.963C506.294 622.111 506.315 622.268 506.311 622.427L506.311 622.428C506.298 622.824 506.372 623.231 506.451 623.657L506.454 623.675C506.53 624.089 506.61 624.522 506.599 624.947M487.373 585.408L506.449 624.943M487.373 585.408C485.502 584.627 483.732 583.954 481.82 583.703L481.82 583.703C477.113 583.095 472.807 583.712 469.116 585.938C466.575 587.469 464.726 589.314 463.599 591.472C462.472 593.632 462.074 596.094 462.418 598.85L462.418 598.85C462.458 599.162 462.513 599.476 462.567 599.785C462.588 599.907 462.609 600.028 462.629 600.148C462.701 600.575 462.759 600.992 462.764 601.397C462.775 602.201 462.58 602.959 461.861 603.654C461.614 603.892 461.453 604.189 461.306 604.465L461.291 604.493C461.146 604.765 461.013 605.016 460.819 605.222L460.819 605.222C460.425 605.646 460.292 606.106 460.336 606.559C460.38 607.006 460.593 607.435 460.866 607.81L460.866 607.81M487.373 585.408L460.866 607.81M506.599 624.947C506.599 624.947 506.599 624.947 506.599 624.947L506.449 624.943M506.599 624.947C506.599 624.947 506.599 624.947 506.599 624.947L506.449 624.943M506.599 624.947C506.598 624.977 506.597 625.006 506.597 625.036C506.586 625.49 506.575 625.976 506.415 626.415C506.241 626.897 505.893 627.315 505.215 627.61L505.215 627.61C504.084 628.102 503.107 627.733 502.172 627.379C502.052 627.334 501.932 627.289 501.814 627.245M506.449 624.943C506.448 624.971 506.447 624.998 506.447 625.026C506.425 625.974 506.402 626.93 505.156 627.473C504.083 627.939 503.166 627.593 502.227 627.239C502.107 627.194 501.986 627.148 501.865 627.104M501.814 627.245C501.814 627.246 501.814 627.246 501.814 627.246L501.865 627.104M501.814 627.245L501.865 627.104M501.814 627.245L500.721 626.497M501.865 627.104C501.457 626.958 501.057 626.745 500.721 626.497M475.353 613.271C475.181 612.648 474.944 612.22 474.028 611.881M475.353 613.271L475.208 613.311M475.353 613.271C477.135 619.722 485.353 625.603 493.701 625.347C494.032 625.337 494.363 625.321 494.693 625.304C496.771 625.203 498.833 625.102 500.721 626.497M475.353 613.271L475.208 613.311C475.208 613.311 475.208 613.311 475.208 613.311M474.028 611.881L466.502 609.085C467.945 609 469.257 609.274 470.35 610.147C471.425 611.006 472.73 611.558 473.976 612.021L473.976 612.021C474.419 612.185 474.682 612.365 474.856 612.567C475.029 612.769 475.124 613.007 475.208 613.311M474.028 611.881C472.784 611.418 471.499 610.873 470.444 610.03L474.028 611.881ZM475.208 613.311L500.721 626.497M460.866 607.81C461.505 608.688 462.582 609.198 463.879 609.112L460.866 607.81ZM478.287 613.148C481.747 613.618 485.061 613.462 488.101 612.384C492.998 610.65 496.392 607.695 497.567 603.168C497.61 603.005 497.657 602.842 497.705 602.676C497.92 601.932 498.147 601.146 498.006 600.286L497.858 600.31M478.287 613.148L498.942 599.838C498.132 599.47 497.763 599.701 497.858 600.31M478.287 613.148C478.291 613.167 478.293 613.185 478.296 613.203C478.301 613.233 478.306 613.261 478.31 613.287C478.327 613.385 478.344 613.459 478.375 613.527L478.375 613.528C480.324 617.946 484.02 620.96 489.322 622.457C491.8 623.156 494.385 623.108 496.86 622.628C497.593 622.484 498.207 622.493 498.965 622.915C500.029 623.501 501.138 624.019 502.335 624.577C502.77 624.78 503.216 624.988 503.676 625.207C503.631 624.806 503.586 624.416 503.541 624.033C503.426 623.037 503.317 622.093 503.229 621.152M478.287 613.148L503.229 621.151C503.229 621.151 503.229 621.151 503.229 621.152M497.858 600.31L498.007 600.286C497.962 600.004 498.036 599.886 498.126 599.843C498.181 599.816 498.268 599.801 498.397 599.82C498.525 599.838 498.686 599.886 498.88 599.975L498.881 599.975C504.121 602.346 507.55 607.519 507.282 612.134C507.114 614.997 505.897 617.334 503.832 619.401L503.831 619.402M497.858 600.31L503.831 619.402M503.229 621.152C503.166 620.511 503.314 619.922 503.831 619.402M503.229 621.152L503.831 619.402M465.178 609.097C464.737 609.09 464.304 609.084 463.88 609.112L465.178 609.097ZM465.178 609.097L465.203 609.097M465.178 609.097L465.203 609.097M465.203 609.097C465.633 609.104 466.07 609.11 466.502 609.085L465.203 609.097ZM477.039 610.224L476.888 610.181L476.883 610.2C474.914 609.792 473.066 608.987 471.549 607.732L471.453 607.847L471.549 607.732C470.327 606.721 469.001 606.414 467.486 606.47L467.486 606.47C467.007 606.488 466.527 606.492 466.044 606.494C466.007 606.495 465.97 606.495 465.933 606.495C465.488 606.497 465.04 606.5 464.593 606.513C464.582 606.513 464.571 606.513 464.561 606.514C464.405 606.517 464.261 606.521 464.131 606.502C463.994 606.482 463.892 606.441 463.821 606.366L463.82 606.365C463.775 606.319 463.765 606.288 463.763 606.27C463.761 606.251 463.765 606.226 463.784 606.188C463.804 606.149 463.836 606.106 463.879 606.053C463.888 606.042 463.898 606.029 463.909 606.016C463.942 605.976 463.98 605.93 464.011 605.886L464.012 605.885C464.206 605.611 464.382 605.328 464.555 605.049C464.58 605.01 464.605 604.97 464.629 604.93C464.828 604.612 465.026 604.301 465.252 604.008C465.712 603.414 465.98 602.806 466.065 602.154C466.15 601.504 466.051 600.822 465.794 600.082L465.652 600.132L465.794 600.082C464.088 595.175 466.769 590.343 471.418 587.803L471.418 587.803C476.826 584.847 484.531 585.68 489.673 589.669C494.07 593.081 495.931 597.213 494.767 601.903C494.157 604.356 492.926 606.284 491.127 607.726C489.327 609.17 486.95 610.133 484.041 610.643C481.781 611.038 479.439 610.909 477.039 610.224Z" fill="#72AD56" stroke="#72AD56" stroke-width="0.3"/>
<g clip-path="url(#clip7_694_5793)">
<path d="M708.084 642.503L744.682 654.353L743.297 648.111L712.864 638.258L708.084 642.503Z" fill="#72AD56"/>
<path d="M715.755 636.082L742.229 644.653L740.844 638.411L720.536 631.836L715.755 636.082Z" fill="#72AD56"/>
<path d="M737.336 625.246L735.936 618.94L731.105 623.229L737.336 625.246Z" fill="#72AD56"/>
<path d="M723.427 629.656L739.783 634.951L738.394 628.708L728.211 625.411L723.427 629.656Z" fill="#72AD56"/>
<path d="M745.746 657.813L705.195 644.685L701.647 647.833L746.776 662.444L745.746 657.813Z" fill="#72AD56"/>
</g>
<g clip-path="url(#clip8_694_5793)">
<path d="M914.157 680.877C912.371 675.291 910.577 669.707 908.803 664.118C907.929 661.374 908.643 659.973 911.4 659.087C922.753 655.445 934.113 651.812 945.474 648.192C947.946 647.402 949.571 648.243 950.356 650.684C952.754 658.146 955.115 665.619 957.537 673.077C957.963 674.383 957.846 675.524 957.197 676.736C954.738 681.33 952.304 685.937 949.934 690.576C949.386 691.65 948.653 692.289 947.519 692.647C939.697 695.128 931.889 697.649 924.066 700.126C921.523 700.931 920.416 700.362 919.58 697.798C917.742 692.167 915.961 686.518 914.157 680.877ZM916.811 679.836C918.526 685.2 920.281 690.546 921.924 695.933C922.33 697.266 922.791 697.657 924.245 697.172C931.078 694.906 937.939 692.728 944.811 690.588C946.034 690.209 946.41 689.803 945.95 688.52C944.93 685.68 944.127 682.766 943.141 679.915C942.657 678.505 943.005 677.752 944.478 677.314C947.474 676.422 950.427 675.383 953.428 674.497C954.539 674.17 954.769 673.733 954.41 672.639C952.17 665.801 949.97 658.946 947.839 652.073C947.447 650.809 946.95 650.617 945.707 651.023C934.763 654.571 923.803 658.08 912.829 661.535C911.499 661.952 911.199 662.441 911.642 663.762C913.427 669.099 915.101 674.475 916.816 679.839L916.811 679.836ZM948.261 686.498C949.814 683.546 951.437 680.462 952.955 677.57C951.288 678.103 949.278 678.782 947.246 679.379C946.369 679.635 946.134 680 946.442 680.874C947.133 682.839 947.73 684.838 948.262 686.502L948.261 686.498Z" fill="#72AD56"/>
</g>
<path d="M966.142 495.64L955.418 535.661L926.12 506.363L966.142 495.64Z" fill="#72AD56"/>
<g clip-path="url(#clip9_694_5793)">
<path d="M1001.99 354.949C1001.77 355.317 1001.42 355.582 1001 355.686C1000.58 355.79 1000.14 355.724 999.773 355.503L988.675 348.835C988.308 348.614 988.042 348.255 987.939 347.839C987.835 347.422 987.901 346.982 988.122 346.614C988.343 346.246 988.701 345.981 989.117 345.877C989.534 345.773 989.975 345.839 990.343 346.06L1001.44 352.729C1001.81 352.95 1002.07 353.308 1002.18 353.724C1002.28 354.141 1002.22 354.582 1001.99 354.949ZM1004.77 347.18L993.677 340.511C993.309 340.29 992.868 340.224 992.452 340.328C992.035 340.432 991.677 340.697 991.456 341.065C991.235 341.433 991.169 341.873 991.273 342.29C991.377 342.706 991.642 343.065 992.01 343.286L1003.11 349.954C1003.48 350.175 1003.92 350.241 1004.33 350.137C1004.75 350.033 1005.11 349.768 1005.33 349.4C1005.55 349.033 1005.62 348.592 1005.51 348.175C1005.41 347.759 1005.14 347.401 1004.77 347.18ZM1021.15 341.917L1003.65 371.049C1003.21 371.785 1002.49 372.315 1001.66 372.523C1000.82 372.73 999.943 372.598 999.208 372.156L974.237 357.152C973.501 356.71 972.971 355.994 972.763 355.161C972.556 354.328 972.688 353.446 973.13 352.71L990.635 323.578C991.077 322.842 991.793 322.312 992.626 322.104C993.459 321.897 994.34 322.029 995.076 322.471L1001.36 326.249C1002.67 325.845 1004.04 325.72 1005.4 325.884C1006.75 326.047 1008.06 326.495 1009.23 327.199C1010.4 327.902 1011.41 328.844 1012.19 329.964C1012.97 331.084 1013.5 332.356 1013.76 333.697L1020.05 337.475C1020.78 337.917 1021.31 338.633 1021.52 339.466C1021.73 340.299 1021.6 341.181 1021.15 341.917ZM998.678 332.188L1009.78 338.856C1010.66 337.384 1010.92 335.622 1010.51 333.956C1010.09 332.29 1009.03 330.857 1007.56 329.973C1006.09 329.089 1004.33 328.825 1002.66 329.24C1001 329.656 999.563 330.716 998.678 332.188ZM1018.38 340.249L1013.74 337.462C1013.52 338.543 1013.12 339.578 1012.55 340.523L1011.72 341.911C1011.5 342.278 1011.14 342.543 1010.72 342.647C1010.31 342.751 1009.86 342.685 1009.5 342.464L995.624 334.129C995.256 333.907 994.991 333.549 994.887 333.133C994.783 332.716 994.849 332.276 995.07 331.908L995.904 330.52C996.472 329.575 997.197 328.734 998.048 328.032L993.409 325.245L975.904 354.378L1000.87 369.382L1018.38 340.249Z" fill="#72AD56"/>
</g>
<g clip-path="url(#clip10_694_5793)">
<path d="M885.333 204.756L880.227 209.862V234.087H885.333V204.756Z" fill="#72AD56"/>
<path d="M863.336 234.087H868.442V221.643L863.336 226.749V234.087Z" fill="#72AD56"/>
<path d="M876.884 213.201L871.781 218.304V234.087H876.884V213.201Z" fill="#72AD56"/>
<path d="M893.774 196.314L888.672 201.417V234.087H893.774V196.314Z" fill="#72AD56"/>
<path d="M897.109 192.976V234.088H899.998V190.088L897.109 192.976Z" fill="#72AD56"/>
<path d="M860.003 230.084L856 234.087H860.003V230.084Z" fill="#72AD56"/>
</g>
<path d="M546.992 208.854L546.64 208.755L546.641 208.758C546.278 208.656 545.915 208.552 545.552 208.449C544.246 208.078 542.94 207.707 541.625 207.367L541.625 207.367C541.215 207.261 540.738 207.191 540.324 207.273C540.115 207.315 539.916 207.396 539.751 207.535C539.585 207.676 539.46 207.869 539.39 208.12C539.316 208.386 539.316 208.628 539.379 208.845C539.443 209.061 539.566 209.244 539.725 209.397C540.04 209.699 540.502 209.893 540.957 210.018L540.957 210.018C541.853 210.264 542.75 210.51 543.647 210.756C546.33 211.492 549.013 212.229 551.697 212.96L551.697 212.96C551.714 212.965 551.732 212.97 551.75 212.974C552.098 213.069 552.507 213.18 552.869 213.146C553.065 213.128 553.255 213.068 553.418 212.936C553.581 212.803 553.704 212.609 553.784 212.345C553.95 211.795 553.834 211.355 553.54 211.022C553.255 210.699 552.815 210.49 552.356 210.356C551.082 209.987 549.802 209.632 548.523 209.279C548.012 209.137 547.502 208.996 546.992 208.854Z" fill="#72AD56" stroke="#72AD56" stroke-width="0.3"/>
<path d="M546.233 204.03C546.751 204.181 547.149 204.049 547.299 203.522C547.58 202.549 547.851 201.572 548.122 200.595C548.368 199.707 548.615 198.819 548.868 197.932C548.956 197.628 548.804 197.448 548.653 197.269C548.587 197.191 548.522 197.114 548.477 197.027L548.344 197.097C548.344 197.097 548.344 197.097 548.344 197.097C548.022 196.486 547.672 195.891 547.321 195.293C547.206 195.097 547.092 194.902 546.977 194.705C546.514 193.907 546.063 193.095 545.692 192.235C545.512 191.822 545.387 191.425 545.437 191.074C545.491 190.702 545.736 190.418 546.203 190.223C546.647 190.038 547.048 190.055 547.393 190.235C547.732 190.413 548 190.738 548.209 191.134C548.773 192.201 549.355 193.258 549.94 194.322C550.153 194.709 550.366 195.098 550.58 195.488L540.842 190.777C540.565 193.719 541.762 196.139 543.227 198.518C543.881 199.583 544.181 200.695 543.715 201.883C543.288 202.965 543.709 203.452 544.779 203.634C545.148 203.697 545.51 203.809 545.871 203.92C545.992 203.957 546.112 203.994 546.233 204.03ZM546.233 204.03L546.275 203.886C546.275 203.886 546.275 203.886 546.275 203.886M546.233 204.03L546.275 203.886M546.275 203.886C546.159 203.852 546.042 203.816 545.923 203.779C545.559 203.667 545.184 203.551 544.804 203.486L544.804 203.486C544.278 203.397 543.96 203.239 543.811 203.013C543.666 202.795 543.648 202.463 543.855 201.938L543.855 201.938C544.345 200.69 544.023 199.527 543.355 198.44L543.354 198.44C541.892 196.066 540.719 193.681 540.991 190.792L540.991 190.792C541.221 188.36 541.999 186.36 543.278 184.79C544.558 183.219 546.345 182.07 548.606 181.351L548.606 181.351C551.607 180.396 555.238 180.996 558.055 182.879C560.867 184.758 562.86 187.909 562.606 192.058L562.606 192.058C562.364 196.036 560.696 199.101 557.001 200.933C555.211 201.82 553.39 202.806 552.981 205.128L552.981 205.128C552.948 205.313 552.859 205.428 552.741 205.491C552.619 205.557 552.447 205.577 552.239 205.533C552.047 205.489 551.857 205.436 551.663 205.382C551.35 205.29 551.086 205.216 550.863 205.154C550.599 205.081 550.391 205.023 550.225 204.969C550.074 204.919 549.971 204.877 549.901 204.836C549.834 204.795 549.807 204.761 549.793 204.731C549.779 204.697 549.771 204.647 549.78 204.558C549.789 204.469 549.813 204.357 549.848 204.205C549.856 204.172 549.865 204.137 549.873 204.1C549.943 203.809 550.037 203.414 550.113 202.875C550.359 201.134 550.916 199.696 551.821 198.55C552.725 197.403 553.983 196.538 555.646 195.953C555.646 195.953 555.646 195.953 555.646 195.953L555.596 195.811C555.967 195.682 556.311 195.46 556.647 195.244C556.69 195.217 556.733 195.189 556.776 195.162L546.275 203.886ZM557.23 203.868L557.23 203.868C559.88 202.762 562.215 201.202 563.617 198.622C564.64 196.74 565.22 194.832 565.299 193.68C565.439 191.63 565.514 189.542 564.737 187.541C563.176 183.52 560.67 180.485 556.265 179.088C553.637 178.251 551.044 177.807 548.412 178.599L548.412 178.599C545.405 179.505 542.991 180.943 541.267 182.958C539.542 184.974 538.516 187.557 538.269 190.736C538.031 193.778 538.834 196.608 540.685 199.101L540.685 199.101C540.996 199.52 541.187 199.923 541.262 200.344C541.338 200.765 541.3 201.215 541.136 201.731C540.815 202.742 540.813 203.567 541.184 204.22C541.554 204.871 542.272 205.314 543.301 205.611L543.301 205.611C546.15 206.432 549.01 207.223 551.87 208.001C552.874 208.274 553.669 208.28 554.289 207.928C554.91 207.576 555.318 206.89 555.605 205.879L555.605 205.879C555.871 204.937 556.383 204.22 557.23 203.868Z" fill="#72AD56" stroke="#72AD56" stroke-width="0.3"/>
<g clip-path="url(#clip11_694_5793)">
<path d="M749.149 118.271C747.472 119.57 746.21 119.521 744.289 118.118C740.918 115.656 736.819 115.19 732.644 116.057C732.157 116.161 731.673 116.406 731.194 116.384C729.975 116.344 729.254 115.701 728.995 114.478C728.74 113.296 729.37 112.957 730.33 112.543C734.625 110.692 736.655 107.15 735.887 103.412C735.34 100.73 732.326 97.7568 729.156 97.763C725.252 97.7689 722.216 99.813 721.321 103.235C721.117 104.01 721.007 104.829 720.969 105.634C720.898 106.986 720.274 107.935 718.902 107.888C717.571 107.837 716.755 106.818 716.848 105.549C717.136 101.657 718.123 98.0131 721.803 95.8101C726.104 93.2366 730.518 92.7269 734.972 95.4365C739.318 98.0795 741.355 104.245 739.33 108.935C738.563 110.711 738.1 111.876 740.817 112.256C743.684 112.657 746.154 114.239 748.508 115.879L749.147 118.265L749.149 118.271Z" fill="#72AD56"/>
<path d="M724.206 135.161C728.811 135.953 732.904 137.726 736.19 141.048C736.537 141.396 736.907 141.726 737.226 142.096C738.037 143.021 737.777 143.974 737.062 144.764C736.263 145.651 735.296 145.577 734.406 144.844C733.199 143.848 732.109 142.699 730.818 141.827C721.632 135.674 707.794 139.878 704.608 152.019C704.142 153.789 703.234 154.604 701.749 154.288C700.04 153.93 700.351 152.323 700.649 151.053C701.711 146.485 704.282 142.784 707.791 139.43C703.587 136.987 700.278 133.76 699.371 128.992C698.607 124.988 699.611 121.149 702.049 117.722C705.71 112.58 714.708 110.91 720.58 114.354C727.258 118.269 728.616 125.847 724.196 135.15L724.206 135.161ZM722.753 123.95C721.96 118.71 716.661 115.302 710.541 116.827C706.1 117.928 702.087 122.961 703.474 128.702C704.712 133.809 710.427 137.357 715.697 135.864C721.497 134.221 724.621 128.203 722.755 123.957L722.753 123.95Z" fill="#72AD56"/>
<path d="M682.176 117.413C683.213 121.256 686.926 123.715 691.052 123.024C692.353 122.805 693.334 122.957 693.572 124.103C693.816 125.296 693.432 126.602 691.9 126.958C686.897 128.115 683.736 131.328 681.694 135.826C681.172 136.979 680.443 137.766 679.006 137.015C677.658 136.316 677.264 135.204 677.988 133.984C679.432 131.536 680.592 128.744 682.963 127.089C684.733 125.853 683.718 125.628 682.738 125.068C681.279 124.235 680.138 122.95 679.33 121.623C675.906 115.993 677.551 107.196 685.937 104.575C690.542 103.137 695.459 104.757 698.553 108.517C699.286 109.408 699.486 110.409 699.751 111.426C700.013 112.403 699.349 112.975 698.605 113.372C697.884 113.755 697.156 113.678 696.61 112.974C696.315 112.591 695.992 112.229 695.74 111.827C693.098 107.578 687.258 106.968 683.76 110.618C681.893 112.566 681.396 114.862 682.184 117.418L682.176 117.413Z" fill="#72AD56"/>
</g>
<g clip-path="url(#clip12_694_5793)">
<path d="M45.4198 464.143L43.9944 463.499L56.877 434.992C57.0478 434.614 57.0615 434.183 56.915 433.795C56.7684 433.407 56.4738 433.093 56.0957 432.922L46.1182 428.413C45.7402 428.243 45.3098 428.229 44.9217 428.375C44.5336 428.522 44.2196 428.817 44.0487 429.195L40.8281 436.321L32.276 432.457C31.8979 432.286 31.4675 432.272 31.0794 432.419C30.6913 432.565 30.3773 432.86 30.2065 433.238L26.9858 440.365L19.859 437.144C19.481 436.973 19.0506 436.96 18.6625 437.106C18.2744 437.253 17.9604 437.547 17.7895 437.925L12.6365 449.328L11.2112 448.684C10.8331 448.513 10.4027 448.5 10.0146 448.646C9.62652 448.793 9.31251 449.087 9.14168 449.465C8.97084 449.843 8.95718 450.274 9.10369 450.662C9.2502 451.05 9.54488 451.364 9.92291 451.535L44.1315 466.994C44.5095 467.165 44.9399 467.178 45.328 467.032C45.7161 466.885 46.0302 466.591 46.201 466.213C46.3718 465.835 46.3855 465.404 46.239 465.016C46.0925 464.628 45.7978 464.314 45.4198 464.143ZM46.2553 431.908L53.3821 435.129L41.1437 462.211L34.0169 458.99L46.2553 431.908ZM32.4131 435.952L39.5398 439.172L31.1662 457.702L24.0394 454.481L32.4131 435.952ZM19.9961 440.639L25.6976 443.215L21.1887 453.193L15.4872 450.616L19.9961 440.639Z" fill="#72AD56"/>
</g>
<path d="M74.1698 660.219L37.3475 640.845C36.4597 640.378 35.4227 640.283 34.4646 640.58C33.5065 640.878 32.7059 641.544 32.2388 642.431L16.3876 672.559C15.9205 673.447 15.8252 674.484 16.1227 675.442C16.4202 676.4 17.0861 677.2 17.9739 677.668L20.7753 679.141C21.092 679.308 21.4496 679.382 21.8064 679.353C22.1632 679.325 22.5046 679.196 22.791 678.981C24.509 677.691 26.558 676.915 28.6996 676.744C30.8412 676.572 32.9875 677.012 34.8888 678.013C36.7902 679.013 38.3685 680.533 39.4402 682.395C40.5119 684.257 41.0329 686.385 40.9428 688.532C40.928 688.889 41.015 689.244 41.1938 689.554C41.3725 689.864 41.6355 690.117 41.9523 690.283L54.7962 697.041C55.684 697.508 56.721 697.604 57.6791 697.306C58.6372 697.009 59.4378 696.343 59.9049 695.455L75.7561 665.328C76.2232 664.44 76.3185 663.403 76.021 662.445C75.7235 661.487 75.0576 660.686 74.1698 660.219ZM34.2682 667.007C34.7907 666.014 35.5959 665.198 36.5821 664.663C37.5683 664.127 38.6911 663.896 39.8086 663.999C40.9261 664.101 41.988 664.533 42.8601 665.239C43.7322 665.946 44.3752 666.895 44.708 667.966C45.0408 669.038 45.0483 670.184 44.7295 671.26C44.4108 672.336 43.7802 673.294 42.9174 674.011C42.0546 674.729 40.9984 675.174 39.8824 675.292C38.7664 675.409 37.6406 675.193 36.6475 674.67C35.3158 673.969 34.317 672.768 33.8708 671.331C33.4246 669.894 33.5675 668.339 34.2682 667.007ZM56.5575 693.694L44.722 687.467C44.5886 684.328 43.4876 681.308 41.5699 678.82C43.4304 678.358 45.1068 677.342 46.3767 675.906C47.6466 674.47 48.4502 672.682 48.6808 670.779C48.9114 668.876 48.5582 666.948 47.668 665.25C46.7778 663.553 45.3927 662.166 43.6962 661.273C41.9997 660.38 40.072 660.025 38.1687 660.252C36.2654 660.48 34.4762 661.281 33.0385 662.549C31.6007 663.817 30.5823 665.492 30.1181 667.352C29.654 669.212 29.7661 671.169 30.4395 672.964C27.3029 672.793 24.1902 673.596 21.5281 675.263L19.7351 674.32L35.5862 644.193L72.4086 663.566L56.5575 693.694ZM34.5306 654.323L36.2919 650.975C36.5254 650.531 36.9258 650.198 37.4048 650.05C37.8838 649.901 38.4023 649.948 38.8462 650.182L65.6261 664.272C66.07 664.505 66.403 664.906 66.5517 665.385C66.7004 665.864 66.6528 666.382 66.4192 666.826L55.8518 686.911C55.6183 687.355 55.2179 687.688 54.7389 687.837C54.2599 687.986 53.7414 687.938 53.2975 687.704L49.95 685.943C49.5061 685.71 49.1731 685.309 49.0244 684.83C48.8757 684.351 48.9233 683.833 49.1569 683.389C49.3904 682.945 49.7907 682.612 50.2698 682.463C50.7488 682.314 51.2673 682.362 51.7112 682.596L53.385 683.476L62.1911 666.739L38.7587 654.41L37.8781 656.084C37.6446 656.528 37.2442 656.861 36.7652 657.009C36.2862 657.158 35.7677 657.111 35.3238 656.877C34.8799 656.643 34.5469 656.243 34.3982 655.764C34.2494 655.285 34.2971 654.767 34.5306 654.323Z" fill="#72AD56"/>
<path d="M1106.92 431.938C1106.92 432.324 1106.77 432.695 1106.5 432.969C1106.22 433.242 1105.85 433.396 1105.46 433.396H1093.8C1093.41 433.396 1093.04 433.242 1092.77 432.969C1092.5 432.695 1092.34 432.324 1092.34 431.938C1092.34 431.551 1092.5 431.18 1092.77 430.907C1093.04 430.633 1093.41 430.48 1093.8 430.48H1105.46C1105.85 430.48 1106.22 430.633 1106.5 430.907C1106.77 431.18 1106.92 431.551 1106.92 431.938ZM1105.46 436.311H1093.8C1093.41 436.311 1093.04 436.465 1092.77 436.739C1092.5 437.012 1092.34 437.383 1092.34 437.769C1092.34 438.156 1092.5 438.527 1092.77 438.8C1093.04 439.074 1093.41 439.227 1093.8 439.227H1105.46C1105.85 439.227 1106.22 439.074 1106.5 438.8C1106.77 438.527 1106.92 438.156 1106.92 437.769C1106.92 437.383 1106.77 437.012 1106.5 436.739C1106.22 436.465 1105.85 436.311 1105.46 436.311ZM1118.59 434.854C1118.59 438.126 1117.74 441.342 1116.13 444.19C1114.52 447.038 1112.2 449.421 1109.39 451.106C1106.59 452.79 1103.39 453.72 1100.12 453.805C1096.85 453.889 1093.61 453.125 1090.72 451.587L1084.52 453.655C1084.01 453.827 1083.45 453.852 1082.93 453.727C1082.4 453.603 1081.92 453.334 1081.54 452.951C1081.15 452.568 1080.88 452.086 1080.76 451.559C1080.63 451.032 1080.66 450.481 1080.83 449.967L1082.9 443.762C1081.55 441.22 1080.79 438.403 1080.69 435.526C1080.59 432.649 1081.15 429.786 1082.32 427.156C1083.49 424.526 1085.24 422.196 1087.45 420.345C1089.65 418.494 1092.25 417.17 1095.04 416.472C1097.84 415.775 1100.75 415.723 1103.57 416.321C1106.38 416.919 1109.03 418.15 1111.3 419.922C1113.57 421.694 1115.4 423.959 1116.66 426.546C1117.93 429.134 1118.58 431.975 1118.59 434.854ZM1115.67 434.854C1115.67 432.394 1115.1 429.967 1114.01 427.761C1112.93 425.555 1111.34 423.629 1109.39 422.132C1107.44 420.635 1105.17 419.607 1102.76 419.128C1100.34 418.649 1097.85 418.731 1095.48 419.369C1093.1 420.006 1090.9 421.182 1089.05 422.805C1087.21 424.428 1085.75 426.454 1084.81 428.727C1083.87 431 1083.47 433.459 1083.63 435.914C1083.79 438.369 1084.52 440.753 1085.75 442.883C1085.85 443.062 1085.92 443.261 1085.94 443.466C1085.96 443.672 1085.93 443.879 1085.87 444.075L1083.6 450.891L1090.41 448.618C1090.56 448.568 1090.72 448.542 1090.87 448.542C1091.13 448.542 1091.38 448.61 1091.6 448.739C1094.04 450.149 1096.81 450.893 1099.62 450.894C1102.44 450.896 1105.21 450.156 1107.65 448.749C1110.09 447.341 1112.11 445.316 1113.52 442.877C1114.93 440.437 1115.67 437.67 1115.67 434.854Z" fill="#72AD56"/>
</g>
<defs>
<clipPath id="clip0_694_5793">
<rect width="45.7809" height="45.7809" fill="white" transform="translate(994.133 89.6855) rotate(23.9336)"/>
</clipPath>
<clipPath id="clip1_694_5793">
<rect width="52.1176" height="52.1176" fill="white" transform="translate(127.273 323.209) rotate(-19.2636)"/>
</clipPath>
<clipPath id="clip2_694_5793">
<rect width="42.3412" height="42.3412" fill="white" transform="translate(185.805 54.2129) rotate(69.4618)"/>
</clipPath>
<clipPath id="clip3_694_5793">
<rect width="43.9108" height="43.9108" fill="white" transform="translate(59.9297 229.553) rotate(-178.373)"/>
</clipPath>
<clipPath id="clip4_694_5793">
<rect width="32.2466" height="32.2466" fill="white" transform="translate(195.906 580.068) rotate(-137.82)"/>
</clipPath>
<clipPath id="clip5_694_5793">
<rect width="43.9108" height="43.9108" fill="white" transform="translate(1108.52 282.564) rotate(-140.351)"/>
</clipPath>
<clipPath id="clip6_694_5793">
<rect width="43" height="36" fill="white" transform="translate(317.047 655.803) rotate(90)"/>
</clipPath>
<clipPath id="clip7_694_5793">
<rect width="47.4356" height="40.3202" fill="white" transform="translate(713.367 611.635) rotate(17.9399)"/>
</clipPath>
<clipPath id="clip8_694_5793">
<rect width="43.7023" height="42.9739" fill="white" transform="translate(907.57 660.303) rotate(-17.7319)"/>
</clipPath>
<clipPath id="clip9_694_5793">
<rect width="51.7898" height="51.7898" fill="white" transform="translate(988.703 311.088) rotate(31.0007)"/>
</clipPath>
<clipPath id="clip10_694_5793">
<rect width="44" height="44" fill="white" transform="translate(856 190.088)"/>
</clipPath>
<clipPath id="clip11_694_5793">
<rect width="73.5068" height="52.4235" fill="white" transform="translate(670.484 108.709) rotate(-15)"/>
</clipPath>
<clipPath id="clip12_694_5793">
<rect width="50.0526" height="50.0526" fill="white" transform="translate(21.6094 410.475) rotate(24.3185)"/>
</clipPath>
</defs>
</svg>
